<svg width="841" height="648" viewBox="0 0 841 648" fill="none" xmlns="http://www.w3.org/2000/svg">
<path d="M267.711 286.988C270.161 273.138 273.291 259.358 274.861 245.408C276.551 230.438 279.491 215.708 281.581 200.828C284.921 176.998 289.331 153.328 292.701 129.488C294.531 116.538 296.991 103.628 298.981 90.6683C301.621 73.4883 304.391 56.3183 306.731 39.0883C307.521 33.2583 308.911 29.7383 315.931 30.7783C341.671 34.5883 367.551 36.7183 393.591 36.4983C407.471 36.3783 421.361 36.5583 435.241 36.4683C467.921 36.2483 499.461 30.4783 529.751 17.7583C539.631 13.6083 549.491 8.87832 561.121 6.77832C557.791 27.0983 554.491 46.5283 551.461 65.9983C549.151 80.8483 547.661 95.8383 544.961 110.608C542.641 123.278 540.721 135.998 538.741 148.718C535.171 171.568 531.561 194.418 527.911 217.258C525.541 232.098 523.031 246.908 520.661 261.748C517.801 279.638 514.971 297.538 512.251 315.448C511.611 319.678 509.901 321.638 505.271 321.628C432.261 321.438 359.251 321.398 286.251 321.328C280.131 309.858 275.731 297.438 267.711 286.988ZM454.531 128.908C459.811 128.908 463.621 128.668 467.401 128.948C484.031 130.188 500.661 131.478 517.271 132.978C521.681 133.378 523.821 131.848 524.851 127.578C526.751 119.678 529.011 111.858 531.121 103.998C533.871 93.7483 533.371 93.2683 522.861 92.6683C519.281 92.4683 517.681 94.3283 516.061 96.7983C512.781 101.808 509.431 106.768 506.191 111.798C504.511 114.418 502.651 115.988 499.161 115.388C475.701 111.318 452.261 107.058 428.711 103.548C413.061 101.218 397.211 102.598 381.451 102.858C378.651 102.908 376.141 104.548 375.381 107.198C374.501 110.268 377.071 111.798 379.421 113.168C385.491 116.718 392.291 118.128 398.921 120.108C405.271 121.998 412.301 121.618 418.011 125.588C430.571 134.318 443.521 142.568 455.461 152.088C462.261 157.508 468.591 156.418 476.631 155.148C469.131 146.248 462.271 138.098 454.531 128.908ZM453.481 253.958C434.041 236.888 417.491 233.338 395.631 239.198C390.641 240.538 390.161 239.808 390.021 235.238C389.641 223.018 380.741 213.378 371.421 215.438C364.051 217.068 355.391 218.168 350.731 224.328C342.781 234.848 332.951 240.238 320.141 241.678C315.991 242.148 313.651 246.048 314.191 250.298C314.811 255.198 319.111 253.908 322.231 253.918C354.991 253.988 387.761 253.958 420.521 253.958C430.991 253.958 441.461 253.958 453.481 253.958Z" fill="#C1E9F4"/>
<path d="M33.8011 312.978C33.3611 305.198 36.031 297.828 37.611 290.458C43.441 263.398 43.7811 236.688 37.8111 209.528C32.7011 186.278 27.6311 163.058 27.7111 138.788C27.8611 94.6685 49.6311 64.5985 85.4111 42.3785C100.291 33.1385 116.471 26.3185 133.241 22.7585C156.261 17.8685 179.801 16.5685 203.601 18.5485C223.541 20.2085 243.401 22.2485 263.221 24.8885C275.241 26.4885 287.291 27.8785 299.331 29.2485C303.111 29.6785 304.451 31.7685 303.531 35.1585C298.231 54.7985 297.001 75.1385 293.131 95.0385C289.171 115.378 286.911 136.038 283.771 156.538C281.571 170.908 279.121 185.239 276.871 199.609C273.391 221.749 270.031 243.898 266.511 266.028C265.841 270.268 264.651 274.418 263.701 278.608C262.161 278.378 261.621 277.318 260.791 276.038C255.881 268.358 252.451 259.759 246.491 252.739C235.881 236.389 221.961 223.048 207.751 209.998C206.821 209.148 205.041 209.228 203.661 208.868C200.861 207.118 198.061 205.359 195.271 203.609C190.401 202.289 187.981 197.958 184.541 194.868C185.961 188.158 187.371 181.448 188.791 174.748C193.791 170.258 197.221 164.479 203.591 160.959C211.421 156.629 210.621 152.749 202.531 148.079C203.771 145.279 205.161 142.518 206.231 139.658C211.291 126.178 210.551 123.338 199.941 114.808C203.501 114.568 207.071 114.138 210.631 114.128C229.531 114.068 248.441 114.118 267.341 114.098C269.191 114.098 271.751 114.738 272.471 112.618C273.301 110.188 270.361 109.859 269.001 108.799C257.301 99.6985 244.661 97.1885 231.071 104.158C226.901 106.298 225.371 105.108 223.941 100.978C219.041 86.7885 203.561 83.0085 194.121 94.9185C188.311 102.238 181.171 103.348 173.781 105.728C170.391 106.538 167.211 105.268 163.951 104.778C153.801 103.248 147.421 108.188 146.091 118.438C145.471 123.188 146.751 127.418 149.081 131.448C149.631 137.218 146.841 142.449 146.311 147.979C145.371 157.878 145.901 167.479 150.981 176.769C153.491 181.359 154.901 186.069 160.391 187.769C159.911 189.399 160.511 191.389 158.801 192.609C158.051 198.599 151.541 199.248 148.851 203.438C146.271 203.638 143.661 203.479 141.191 204.609C123.001 212.899 115.681 228.919 111.181 246.949C110.731 247.079 110.011 247.068 109.861 247.368C101.531 263.328 92.321 278.788 82.491 293.838C76.121 303.598 69.7611 313.558 58.8011 319.078C58.1911 319.518 57.581 319.968 56.971 320.408L57.1311 320.548C49.1111 318.758 39.5311 321.868 33.8011 312.978Z" fill="#C1E9F4"/>
<path d="M541.421 321.678C534.721 321.628 528.021 321.428 521.331 321.588C517.511 321.678 516.311 320.078 516.441 316.438C516.711 308.988 518.761 301.828 519.861 294.528C524.931 260.578 531.021 226.788 536.371 192.878C541.051 163.208 545.611 133.518 550.581 103.898C555.121 76.8684 558.611 49.6684 562.591 22.5484C563.351 17.3584 565.491 12.5084 565.641 7.10842C565.741 3.50842 569.671 3.33844 572.291 2.77844C586.801 -0.301563 601.171 -1.07158 616.071 1.74842C637.071 5.72842 658.251 8.45843 678.421 16.1784C707.681 27.3884 734.121 42.2684 750.561 70.4184C758.251 83.5784 762.461 98.0384 763.451 113.238C765.421 143.388 760.451 172.668 752.611 201.708C744.851 230.438 743.911 259.038 756.731 287.098C760.861 296.138 763.721 305.828 768.001 314.868C770.481 320.098 768.791 321.658 763.381 321.608C748.311 321.478 733.241 321.668 718.161 321.728C704.581 309.718 691.061 297.658 677.401 285.748C673.681 282.498 670.661 278.268 665.681 276.628C665.581 275.928 665.701 275.078 665.341 274.538C657.871 263.158 653.791 250.198 648.091 237.998C645.301 232.008 644.981 223.978 637.441 220.788C633.671 219.258 629.921 220.668 626.171 220.908C624.851 220.488 623.471 219.588 622.221 219.738C615.581 220.538 613.551 217.688 614.071 211.238C614.581 204.878 614.081 198.438 614.021 192.028L614.551 192.118C624.631 192.118 634.721 192.118 645.371 192.118C644.041 188.168 642.031 186.638 639.741 185.428C636.921 183.938 634.341 182.298 634.101 178.668C638.131 174.138 639.351 168.568 639.691 162.778C640.191 154.158 640.061 145.498 638.331 137.028C637.321 132.078 638.621 129.698 643.521 128.158C647.471 126.918 651.921 125.078 652.281 119.818C652.651 114.288 644.541 106.298 637.581 105.018C630.561 103.718 623.331 107.478 622.191 114.458C621.261 120.198 618.351 120.318 614.051 120.158C603.751 119.778 593.541 120.668 583.491 123.048C572.231 125.708 568.011 130.178 567.391 141.648C567.061 147.808 568.001 154.028 568.371 160.228C568.971 166.618 562.191 168.238 560.241 172.848C557.951 178.258 554.951 181.198 548.511 180.758C544.611 180.488 542.351 183.748 542.311 187.978C542.271 193.088 546.041 191.958 548.931 191.988C556.801 192.068 564.671 191.998 572.551 191.978C575.311 198.878 580.391 203.828 587.231 205.868C591.841 207.248 592.561 209.868 592.681 213.598C592.761 215.978 592.651 218.368 592.631 220.748C588.801 221.788 584.971 222.828 581.141 223.878C576.081 229.828 572.831 236.888 569.081 243.648C564.941 251.098 563.261 258.988 565.241 267.448C564.851 267.588 564.451 267.618 564.051 267.528C562.061 268.138 562.811 269.808 562.641 271.128C558.421 289.168 553.911 307.108 541.421 321.678ZM699.711 96.9684C695.851 93.0084 691.881 94.4984 688.551 93.2884C673.681 87.8584 658.131 87.3184 642.661 88.7684C637.671 89.2384 635.871 88.1584 633.261 84.2784C627.321 75.4084 617.921 73.8684 608.341 75.8584C600.161 77.5584 595.781 83.7284 593.871 91.8984C592.991 95.6484 593.341 97.0484 597.571 97.0284C631.301 96.9184 665.031 96.9684 699.711 96.9684Z" fill="#C1E9F4"/>
<path d="M820.981 620.158C826.401 621.748 832.251 621.918 837.201 625.088C838.581 625.968 840.561 626.408 840.521 628.438C840.481 630.638 838.751 631.978 836.921 632.438C828.411 634.588 819.951 637.378 811.291 638.368C785.281 641.328 759.161 642.968 733.031 644.688C679.281 648.228 625.521 647.198 571.771 646.878C550.131 646.748 528.381 645.528 506.771 643.968C481.931 642.168 456.941 640.678 432.441 635.508C429.441 634.878 426.551 633.658 423.641 632.638C420.951 631.688 422.671 629.988 423.031 628.538C427.771 622.198 429.021 609.808 425.401 605.138C425.961 601.898 426.521 598.648 427.081 595.408C455.091 594.508 482.901 597.278 510.741 599.678C510.691 604.358 506.411 604.958 503.611 606.658C496.981 610.678 490.071 614.228 483.271 617.958C480.571 618.868 477.841 619.678 475.191 620.718C473.401 621.418 470.611 621.168 471.081 624.508C471.471 627.298 473.471 627.778 475.681 628.088C482.511 629.078 489.421 629.678 496.151 631.158C501.371 632.308 505.911 632.438 509.751 628.188C510.571 627.278 511.681 626.438 512.861 627.008C514.131 627.618 513.911 629.018 513.581 630.168C513.021 632.128 512.691 633.878 515.091 634.958C517.691 636.128 519.051 634.698 520.331 632.788C522.571 629.428 525.221 626.288 526.981 622.698C528.711 619.158 529.121 615.268 525.151 612.468C525.291 609.158 525.441 605.838 525.581 602.528C526.771 602.498 527.951 602.468 529.141 602.448C533.431 604.088 539.251 602.908 541.671 607.918C543.361 611.428 545.811 611.248 548.671 611.208C557.951 611.108 567.231 610.228 576.451 610.038C609.151 609.378 641.881 609.788 674.601 609.738C677.291 609.738 679.811 610.128 682.211 611.318C680.201 612.758 678.681 614.118 680.241 617.068C681.771 619.948 683.761 618.788 685.741 618.338C692.451 616.818 698.471 612.988 705.461 612.398C716.281 610.828 727.091 613.488 737.911 612.548C742.771 613.668 747.621 614.788 752.481 615.898C751.431 621.738 754.881 624.988 759.591 626.588C765.031 628.428 769.341 626.118 772.111 621.058C779.671 619.948 786.461 623.798 793.741 624.488C794.181 631.068 797.981 634.448 804.251 634.118C810.571 633.778 813.841 629.828 813.711 623.338C816.141 622.278 818.561 621.218 820.981 620.158Z" fill="#D2EBF7"/>
<path d="M395.831 627.108C369.771 626.038 343.951 622.518 319.941 612.288C312.361 609.058 305.631 606.278 297.551 606.828C295.501 606.968 293.431 606.248 293.311 609.828C293.211 612.808 290.131 613.468 287.621 614.468C276.841 618.758 265.341 619.938 254.091 621.018C210.821 625.158 167.391 626.628 123.951 625.418C91.1412 624.508 58.2612 624.178 25.6812 618.768C18.0612 617.498 10.8311 615.608 3.61112 613.218C2.07112 612.708 0.22115 611.998 0.0211503 610.078C-0.23885 607.608 1.95118 606.818 3.68118 606.298C11.4012 603.988 18.9512 600.728 27.2912 601.398C24.7912 605.218 27.0612 606.958 30.3212 608.048C35.6712 609.838 41.2811 610.238 46.8511 610.768C47.7611 610.828 48.6712 610.878 49.5912 610.938C57.4012 611.258 65.2111 611.418 73.0011 611.958C79.4311 612.408 79.1412 606.948 80.4612 603.408C81.8612 599.648 77.9812 600.288 76.0912 599.988C72.8412 599.478 73.9411 597.278 74.2511 595.708C75.2811 590.478 73.5312 586.998 68.4312 585.318C68.3012 576.728 72.3012 569.028 73.7112 560.768C78.5712 566.948 83.6811 572.848 91.0211 576.248C89.2711 580.658 87.6511 585.128 85.7411 589.468C83.5211 594.538 85.6512 595.258 90.3412 595.448C106.111 596.108 121.741 593.358 137.481 593.928C152.711 594.478 167.951 593.128 183.211 595.058C190.891 596.028 200.131 598.128 206.461 594.268C217.501 587.538 229.411 587.508 241.151 585.128C251.941 582.938 263.131 585.618 273.701 581.858C277.211 582.538 277.921 584.418 276.201 587.488C274.301 590.858 271.901 593.708 268.811 596.088C265.761 598.438 259.501 599.778 260.811 603.818C262.141 607.938 268.231 606.348 272.371 606.538C274.031 606.618 275.711 606.548 277.361 606.358C282.941 605.698 286.461 602.888 286.851 596.938C291.351 593.078 291.461 586.678 295.221 582.388C310.471 582.418 325.751 581.738 340.941 583.838C341.311 589.628 343.531 594.258 349.801 594.978C355.571 595.648 359.201 592.528 360.591 586.858C367.941 588.538 375.741 588.458 382.501 592.478C383.231 599.828 386.971 603.808 392.731 603.368C399.091 602.878 402.031 598.188 401.271 589.728C401.681 589.688 402.091 589.608 402.491 589.488C406.051 588.668 407.831 592.508 410.981 592.738C410.711 597.438 410.441 602.138 410.171 606.848C407.711 607.258 407.121 609.098 407.451 611.088C408.501 617.388 404.841 620.738 400.101 623.538C398.491 624.488 396.581 625.118 395.831 627.108Z" fill="#D2EBF7"/>
<path d="M92.2911 466.318C90.3711 466.008 89.9511 464.618 89.8811 462.958C92.8011 452.158 95.9912 441.428 98.5812 430.548C102.841 412.658 108.791 395.198 112.051 377.058C115.711 370.518 115.901 362.868 118.761 356.068C129.231 361.378 140.371 364.458 151.931 366.138C146.261 365.568 143.901 367.708 144.331 373.798C144.691 379.018 144.961 384.208 145.911 389.368C146.381 391.938 147.431 394.298 150.031 394.498C152.781 394.718 153.921 392.228 154.611 389.828C155.861 385.498 157.251 381.218 157.501 376.638C157.841 370.428 160.071 366.228 167.541 367.638C170.241 368.148 173.121 367.718 175.921 367.718C175.891 367.338 175.861 366.958 175.831 366.588C174.901 366.458 173.961 366.328 173.031 366.198C183.211 364.578 193.231 362.258 203.141 359.438C203.501 368.518 206.971 377.238 206.251 386.448C206.251 392.698 206.251 398.948 206.261 405.198C203.511 392.568 200.751 379.938 198.001 367.308C196.561 371.198 199.591 376.768 191.301 375.498C194.111 378.308 198.501 377.368 199.121 382.058C202.051 404.158 207.681 425.848 207.511 448.458C207.471 453.488 208.301 459.708 210.151 466.228C212.091 463.838 212.241 461.368 214.621 461.338C214.791 462.308 214.961 463.278 215.141 464.248C215.141 467.198 213.571 468.778 210.951 470.028C203.461 473.588 195.641 475.928 187.501 477.328C181.941 473.308 181.001 466.378 177.321 461.168C170.641 445.058 163.951 428.948 157.271 412.838C150.141 409.888 142.201 409.718 134.101 404.178C135.701 408.458 140.441 409.978 135.701 412.818C133.601 414.078 135.651 415.838 136.801 416.818C140.971 420.338 140.391 424.418 139.221 429.148C136.551 439.918 132.591 450.408 131.841 461.608L131.981 461.548C127.731 462.418 128.741 466.398 127.971 469.018C126.751 473.178 124.601 475.018 120.341 474.288C110.981 471.638 101.641 468.978 92.2911 466.318Z" fill="#A54C39"/>
<path d="M112.051 377.048C108.801 395.188 102.851 412.658 98.5813 430.548C95.9913 441.428 92.8012 452.158 89.8812 462.958C75.7112 461.578 64.4413 454.038 54.3413 444.948C36.3813 428.798 29.6712 407.368 26.4912 384.058C25.0312 373.408 26.6013 363.198 27.1613 352.798C29.5113 356.778 31.9913 360.688 34.1813 364.758C35.7313 367.628 37.6112 369.068 40.8712 367.628C44.7512 373.898 49.1612 374.318 54.2312 368.958C55.1712 367.968 56.4412 367.108 57.7212 366.628C63.8712 364.328 63.6213 360.808 59.8213 356.488C63.2413 353.738 60.4013 351.508 59.2113 349.148C61.0413 342.098 67.0112 339.188 72.5112 335.818C82.4612 335.868 92.4112 335.908 102.361 335.958C102.161 338.538 101.881 341.108 101.781 343.698C101.331 356.008 102.471 367.838 112.051 377.048Z" fill="#C1E9F4"/>
<path d="M292.111 335.068C336.071 334.548 380.031 334.408 423.991 335.138C413.301 349.148 411.741 365.868 410.551 382.508C409.521 396.848 409.941 396.878 424.631 398.298C429.171 400.318 434.001 399.058 438.671 399.518C444.391 407.448 443.231 410.288 433.891 411.258C432.761 411.378 431.491 411.228 431.011 412.678C423.671 414.458 415.831 413.288 408.731 416.508C404.211 416.618 399.701 416.818 395.181 416.818C391.921 416.818 388.261 418.078 385.551 415.548C378.021 408.518 370.091 401.858 363.961 393.448C363.331 391.448 362.711 389.448 362.081 387.448C354.861 364.558 333.031 359.358 316.771 376.648C313.171 376.248 308.631 374.638 307.571 372.348C301.941 360.138 295.591 348.178 292.111 335.068Z" fill="#C1E9F4"/>
<path d="M820.981 620.158C818.561 621.218 816.131 622.278 813.711 623.338C808.231 623.598 803.001 626.188 797.381 625.118C800.711 622.418 798.291 619.078 797.761 616.448C790.561 580.468 782.801 544.598 775.761 508.588C772.981 494.358 768.591 480.398 767.951 465.758C779.031 462.628 790.011 462.218 800.811 466.938C800.811 466.938 801.071 467.198 801.061 467.198C801.461 467.578 801.851 467.968 802.251 468.348C807.211 473.168 810.271 479.088 811.661 485.788C818.661 519.578 825.331 553.438 832.631 587.168C835.611 600.968 831.971 611.688 820.981 620.158ZM819.281 609.438C822.021 607.508 821.231 605.138 820.861 603.278C812.361 560.738 803.741 518.208 795.161 475.688C794.831 474.028 794.601 471.898 792.491 472.138C790.071 472.418 790.841 474.628 791.151 476.168C794.091 490.888 797.101 505.588 800.071 520.308C804.691 543.208 809.001 566.178 814.101 588.968C815.601 595.658 815.451 602.998 819.281 609.438Z" fill="#CE3C63"/>
<path d="M731.811 336.509C745.051 333.029 758.551 334.699 771.881 335.209C776.711 335.399 776.591 342.069 777.331 345.899C783.421 377.369 776.231 405.089 752.931 427.819C750.411 430.279 747.241 432.079 744.371 434.189C742.731 428.509 740.751 422.909 739.531 417.139C736.881 404.649 731.981 392.669 730.991 379.809C733.001 379.139 734.971 378.319 737.021 377.819C743.561 376.219 745.021 372.569 743.901 365.839C742.111 354.969 736.771 345.889 731.811 336.509Z" fill="#C1E9F4"/>
<path d="M424.631 398.299C409.951 396.879 409.521 396.849 410.551 382.509C411.751 365.869 413.301 349.149 423.991 335.139C437.211 322.609 462.131 322.539 479.071 334.979C480.231 337.569 481.661 340.079 482.521 342.759C486.871 356.359 487.461 370.459 487.581 384.579C487.681 395.879 487.621 395.949 476.851 397.249C472.831 397.739 468.771 397.838 464.731 398.108C462.771 397.638 460.371 398.828 458.901 396.538C465.491 391.888 470.381 385.159 477.721 381.359C480.141 380.109 481.061 377.368 480.531 374.478C480.091 372.038 477.721 371.269 476.191 371.489C467.841 372.679 468.901 367.169 468.931 362.029C468.951 359.529 469.681 356.879 467.971 353.779C456.271 361.239 443.751 360.139 431.521 356.179C424.671 353.959 423.541 357.029 423.351 362.259C422.891 374.559 423.751 386.629 431.001 397.239C428.891 398.859 426.621 397.649 424.631 398.299Z" fill="#B88253"/>
<path d="M292.111 335.068C295.591 348.178 301.941 360.139 307.571 372.339C308.631 374.639 313.171 376.238 316.771 376.638C314.881 380.398 312.991 384.158 311.101 387.918C309.171 387.788 307.061 388.038 306.611 390.128C305.361 395.918 303.021 393.109 300.681 391.099C301.991 388.239 299.961 386.769 298.241 385.159C293.291 375.139 288.681 364.928 283.251 355.178C279.651 348.708 277.651 341.288 272.211 335.878C269.741 326.928 264.741 319.548 258.151 313.168C257.691 310.338 255.271 308.978 253.601 307.048C244.521 296.558 235.431 286.088 226.341 275.608C234.971 269.668 239.481 260.088 246.501 252.708C252.461 259.738 255.881 268.328 260.801 276.008C261.621 277.298 262.161 278.358 263.711 278.578C264.051 281.858 265.861 284.428 267.731 286.978C275.751 297.428 280.151 309.848 286.291 321.318C287.221 326.328 288.811 331.068 292.111 335.068Z" fill="#F4B088"/>
<path d="M92.291 466.318C101.641 468.978 110.981 471.648 120.331 474.308C120.601 474.698 120.881 475.088 121.161 475.478C116.721 495.778 113.801 516.408 105.691 535.828C100.171 549.038 95.881 562.758 91.041 576.248C83.701 572.858 78.591 566.958 73.731 560.768C79.261 534.898 84.841 509.038 90.271 483.148C91.421 477.628 93.051 472.098 92.291 466.318Z" fill="#E79B75"/>
<path d="M731.811 336.508C736.771 345.888 742.111 354.968 743.901 365.838C745.011 372.568 743.561 376.218 737.021 377.818C734.971 378.318 733.001 379.138 731.001 379.798C730.181 380.168 729.351 380.548 728.521 380.928C726.341 375.048 723.741 369.298 717.661 366.608C712.771 364.438 709.781 360.778 707.181 356.388C702.811 349.008 698.051 341.858 693.811 334.408C692.011 331.238 688.611 328.678 689.171 324.368C690.271 323.908 691.341 323.308 692.481 323.018C699.141 321.338 697.661 318.918 693.501 315.508C687.061 310.218 680.931 304.548 674.671 299.038C671.541 291.618 666.891 284.818 665.661 276.628C670.651 278.268 673.661 282.498 677.381 285.748C691.041 297.658 704.571 309.728 718.141 321.728C722.711 326.658 727.261 331.578 731.811 336.508Z" fill="#903B2D"/>
<path d="M541.421 321.678C553.901 307.098 558.421 289.158 562.641 271.108C563.111 269.908 563.581 268.708 564.051 267.498C564.461 267.588 564.851 267.568 565.241 267.418C569.001 276.098 572.641 284.528 571.151 294.668C569.341 306.958 568.781 319.238 557.731 327.798C555.331 329.648 552.721 332.228 551.881 335.678C545.271 344.568 532.331 349.798 536.531 364.898C537.811 369.508 534.171 370.708 529.461 367.498C529.451 365.528 529.301 362.698 527.281 362.718C520.971 362.768 520.381 357.468 517.991 353.798C523.451 348.048 529.151 342.468 532.121 334.848C536.021 331.028 538.561 326.238 541.421 321.678Z" fill="#E79B75"/>
<path d="M464.741 398.108C468.781 397.828 472.841 397.728 476.861 397.248C487.631 395.948 487.681 395.878 487.591 384.578C487.471 370.448 486.881 356.358 482.531 342.758C481.671 340.068 480.251 337.558 479.081 334.978C486.971 334.898 494.851 334.848 502.741 334.718C506.981 334.648 509.021 335.238 508.261 340.828C506.301 355.208 502.521 369.348 502.171 383.948C498.761 390.428 495.891 397.238 488.931 401.048C484.881 403.268 481.111 406.018 477.221 408.528C476.261 404.568 473.801 403.958 470.381 405.428C467.161 406.808 463.931 408.168 460.701 409.538C457.061 402.568 457.821 400.398 464.741 398.108Z" fill="#C1E9F4"/>
<path d="M477.211 408.528C481.101 406.018 484.871 403.268 488.921 401.048C495.881 397.238 498.751 390.418 502.161 383.948C505.661 381.228 506.501 376.748 509.071 373.418C511.571 372.958 515.161 375.128 516.211 371.188C516.781 369.068 518.861 366.578 517.171 364.578C515.261 362.318 512.511 363.278 510.141 364.568C509.911 360.778 504.231 356.628 510.861 353.278C513.231 353.448 515.601 353.618 517.971 353.798C520.361 357.468 520.951 362.768 527.261 362.718C529.271 362.708 529.421 365.538 529.441 367.498C524.261 371.178 521.841 376.708 519.311 382.258C513.901 394.168 511.121 407.538 500.681 416.718C498.071 416.518 496.961 418.908 495.081 419.968C490.951 424.088 483.831 425.758 483.971 433.468C483.971 433.578 482.681 433.708 481.991 433.828C484.061 424.708 478.411 417.048 477.211 408.528Z" fill="#F4B088"/>
<path d="M46.8512 610.768C41.2812 610.238 35.6713 609.838 30.3213 608.048C27.0613 606.958 24.7913 605.218 27.2913 601.398C33.5313 597.808 40.4113 595.968 47.1913 593.758C52.6713 591.968 59.6713 593.288 63.0813 586.408C63.5813 585.398 66.5913 585.648 68.4413 585.318C73.5413 586.998 75.3013 590.478 74.2613 595.708C73.9513 597.278 72.8512 599.468 76.1012 599.988C77.9812 600.288 81.8712 599.648 80.4712 603.408C79.1512 606.948 79.4313 612.408 73.0113 611.958C65.2213 611.418 57.4012 611.258 49.6012 610.938C48.7512 609.758 47.8412 609.578 46.8512 610.768ZM71.7513 608.198C59.1513 606.838 46.4513 607.568 33.8913 605.788C46.3713 608.728 58.9213 610.668 71.7513 608.198Z" fill="#060505"/>
<path d="M59.2112 349.148C60.4012 351.508 63.2512 353.738 59.8212 356.488C53.2312 359.748 46.7111 363.108 40.8611 367.628C37.6011 369.068 35.7212 367.628 34.1712 364.758C31.9712 360.688 29.5011 356.778 27.1511 352.798C25.0011 348.818 23.1811 344.588 20.6011 340.918C17.7711 336.898 18.1512 334.158 22.4412 331.908C24.7512 330.698 26.9811 329.268 29.3911 328.308C34.3911 326.328 38.0812 321.398 44.0912 321.708C44.6112 323.038 45.1311 324.358 45.6611 325.688C43.8411 326.118 42.0312 326.678 40.1812 326.958C37.6512 327.348 34.1412 326.838 34.5812 330.698C34.9112 333.648 37.8412 334.428 40.6712 334.648C43.0012 334.838 47.0511 333.698 47.3811 335.488C48.7011 342.658 55.2812 344.648 59.2112 349.148ZM37.0411 350.508C41.9911 351.168 44.6212 348.028 44.9312 344.168C45.3012 339.618 41.9712 336.438 37.4412 336.408C33.2812 336.378 30.0312 339.188 30.1912 343.588C30.3212 347.458 31.8711 351.238 37.0411 350.508Z" fill="#D8372B"/>
<path d="M728.521 380.928C729.351 380.548 730.171 380.168 731.001 379.798C731.991 392.668 736.891 404.648 739.541 417.138C740.761 422.908 742.741 428.508 744.381 434.188C745.701 442.018 747.511 449.718 750.291 457.168C750.081 460.148 751.331 462.768 752.291 465.468C752.331 466.178 752.391 466.878 752.401 467.588C752.441 469.368 755.001 471.908 751.301 472.618C748.611 473.128 747.751 470.908 747.151 468.758C746.521 466.518 745.891 464.278 745.261 462.038C745.041 460.278 745.301 458.358 743.671 457.048C743.011 451.038 741.411 445.278 739.251 439.658C735.131 423.358 731.001 407.058 726.881 390.748C728.881 387.718 729.331 384.438 728.521 380.928Z" fill="#060505"/>
<path d="M395.831 627.108C396.581 625.108 398.491 624.478 400.101 623.528C404.831 620.728 408.501 617.378 407.451 611.078C407.121 609.088 407.711 607.248 410.171 606.838C415.291 606.558 420.741 609.288 425.431 605.128C429.051 609.798 427.791 622.188 423.061 628.528C416.141 628.408 409.211 628.278 402.281 628.158C401.591 627.988 400.911 627.818 400.221 627.638C398.761 627.468 397.301 627.288 395.831 627.108Z" fill="#E85978"/>
<path d="M752.281 465.468C751.321 462.778 750.071 460.148 750.281 457.168C762.091 457.208 774.001 455.828 785.641 458.748C791.291 460.168 797.251 461.428 800.801 466.948C790.001 462.228 779.021 462.638 767.941 465.768C762.731 465.668 757.501 465.568 752.281 465.468Z" fill="#F4B088"/>
<path d="M44.0912 321.708C38.0812 321.398 34.3911 326.328 29.3911 328.308C26.9811 329.268 24.7512 330.688 22.4412 331.908C16.2112 322.588 16.2611 322.658 26.1711 316.018C28.5611 314.418 30.6211 312.408 33.8011 312.978C39.5311 321.868 49.1111 318.758 57.1311 320.518C56.6111 320.918 56.1012 321.318 55.5812 321.718C51.7512 321.718 47.9212 321.708 44.0912 321.708Z" fill="#D2EBF7"/>
<path d="M517.981 353.788C515.611 353.618 513.241 353.448 510.871 353.268C511.041 334.858 511.721 334.268 532.111 334.828C529.141 342.458 523.441 348.038 517.981 353.788Z" fill="#C1E9F4"/>
<path d="M510.151 364.568C512.521 363.278 515.261 362.318 517.181 364.578C518.871 366.568 516.781 369.068 516.221 371.188C515.171 375.128 511.581 372.958 509.081 373.418C508.961 372.418 508.821 371.408 508.681 370.408C508.841 369.498 509.011 368.588 509.171 367.678C509.501 366.638 509.821 365.598 510.151 364.568Z" fill="#E79B75"/>
<path d="M509.171 367.678C509.001 368.588 508.841 369.499 508.681 370.409C507.931 369.329 508.121 368.428 509.171 367.678Z" fill="#F4B088"/>
<path d="M802.251 468.358C801.851 467.968 801.451 467.588 801.061 467.208C801.461 467.588 801.851 467.978 802.251 468.358Z" fill="#F4B088"/>
<path d="M400.221 627.648C400.901 627.818 401.591 627.998 402.281 628.168C401.591 627.988 400.911 627.818 400.221 627.648Z" fill="#D2EBF7"/>
<path d="M454.531 128.908C462.271 138.108 469.131 146.248 476.641 155.168C468.591 156.428 462.271 157.528 455.471 152.108C443.531 142.588 430.581 134.328 418.021 125.608C412.311 121.638 405.281 122.008 398.931 120.128C392.291 118.158 385.501 116.738 379.431 113.188C377.081 111.818 374.511 110.288 375.391 107.218C376.151 104.578 378.661 102.928 381.461 102.878C397.221 102.608 413.071 101.228 428.721 103.568C452.271 107.078 475.711 111.338 499.171 115.408C502.661 116.018 504.521 114.438 506.201 111.818C509.441 106.788 512.791 101.828 516.071 96.8184C517.691 94.3484 519.291 92.4884 522.871 92.6884C533.391 93.2784 533.881 93.7685 531.131 104.018C529.021 111.868 526.761 119.688 524.861 127.598C523.831 131.858 521.691 133.388 517.281 132.998C500.671 131.488 484.041 130.208 467.411 128.968C463.621 128.668 459.811 128.908 454.531 128.908Z" fill="#72ADC1"/>
<path d="M453.481 253.958C441.461 253.958 430.991 253.958 420.521 253.958C387.761 253.958 354.991 253.988 322.231 253.918C319.111 253.908 314.811 255.198 314.191 250.298C313.651 246.048 315.991 242.148 320.141 241.678C332.951 240.238 342.771 234.858 350.731 224.328C355.391 218.168 364.051 217.068 371.421 215.438C380.741 213.368 389.641 223.018 390.021 235.238C390.161 239.808 390.651 240.538 395.631 239.198C417.491 233.338 434.051 236.888 453.481 253.958Z" fill="#FDFEFE"/>
<path d="M246.491 252.718C239.481 260.088 234.961 269.678 226.331 275.618C221.101 273.688 218.431 268.738 214.361 265.438C213.211 264.498 212.161 262.698 210.541 263.328C209.131 263.878 209.281 265.698 209.291 267.158C209.401 285.288 209.481 303.418 209.581 321.548C209.571 326.308 209.551 331.068 209.541 335.828C209.441 341.278 209.041 346.748 209.331 352.178C209.591 356.928 207.881 359.318 203.131 359.458C193.221 362.268 183.201 364.588 173.021 366.218C165.991 366.198 158.961 366.168 151.931 366.148C140.371 364.468 129.231 361.388 118.761 356.078C117.371 353.688 113.071 353.498 113.571 349.818C115.071 338.698 113.691 327.208 122.391 317.508C131.781 307.038 139.551 295.098 147.981 283.758C166.551 258.798 185.101 233.828 203.651 208.858C205.031 209.218 206.811 209.138 207.741 209.988C221.971 223.028 235.881 236.368 246.491 252.718Z" fill="#D8372B"/>
<path d="M111.191 246.918C115.691 228.878 123.001 212.868 141.201 204.578C143.681 203.448 146.281 203.608 148.861 203.408C148.991 210.598 150.201 217.638 151.311 224.728C152.071 229.588 153.271 230.718 157.421 227.648C161.761 224.438 165.601 225.018 168.741 229.678C169.771 231.208 171.261 232.418 172.541 233.778C155.251 258.038 137.001 281.588 118.781 305.138C117.481 304.188 117.401 302.748 117.251 301.328C122.391 295.378 118.861 288.288 119.821 281.778C120.761 276.118 118.811 270.098 121.261 264.728C123.881 258.978 121.361 256.208 116.461 254.308C113.051 252.978 110.681 250.998 111.191 246.918Z" fill="#D8372B"/>
<path d="M160.401 187.728C154.911 186.028 153.501 181.318 150.991 176.728C145.911 167.438 145.381 157.828 146.321 147.938C146.851 142.408 149.641 137.178 149.091 131.408C151.091 125.058 154.251 121.838 160.731 126.848C161.391 127.358 162.581 127.138 163.511 127.338C172.011 129.198 180.571 128.288 189.121 127.928C197.201 127.588 197.951 128.338 196.631 136.038C195.851 140.578 195.041 145.108 194.201 149.848C197.471 149.148 200.001 148.608 202.541 148.068C210.631 152.738 211.431 156.618 203.601 160.948C197.231 164.468 193.801 170.248 188.801 174.738C185.801 175.178 185.291 178.348 183.241 179.868C176.441 184.898 169.851 190.448 160.401 187.728ZM175.921 168.818C170.241 170.158 164.921 173.278 158.791 172.478C165.531 176.258 171.151 174.248 176.171 169.028C177.371 167.678 180.811 167.968 179.421 164.788C179.131 164.128 177.731 163.338 177.141 163.528C174.021 164.538 177.031 167.178 175.921 168.818Z" fill="#F4B088"/>
<path d="M111.191 246.918C110.691 250.998 113.051 252.978 116.451 254.298C121.351 256.208 123.881 258.978 121.251 264.718C118.801 270.098 120.751 276.108 119.811 281.768C117.321 282.708 117.201 285.338 115.961 287.178C107.711 298.938 99.4911 310.708 88.6711 320.328C82.9411 325.128 77.121 329.828 72.511 335.808C67.021 339.188 61.0411 342.088 59.2111 349.148C55.2711 344.648 48.701 342.648 47.371 335.488C47.041 333.698 42.9911 334.838 40.6611 334.648C37.8411 334.418 34.9111 333.648 34.5711 330.698C34.1311 326.838 37.6411 327.348 40.1711 326.958C42.0211 326.678 43.8211 326.118 45.6511 325.688C49.8211 326.538 52.9111 324.648 55.5811 321.718C56.1011 321.318 56.611 320.918 57.131 320.518L56.971 320.378C57.581 319.938 58.1911 319.488 58.8011 319.048C69.7611 313.528 76.121 303.568 82.491 293.808C92.321 278.748 101.531 263.298 109.861 247.338C110.021 247.038 110.731 247.048 111.191 246.918Z" fill="#E79B75"/>
<path d="M118.771 305.138C137.001 281.588 155.241 258.038 172.531 233.778C180.111 223.718 187.681 213.648 195.261 203.588C198.061 205.338 200.861 207.098 203.651 208.848C185.091 233.818 166.551 258.788 147.981 283.748C139.551 295.078 131.781 307.028 122.391 317.498C113.691 327.198 115.061 338.688 113.571 349.808C113.071 353.488 117.371 353.678 118.761 356.068C115.901 362.868 115.721 370.518 112.051 377.058C102.471 367.838 101.331 356.008 101.771 343.698C101.861 341.118 102.151 338.538 102.351 335.958C104.031 331.318 103.571 326.098 106.241 321.728C110.421 316.198 114.591 310.668 118.771 305.138Z" fill="#060505"/>
<path d="M202.541 148.048C200.011 148.588 197.471 149.128 194.201 149.828C195.031 145.088 195.841 140.558 196.631 136.018C197.961 128.328 197.201 127.578 189.121 127.908C180.581 128.268 172.011 129.178 163.511 127.318C162.581 127.118 161.391 127.338 160.731 126.828C154.251 121.828 151.081 125.048 149.091 131.388C146.771 127.358 145.481 123.138 146.101 118.378C147.431 108.128 153.811 103.188 163.961 104.718C167.221 105.208 170.401 106.488 173.791 105.668C182.511 108.698 191.231 111.728 199.941 114.758C210.551 123.288 211.301 126.128 206.231 139.608C205.161 142.498 203.781 145.248 202.541 148.048Z" fill="#903B2D"/>
<path d="M195.271 203.588C187.691 213.658 180.111 223.718 172.541 233.778C171.261 232.418 169.771 231.208 168.741 229.678C165.611 225.018 161.771 224.438 157.421 227.648C153.281 230.708 152.081 229.578 151.311 224.728C150.201 217.638 148.991 210.598 148.861 203.408C151.551 199.218 158.061 198.558 158.811 192.568C160.431 202.028 162.051 211.488 163.901 222.238C172.511 212.988 176.501 202.358 184.541 194.858C187.981 197.928 190.401 202.268 195.271 203.588Z" fill="#FDFEFE"/>
<path d="M184.541 194.848C176.491 202.358 172.511 212.978 163.901 222.228C162.061 211.478 160.441 202.018 158.811 192.558C160.521 191.338 159.921 189.348 160.401 187.718C169.851 190.438 176.441 184.888 183.231 179.848C185.281 178.328 185.791 175.168 188.791 174.718C187.381 181.428 185.961 188.138 184.541 194.848Z" fill="#E79B75"/>
<path d="M58.8013 319.048C58.1913 319.488 57.5812 319.938 56.9712 320.378C57.5812 319.938 58.1913 319.488 58.8013 319.048Z" fill="#D2EBF7"/>
<path d="M581.141 223.858C584.971 222.818 588.801 221.768 592.631 220.728C592.941 221.108 593.341 221.368 593.831 221.478C593.871 224.768 593.681 228.108 595.601 231.048C597.531 246.758 602.551 261.668 607.731 276.488C611.951 288.548 615.901 300.768 622.491 311.848C623.081 315.538 624.991 318.628 626.991 321.678C628.411 325.928 630.571 329.788 633.051 333.498C633.281 333.878 633.501 334.268 633.731 334.648L634.091 335.078C638.241 345.008 638.261 345.048 647.601 341.168C652.621 339.078 657.571 336.818 662.551 334.638C664.071 334.098 665.591 333.558 667.101 333.018C676.541 345.548 685.611 358.398 697.091 369.238C699.521 371.538 698.951 373.208 696.521 374.958C693.241 377.318 691.471 380.098 694.681 383.858C694.771 387.898 698.261 391.188 697.251 395.478C679.431 403.518 661.601 411.548 643.781 419.588C637.271 420.618 634.641 415.698 631.731 411.478C625.431 402.338 621.741 392.338 619.171 381.358C617.271 373.248 617.671 365.408 616.981 357.448C616.621 353.268 619.581 351.138 622.941 350.768C630.711 349.898 629.051 346.718 625.391 342.688C624.271 341.458 623.551 339.958 622.641 338.628C619.521 334.098 618.901 328.098 614.291 324.508C614.281 324.028 614.411 323.488 614.231 323.088C599.211 291.338 589.331 257.878 581.141 223.858Z" fill="#722F26"/>
<path d="M694.691 383.848C691.481 380.088 693.251 377.308 696.531 374.948C698.961 373.198 699.541 371.528 697.101 369.228C685.621 358.398 676.561 345.548 667.111 333.008C665.361 328.388 662.691 324.308 659.781 320.368C653.171 308.238 646.741 296.008 639.841 284.048C638.171 281.148 638.171 277.028 634.361 275.478C634.281 271.168 631.641 267.868 629.541 264.558C624.971 257.358 623.021 250.188 625.511 241.608C627.841 233.568 632.231 227.008 637.441 220.778C644.981 223.968 645.291 231.998 648.091 237.988C653.791 250.188 657.871 263.148 665.341 274.528C665.691 275.068 665.581 275.908 665.681 276.618C666.901 284.808 671.561 291.608 674.691 299.028C677.431 308.668 681.971 317.278 689.181 324.358C688.621 328.668 692.011 331.228 693.821 334.398C698.051 341.848 702.821 348.998 707.191 356.378C709.791 360.768 712.781 364.428 717.671 366.598C723.751 369.288 726.351 375.038 728.531 380.918C729.351 384.418 728.891 387.708 726.871 390.728C722.491 393.268 717.831 395.168 712.971 392.758C711.041 391.798 709.361 390.738 707.171 390.818C703.341 387.878 700.941 382.418 694.691 383.848Z" fill="#F4B088"/>
<path d="M568.391 160.208C568.021 154.018 567.081 147.788 567.411 141.628C568.031 130.148 572.251 125.688 583.511 123.028C593.561 120.658 603.771 119.758 614.071 120.138C618.371 120.298 621.281 120.178 622.211 114.438C623.341 107.458 630.581 103.708 637.601 104.998C644.561 106.288 652.671 114.268 652.301 119.798C651.951 125.068 647.491 126.908 643.541 128.138C638.641 129.678 637.341 132.058 638.351 137.008C640.071 145.478 640.211 154.138 639.711 162.758C639.371 168.548 638.161 174.118 634.121 178.648C633.681 178.678 633.261 178.598 632.861 178.388C633.821 173.608 631.331 171.578 627.021 171.578C623.551 171.578 621.961 169.958 620.861 166.858C618.471 160.098 614.941 153.628 613.441 146.698C612.021 140.128 609.381 140.348 604.221 142.088C598.841 143.898 593.131 144.968 587.471 145.688C572.801 147.568 572.791 147.418 570.361 161.848C569.701 161.308 569.041 160.758 568.391 160.208Z" fill="#903B2D"/>
<path d="M581.141 223.858C589.331 257.888 599.211 291.348 614.231 323.078C614.421 323.468 614.281 324.018 614.291 324.498C603.371 324.158 592.451 323.808 581.531 323.478C568.361 323.068 568.361 323.068 564.011 335.228C563.931 335.448 563.961 335.698 563.941 335.938C559.921 335.858 555.891 335.768 551.871 335.688C552.711 332.238 555.331 329.658 557.731 327.808C568.791 319.248 569.351 306.968 571.151 294.678C572.641 284.538 569.001 276.108 565.241 267.428C563.261 258.968 564.941 251.078 569.081 243.628C572.831 236.868 576.081 229.808 581.141 223.858Z" fill="#FDFEFE"/>
<path d="M570.351 161.858C572.771 147.438 572.791 147.578 587.461 145.698C593.111 144.978 598.821 143.908 604.211 142.098C609.371 140.358 612.011 140.138 613.431 146.708C614.931 153.638 618.461 160.108 620.851 166.868C621.951 169.968 623.531 171.598 627.011 171.588C631.321 171.588 633.811 173.618 632.851 178.398C631.971 182.138 628.801 184.438 627.111 187.668C626.891 184.968 626.651 182.128 623.051 182.018C619.131 181.898 618.481 184.698 618.401 187.828C616.901 189.058 614.011 189.028 614.561 192.108L614.031 192.018C611.231 194.148 608.711 196.908 605.581 198.298C595.181 202.898 592.261 210.958 593.831 221.478C593.351 221.358 592.951 221.108 592.641 220.718C592.661 218.338 592.771 215.948 592.691 213.568C592.571 209.838 591.851 207.218 587.241 205.838C580.401 203.798 575.321 198.848 572.561 191.948C569.011 182.128 569.271 172.028 570.351 161.858ZM593.521 183.538C589.631 184.688 585.731 185.758 581.881 187.018C580.721 187.398 579.751 188.528 580.491 189.838C582.041 192.588 584.041 195.038 587.211 195.938C589.871 196.698 592.111 195.368 593.291 193.198C594.741 190.538 597.071 188.028 596.491 184.658C596.231 183.138 594.671 183.498 593.521 183.538Z" fill="#F4B088"/>
<path d="M637.441 220.788C632.231 227.018 627.841 233.578 625.511 241.618C623.021 250.198 624.971 257.378 629.541 264.568C631.641 267.878 634.281 271.178 634.361 275.488C628.961 287.138 624.511 299.088 622.481 311.848C615.881 300.768 611.941 288.548 607.721 276.488C602.531 261.668 597.511 246.758 595.591 231.048C606.941 231.188 616.541 225.998 626.161 220.908C629.931 220.668 633.671 219.258 637.441 220.788Z" fill="#FDFEFE"/>
<path d="M699.711 96.9684C665.041 96.9684 631.311 96.9184 597.571 97.0384C593.341 97.0484 592.991 95.6484 593.871 91.9084C595.791 83.7384 600.161 77.5584 608.341 75.8684C617.921 73.8784 627.321 75.4184 633.261 84.2884C635.861 88.1784 637.671 89.2484 642.661 88.7784C658.131 87.3284 673.681 87.8584 688.551 93.2984C691.881 94.4984 695.851 92.9984 699.711 96.9684Z" fill="#FDFEFE"/>
<path d="M626.171 220.908C616.541 226.008 606.951 231.188 595.601 231.048C593.681 228.108 593.871 224.768 593.831 221.478C592.261 210.958 595.171 202.898 605.571 198.298C608.701 196.918 611.221 194.148 614.021 192.018C614.081 198.428 614.581 204.868 614.071 211.228C613.551 217.678 615.581 220.538 622.221 219.728C623.481 219.588 624.851 220.488 626.171 220.908Z" fill="#E79B75"/>
<path d="M570.351 161.858C569.271 172.028 569.011 182.138 572.551 191.968C564.681 191.978 556.811 192.058 548.931 191.978C546.051 191.948 542.271 193.078 542.311 187.968C542.351 183.738 544.611 180.488 548.511 180.748C554.951 181.188 557.951 178.248 560.241 172.838C562.191 168.228 568.971 166.608 568.371 160.218C569.041 160.758 569.701 161.308 570.351 161.858Z" fill="#D2EBF7"/>
<path d="M614.561 192.108C614.021 189.038 616.901 189.058 618.401 187.828C621.361 191.148 624.281 191.808 627.111 187.668C628.801 184.438 631.971 182.128 632.851 178.398C633.251 178.598 633.671 178.678 634.111 178.648C634.351 182.278 636.931 183.918 639.751 185.408C642.041 186.618 644.061 188.148 645.381 192.098C634.731 192.108 624.641 192.108 614.561 192.108Z" fill="#D2EBF7"/>
<path d="M564.051 267.498C563.581 268.698 563.111 269.908 562.641 271.108C562.811 269.778 562.071 268.108 564.051 267.498Z" fill="#FDFEFE"/>
<path d="M682.221 611.328C679.821 610.128 677.301 609.738 674.611 609.748C641.891 609.798 609.171 609.378 576.461 610.048C567.241 610.238 557.961 611.108 548.681 611.218C545.821 611.248 543.371 611.428 541.681 607.928C539.261 602.928 533.441 604.098 529.151 602.458C530.781 597.228 532.411 591.998 534.041 586.768C537.811 586.718 541.581 586.728 545.351 586.608C547.691 586.538 549.741 585.278 550.211 583.148C550.831 580.338 547.791 580.778 546.311 580.188C543.281 578.978 540.171 577.718 536.761 578.028C542.531 557.498 549.151 537.248 556.921 517.398C561.511 505.668 564.111 493.598 565.601 481.168C566.341 475.028 565.551 468.628 568.281 462.778C583.991 456.558 599.601 450.048 615.871 445.378C619.031 455.628 620.511 466.838 625.651 475.968C645.011 510.368 665.631 544.058 685.591 578.128C687.691 581.718 689.341 580.638 691.601 578.938C692.421 581.228 694.781 582.708 693.901 585.928C691.991 592.898 690.711 600.048 689.181 607.118C687.721 609.958 684.631 610.078 682.221 611.328Z" fill="#FDFEFE"/>
<path d="M691.601 578.939C689.341 580.639 687.691 581.719 685.591 578.129C665.631 544.059 645.021 510.369 625.651 475.969C620.511 466.839 619.031 455.629 615.871 445.379C610.311 424.879 604.681 404.399 599.231 383.869C598.291 380.319 595.971 380.529 593.251 380.509C590.421 380.499 588.351 380.688 587.511 384.168C581.191 410.398 574.711 436.579 568.281 462.779C565.551 468.629 566.341 475.028 565.601 481.168C564.101 493.608 561.511 505.679 556.921 517.399C549.151 537.239 542.531 557.499 536.761 578.029C535.851 580.939 534.951 583.849 534.041 586.759C532.411 591.989 530.781 597.219 529.151 602.449C527.961 602.479 526.781 602.509 525.591 602.529C521.051 600.369 516.331 598.808 511.331 598.178C510.931 597.928 510.501 597.839 510.041 597.909C509.361 597.449 508.691 596.989 508.011 596.529C507.941 594.119 507.561 591.659 509.261 589.569C510.921 585.429 512.051 581.159 512.311 576.689C513.701 573.409 514.701 570.039 514.821 566.449C516.471 560.699 519.021 555.179 519.061 549.029C525.001 524.189 530.931 499.349 536.871 474.509C537.181 473.879 537.651 473.288 537.791 472.618C543.611 443.268 549.601 413.958 555.111 384.549C558.141 368.358 562.591 352.419 563.971 335.919C563.991 335.679 563.961 335.429 564.041 335.209C568.391 323.059 568.391 323.049 581.561 323.459C592.481 323.799 603.401 324.139 614.321 324.479C618.931 328.079 619.551 334.079 622.671 338.599C623.581 339.919 624.301 341.419 625.421 342.659C629.081 346.679 630.741 349.859 622.971 350.739C619.611 351.119 616.641 353.238 617.011 357.418C617.701 365.368 617.301 373.219 619.201 381.329C621.771 392.309 625.461 402.309 631.761 411.449C634.671 415.679 637.301 420.589 643.811 419.569C644.691 428.259 645.581 436.959 646.461 445.649C646.111 452.409 648.001 458.038 653.141 462.918C657.811 467.358 661.591 472.799 664.081 478.829C675.851 507.409 689.531 535.099 702.431 563.159C703.361 565.189 705.431 567.218 703.051 569.608C699.211 572.718 695.411 575.829 691.601 578.939Z" fill="#205648"/>
<path d="M752.281 465.469C757.501 465.569 762.721 465.669 767.951 465.769C768.591 480.399 772.981 494.359 775.761 508.599C782.801 544.609 790.571 580.479 797.761 616.459C798.281 619.079 800.711 622.418 797.371 625.118C796.161 624.908 794.941 624.708 793.731 624.498C786.451 623.808 779.671 619.958 772.101 621.068C766.051 617.468 758.971 617.789 752.471 615.909C747.611 614.789 742.761 613.668 737.901 612.558C737.571 610.668 737.301 608.779 736.921 606.899C727.601 561.629 718.401 516.338 708.811 471.128C707.381 464.388 708.691 461.288 715.721 461.418C716.261 462.958 717.091 464.458 717.291 466.038C717.661 468.898 719.121 470.798 721.841 469.878C724.691 468.908 722.461 466.358 722.471 464.508C728.581 464.508 734.721 464.168 740.791 464.678C743.461 464.898 744.811 464.758 745.241 462.048C745.871 464.288 746.511 466.529 747.131 468.779C747.731 470.929 748.591 473.149 751.281 472.639C754.991 471.929 752.431 469.398 752.381 467.608C752.381 466.878 752.321 466.179 752.281 465.469Z" fill="#E85978"/>
<path d="M715.731 461.408C708.701 461.278 707.391 464.378 708.821 471.118C718.411 516.328 727.621 561.618 736.931 606.888C737.321 608.758 737.591 610.658 737.911 612.548C727.091 613.488 716.281 610.828 705.461 612.398C711.931 608.578 710.181 599.908 715.491 594.608C716.301 597.368 716.801 599.458 717.541 601.458C718.171 603.158 717.241 606.528 720.611 605.698C723.161 605.068 725.101 603.488 723.981 599.858C721.511 591.868 719.431 583.758 715.101 576.488C713.111 573.138 710.821 570.588 706.491 572.808C704.641 572.498 703.361 571.568 703.021 569.618C705.401 567.228 703.331 565.198 702.401 563.168C689.501 535.108 675.831 507.408 664.051 478.838C661.571 472.818 657.781 467.368 653.111 462.928C647.971 458.048 646.091 452.418 646.431 445.658C648.791 445.768 651.281 445.438 653.501 446.068C673.021 451.618 692.711 454.778 712.991 451.148C713.911 454.568 714.821 457.988 715.731 461.408Z" fill="#FDFEFE"/>
<path d="M425.421 605.138C420.731 609.298 415.281 606.569 410.161 606.849C410.431 602.149 410.701 597.448 410.971 592.738C411.181 589.728 411.391 586.718 411.601 583.708C413.081 569.288 414.671 554.879 414.301 540.349C415.571 521.669 416.831 502.978 418.101 484.298C424.451 485.798 430.941 486.169 437.321 485.279C447.921 483.789 458.441 481.728 469.001 479.918C469.531 480.948 470.071 481.988 470.601 483.018C472.661 495.718 476.061 508.378 476.441 521.128C476.961 538.708 485.461 547.169 501.911 549.349C501.451 553.099 500.991 556.849 500.541 560.599C490.371 559.299 480.221 557.778 470.021 556.818C466.321 556.468 464.661 554.968 463.481 551.668C459.051 539.308 454.401 527.039 449.851 514.719C448.901 512.149 448.041 509.798 444.371 510.768C441.421 511.548 438.671 511.488 438.101 515.858C434.621 542.398 430.801 568.899 427.091 595.409C426.541 598.649 425.981 601.888 425.421 605.138Z" fill="#060505"/>
<path d="M427.101 595.408C430.811 568.898 434.621 542.398 438.111 515.858C438.681 511.488 441.431 511.548 444.381 510.768C448.051 509.798 448.911 512.148 449.861 514.718C454.411 527.028 459.061 539.308 463.491 551.668C464.671 554.968 466.331 556.468 470.031 556.818C480.231 557.778 490.381 559.298 500.551 560.598C499.701 564.278 499.681 567.108 504.941 566.468C508.181 566.078 511.511 566.428 514.811 566.448C514.691 570.038 513.691 573.418 512.301 576.688C499.741 577.138 487.181 577.778 474.621 577.958C469.571 578.028 464.611 578.418 459.911 580.028C457.901 580.718 454.071 579.738 454.111 582.738C454.161 585.908 458.211 585.148 460.361 586.388C460.741 586.608 461.281 586.598 461.751 586.628C477.581 587.568 493.291 590.628 509.251 589.558C507.541 591.648 507.931 594.108 508.001 596.518C508.311 597.528 508.991 597.978 510.031 597.898C510.501 597.828 510.931 597.918 511.321 598.168C511.131 598.668 510.951 599.158 510.761 599.658C482.931 597.278 455.111 594.508 427.101 595.408Z" fill="#FDFEFE"/>
<path d="M706.491 572.808C710.831 570.588 713.111 573.138 715.101 576.488C719.431 583.758 721.501 591.868 723.981 599.858C725.101 603.488 723.171 605.068 720.611 605.698C717.231 606.528 718.171 603.158 717.541 601.458C716.801 599.458 716.301 597.368 715.491 594.608C710.191 599.908 711.931 608.588 705.461 612.398C698.471 612.988 692.451 616.818 685.741 618.338C683.761 618.788 681.781 619.948 680.241 617.068C678.671 614.128 680.201 612.768 682.211 611.318C684.621 610.068 687.711 609.948 689.171 607.118C701.921 599.228 705.521 586.688 706.491 572.808Z" fill="#D8372B"/>
<path d="M525.161 612.468C529.131 615.268 528.721 619.158 526.991 622.698C525.231 626.288 522.581 629.428 520.341 632.788C519.071 634.698 517.701 636.128 515.101 634.958C512.701 633.878 513.041 632.128 513.591 630.168C513.921 629.008 514.141 627.608 512.871 627.008C511.681 626.438 510.581 627.278 509.761 628.188C505.921 632.438 501.381 632.308 496.161 631.158C489.441 629.678 482.521 629.078 475.691 628.088C473.491 627.768 471.481 627.288 471.091 624.508C470.631 621.158 473.411 621.418 475.201 620.718C477.851 619.678 480.581 618.868 483.281 617.958C493.421 619.978 503.351 620.348 513.081 615.658C516.791 613.868 520.541 611.178 525.161 612.468Z" fill="#D8372B"/>
<path d="M525.161 612.469C520.531 611.179 516.791 613.858 513.091 615.648C503.361 620.348 493.441 619.978 483.291 617.948C490.091 614.208 497.001 610.658 503.631 606.648C506.431 604.948 510.711 604.358 510.761 599.668C510.951 599.168 511.131 598.668 511.321 598.178C516.331 598.808 521.041 600.369 525.581 602.529C525.451 605.839 525.311 609.159 525.161 612.469Z" fill="#E79B75"/>
<path d="M793.741 624.498C794.951 624.698 796.171 624.908 797.381 625.118C803.011 626.188 808.231 623.598 813.711 623.338C813.831 629.838 810.571 633.788 804.251 634.128C797.981 634.458 794.171 631.078 793.741 624.498Z" fill="#060505"/>
<path d="M752.481 615.908C758.981 617.788 766.061 617.468 772.111 621.068C769.341 626.118 765.031 628.438 759.591 626.598C754.891 624.998 751.441 621.748 752.481 615.908Z" fill="#060505"/>
<path d="M91.021 576.248C95.861 562.758 100.161 549.038 105.671 535.828C113.781 516.408 116.701 495.768 121.141 475.478C125.251 476.828 128.451 476.658 129.251 471.288C129.481 469.748 130.681 468.348 131.431 466.878C135.481 467.158 139.451 467.028 143.511 466.328C154.731 464.378 166.031 462.868 177.291 461.188C180.971 466.398 181.911 473.339 187.471 477.349C188.871 479.259 190.101 481.328 191.701 483.048C207.111 499.608 222.491 516.198 238.101 532.578C242.651 537.358 246.551 542.858 252.201 546.538C252.331 549.528 254.791 550.858 256.541 552.698C261.851 558.328 267.141 563.968 272.441 569.608C268.971 574.088 267.441 578.378 273.681 581.868C263.111 585.618 251.931 582.948 241.131 585.138C229.401 587.518 217.481 587.549 206.441 594.279C200.111 598.139 190.871 596.038 183.191 595.068C167.921 593.138 152.691 594.488 137.461 593.938C121.721 593.368 106.091 596.118 90.321 595.458C85.631 595.258 83.5009 594.538 85.7209 589.478C87.6509 585.128 89.281 580.668 91.021 576.248Z" fill="#FDFEFE"/>
<path d="M209.541 335.828C209.551 331.068 209.571 326.308 209.581 321.548C222.841 321.548 236.121 321.178 249.361 321.718C256.101 321.998 259.101 320.058 258.141 313.178C264.731 319.558 269.731 326.938 272.201 335.898C270.531 335.908 268.691 336.388 267.221 335.848C260.941 333.528 259.251 337.008 258.581 342.218C257.451 350.938 256.341 359.678 255.001 368.368C252.831 382.458 250.451 396.519 248.211 410.589C246.611 420.639 245.271 430.738 243.441 440.758C242.591 445.438 244.601 445.908 248.351 445.578C258.751 444.648 268.951 441.978 279.541 442.618C287.071 443.078 294.631 442.828 302.181 442.888C310.891 484.828 319.831 526.718 328.091 568.738C329.721 577.008 332.071 582.579 341.371 582.409C341.221 582.889 341.081 583.378 340.931 583.858C325.741 581.768 310.471 582.439 295.211 582.409C296.271 579.819 297.241 577.188 298.401 574.648C299.121 573.088 299.981 571.718 297.951 570.458C293.831 567.918 290.451 564.008 285.181 563.628C285.381 561.668 284.791 560.058 283.611 558.418C279.381 552.538 275.321 546.539 271.191 540.589C258.001 521.339 246.301 501.059 230.131 483.909C224.531 477.969 217.811 472.558 215.091 464.268C214.921 463.298 214.751 462.328 214.571 461.358C214.501 457.928 214.421 454.498 214.351 451.058C219.601 452.328 224.181 448.418 228.991 448.748C236.621 449.258 238.241 445.018 239.111 439.038C241.501 422.538 243.911 406.049 246.531 389.589C249.001 374.069 251.781 358.598 254.361 343.098C254.831 340.268 256.811 336.188 251.611 336.068C237.621 335.738 223.581 335.868 209.541 335.828Z" fill="#FDFEFE"/>
<path d="M341.391 582.388C332.091 582.558 329.731 576.998 328.111 568.718C319.851 526.698 310.901 484.808 302.201 442.868C304.091 442.658 305.991 442.448 307.881 442.238C310.141 449.948 312.361 457.668 314.681 465.358C315.161 466.958 315.971 468.678 318.121 468.108C320.561 467.458 319.621 465.488 319.261 464.008C317.541 456.888 315.721 449.788 313.931 442.678C321.141 443.168 328.341 443.658 335.551 444.138C337.471 450.988 339.451 457.818 341.301 464.688C342.051 467.458 342.531 471.408 346.011 470.548C349.701 469.638 346.801 466.138 346.381 464.058C345.021 457.328 343.121 450.708 341.431 444.038C346.661 444.518 351.891 444.988 357.111 445.468C358.481 451.028 360.051 456.558 361.191 462.168C369.541 503.298 377.781 544.448 386.171 585.568C386.661 587.948 386.991 591.028 390.511 591.398C388.151 594.078 384.891 590.028 382.501 592.488C375.741 588.468 367.941 588.558 360.591 586.868C354.191 585.368 347.791 583.878 341.391 582.388Z" fill="#9A6236"/>
<path d="M390.511 591.388C386.991 591.008 386.661 587.938 386.171 585.558C377.781 544.438 369.541 503.288 361.191 462.158C360.051 456.548 358.481 451.028 357.111 445.458C365.141 443.138 373.351 442.348 381.671 442.408L381.581 442.428C382.841 444.688 384.961 445.268 387.311 445.398C390.211 445.928 391.191 448.518 392.711 450.498C396.961 456.018 398.091 462.808 400.171 469.208C403.801 493.128 409.741 516.598 414.311 540.338C414.681 554.868 413.091 569.288 411.611 583.698C408.571 585.628 405.531 587.548 402.491 589.478C402.091 589.598 401.691 589.678 401.271 589.718C397.691 590.278 394.101 590.838 390.511 591.388ZM404.621 577.368C405.761 577.168 406.901 576.968 408.041 576.758C399.511 534.638 390.991 492.518 382.461 450.398C381.401 450.608 380.341 450.818 379.271 451.038C387.731 493.138 396.171 535.248 404.621 577.368Z" fill="#B88253"/>
<path d="M285.211 563.618C290.481 563.998 293.861 567.918 297.981 570.448C300.011 571.698 299.141 573.068 298.431 574.638C297.271 577.178 296.291 579.808 295.241 582.398C291.481 586.688 291.361 593.088 286.871 596.948C286.521 596.268 286.171 595.588 285.821 594.908C285.621 595.518 285.411 596.128 285.211 596.738C284.691 597.178 284.171 597.628 283.661 598.068C283.221 598.308 282.321 598.318 283.161 599.148C283.401 598.868 283.641 598.588 283.891 598.298C284.351 597.798 284.821 597.298 285.281 596.798C285.811 596.838 286.341 596.888 286.861 596.928C286.471 602.878 282.941 605.688 277.371 606.348C275.721 606.548 274.041 606.608 272.381 606.528C268.241 606.338 262.151 607.928 260.821 603.808C259.511 599.768 265.771 598.428 268.821 596.078C271.911 593.698 274.321 590.848 276.211 587.478C277.941 584.408 277.221 582.528 273.711 581.848C267.471 578.358 269.001 574.068 272.471 569.588C274.181 568.938 275.841 567.088 277.671 568.068C282.851 570.848 284.011 567.328 285.211 563.618ZM279.351 600.928C278.721 601.138 278.091 601.338 277.461 601.548C277.661 601.808 277.991 602.308 278.041 602.278C278.611 601.988 279.131 601.618 279.671 601.268C280.071 600.998 281.041 600.958 280.111 600.188C280.081 600.158 279.611 600.668 279.351 600.928ZM268.641 603.438C271.001 603.948 272.631 604.798 273.901 602.888C272.291 602.308 270.771 602.338 268.641 603.438Z" fill="#060505"/>
<path d="M390.511 591.388C394.101 590.828 397.681 590.278 401.271 589.728C402.031 598.188 399.091 602.878 392.731 603.368C386.971 603.808 383.231 599.828 382.501 592.478C384.891 590.028 388.161 594.068 390.511 591.388Z" fill="#060505"/>
<path d="M341.391 582.388C347.791 583.878 354.201 585.368 360.601 586.868C359.211 592.538 355.581 595.658 349.811 594.988C343.541 594.268 341.311 589.638 340.951 583.848C341.091 583.358 341.241 582.868 341.391 582.388Z" fill="#060505"/>
<path d="M402.491 589.488C405.531 587.558 408.571 585.638 411.611 583.708C411.401 586.718 411.191 589.728 410.981 592.738C407.831 592.508 406.051 588.668 402.491 589.488Z" fill="#FDFEFE"/>
<path d="M46.8511 610.768C47.8411 609.578 48.7512 609.758 49.5912 610.938C48.6812 610.878 47.7711 610.828 46.8511 610.768Z" fill="#1C4566"/>
<path d="M209.541 335.828C223.581 335.878 237.621 335.738 251.651 336.068C256.851 336.188 254.871 340.268 254.401 343.098C251.821 358.598 249.041 374.068 246.571 389.588C243.951 406.048 241.541 422.538 239.151 439.038C238.281 445.018 236.661 449.258 229.031 448.748C224.231 448.428 219.641 452.328 214.391 451.068C214.001 449.238 213.521 447.418 213.241 445.568C211.561 434.528 211.841 423.238 209.141 412.318C208.991 409.918 208.841 407.508 208.691 405.108C208.591 398.798 207.641 392.598 206.251 386.458C206.971 377.248 203.501 368.528 203.141 359.448C207.891 359.318 209.591 356.928 209.341 352.178C209.041 346.748 209.441 341.278 209.541 335.828Z" fill="#C1E9F4"/>
<path d="M215.131 464.258C217.851 472.548 224.571 477.958 230.171 483.898C246.341 501.048 258.041 521.328 271.221 540.578C269.121 543.188 265.911 542.018 263.281 542.858C259.581 544.048 255.091 542.788 252.221 546.538C246.571 542.858 242.671 537.358 238.121 532.578C222.521 516.198 207.141 499.618 191.721 483.048C190.121 481.328 188.891 479.258 187.491 477.348C195.631 475.948 203.451 473.608 210.941 470.048C213.561 468.788 215.121 467.208 215.131 464.258Z" fill="#E79B75"/>
<path d="M177.311 461.178C166.041 462.858 154.751 464.368 143.531 466.318C139.471 467.028 135.491 467.158 131.441 466.878C131.611 465.108 131.791 463.338 131.961 461.568L131.821 461.628C132.501 460.708 133.461 459.888 133.831 458.848C138.741 445.358 144.021 431.988 148.191 418.268C149.891 412.678 152.221 411.298 157.251 412.858C163.951 428.968 170.631 445.068 177.311 461.178Z" fill="#A9E4FD"/>
<path d="M209.141 412.308C211.851 423.228 211.561 434.508 213.241 445.558C213.521 447.408 214.001 449.228 214.391 451.058C214.461 454.488 214.541 457.918 214.611 461.348C212.231 461.388 212.081 463.858 210.141 466.238C208.291 459.718 207.461 453.488 207.501 448.468C207.671 425.858 202.041 404.168 199.111 382.068C198.491 377.378 194.101 378.328 191.291 375.508C199.571 376.778 196.551 371.208 197.991 367.318C200.741 379.948 203.501 392.578 206.251 405.208L206.241 405.198C205.601 412.488 207.821 419.448 209.141 426.598C209.141 421.828 209.141 417.068 209.141 412.308Z" fill="#903B2D"/>
<path d="M151.931 366.138C158.961 366.158 165.991 366.188 173.021 366.208C173.951 366.338 174.891 366.468 175.821 366.598C175.851 366.978 175.881 367.358 175.911 367.728C173.111 367.728 170.231 368.158 167.531 367.648C160.061 366.228 157.831 370.428 157.491 376.648C157.241 381.238 155.851 385.508 154.601 389.838C153.911 392.238 152.771 394.718 150.021 394.508C147.421 394.308 146.371 391.938 145.901 389.378C144.951 384.218 144.691 379.028 144.321 373.808C143.901 367.698 146.261 365.568 151.931 366.138Z" fill="#903B2D"/>
<path d="M157.261 412.858C152.231 411.298 149.901 412.678 148.201 418.268C144.021 431.978 138.751 445.359 133.841 458.849C133.461 459.879 132.511 460.708 131.831 461.628C132.591 450.428 136.551 439.938 139.221 429.168C140.391 424.438 140.971 420.359 136.801 416.839C135.651 415.869 133.591 414.099 135.701 412.839C140.441 409.999 135.701 408.478 134.101 404.198C142.191 409.738 150.131 409.908 157.261 412.858Z" fill="#903B2D"/>
<path d="M131.961 461.568C131.791 463.338 131.611 465.108 131.441 466.878C130.691 468.338 129.491 469.738 129.261 471.288C128.461 476.658 125.261 476.828 121.151 475.478C120.871 475.088 120.601 474.698 120.321 474.308C124.581 475.038 126.731 473.198 127.951 469.038C128.731 466.418 127.711 462.428 131.961 461.568Z" fill="#903B2D"/>
<path d="M206.251 386.458C207.641 392.598 208.591 398.798 208.691 405.108C207.881 405.138 207.061 405.168 206.251 405.198L206.261 405.208C206.251 398.958 206.251 392.708 206.251 386.458Z" fill="#903B2D"/>
<path d="M106.241 321.728C103.571 326.088 104.031 331.318 102.351 335.958C92.401 335.908 82.451 335.868 72.501 335.818C77.111 329.838 82.941 325.138 88.661 320.338C94.411 322.268 100.391 321.198 106.241 321.728Z" fill="#FDFEFE"/>
<path d="M40.8711 367.638C46.7211 363.118 53.2412 359.758 59.8312 356.498C63.6312 360.818 63.8811 364.338 57.7311 366.638C56.4511 367.118 55.1811 367.968 54.2411 368.968C49.1511 374.318 44.7511 373.908 40.8711 367.638Z" fill="#D2EBF7"/>
<path d="M469.011 479.898C458.461 481.718 447.931 483.778 437.331 485.268C430.941 486.168 424.461 485.788 418.111 484.298C416.011 476.418 418.261 468.498 417.851 460.598C418.211 456.598 418.711 452.598 418.901 448.598C419.391 437.958 419.341 437.948 411.561 433.708C410.671 427.968 410.751 422.068 408.741 416.508C415.831 413.288 423.681 414.458 431.011 412.678C432.591 412.978 434.161 412.838 435.561 414.268C440.951 419.798 446.071 420.438 452.481 416.268C455.431 414.348 457.981 411.808 460.711 409.548C463.931 408.178 467.161 406.818 470.381 405.438C473.801 403.968 476.261 404.568 477.221 408.538C478.411 417.048 484.071 424.718 482.021 433.848C480.501 434.508 479.031 435.548 477.451 435.768C469.221 436.918 468.661 442.228 468.961 449.178C469.401 459.388 470.171 469.658 469.011 479.898ZM444.541 471.118C446.711 466.178 448.301 462.468 449.961 458.778C452.141 453.948 457.831 456.768 462.191 453.148C446.271 450.948 455.941 440.948 456.071 431.608C449.061 441.688 442.661 447.068 432.971 436.408C437.491 445.388 433.181 451.028 427.411 456.648C440.191 456.748 440.191 456.748 444.541 471.118Z" fill="#F4BF3D"/>
<path d="M311.101 387.918C312.991 384.158 314.881 380.398 316.771 376.638C333.021 359.348 354.861 364.548 362.081 387.438C362.711 389.438 363.341 391.438 363.961 393.438C360.771 390.238 357.571 391.148 354.591 393.628C352.191 395.628 351.351 398.958 355.131 399.098C361.351 399.318 361.511 403.548 362.691 407.518C357.021 417.878 349.531 425.608 336.671 425.508C334.841 425.268 333.021 424.618 331.191 425.458C330.071 423.558 328.131 422.738 326.381 421.588C318.961 416.728 318.911 410.848 326.091 404.808C327.311 403.588 328.641 403.128 330.201 404.208C332.301 404.558 334.401 404.988 336.511 405.258C341.331 405.888 344.521 403.728 345.271 399.008C346.171 393.318 343.931 388.508 338.871 385.828C333.941 383.218 332.401 387.938 330.291 390.898C329.501 392.008 329.491 393.708 327.771 394.088C327.031 395.748 325.651 396.488 323.931 396.748C317.871 396.408 314.331 392.388 311.101 387.918Z" fill="#71DBBA"/>
<path d="M424.631 398.298C426.621 397.648 428.891 398.858 431.011 397.238C423.761 386.628 422.901 374.568 423.361 362.258C423.551 357.018 424.691 353.948 431.531 356.178C443.751 360.148 456.271 361.238 467.981 353.778C469.691 356.878 468.961 359.528 468.941 362.028C468.911 367.168 467.851 372.678 476.201 371.488C477.731 371.268 480.101 372.038 480.541 374.478C481.061 377.368 480.151 380.108 477.731 381.358C470.391 385.158 465.501 391.888 458.911 396.538C452.681 401.078 445.901 401.848 438.671 399.518C433.991 399.058 429.171 400.308 424.631 398.298ZM437.791 380.748C435.251 380.418 432.851 379.518 433.191 382.788C433.601 386.708 434.561 390.588 439.551 390.808C444.121 391.008 446.901 386.368 446.531 384.048C445.791 379.348 440.381 381.728 437.791 380.748Z" fill="#F4B088"/>
<path d="M362.691 407.518C361.511 403.548 361.351 399.319 355.131 399.099C351.351 398.969 352.191 395.628 354.591 393.628C357.571 391.148 360.771 390.238 363.961 393.438C370.091 401.848 378.021 408.508 385.551 415.538C388.261 418.068 391.921 416.808 395.181 416.808C399.701 416.808 404.211 416.618 408.731 416.498C410.751 422.048 410.661 427.958 411.551 433.698C410.021 433.418 409.471 431.748 406.831 432.768C394.541 437.518 380.891 433.979 374.351 424.958C370.251 419.299 366.571 413.338 362.691 407.518Z" fill="#F4B088"/>
<path d="M438.671 399.518C445.901 401.848 452.681 401.078 458.911 396.538C460.381 398.828 462.781 397.638 464.741 398.108C457.831 400.388 457.061 402.558 460.701 409.538C457.971 411.798 455.421 414.338 452.471 416.258C446.071 420.428 440.941 419.788 435.551 414.258C434.161 412.828 432.591 412.968 431.001 412.668C431.491 411.228 432.761 411.368 433.891 411.248C443.231 410.278 444.391 407.448 438.671 399.518Z" fill="#E79B75"/>
<path d="M819.281 609.438C815.451 602.998 815.601 595.658 814.101 588.948C809.001 566.158 804.691 543.188 800.071 520.288C797.101 505.578 794.091 490.868 791.151 476.148C790.841 474.618 790.071 472.398 792.491 472.118C794.601 471.878 794.821 474.018 795.161 475.668C803.741 518.198 812.361 560.718 820.861 603.258C821.231 605.138 822.021 607.508 819.281 609.438Z" fill="#E85978"/>
<path d="M307.871 442.228C305.981 442.438 304.081 442.648 302.191 442.868C294.641 442.808 287.071 443.049 279.551 442.599C268.971 441.959 258.761 444.618 248.361 445.558C244.611 445.898 242.601 445.418 243.451 440.738C245.281 430.728 246.621 420.629 248.221 410.569C250.461 396.489 252.841 382.439 255.011 368.349C256.351 359.659 257.461 350.929 258.591 342.199C259.271 336.989 260.951 333.509 267.231 335.829C268.701 336.369 270.541 335.889 272.211 335.879C277.651 341.289 279.651 348.718 283.251 355.178C288.681 364.928 293.281 375.139 298.241 385.159C294.081 385.069 293.081 386.649 294.251 390.849C298.981 407.929 303.361 425.098 307.871 442.228Z" fill="#C1E9F4"/>
<path d="M258.151 313.168C259.111 320.058 256.111 321.988 249.371 321.708C236.131 321.168 222.851 321.548 209.591 321.538C209.501 303.408 209.411 285.278 209.301 267.148C209.291 265.688 209.141 263.858 210.551 263.318C212.171 262.688 213.211 264.488 214.371 265.428C218.441 268.728 221.111 273.678 226.341 275.608C235.431 286.088 244.531 296.558 253.601 307.048C255.261 308.978 257.691 310.338 258.151 313.168Z" fill="#A9E4FD"/>
<path d="M311.101 387.918C314.331 392.388 317.881 396.418 323.941 396.758C324.661 399.438 325.371 402.128 326.091 404.808C318.911 410.838 318.961 416.728 326.381 421.588C328.131 422.738 330.071 423.558 331.191 425.458C332.061 429.178 332.921 432.908 333.791 436.638C326.851 437.428 319.461 434.928 313.041 439.498C308.561 423.458 303.531 407.558 300.671 391.108C303.011 393.128 305.351 395.928 306.601 390.138C307.061 388.038 309.171 387.788 311.101 387.918Z" fill="#A9E4FD"/>
<path d="M300.671 391.098C303.531 407.558 308.561 423.448 313.041 439.488C313.331 440.548 313.631 441.608 313.921 442.668C315.711 449.778 317.531 456.868 319.251 463.998C319.611 465.478 320.551 467.448 318.111 468.098C315.961 468.668 315.151 466.948 314.671 465.348C312.351 457.658 310.131 449.938 307.871 442.228C303.361 425.088 298.981 407.918 294.251 390.848C293.081 386.648 294.081 385.068 298.241 385.158C299.961 386.768 301.991 388.238 300.671 391.098Z" fill="#060505"/>
<path d="M689.181 324.368C681.971 317.298 677.431 308.688 674.691 299.038C680.951 304.548 687.081 310.218 693.521 315.508C697.671 318.918 699.161 321.338 692.501 323.018C691.341 323.308 690.281 323.908 689.181 324.368Z" fill="#A9E4FD"/>
<path d="M563.941 335.928C562.571 352.428 558.121 368.368 555.081 384.558C549.571 413.968 543.581 443.278 537.761 472.628C537.631 473.288 537.161 473.888 536.841 474.518C534.681 471.878 532.091 473.919 530.311 474.589C520.051 478.429 509.131 479.418 498.681 482.368C492.111 484.218 489.071 482.248 490.971 477.048C493.811 469.228 493.271 461.088 494.891 453.188C497.361 441.148 498.811 428.898 500.691 416.738C511.121 407.548 513.901 394.189 519.321 382.279C521.851 376.719 524.271 371.198 529.451 367.518C534.171 370.728 537.801 369.528 536.521 364.918C532.331 349.818 545.271 344.588 551.871 335.698C555.901 335.758 559.921 335.848 563.941 335.928Z" fill="#C1E9F4"/>
<path d="M500.701 416.728C498.821 428.888 497.361 441.138 494.901 453.178C493.281 461.078 493.831 469.218 490.981 477.038C489.091 482.248 492.121 484.208 498.691 482.358C509.151 479.418 520.061 478.428 530.321 474.578C532.101 473.908 534.691 471.878 536.851 474.508C530.911 499.348 524.981 524.188 519.041 549.018C515.171 547.898 511.211 546.998 507.451 545.588C503.531 544.108 502.231 545.808 501.921 549.328C485.471 547.148 476.971 538.688 476.451 521.108C476.071 508.358 472.661 495.698 470.611 482.998C473.241 483.008 475.891 482.868 478.501 483.078C483.341 483.448 486.611 482.898 486.681 476.508C486.751 470.618 488.491 464.758 489.371 458.868C491.321 445.908 493.191 432.938 495.091 419.978C496.971 418.908 498.091 416.518 500.701 416.728Z" fill="#FDFEFE"/>
<path d="M495.101 419.978C493.201 432.938 491.331 445.908 489.381 458.868C488.491 464.758 486.751 470.618 486.691 476.508C486.621 482.898 483.351 483.448 478.511 483.078C475.891 482.878 473.251 483.018 470.621 482.998C470.091 481.968 469.551 480.928 469.021 479.898C470.181 469.658 469.421 459.388 468.971 449.168C468.671 442.228 469.231 436.908 477.461 435.758C479.041 435.538 480.511 434.498 482.031 433.838C482.721 433.718 484.011 433.578 484.011 433.478C483.851 425.768 490.961 424.098 495.101 419.978Z" fill="#C1E9F4"/>
<path d="M71.7511 608.198C58.9111 610.668 46.3711 608.738 33.8911 605.788C46.4511 607.568 59.1511 606.828 71.7511 608.198Z" fill="#1C4566"/>
<path d="M37.0412 350.508C31.8712 351.228 30.3212 347.458 30.1912 343.578C30.0312 339.188 33.2812 336.368 37.4412 336.398C41.9712 336.428 45.3012 339.618 44.9312 344.158C44.6212 348.038 41.9912 351.168 37.0412 350.508Z" fill="#E85978"/>
<path d="M55.5811 321.718C52.9111 324.648 49.831 326.538 45.651 325.688C45.131 324.358 44.6111 323.028 44.0811 321.708C47.9211 321.708 51.7511 321.718 55.5811 321.718Z" fill="#FDFEFE"/>
<path d="M707.151 390.828C709.341 390.748 711.021 391.808 712.951 392.768C717.811 395.178 722.471 393.278 726.851 390.738C730.981 407.038 735.101 423.338 739.221 439.648C731.971 442.018 725.771 446.908 718.221 448.558C713.551 431.158 709.001 413.728 704.131 396.378C703.181 392.968 703.911 391.468 707.151 390.828Z" fill="#A9E4FD"/>
<path d="M718.231 448.558C725.791 446.908 731.981 442.018 739.231 439.648C741.391 445.268 743.001 451.038 743.651 457.038C736.111 457.448 728.321 455.058 721.091 459.008C720.141 455.528 719.181 452.048 718.231 448.558Z" fill="#FDFEFE"/>
<path d="M721.091 459.008C728.331 455.058 736.111 457.448 743.661 457.038C745.291 458.348 745.031 460.268 745.251 462.028C744.821 464.738 743.471 464.888 740.801 464.658C734.731 464.148 728.591 464.488 722.491 464.488C722.021 462.668 721.551 460.838 721.091 459.008Z" fill="#E79B75"/>
<path d="M106.241 321.728C100.391 321.198 94.4111 322.268 88.6711 320.338C99.4911 310.718 107.711 298.938 115.961 287.188C118.551 291.708 116.551 296.638 117.251 301.328C117.401 302.738 117.471 304.188 118.781 305.138C114.591 310.668 110.421 316.198 106.241 321.728Z" fill="#A9E4FD"/>
<path d="M117.251 301.328C116.551 296.638 118.551 291.698 115.961 287.188C117.201 285.358 117.331 282.718 119.821 281.778C118.861 288.278 122.381 295.378 117.251 301.328Z" fill="#D2EBF7"/>
<path d="M176.171 169.028C171.151 174.248 165.531 176.258 158.791 172.468C164.921 173.268 170.241 170.158 175.921 168.808L176.171 169.028Z" fill="#B88253"/>
<path d="M175.921 168.818C177.031 167.188 174.021 164.538 177.131 163.528C177.721 163.338 179.121 164.128 179.411 164.788C180.801 167.968 177.361 167.668 176.161 169.028C176.171 169.028 175.921 168.818 175.921 168.818Z" fill="#B88253"/>
<path d="M713.001 451.138C692.711 454.778 673.021 451.608 653.511 446.058C651.291 445.428 648.811 445.768 646.441 445.648C645.561 436.958 644.671 428.258 643.791 419.568C661.611 411.528 679.441 403.498 697.261 395.458C703.901 413.618 707.971 432.518 713.001 451.138Z" fill="#C1E9F4"/>
<path d="M622.501 311.849C624.521 299.089 628.971 287.139 634.381 275.489C638.191 277.039 638.191 281.159 639.861 284.059C646.751 296.019 653.191 308.249 659.801 320.379C648.951 322.829 637.921 320.838 627.011 321.678C624.991 318.628 623.091 315.539 622.501 311.849Z" fill="#A9E4FD"/>
<path d="M713.001 451.138C707.971 432.508 703.901 413.618 697.251 395.458C698.271 391.178 694.781 387.888 694.691 383.848C700.941 382.408 703.341 387.878 707.151 390.828C703.911 391.468 703.181 392.968 704.131 396.388C709.001 413.728 713.561 431.168 718.221 448.568C719.171 452.058 720.131 455.538 721.081 459.018C721.541 460.848 722.011 462.668 722.471 464.498C722.461 466.348 724.681 468.898 721.841 469.868C719.121 470.798 717.661 468.888 717.291 466.028C717.091 464.448 716.261 462.948 715.721 461.408C714.821 457.988 713.911 454.568 713.001 451.138Z" fill="#060505"/>
<path d="M627.001 321.678C637.921 320.838 648.941 322.828 659.791 320.378C662.701 324.318 665.371 328.408 667.121 333.018C665.601 333.558 664.081 334.098 662.571 334.638C653.081 334.788 643.591 334.928 634.101 335.078L633.741 334.648C633.511 334.268 633.281 333.878 633.051 333.488C630.581 329.788 628.421 325.928 627.001 321.678Z" fill="#FDFEFE"/>
<path d="M634.101 335.078C643.591 334.928 653.081 334.788 662.571 334.638C657.591 336.818 652.641 339.088 647.611 341.168C638.281 345.048 638.261 345.008 634.101 335.078Z" fill="#A9E4FD"/>
<path d="M633.061 333.489C633.291 333.879 633.521 334.258 633.751 334.648C633.511 334.258 633.291 333.879 633.061 333.489Z" fill="#A9E4FD"/>
<path d="M593.521 183.528C594.681 183.498 596.231 183.148 596.491 184.658C597.071 188.028 594.731 190.538 593.291 193.198C592.111 195.368 589.871 196.698 587.211 195.938C584.041 195.028 582.041 192.578 580.491 189.838C579.751 188.528 580.721 187.398 581.881 187.018C585.721 185.758 589.631 184.678 593.521 183.528Z" fill="#FDFEFE"/>
<path d="M627.111 187.678C624.281 191.818 621.371 191.158 618.401 187.838C618.481 184.718 619.131 181.908 623.051 182.028C626.641 182.138 626.881 184.968 627.111 187.678Z" fill="#D8372B"/>
<path d="M568.291 462.778C574.721 436.578 581.201 410.388 587.521 384.168C588.361 380.688 590.431 380.498 593.261 380.508C595.991 380.518 598.301 380.308 599.241 383.868C604.691 404.398 610.311 424.878 615.881 445.378C599.601 450.048 584.001 456.558 568.291 462.778Z" fill="#A9E4FD"/>
<path d="M706.491 572.808C705.531 586.688 701.921 599.228 689.181 607.128C690.721 600.048 691.991 592.908 693.901 585.938C694.781 582.718 692.431 581.238 691.601 578.948C695.411 575.838 699.211 572.728 703.021 569.628C703.361 571.568 704.641 572.498 706.491 572.808Z" fill="#F4B088"/>
<path d="M534.041 586.758C534.951 583.848 535.851 580.938 536.761 578.028C540.171 577.718 543.281 578.978 546.311 580.188C547.781 580.778 550.821 580.338 550.211 583.148C549.741 585.278 547.681 586.538 545.351 586.608C541.581 586.718 537.801 586.708 534.041 586.758Z" fill="#D2EBF7"/>
<path d="M509.251 589.568C493.291 590.638 477.591 587.578 461.751 586.638C461.281 586.608 460.741 586.618 460.361 586.398C458.211 585.158 454.161 585.908 454.111 582.748C454.061 579.748 457.901 580.728 459.911 580.038C464.611 578.418 469.571 578.039 474.621 577.969C487.181 577.789 499.741 577.148 512.301 576.698C512.041 581.158 510.921 585.428 509.251 589.568Z" fill="#D2EBF7"/>
<path d="M501.931 549.328C502.241 545.808 503.541 544.108 507.461 545.588C511.221 547.008 515.181 547.898 519.051 549.018C519.021 555.158 516.461 560.688 514.811 566.438C511.521 566.418 508.191 566.058 504.941 566.458C499.691 567.098 499.711 564.268 500.551 560.588C501.011 556.838 501.471 553.078 501.931 549.328Z" fill="#E85978"/>
<path d="M510.031 597.908C508.991 597.988 508.301 597.538 508.001 596.528C508.681 596.988 509.361 597.448 510.031 597.908Z" fill="#D2EBF7"/>
<path d="M417.851 460.598C418.261 468.488 416.011 476.418 418.111 484.288C416.841 502.968 415.581 521.658 414.311 540.338C409.751 516.598 403.811 493.138 400.171 469.208C402.251 471.948 405.171 473.228 408.401 473.978C413.351 475.128 416.751 474.658 416.231 468.048C416.041 465.688 414.351 462.398 417.851 460.598Z" fill="#FDFEFE"/>
<path d="M252.221 546.538C255.091 542.788 259.581 544.048 263.281 542.858C265.911 542.018 269.121 543.188 271.221 540.578C275.351 546.528 279.411 552.528 283.641 558.408C284.821 560.048 285.411 561.658 285.211 563.618C284.011 567.328 282.851 570.848 277.661 568.088C275.831 567.118 274.171 568.958 272.461 569.608C267.161 563.968 261.871 558.318 256.561 552.698C254.811 550.848 252.351 549.518 252.221 546.538Z" fill="#D2EBF7"/>
<path d="M381.671 442.418C373.351 442.358 365.131 443.148 357.111 445.468C351.881 444.988 346.651 444.518 341.431 444.038C340.921 441.688 340.401 439.348 339.891 436.998C349.211 437.018 358.531 436.798 367.841 437.158C372.871 437.348 377.931 438.368 381.671 442.418Z" fill="#E79B75"/>
<path d="M339.881 436.998C340.391 439.338 340.911 441.688 341.421 444.038C343.111 450.698 345.011 457.328 346.371 464.058C346.791 466.138 349.691 469.638 346.001 470.548C342.521 471.408 342.031 467.468 341.291 464.688C339.441 457.818 337.471 450.988 335.541 444.138C335.761 441.448 334.791 439.038 333.791 436.628C332.921 432.898 332.061 429.178 331.191 425.448C333.031 424.608 334.851 425.268 336.671 425.498C337.741 429.338 338.811 433.168 339.881 436.998Z" fill="#060505"/>
<path d="M333.791 436.628C334.791 439.028 335.761 441.448 335.541 444.138C328.331 443.648 321.131 443.158 313.921 442.678C313.631 441.618 313.331 440.558 313.041 439.498C319.461 434.918 326.851 437.418 333.791 436.628Z" fill="#E79B75"/>
<path d="M339.881 436.998C338.811 433.168 337.741 429.338 336.671 425.508C349.531 425.608 357.021 417.878 362.691 407.518C366.561 413.338 370.251 419.308 374.361 424.958C380.911 433.978 394.551 437.518 406.841 432.768C409.481 431.748 410.031 433.418 411.561 433.698C419.331 437.938 419.391 437.938 418.901 448.588C418.721 452.598 418.211 456.588 417.851 460.588C414.361 462.388 416.041 465.678 416.231 468.048C416.751 474.658 413.351 475.128 408.401 473.978C405.171 473.228 402.251 471.948 400.171 469.208C398.101 462.808 396.971 456.018 392.721 450.498C391.201 448.518 390.211 445.928 387.321 445.398C386.761 441.788 383.921 442.598 381.591 442.428L381.681 442.408C377.941 438.358 372.881 437.338 367.841 437.148C358.531 436.808 349.201 437.018 339.881 436.998Z" fill="#A9E4FD"/>
<path d="M404.621 577.368C396.171 535.258 387.731 493.148 379.281 451.038C380.341 450.828 381.401 450.618 382.471 450.398C391.001 492.518 399.521 534.638 408.051 576.758C406.901 576.958 405.761 577.158 404.621 577.368Z" fill="#903B2D"/>
<path d="M381.581 442.438C383.911 442.608 386.751 441.799 387.311 445.409C384.951 445.289 382.831 444.698 381.581 442.438Z" fill="#E79B75"/>
<path d="M268.641 603.438C270.771 602.348 272.291 602.318 273.901 602.888C272.631 604.798 271.001 603.938 268.641 603.438Z" fill="#1C4566"/>
<path d="M279.681 601.258C279.141 601.608 278.621 601.988 278.051 602.268C277.991 602.298 277.671 601.798 277.471 601.538C278.101 601.328 278.731 601.128 279.361 600.918C279.351 600.928 279.681 601.258 279.681 601.258Z" fill="#1C4566"/>
<path d="M286.851 596.938C286.321 596.898 285.791 596.848 285.271 596.808L285.201 596.738C285.401 596.128 285.611 595.518 285.811 594.908C286.151 595.588 286.501 596.268 286.851 596.938Z" fill="#1C4566"/>
<path d="M285.261 596.808C284.801 597.308 284.331 597.808 283.871 598.308L283.641 598.068C284.161 597.628 284.681 597.178 285.191 596.738C285.191 596.738 285.261 596.808 285.261 596.808Z" fill="#1C4566"/>
<path d="M283.871 598.308C283.631 598.588 283.391 598.868 283.141 599.158C282.301 598.328 283.201 598.308 283.641 598.078C283.641 598.068 283.871 598.308 283.871 598.308Z" fill="#1C4566"/>
<path d="M279.351 600.928C279.611 600.668 280.081 600.158 280.111 600.178C281.041 600.948 280.071 600.988 279.671 601.258C279.681 601.258 279.351 600.928 279.351 600.928Z" fill="#1C4566"/>
<path d="M206.241 405.198C207.051 405.168 207.871 405.138 208.681 405.108C208.831 407.508 208.981 409.908 209.131 412.318C209.131 417.078 209.131 421.838 209.131 426.598C207.821 419.448 205.601 412.478 206.241 405.198Z" fill="#A54C39"/>
<path d="M444.541 471.118C440.191 456.758 440.191 456.758 427.411 456.638C433.181 451.018 437.491 445.388 432.971 436.398C442.661 447.058 449.061 441.668 456.071 431.598C455.941 440.938 446.271 450.938 462.191 453.138C457.831 456.758 452.131 453.938 449.961 458.768C448.311 462.458 446.711 466.178 444.541 471.118Z" fill="#D8372B"/>
<path d="M327.771 394.098C329.491 393.718 329.491 392.018 330.291 390.908C332.401 387.948 333.941 383.228 338.871 385.838C343.931 388.518 346.181 393.318 345.271 399.018C344.521 403.738 341.321 405.888 336.511 405.268C334.401 404.988 332.301 404.568 330.201 404.218C330.881 400.478 329.121 397.338 327.771 394.098Z" fill="#A9E4FD"/>
<path d="M327.771 394.098C329.121 397.338 330.881 400.478 330.191 404.208C328.641 403.128 327.301 403.588 326.081 404.808C325.361 402.128 324.651 399.438 323.931 396.758C325.651 396.498 327.031 395.758 327.771 394.098Z" fill="#060505"/>
<path d="M437.791 380.748C440.371 381.728 445.791 379.348 446.531 384.048C446.901 386.368 444.121 391.008 439.551 390.808C434.561 390.588 433.601 386.708 433.191 382.788C432.851 379.518 435.251 380.418 437.791 380.748Z" fill="#FDFEFE"/>
</svg>
