<svg width="1004" height="754" viewBox="0 0 1004 754" fill="none" xmlns="http://www.w3.org/2000/svg">
<path d="M1002.99 345.345C1005.1 386.725 969.158 392.125 948.558 451.065C910.268 560.615 1002.71 632.685 972.288 690.415C936.628 758.095 794.468 687.745 519.748 710.655C329.268 726.535 199.198 776.895 132.108 702.975C120.548 690.235 108.118 666.105 83.2576 617.835C58.0676 568.925 25.5276 498.115 12.7776 454.545C-28.0124 315.125 31.1776 103.605 157.228 45.6146C200.318 25.7946 210.608 42.5946 325.408 42.1246C571.858 41.1146 649.788 -36.8454 735.028 21.8846C787.988 58.3746 756.488 87.4845 834.118 175.405C919.888 272.575 999.868 284.065 1002.99 345.345Z" fill="#F4F1D3"/>
<path d="M946.307 722.845C960.157 732.705 878.527 748.854 807.867 743.274C737.207 737.704 608.097 741.695 602.337 724.985C596.567 708.265 762.377 707.695 804.197 707.695C846.017 707.695 918.907 703.345 946.307 722.845Z" fill="#DDDDDD"/>
<path d="M699.438 506.525H372.578V520.195H699.438V506.525Z" fill="#A6AEB2"/>
<path d="M541.128 520.465H532.268V726.875H541.128V520.465Z" fill="#E9C6BA"/>
<path d="M310.457 732.135C319.257 741.995 267.417 758.145 222.557 752.565C177.687 746.995 95.7175 750.985 92.0575 734.275C88.3975 717.555 193.677 716.985 220.227 716.985C246.777 716.985 293.057 712.635 310.457 732.135Z" fill="#DDDDDD"/>
<path d="M241.127 621.795C241.617 620.075 242.017 618.325 242.327 616.565C242.647 614.695 243.367 611.355 242.357 610.185C241.477 609.165 233.627 608.655 232.407 608.095C233.407 605.865 229.157 602.685 230.817 601.575C231.437 601.155 231.807 599.135 232.447 599.185C233.447 599.255 248.137 600.695 249.457 604.905C249.987 606.585 249.047 613.255 248.627 615.145C248.127 617.385 247.547 619.615 246.957 621.825" fill="#606060"/>
<path d="M213.807 615.835C214.177 614.085 214.637 612.345 215.187 610.655C215.767 608.865 216.537 607.275 217.947 606.835C219.867 606.235 222.927 606.565 224.907 606.965C231.777 608.355 232.437 607.875 235.877 608.715C236.127 608.775 237.147 608.895 237.347 608.735C237.507 608.605 236.697 608.255 236.737 608.045C237.157 605.745 237.577 603.385 237.187 601.085C237.157 600.905 237.117 600.725 236.997 600.595C236.877 600.475 236.857 599.905 236.697 599.855C232.177 598.585 227.407 598.775 222.827 597.785C219.957 597.165 215.617 597.295 213.257 599.525C212.027 600.685 210.917 604.045 210.417 605.905C209.817 608.115 208.897 611.325 208.387 613.565" fill="#606060"/>
<path d="M166.057 725.255C167.957 726.005 170.057 726.295 172.067 726.515C188.087 728.295 203.947 730.725 219.917 732.745C228.427 733.815 236.957 734.665 245.547 735.205C251.767 735.595 260.537 735.565 262.467 724.095C266.987 697.245 272.667 670.315 276.587 643.425C277.387 637.915 277.277 631.945 274.967 628.065C272.607 624.095 268.547 623.125 264.727 622.465C253.717 620.555 242.547 619.535 231.387 618.525C220.047 617.495 209.567 613.105 198.227 612.075C191.007 611.415 176.087 612.185 173.417 628.095C170.527 645.275 155.167 710.225 161.137 721.035C162.347 723.215 164.097 724.475 166.057 725.255Z" fill="#F7CAAC"/>
<path d="M189.387 703.335C190.537 703.785 191.817 703.965 193.027 704.095C202.747 705.175 212.367 706.645 222.047 707.875C227.207 708.525 232.387 709.035 237.597 709.365C241.377 709.605 246.687 709.585 247.857 702.625C250.597 686.335 254.047 670.005 256.427 653.685C256.917 650.345 256.847 646.725 255.447 644.365C254.017 641.955 251.547 641.365 249.237 640.965C242.557 639.805 235.787 639.185 229.017 638.575C222.137 637.955 215.787 635.284 208.907 634.664C204.527 634.264 195.477 634.734 193.857 644.384C192.107 654.804 182.787 694.204 186.407 700.764C187.137 702.094 188.197 702.865 189.387 703.335Z" stroke="white" stroke-linecap="round" stroke-linejoin="round" stroke-dasharray="5.98 5.98"/>
<path d="M161.137 721.015C159.337 717.765 159.477 709.615 160.617 699.345C161.907 699.595 163.177 699.965 164.397 700.475C166.597 701.385 168.677 702.735 170.387 704.745C174.537 709.635 175.927 718.595 174.057 726.745C173.387 726.665 172.727 726.575 172.057 726.505C170.047 726.285 167.947 725.995 166.047 725.245C164.097 724.475 162.347 723.215 161.137 721.015Z" fill="#511E1C"/>
<path d="M191.907 624.285C190.747 626.635 189.377 628.845 187.747 630.535C185.617 632.755 183.137 634.005 180.687 634.855C177.747 635.865 174.777 636.315 171.877 636.235C172.527 632.935 173.067 630.145 173.417 628.065C175.837 613.665 188.277 611.665 195.977 611.905C195.167 616.245 193.797 620.485 191.907 624.285Z" fill="#511E1C"/>
<path d="M250.077 718.765C252.897 712.965 257.297 708.805 261.867 706.665C263.157 706.055 264.467 705.615 265.777 705.295C264.637 711.565 263.517 717.825 262.467 724.085C260.547 735.515 251.827 735.585 245.607 735.195C245.887 733.335 246.207 731.475 246.607 729.625C247.407 725.865 248.457 722.105 250.077 718.765Z" fill="#511E1C"/>
<path d="M261.127 622.095C261.137 622.025 261.147 621.965 261.157 621.895C262.347 622.085 263.537 622.245 264.727 622.445C268.547 623.105 272.607 624.075 274.967 628.045C277.277 631.935 277.397 637.895 276.587 643.405C276.277 645.515 275.947 647.625 275.617 649.735C273.337 649.535 271.127 648.925 269.107 647.725C264.417 644.955 260.817 638.885 260.487 631.365C260.357 628.335 260.737 625.195 261.127 622.095Z" fill="#511E1C"/>
<path opacity="0.55" d="M193.957 611.905C186.317 613.055 180.687 619.425 179.797 624.725C176.907 641.905 161.547 706.855 167.517 717.665C168.727 719.865 170.477 721.125 172.437 721.905C174.337 722.655 176.437 722.945 178.447 723.165C194.467 724.945 211.447 726.615 227.417 728.635C235.927 729.705 248.957 731.555 260.067 730.385H260.077C256.537 735.515 250.297 735.485 245.527 735.185C236.937 734.645 228.407 733.805 219.897 732.725C203.927 730.705 188.067 728.275 172.047 726.495C170.037 726.275 167.937 725.985 166.037 725.235C164.077 724.465 162.327 723.195 161.117 720.995C155.137 710.185 170.507 645.235 173.397 628.055C175.637 614.865 186.277 612.095 193.957 611.905Z" fill="#B09C99"/>
<g opacity="0.55">
<g opacity="0.55">
<path opacity="0.55" d="M271.957 629.075C268.977 628.555 265.997 628.245 262.977 628.135C259.957 628.025 256.947 627.895 253.937 627.595C247.947 627.015 242.027 625.975 236.097 624.985C224.097 622.985 212.007 621.625 199.957 620.035C198.777 619.875 197.597 619.745 196.437 619.525C195.537 619.355 194.627 619.185 193.717 619.165C191.497 619.095 189.397 620.095 188.807 622.385C188.417 623.925 190.587 624.455 191.137 623.025C191.197 622.875 191.287 622.725 191.377 622.575C191.437 622.475 191.497 622.375 191.567 622.295C191.527 622.345 191.457 622.425 191.617 622.255C191.767 622.095 192.047 621.925 192.187 621.875C192.367 621.815 192.537 621.775 192.717 621.735C192.767 621.725 193.037 621.685 192.817 621.715C192.897 621.705 192.987 621.695 193.067 621.695C193.447 621.675 193.837 621.685 194.217 621.715C194.677 621.755 194.657 621.755 195.107 621.835C195.427 621.885 195.747 621.955 196.057 622.015C197.227 622.225 198.407 622.345 199.587 622.505C205.467 623.275 211.347 623.975 217.227 624.735C223.037 625.485 228.837 626.275 234.617 627.225C240.397 628.175 246.177 629.135 252.007 629.705C255.247 630.025 258.497 630.135 261.747 630.195C263.437 630.225 265.127 630.235 266.817 630.185C268.517 630.135 270.197 629.935 271.877 629.755C272.197 629.685 272.347 629.145 271.957 629.075Z" fill="#B09C99"/>
</g>
</g>
<path d="M118.627 402.825C119.907 403.205 121.217 403.435 122.547 403.505C123.247 403.545 123.967 403.535 124.597 403.245C125.627 402.775 126.207 401.685 126.687 400.655C127.927 397.985 129.027 395.255 129.977 392.465C131.527 387.915 122.337 385.745 120.397 388.675C118.607 391.385 114.117 401.495 118.627 402.825Z" fill="#FFC49C"/>
<path d="M151.498 349.785C149.048 352.525 146.998 355.505 145.378 358.805C143.638 362.355 142.268 366.025 141.098 369.785C139.798 373.965 138.448 378.185 138.008 382.555C137.598 386.625 138.048 390.755 139.108 394.705C140.328 399.205 142.298 403.515 144.848 407.415C144.958 407.585 145.228 407.435 145.128 407.255C141.018 400.275 137.988 392.455 138.358 384.225C138.558 379.855 139.788 375.635 141.038 371.475C142.218 367.565 143.518 363.755 145.208 360.035C146.878 356.355 148.988 352.985 151.658 349.935C151.748 349.835 151.598 349.675 151.498 349.785Z" fill="#006B67"/>
<path d="M145.967 359.545C143.537 365.095 141.267 370.845 140.987 376.965C140.847 379.935 141.207 382.955 142.227 385.755C143.077 388.085 144.357 390.245 145.887 392.195C147.707 394.515 149.887 396.535 152.277 398.255C152.407 398.345 152.577 398.135 152.447 398.025C148.497 394.885 144.877 391.115 142.947 386.365C140.707 380.835 141.167 374.705 142.757 369.075C143.667 365.855 144.907 362.735 146.197 359.645C146.267 359.505 146.027 359.405 145.967 359.545Z" fill="#006B67"/>
<path d="M192.828 447.855C181.338 446.955 170.238 442.154 161.468 434.654C152.708 427.164 146.278 417.044 142.858 406.034C141.458 401.524 140.548 396.845 140.418 392.125C140.308 388.005 140.788 383.885 141.428 379.815C142.368 373.895 143.658 368.024 145.278 362.254C146.348 358.454 147.598 354.635 149.908 351.435C152.218 348.235 156.248 345.815 160.188 345.615C162.118 343.845 164.968 343.505 167.578 343.625C177.248 344.055 186.508 349.845 191.128 358.345C196.648 368.505 195.458 380.895 198.288 392.115C200.288 400.045 204.368 407.445 210.018 413.375C212.038 415.485 214.278 417.454 215.708 420.004C218.618 425.184 217.428 432.095 213.568 436.605C209.698 441.115 203.578 443.324 197.648 443.254C196.878 444.134 196.478 444.475 195.418 444.965C194.788 445.255 194.118 445.465 193.528 445.835C192.938 446.205 192.418 446.765 192.318 447.455C192.228 448.125 192.138 447.805 192.828 447.855Z" fill="#3EA09F"/>
<path d="M174.648 388.285C173.008 398.635 179.898 407.545 186.608 414.555C188.728 416.775 190.838 419.025 193.058 421.155C193.178 421.265 193.338 421.095 193.238 420.975C191.588 418.975 189.668 417.175 187.868 415.305C186.108 413.475 184.358 411.625 182.728 409.665C179.548 405.835 176.778 401.535 175.478 396.695C174.748 393.975 174.498 391.115 174.858 388.315C174.878 388.195 174.668 388.165 174.648 388.285Z" fill="#006B67"/>
<path d="M173.808 391.035C172.098 399.275 175.828 407.405 180.638 413.905C182.008 415.755 183.488 417.505 185.048 419.195C185.158 419.315 185.338 419.135 185.228 419.015C180.158 412.865 175.178 406.335 173.988 398.225C173.648 395.875 173.628 393.445 174.018 391.095C174.038 390.965 173.838 390.905 173.808 391.035Z" fill="#006B67"/>
<path d="M156.167 412.695C157.227 411.325 157.577 409.545 157.867 407.835C158.457 404.295 158.907 400.715 158.837 397.125C158.837 396.945 158.707 396.685 158.547 396.785C160.687 396.395 162.927 396.225 165.067 395.835C166.247 395.615 167.457 395.395 168.517 394.845C170.207 393.975 172.077 390.875 173.117 389.285C172.957 390.865 172.267 394.065 172.057 395.635C171.587 399.075 171.587 402.635 172.517 405.985C173.437 409.335 175.337 412.485 178.147 414.525C173.707 418.615 167.467 419.985 161.457 419.435C160.337 419.335 159.197 419.165 158.217 418.625C156.097 417.455 154.687 414.625 156.167 412.695Z" fill="#FFC49C"/>
<path d="M147.097 372.735C149.727 359.855 162.067 353.795 171.507 356.785C180.947 359.775 185.537 371.885 181.757 383.815C178.807 393.135 171.937 403.175 157.567 401.335C149.807 400.345 144.687 384.545 147.097 372.735Z" fill="#FFC49C"/>
<path d="M188.568 383.255C189.018 386.575 185.368 391.955 182.778 392.305C180.188 392.655 177.908 390.205 179.208 386.425C180.308 383.265 180.488 380.135 183.078 379.785C185.668 379.425 188.108 379.935 188.568 383.255Z" fill="#FFC49C"/>
<path d="M181.757 383.765C182.077 383.215 182.467 382.665 183.027 382.325C183.587 381.985 184.357 381.915 184.867 382.305C185.527 382.805 185.807 383.755 185.637 384.555C185.377 385.765 184.917 387.435 184.027 388.335C183.347 389.025 180.657 389.755 180.217 388.305C179.847 387.065 181.137 384.825 181.757 383.765Z" fill="#E97E5F"/>
<path d="M181.318 379.695C181.318 379.695 174.918 373.825 169.528 371.805C164.138 369.785 160.768 368.775 160.768 368.775C160.768 368.775 160.038 365.565 160.768 362.485C160.768 362.485 159.338 366.365 158.658 368.425C158.658 368.425 152.258 367.725 149.538 369.685L156.858 352.135L172.998 354.075L183.558 361.515L187.468 370.495L181.318 379.695Z" fill="#3EA09F"/>
<path d="M189.467 355.785C191.427 358.625 192.997 361.775 194.437 364.905C195.217 366.605 195.957 368.345 196.537 370.125C197.147 371.965 197.427 373.834 197.647 375.754C198.237 380.884 198.277 386.115 199.307 391.185C200.317 396.145 202.787 400.565 205.287 404.905C208.137 409.845 211.237 414.675 214.717 419.195C214.807 419.305 214.997 419.205 214.917 419.085C211.957 414.945 209.107 410.755 206.497 406.375C203.907 402.015 201.147 397.474 199.887 392.514C198.587 387.364 198.557 381.975 197.997 376.715C197.787 374.765 197.577 372.784 197.017 370.894C196.527 369.254 195.887 367.655 195.197 366.085C193.627 362.495 191.807 358.935 189.547 355.725C189.527 355.665 189.427 355.725 189.467 355.785Z" fill="#006B67"/>
<path d="M181.848 348.855C187.588 352.855 191.938 358.765 195.358 364.775C197.078 367.795 198.588 370.955 199.788 374.215C201.128 377.845 201.998 381.625 202.778 385.405C203.588 389.345 204.308 393.325 205.478 397.185C206.418 400.305 207.548 403.655 209.598 406.225C211.428 408.515 213.578 410.525 215.508 412.725C216.358 413.695 217.218 414.705 217.818 415.845C218.618 417.375 219.068 419.205 219.288 420.905C219.758 424.465 219.058 428.095 217.398 431.275C215.738 434.455 213.048 437.895 209.518 439.035C208.618 439.325 207.678 439.445 206.738 439.365C206.548 439.345 206.558 439.635 206.738 439.655C210.478 440.045 213.528 437.355 215.678 434.595C217.808 431.845 219.268 428.595 219.678 425.125C219.878 423.375 219.808 421.595 219.478 419.865C219.178 418.315 218.728 416.685 217.918 415.315C216.458 412.855 214.228 410.824 212.288 408.754C211.288 407.684 210.268 406.615 209.398 405.435C208.378 404.045 207.698 402.395 207.058 400.805C205.518 396.955 204.598 392.895 203.768 388.845C202.918 384.685 202.128 380.515 200.848 376.455C199.818 373.185 198.448 370.025 196.868 366.985C193.598 360.695 189.348 354.535 183.808 350.035C183.208 349.545 182.598 349.085 181.968 348.645C181.848 348.595 181.738 348.785 181.848 348.855Z" fill="#006B67"/>
<path d="M176.787 731.795C176.787 731.795 177.897 732.745 178.547 735.625C178.837 736.935 177.907 738.205 176.577 738.315C173.057 738.625 166.337 739.035 161.927 738.165C155.717 736.935 154.907 738.985 147.057 738.895C139.217 738.815 131.537 738.405 130.967 733.345L163.967 731.385L176.787 731.795Z" fill="#4F1312"/>
<path d="M205.148 744.145C205.148 744.145 204.088 746.185 205.388 747.815C206.698 749.445 214.128 750.425 220.408 747.655C226.698 744.875 228.328 737.035 230.448 733.855C232.568 730.675 238.048 727.375 238.698 724.765C239.348 722.155 239.838 718.095 236.328 715.895L220.238 733.365L205.148 744.145Z" fill="#4F1312"/>
<path d="M171.728 705.254C171.808 705.744 170.778 715.105 172.868 719.025L165.358 726.245L149.598 730.004L151.808 723.384L157.638 719.035C157.638 719.035 160.708 709.535 158.758 701.905C157.438 696.795 171.728 705.254 171.728 705.254Z" fill="#001024"/>
<path d="M232.008 712.305C232.008 712.305 226.288 705.775 225.558 698.755C224.828 691.735 214.868 702.765 214.868 702.765C214.868 702.765 218.278 708.545 217.108 717.145C215.808 726.695 221.638 731.175 225.148 728.475C228.668 725.775 232.008 712.305 232.008 712.305Z" fill="#001024"/>
<path d="M177.098 733.445C178.588 733.265 177.178 728.955 176.368 726.835C175.168 723.655 173.958 720.485 172.758 717.305C170.598 719.345 168.228 721.705 165.518 722.915C164.158 723.525 162.708 723.895 161.258 724.235C159.318 724.685 157.938 724.985 155.968 725.325C156.548 724.715 156.808 724.385 157.458 723.845C158.108 723.305 158.698 722.605 158.808 721.765C158.938 720.745 158.338 719.765 157.618 719.025C156.988 718.375 156.268 717.814 155.468 717.384C154.648 716.934 153.638 716.625 152.788 717.015C152.388 717.195 152.068 717.515 151.788 717.845C150.498 719.335 149.688 721.195 148.358 722.655C146.128 725.105 142.748 726.085 139.558 726.965C138.318 727.305 137.068 727.645 135.828 727.995C134.938 728.245 134.018 728.494 133.248 729.004C131.838 729.934 130.678 731.665 130.968 733.335C130.968 733.355 144.148 737.405 177.098 733.445Z" fill="#00A5B9"/>
<path d="M230.497 709.675C230.627 710.445 230.347 711.205 230.077 711.935C228.787 715.375 227.437 718.925 224.867 721.565C225.417 719.825 225.687 718.235 225.897 716.425C226.007 715.505 226.057 714.525 225.677 713.675C225.137 712.445 223.777 711.725 222.437 711.615C221.097 711.505 219.767 711.915 218.527 712.425C217.277 712.925 216.067 713.535 214.767 713.855C214.267 713.975 213.737 714.065 213.337 714.395C212.777 714.865 212.677 715.675 212.697 716.405C212.737 717.605 213.017 718.785 213.517 719.875C213.627 720.115 213.747 720.345 213.797 720.605C213.847 720.855 213.827 721.115 213.797 721.365C213.657 722.965 213.517 724.575 213.377 726.175C213.147 728.825 211.757 731.105 210.527 733.465C209.397 735.615 208.267 737.775 206.877 739.755C206.107 740.845 205.247 741.925 204.917 743.215C204.587 744.505 204.997 746.105 206.197 746.675C206.197 746.675 216.647 748.795 222.117 743.405C227.587 738.015 225.877 732.875 229.797 729.115C233.717 725.355 237.877 721.115 236.987 717.765C236.097 714.425 230.497 709.675 230.497 709.675Z" fill="#00A5B9"/>
<path d="M141.457 690.085C140.167 691.325 139.987 693.285 139.887 695.065C139.727 697.865 139.827 700.265 139.657 703.065C147.047 704.705 154.487 706.345 162.047 706.715C169.607 707.085 177.487 706.505 184.287 703.175C184.857 698.465 181.707 694.305 181.537 689.555C180.947 673.185 180.357 656.045 179.767 639.675C183.677 656.165 189.407 672.225 196.827 687.465C198.057 689.985 199.277 693.065 199.057 695.865C198.857 695.985 198.847 695.495 199.077 695.515C199.307 695.535 199.407 695.815 199.457 696.035C200.127 699.095 200.447 702.915 201.117 705.975C209.357 708.535 218.487 705.725 225.547 700.775C230.207 697.505 233.667 692.885 236.747 688.085C229.327 664.135 214.587 642.285 213.027 617.255C211.067 585.925 208.997 554.025 197.767 524.715C195.507 518.815 190.517 514.385 189.557 508.145C188.797 503.205 188.667 498.165 189.177 493.195C189.197 493.015 189.197 492.795 189.057 492.685C188.917 492.575 188.637 492.765 188.767 492.895C180.417 491.385 172.297 490.015 163.827 489.485C158.597 489.165 153.207 489.045 148.267 490.775C148.047 494.355 147.737 498.075 147.507 501.645C147.387 503.595 147.227 505.645 146.127 507.255C138.577 518.245 138.987 533.325 138.407 546.645C138.157 552.385 138.277 558.135 138.397 563.875C139.287 605.875 140.577 648.095 141.457 690.085Z" fill="#FF8246"/>
<path d="M179.637 691.545C174.877 693.075 169.997 694.135 164.997 694.395C160.057 694.655 155.067 694.215 150.257 693.075C147.527 692.425 144.917 691.435 142.227 690.645C142.027 690.585 141.897 690.885 142.077 690.985C144.227 692.205 146.697 692.965 149.087 693.575C151.517 694.205 153.987 694.645 156.487 694.915C161.477 695.455 166.537 695.235 171.467 694.305C174.297 693.775 177.067 692.985 179.727 691.875C179.927 691.805 179.857 691.475 179.637 691.545Z" fill="#5F3328"/>
<path d="M200.307 696.155C202.317 696.965 204.507 696.395 206.517 695.875C208.687 695.305 210.817 694.625 212.917 693.835C216.957 692.305 221.007 690.415 224.537 687.915C226.287 686.675 227.907 685.165 228.767 683.165C228.857 682.955 228.577 682.775 228.447 682.975C226.337 686.315 222.797 688.325 219.367 690.095C215.617 692.035 211.687 693.604 207.627 694.754C205.407 695.384 202.767 696.335 200.497 695.475C200.067 695.315 199.897 695.995 200.307 696.155Z" fill="#5F3328"/>
<path d="M187.408 504.765C177.388 501.995 166.888 500.975 156.518 501.665C153.628 501.855 150.688 502.115 147.838 502.685C147.908 502.945 147.978 503.195 148.048 503.455C148.408 503.315 148.768 503.165 149.118 503.025C149.458 502.885 149.328 502.405 148.968 502.475C148.588 502.545 148.208 502.615 147.838 502.685C147.398 502.765 147.498 503.525 147.948 503.465C150.488 503.145 153.018 502.755 155.578 502.535C158.128 502.315 160.698 502.215 163.258 502.205C168.428 502.195 173.598 502.615 178.708 503.475C181.588 503.955 184.438 504.565 187.268 505.295C187.608 505.395 187.758 504.855 187.408 504.765Z" fill="black"/>
<path d="M163.207 495.665C161.887 496.155 160.717 497.235 160.517 498.685C160.317 500.145 161.107 501.535 162.537 501.975C162.937 502.105 163.377 502.164 163.797 502.154C164.117 502.144 164.757 502.165 164.927 501.835C164.967 501.755 164.957 501.675 164.897 501.605C164.667 501.355 164.097 501.465 163.797 501.455C163.387 501.445 162.977 501.425 162.577 501.295C161.857 501.055 161.357 500.475 161.177 499.745C160.777 498.165 161.947 496.755 163.357 496.215C163.697 496.085 163.557 495.535 163.207 495.665Z" fill="black"/>
<path d="M164.987 498.535C165.007 498.535 165.027 498.545 165.047 498.545C165.057 498.545 165.117 498.575 165.087 498.555C165.057 498.545 165.107 498.565 165.117 498.575C165.127 498.575 165.137 498.585 165.137 498.595C165.187 498.625 165.117 498.575 165.137 498.595C165.147 498.605 165.167 498.625 165.177 498.635C165.187 498.645 165.227 498.695 165.187 498.645C165.207 498.685 165.227 498.715 165.247 498.755C165.257 498.785 165.237 498.745 165.237 498.735C165.237 498.745 165.247 498.755 165.247 498.775C165.257 498.795 165.257 498.815 165.267 498.835C165.277 498.855 165.277 498.875 165.277 498.895C165.277 498.905 165.277 498.925 165.287 498.935C165.287 498.915 165.287 498.895 165.287 498.925C165.287 498.975 165.287 499.015 165.287 499.065C165.287 499.085 165.287 499.105 165.277 499.125C165.277 499.155 165.277 499.105 165.277 499.105C165.277 499.125 165.267 499.135 165.267 499.155C165.257 499.195 165.247 499.235 165.237 499.275C165.217 499.335 165.247 499.255 165.227 499.295C165.217 499.315 165.207 499.335 165.197 499.355C165.187 499.375 165.167 499.395 165.157 499.415C165.177 499.375 165.167 499.405 165.147 499.425C165.137 499.445 165.117 499.455 165.107 499.465C165.097 499.475 165.027 499.525 165.077 499.495C165.037 499.525 164.997 499.545 164.957 499.575C164.947 499.575 164.887 499.605 164.917 499.595C164.947 499.585 164.877 499.605 164.867 499.615C164.817 499.625 164.777 499.635 164.727 499.645C164.697 499.655 164.747 499.645 164.747 499.645C164.737 499.645 164.717 499.645 164.707 499.645C164.677 499.645 164.657 499.645 164.627 499.645C164.577 499.645 164.527 499.645 164.477 499.635C164.417 499.625 164.517 499.645 164.467 499.635C164.437 499.625 164.407 499.625 164.377 499.615C164.327 499.605 164.287 499.585 164.237 499.575C164.227 499.575 164.217 499.565 164.207 499.565C164.207 499.565 164.257 499.585 164.227 499.575C164.207 499.565 164.177 499.555 164.157 499.535C164.117 499.515 164.077 499.485 164.037 499.455C164.007 499.435 164.047 499.465 164.057 499.465C164.047 499.455 164.037 499.445 164.027 499.435C164.007 499.415 163.987 499.405 163.967 499.385C163.947 499.365 163.937 499.355 163.917 499.335C163.867 499.285 163.927 499.365 163.897 499.315C163.867 499.275 163.837 499.225 163.817 499.185C163.787 499.135 163.827 499.225 163.817 499.175C163.807 499.155 163.797 499.125 163.797 499.105C163.787 499.075 163.787 499.045 163.777 499.025C163.767 498.995 163.777 499.045 163.777 499.045C163.777 499.025 163.777 499.015 163.777 498.995C163.777 498.945 163.777 498.885 163.777 498.835C163.777 498.795 163.777 498.855 163.777 498.855C163.777 498.835 163.787 498.825 163.787 498.805C163.797 498.775 163.797 498.745 163.807 498.725C163.817 498.705 163.817 498.675 163.827 498.655C163.837 498.625 163.867 498.575 163.837 498.625C163.867 498.575 163.887 498.525 163.917 498.475C163.927 498.455 163.947 498.435 163.957 498.415C163.987 498.365 163.927 498.445 163.967 498.405C164.007 498.365 164.047 498.315 164.087 498.275C164.097 498.265 164.167 498.215 164.127 498.235C164.097 498.265 164.157 498.215 164.167 498.215C164.217 498.185 164.267 498.155 164.317 498.135C164.327 498.125 164.397 498.095 164.357 498.115C164.317 498.135 164.397 498.105 164.407 498.095C164.457 498.075 164.517 498.075 164.577 498.055C164.757 498.005 164.897 497.795 164.797 497.615C164.757 497.545 164.687 497.475 164.617 497.445C164.517 497.405 164.407 497.425 164.297 497.445C163.787 497.535 163.387 497.975 163.217 498.455C163.057 498.935 163.187 499.485 163.567 499.825C163.927 500.145 164.417 500.275 164.887 500.185C165.337 500.095 165.717 499.755 165.817 499.305C165.907 498.885 165.797 498.395 165.417 498.145C165.327 498.085 165.227 498.055 165.127 498.035C164.997 498.015 164.857 498.065 164.817 498.205C164.787 498.355 164.857 498.515 164.987 498.535Z" fill="black"/>
<path d="M160.558 502.965C160.098 504.225 160.038 505.725 159.858 507.055C159.678 508.385 159.548 509.715 159.418 511.045C159.168 513.765 158.988 516.505 158.868 519.235C158.628 524.745 158.638 530.275 158.768 535.795C158.798 537.305 158.838 538.825 158.888 540.335C158.918 541.115 158.948 541.885 158.988 542.665C159.018 543.425 159.008 544.205 159.198 544.945C159.268 545.215 159.698 545.235 159.758 544.945C159.998 543.655 159.838 542.255 159.818 540.945C159.798 539.595 159.768 538.245 159.738 536.895C159.688 534.155 159.648 531.415 159.628 528.665C159.598 523.195 159.708 517.715 160.098 512.255C160.208 510.705 160.348 509.165 160.508 507.625C160.578 506.895 160.648 506.165 160.728 505.435C160.818 504.635 160.978 503.815 160.938 503.005C160.918 502.805 160.638 502.775 160.558 502.965Z" fill="black"/>
<path d="M157.438 503.115C157.228 508.205 156.628 513.264 155.628 518.254C155.248 520.164 154.848 522.185 155.278 524.125C155.478 525.005 155.868 525.834 156.458 526.514C157.058 527.214 158.098 528.065 159.028 528.215C159.318 528.265 159.478 527.975 159.298 527.745C158.978 527.345 158.488 527.094 158.078 526.784C157.648 526.454 157.238 526.074 156.918 525.644C156.368 524.894 156.108 523.985 156.028 523.065C155.858 521.045 156.398 519.024 156.728 517.044C157.498 512.434 157.938 507.785 158.018 503.115C158.038 502.725 157.448 502.735 157.438 503.115Z" fill="black"/>
<path d="M161.257 545.315C164.927 544.315 168.667 543.715 172.417 543.165C172.647 543.135 172.587 542.764 172.367 542.774C168.537 542.864 164.747 543.595 161.057 544.585C160.577 544.715 160.777 545.445 161.257 545.315Z" fill="black"/>
<path d="M159.047 546.394C158.007 544.434 156.767 542.705 155.097 541.215C153.487 539.765 151.617 538.614 149.567 537.894C149.307 537.804 149.127 538.225 149.377 538.345C153.197 540.055 156.667 542.885 158.697 546.595C158.827 546.815 159.167 546.614 159.047 546.394Z" fill="black"/>
<path d="M159.677 544.625C158.307 541.485 156.407 538.525 153.877 536.195C153.697 536.025 153.447 536.275 153.607 536.465C155.837 539.035 157.777 541.815 159.127 544.945C159.287 545.315 159.837 544.995 159.677 544.625Z" fill="black"/>
<path d="M160.438 546.365C165.088 547.915 169.358 550.305 173.078 553.485C173.278 553.655 173.558 553.375 173.368 553.195C169.758 549.795 165.328 547.265 160.558 545.925C160.278 545.845 160.158 546.275 160.438 546.365Z" fill="black"/>
<path d="M182.498 506.115C183.058 509.535 184.528 512.745 186.648 515.465C187.708 516.825 188.938 518.045 190.298 519.105C191.598 520.115 193.168 521.225 194.798 521.565C195.058 521.615 195.198 521.294 194.978 521.134C194.268 520.654 193.478 520.295 192.738 519.855C192.058 519.445 191.388 518.994 190.758 518.504C189.438 517.494 188.248 516.314 187.218 515.014C185.118 512.384 183.728 509.235 183.188 505.915C183.118 505.465 182.418 505.665 182.498 506.115Z" fill="black"/>
<path d="M150.177 503.615C149.607 507.435 149.047 511.365 147.427 514.915C146.737 516.405 145.877 517.825 144.807 519.075C144.267 519.705 143.667 520.285 143.037 520.825C142.377 521.385 141.627 521.815 140.947 522.345C140.737 522.505 140.847 522.885 141.137 522.805C142.757 522.365 144.197 521.065 145.287 519.835C146.427 518.545 147.337 517.075 148.047 515.505C149.727 511.795 150.277 507.715 150.807 503.705C150.847 503.355 150.227 503.265 150.177 503.615Z" fill="black"/>
<path d="M136.947 394.165C138.137 393.975 139.287 394.955 140.467 394.755C141.887 394.515 142.477 392.835 142.737 391.425C143.447 387.675 143.807 383.825 143.337 380.045C143.257 379.375 143.137 378.685 142.737 378.135C142.157 377.335 141.137 377.015 140.187 376.765C134.077 375.105 127.897 373.725 121.667 372.615C118.817 375.815 117.917 380.545 120.287 384.115C122.297 387.135 125.767 388.795 129.067 390.295C131.917 391.585 134.107 392.865 136.947 394.165Z" fill="#FF8246"/>
<path d="M117.147 375.705C116.487 378.545 116.187 381.464 116.267 384.384C116.287 385.094 116.327 385.815 116.557 386.485C117.157 388.195 118.857 389.245 120.487 390.035C126.007 392.705 132.177 394.035 138.307 393.855C138.687 393.845 139.087 393.825 139.407 393.605C139.777 393.355 139.947 392.895 140.077 392.475C140.957 389.585 141.217 386.514 140.837 383.524C140.727 382.684 140.557 381.825 140.027 381.165C139.577 380.605 138.917 380.275 138.267 379.955C132.987 377.365 127.457 375.264 121.767 373.754C120.977 373.544 120.157 373.345 119.347 373.425C118.527 373.505 117.707 373.925 117.337 374.655C117.077 375.175 117.087 375.785 116.967 376.355C116.847 376.925 116.517 377.534 115.947 377.644" fill="#009593"/>
<path d="M129.158 400.595C128.478 398.825 127.508 397.135 127.188 395.265C126.958 393.915 127.068 392.525 127.188 391.165C127.458 388.065 127.728 384.925 128.718 381.975C128.908 381.405 129.408 380.725 129.948 380.985C130.248 381.135 130.348 381.515 130.388 381.845C130.648 384.215 129.618 386.655 130.248 388.945C130.628 384.745 134.498 377.385 136.398 377.985C136.498 378.015 136.568 378.115 136.588 378.225C136.768 379.275 136.508 380.405 135.868 381.255C136.998 379.935 138.948 377.275 140.118 378.335C140.258 379.515 139.938 380.735 139.248 381.695C139.448 381.035 140.578 381.385 140.708 382.055C140.838 382.725 140.408 383.365 140.088 383.975C139.088 385.895 139.138 388.115 139.578 390.175C139.818 391.255 140.158 392.315 140.528 393.355C140.808 394.125 141.188 395.505 142.078 394.275C142.358 393.895 142.458 393.425 142.548 392.965C142.778 391.815 143.178 390.535 143.188 389.365C143.198 388.885 142.608 387.545 143.418 387.385C143.738 387.315 143.998 387.655 144.158 387.945C145.138 389.735 145.998 391.645 146.198 393.675C146.398 395.705 145.878 397.885 144.428 399.335C142.728 401.035 139.778 401.805 139.318 404.165C139.148 405.015 139.378 405.885 139.578 406.725C140.238 409.505 140.658 412.335 140.848 415.185C140.878 415.645 140.898 416.125 140.738 416.555C140.578 416.975 140.258 417.305 139.938 417.615C137.688 419.745 134.088 421.165 131.598 418.365C131.108 417.805 130.748 417.135 130.498 416.435C129.498 413.645 130.138 411.315 130.348 408.565C130.528 405.855 130.138 403.115 129.158 400.595Z" fill="#FFC49C"/>
<path d="M121.588 370.785C121.588 370.405 121.618 369.985 121.888 369.735C122.148 369.495 122.538 369.485 122.898 369.485C123.518 369.495 124.138 369.495 124.758 369.505C124.968 369.505 125.178 369.515 125.358 369.595C125.828 369.815 125.908 370.445 125.888 370.965C125.848 372.195 125.658 373.425 125.318 374.605C125.198 375.005 122.178 374.315 121.898 374.005C121.228 373.255 121.578 371.725 121.588 370.785Z" fill="#009593"/>
<path d="M121.777 373.905C122.427 374.595 123.567 374.895 124.427 375.215C125.337 375.555 126.267 375.875 127.187 376.175C128.157 376.495 129.147 376.755 130.127 377.065C130.927 377.325 131.667 377.715 132.447 378.015C133.137 378.275 133.847 378.465 134.547 378.685C134.967 378.815 134.827 378.205 134.587 378.075C134.057 377.785 133.477 377.625 132.907 377.425C132.147 377.155 131.417 376.785 130.657 376.505C129.657 376.145 128.627 375.905 127.617 375.585C126.557 375.245 125.497 374.895 124.457 374.515C123.587 374.205 122.757 373.795 121.887 373.505C121.637 373.415 121.677 373.795 121.777 373.905Z" fill="#1F1111"/>
<path d="M123.617 388.295C125.909 388.295 127.767 386.204 127.767 383.625C127.767 381.045 125.909 378.955 123.617 378.955C121.325 378.955 119.467 381.045 119.467 383.625C119.467 386.204 121.325 388.295 123.617 388.295Z" fill="#006B66"/>
<path d="M121.808 388.235C124.1 388.235 125.958 386.144 125.958 383.565C125.958 380.985 124.1 378.895 121.808 378.895C119.516 378.895 117.658 380.985 117.658 383.565C117.658 386.144 119.516 388.235 121.808 388.235Z" fill="#6FCAC9"/>
<path d="M121.808 388.235C124.1 388.235 125.958 386.144 125.958 383.565C125.958 380.985 124.1 378.895 121.808 378.895C119.516 378.895 117.658 380.985 117.658 383.565C117.658 386.144 119.516 388.235 121.808 388.235Z" stroke="black" stroke-miterlimit="10"/>
<path d="M112.907 377.005C112.547 376.535 112.257 375.945 112.147 375.365C112.087 375.045 112.117 374.635 112.367 374.405C112.817 373.985 113.487 374.285 113.927 374.525C114.237 374.695 114.507 374.875 114.797 375.085C115.047 375.255 115.427 375.555 115.617 375.795C115.157 375.175 114.747 374.525 114.457 373.815C114.367 373.585 114.317 373.315 114.357 373.075C114.457 372.545 115.097 372.235 115.607 372.415C116.117 372.595 116.697 372.915 117.037 373.345C116.617 372.505 116.047 371.595 116.677 370.895C117.057 370.465 117.727 370.365 118.277 370.535C118.827 370.705 119.287 371.085 119.697 371.495C121.187 372.995 122.197 374.975 122.537 377.065C122.577 377.335 122.597 377.635 122.407 377.835C122.077 378.175 121.517 377.835 121.187 377.485C120.587 376.835 120.047 376.125 119.577 375.375C120.137 376.215 120.557 377.155 120.787 378.145C120.847 378.395 120.887 378.685 120.767 378.905C120.607 379.185 120.237 379.285 119.917 379.215C119.607 379.135 119.337 378.925 119.107 378.705C118.717 378.335 118.357 377.935 118.047 377.495C118.487 378.425 118.737 379.435 118.787 380.465C118.797 380.735 118.787 381.035 118.587 381.205C118.367 381.395 118.037 381.355 117.757 381.275C115.757 380.685 114.097 378.575 112.907 377.005Z" fill="#FFC49C"/>
<path d="M126.187 370.534C126.147 370.374 126.097 370.234 125.977 370.134C125.767 369.944 125.447 370.015 125.177 370.075C124.177 370.325 123.127 370.504 122.127 370.274C121.127 370.044 120.177 369.305 119.977 368.295C119.937 368.075 119.927 367.834 120.027 367.644C120.217 367.274 120.677 367.165 121.077 367.065C122.187 366.805 123.267 366.364 124.257 365.784C125.097 365.284 125.977 364.654 126.947 364.754C128.027 364.864 128.787 365.844 129.317 366.784C130.057 368.114 130.577 369.555 130.867 371.045C131.057 372.025 131.147 373.055 130.777 373.985C130.697 374.185 130.597 374.245 130.427 374.375C130.117 374.595 129.717 374.484 129.337 374.404C128.497 374.234 127.137 373.854 126.107 373.514C125.787 373.404 126.177 372.885 126.267 372.585C126.467 371.915 126.337 371.214 126.187 370.534Z" fill="#FFC49C"/>
<path d="M139.108 409.235C139.418 409.015 139.768 408.835 140.088 408.965C140.388 409.085 140.588 409.355 140.758 409.625C140.968 409.955 141.158 410.305 141.328 410.655C141.818 411.705 142.118 412.845 142.198 413.995C142.248 414.765 142.318 415.704 141.888 416.384C141.448 417.074 140.488 417.404 139.748 417.634C137.298 418.414 134.638 418.615 132.078 418.805C131.008 418.885 130.348 419.745 129.268 419.815C129.198 419.825 127.918 420.235 127.938 420.305C127.468 418.935 126.708 416.165 126.988 414.695C127.248 413.305 128.348 411.965 129.768 411.905C130.198 411.885 130.628 411.985 131.048 411.925C132.078 411.765 132.768 410.695 133.778 410.465C134.858 410.225 135.988 410.995 137.058 410.695C137.698 410.515 138.148 409.995 138.648 409.585C138.788 409.495 138.948 409.355 139.108 409.235Z" fill="#B6ABAC"/>
<path d="M156.968 405.505C157.348 405.395 157.888 405.315 158.268 405.205C158.288 405.195 158.188 405.905 158.188 405.945C157.878 407.645 157.588 409.185 158.138 410.865C158.648 412.415 159.678 413.815 161.138 414.585C162.758 415.435 164.578 415.495 166.328 415.035C167.598 414.705 168.888 414.155 169.898 413.275C171.048 412.275 171.668 410.885 171.998 409.415C172.318 407.965 172.328 406.535 172.278 405.055C172.268 404.685 171.958 404.135 172.258 403.925C172.448 403.785 173.078 403.825 173.318 403.835C183.508 404.025 192.818 412.315 195.568 421.405C201.338 440.445 202.978 463.075 197.718 482.295C196.728 485.895 195.748 489.495 194.758 493.095C193.768 496.725 192.188 505.275 187.368 504.065C182.008 502.725 178.388 499.255 172.408 499.395C165.558 499.555 159.148 498.415 152.408 500.555C147.638 502.065 143.408 505.105 138.678 501.195C135.908 498.915 134.598 495.185 134.698 491.595C134.858 485.925 138.058 480.995 140.088 475.865C142.218 470.475 142.518 464.555 142.598 458.825C142.718 449.995 141.388 441.245 140.878 432.445C140.618 428.045 140.558 423.625 141.018 419.245C141.688 412.905 146.758 408.425 152.658 406.725C154.098 406.335 155.538 405.915 156.968 405.505Z" fill="#001024"/>
<path d="M114.738 395.395C115.028 394.755 115.368 394.095 115.948 393.695C116.528 393.305 117.438 393.295 117.848 393.865C118.048 394.145 118.108 394.515 118.298 394.795C118.758 395.485 119.778 395.455 120.578 395.275C121.388 395.095 122.308 394.865 122.978 395.355C123.368 395.635 123.578 396.105 123.918 396.445C125.188 397.715 127.948 397.045 128.598 398.725C128.898 399.505 128.508 400.375 128.118 401.115C127.918 401.505 127.248 402.665 126.818 402.735C126.608 402.775 126.388 402.705 126.178 402.645C124.468 402.115 123.058 401.345 121.498 400.465C120.658 399.995 119.868 399.755 118.968 399.425C118.328 399.195 117.658 399.105 116.988 399.005C115.928 398.845 114.578 398.965 113.618 398.585C113.678 397.825 114.408 396.115 114.738 395.395Z" fill="#B6ABAC"/>
<path d="M153.708 438.105C153.038 441.685 147.958 446.205 145.308 448.495C142.618 450.805 139.548 452.675 136.308 454.115C135.188 454.615 134.058 455.055 132.908 455.455C128.838 456.865 124.618 457.715 120.338 458.235C117.308 458.615 114.248 458.825 111.208 458.965C109.248 459.055 107.248 459.115 105.378 458.505C99.4476 456.585 99.5975 448.535 100.138 442.565C100.238 441.285 100.378 440.105 100.468 439.095C101.208 431.155 103.218 423.375 105.988 415.925C107.988 410.545 110.398 405.195 112.838 400.025C113.938 397.695 114.228 397.505 116.888 398.145C119.878 398.865 122.848 400.195 125.618 401.495C125.928 401.645 126.238 401.795 126.478 402.045C126.828 402.415 127.038 402.945 127.018 403.465C126.808 409.245 124.538 415.205 124.768 423.465C125.858 422.605 126.998 421.805 128.168 421.075C132.258 418.485 136.788 416.595 141.508 415.535C141.828 415.465 142.158 415.385 142.488 415.325C143.638 415.095 144.968 414.955 145.868 415.695C146.408 416.155 146.678 416.825 146.928 417.475C147.418 418.735 147.908 419.985 148.378 421.245H148.388C149.798 424.885 151.208 428.525 152.608 432.155C153.338 434.075 154.088 436.105 153.708 438.105Z" fill="#001024"/>
<path d="M194.938 442.655C195.388 444.765 195.838 446.945 195.618 449.105C195.388 451.395 193.858 452.815 192.438 454.545C189.498 458.135 186.368 461.575 183.078 464.845C180.848 467.055 179.188 468.285 176.408 469.775C175.658 470.175 174.908 470.565 174.138 470.935C170.798 472.595 167.348 474.035 163.808 475.235C160.118 476.505 156.078 477.505 152.368 476.315C149.508 475.405 147.248 473.305 145.368 470.925C144.788 470.195 144.248 469.445 143.738 468.685C140.668 464.125 138.258 459.215 136.298 454.125C133.818 447.675 132.068 440.925 130.658 434.165C129.958 430.865 129.348 427.545 128.768 424.215C128.618 423.415 128.488 422.615 128.338 421.815C128.308 421.625 128.238 421.355 128.148 421.065C127.998 420.505 127.838 419.845 127.958 419.475C128.278 418.595 131.508 418.035 132.438 417.645C135.268 416.485 138.198 414.925 141.228 415.425C141.318 415.445 141.418 415.455 141.488 415.515C141.508 415.515 141.518 415.525 141.528 415.535C141.618 415.605 141.658 415.725 141.698 415.825C142.078 416.915 142.468 418.005 142.848 419.095L148.358 421.235C153.018 423.035 157.688 424.845 162.348 426.645C170.908 429.955 179.458 433.265 188.018 436.575C189.378 437.105 190.738 437.625 192.098 438.155C194.028 438.895 194.508 440.645 194.918 442.555C194.928 442.595 194.938 442.625 194.938 442.655Z" fill="#001024"/>
<path d="M150.007 725.235C149.827 723.075 149.737 720.905 149.757 718.735C149.767 717.675 149.797 716.605 149.847 715.545C149.897 714.585 149.897 713.575 150.137 712.635C150.337 711.835 150.867 710.935 151.837 711.125C152.727 711.295 153.337 712.315 153.577 713.105C154.147 715.005 153.737 717.055 152.967 718.835C152.097 720.845 150.807 722.645 149.497 724.375C149.677 724.455 149.857 724.525 150.037 724.605C150.637 722.865 151.727 721.315 153.177 720.175C154.627 719.035 157.297 717.675 158.817 719.445C160.497 721.405 157.197 723.175 155.787 723.925C153.957 724.905 151.957 725.535 149.917 725.895C149.447 725.975 149.647 726.695 150.117 726.615C152.077 726.275 153.967 725.605 155.727 724.675C156.617 724.205 157.487 723.685 158.287 723.075C158.907 722.605 159.527 722.045 159.777 721.295C160.287 719.765 158.987 718.315 157.527 718.055C155.807 717.745 154.047 718.715 152.747 719.755C151.227 720.975 150.097 722.615 149.467 724.455C149.347 724.795 149.817 724.925 150.007 724.685C152.437 721.475 155.647 716.975 154.077 712.705C153.567 711.335 151.987 709.775 150.497 710.895C149.847 711.385 149.587 712.225 149.457 712.995C149.267 714.125 149.247 715.295 149.207 716.425C149.087 719.375 149.177 722.325 149.447 725.255C149.477 725.595 150.037 725.595 150.007 725.235Z" fill="black"/>
<path d="M217.367 727.575C215.787 725.995 214.287 724.345 212.867 722.625C212.127 721.725 211.407 720.805 210.707 719.875C210.097 719.045 209.287 718.145 209.087 717.105C208.857 715.925 209.827 715.325 210.877 715.475C211.757 715.595 212.497 716.095 213.137 716.695C214.417 717.895 215.167 719.515 215.627 721.185C216.167 723.145 216.327 725.195 216.427 727.215C216.617 727.185 216.807 727.165 217.007 727.135C216.247 725.155 216.117 722.975 216.727 720.925C217.217 719.265 218.537 716.915 220.647 717.545C222.847 718.205 221.527 721.405 220.967 722.825C220.207 724.745 219.097 726.515 217.777 728.095C217.477 728.455 217.997 728.985 218.297 728.615C219.527 727.155 220.517 725.535 221.257 723.775C221.647 722.865 221.977 721.925 222.227 720.965C222.437 720.175 222.617 719.295 222.387 718.495C221.987 717.065 220.357 716.535 219.037 716.995C217.447 717.545 216.597 719.245 216.147 720.755C215.517 722.895 215.647 725.205 216.447 727.285C216.557 727.575 217.037 727.565 217.027 727.205C216.827 723.355 216.457 718.715 213.317 716.025C212.207 715.075 210.007 714.095 208.867 715.555C208.277 716.305 208.437 717.275 208.817 718.085C209.347 719.215 210.227 720.225 210.987 721.215C212.827 723.605 214.837 725.855 216.987 727.975C217.227 728.235 217.617 727.835 217.367 727.575Z" fill="black"/>
<path d="M125.818 370.295C125.648 370.315 125.598 370.504 125.598 370.654C125.588 370.864 125.608 371.085 125.608 371.295C125.598 371.695 125.558 372.095 125.528 372.485C125.508 372.885 125.508 373.285 125.438 373.675C125.408 373.875 125.368 374.074 125.308 374.274C125.248 374.474 125.178 374.655 125.228 374.865C125.238 374.905 125.258 374.965 125.298 374.965C125.508 374.965 125.588 374.745 125.668 374.585C125.758 374.395 125.838 374.195 125.888 373.995C125.998 373.575 126.018 373.135 126.048 372.705C126.088 372.285 126.118 371.855 126.118 371.435C126.118 371.225 126.118 371.015 126.098 370.805C126.088 370.695 125.998 370.275 125.818 370.295Z" fill="#1F1111"/>
<path d="M140.797 382.955C140.757 383.615 140.817 384.255 140.827 384.915C140.837 385.595 140.817 386.275 140.767 386.955C140.717 387.655 140.627 388.345 140.487 389.035C140.427 389.365 140.347 389.695 140.267 390.025C140.177 390.385 140.107 390.565 140.317 390.875C140.337 390.905 140.377 390.915 140.407 390.915C140.457 390.915 140.507 390.905 140.557 390.905C140.617 390.895 140.677 390.825 140.687 390.775C141.097 389.575 141.267 388.245 141.357 386.985C141.457 385.635 141.437 384.215 141.027 382.925C140.987 382.745 140.807 382.785 140.797 382.955Z" fill="#1F1111"/>
<path d="M125.687 373.675C128.067 374.445 130.587 374.885 133.017 375.455C135.207 375.965 137.497 376.325 139.637 377.035C140.527 377.335 141.427 377.765 141.947 378.585C142.517 379.485 142.667 380.685 142.827 381.715C143.177 383.975 143.207 386.285 142.977 388.565C142.847 389.825 142.607 391.055 142.257 392.265C142.117 392.765 141.957 393.755 141.397 393.955C140.527 394.265 140.537 392.335 140.547 391.845C140.557 391.495 139.887 391.135 139.877 391.575C139.847 392.485 139.847 394.075 140.797 394.575C141.887 395.155 142.477 393.845 142.717 393.025C143.507 390.345 143.907 387.515 143.807 384.725C143.757 383.355 143.607 381.995 143.347 380.645C143.137 379.535 142.837 378.415 141.997 377.595C141.247 376.865 140.257 376.455 139.267 376.175C137.977 375.805 136.647 375.545 135.337 375.245C133.797 374.885 132.257 374.545 130.717 374.205C129.037 373.835 127.357 373.375 125.657 373.125C125.347 373.075 125.467 373.605 125.687 373.675Z" fill="#1F1111"/>
<path d="M183.008 379.605C183.008 379.605 180.248 379.235 173.978 386.375C174.558 386.885 175.678 387.235 175.678 387.235C175.678 387.235 179.308 382.705 180.738 381.335C181.318 380.825 183.008 379.605 183.008 379.605Z" fill="black"/>
<path d="M172.467 394.385L179.097 390.625L182.797 389.905C182.797 389.905 173.827 395.885 171.757 396.955C172.467 394.655 172.467 394.385 172.467 394.385Z" fill="black"/>
<path d="M146.147 379.025C146.147 379.575 146.147 380.125 146.157 380.685C146.187 381.965 146.237 383.245 146.377 384.515C147.087 391.805 150.437 399.015 156.647 401.475C161.757 403.105 169.407 401.185 173.627 397.075C173.807 396.905 175.447 395.475 175.857 395.025C176.547 394.245 177.187 393.335 177.377 392.285C177.447 391.895 177.387 391.495 177.487 391.105L177.497 391.065C177.527 390.725 177.487 390.315 177.487 390.315L176.687 386.035C176.687 386.035 176.647 386.005 176.567 385.945C176.417 385.815 176.097 385.565 175.637 385.235C172.297 382.895 160.157 376.445 146.147 379.025Z" fill="black"/>
<path d="M178.897 614.695C179.567 616.435 181.227 617.575 183.047 617.825C184.037 617.955 185.047 617.825 185.977 617.485C186.437 617.315 186.907 617.105 187.327 616.825C187.697 616.575 188.247 616.245 188.427 615.835C188.537 615.605 188.357 615.305 188.087 615.385C187.707 615.495 187.377 615.825 187.027 616.015C186.657 616.225 186.287 616.425 185.887 616.575C185.067 616.885 184.187 617.035 183.307 616.955C181.727 616.805 180.297 615.815 179.587 614.395C179.397 614.025 178.737 614.295 178.897 614.695Z" fill="black"/>
<path d="M148.508 619.764C148.088 621.714 150.828 621.974 152.108 622.004C153.248 622.034 154.388 621.965 155.518 621.785C156.088 621.695 156.658 621.575 157.228 621.435C157.798 621.295 158.308 621.055 158.838 620.815C159.128 620.685 158.918 620.265 158.628 620.325C156.818 620.725 154.978 621.084 153.118 621.134C152.278 621.154 151.358 621.194 150.538 621.014C150.068 620.904 149.158 620.615 149.278 619.975C149.388 619.475 148.618 619.254 148.508 619.764Z" fill="black"/>
<path d="M178.597 572.305C180.567 569.925 183.717 569.445 186.637 569.345C188.337 569.295 190.027 569.355 191.727 569.305C193.687 569.245 195.647 569.065 197.587 568.795C199.867 568.475 202.107 568.035 204.307 567.355C204.627 567.255 204.497 566.785 204.167 566.855C200.017 567.765 195.867 568.475 191.607 568.615C188.397 568.725 185.027 568.365 181.927 569.375C180.407 569.875 179.147 570.685 178.257 572.035C178.127 572.245 178.447 572.495 178.597 572.305Z" fill="black"/>
<path d="M179.708 571.205C181.528 579.975 183.528 588.705 185.728 597.375C186.278 599.525 186.828 601.675 187.398 603.815C187.678 604.885 187.968 605.955 188.258 607.025C188.488 607.875 188.698 608.755 189.098 609.555C189.878 611.125 191.408 611.675 193.068 611.805C194.678 611.935 196.308 611.945 197.928 611.975C199.968 612.015 202.008 612.045 204.058 612.035C205.868 612.035 207.818 612.155 209.588 611.745C209.858 611.685 209.768 611.325 209.528 611.295C207.988 611.105 206.398 611.245 204.848 611.265C203.068 611.275 201.288 611.265 199.508 611.245C197.898 611.225 196.278 611.185 194.668 611.155C193.008 611.115 190.968 611.205 189.918 609.655C189.408 608.895 189.188 607.975 188.958 607.105C188.678 606.075 188.398 605.045 188.118 604.015C187.558 601.915 186.998 599.805 186.458 597.705C185.398 593.565 184.378 589.425 183.388 585.265C182.268 580.555 181.198 575.825 180.188 571.085C180.108 570.775 179.648 570.905 179.708 571.205Z" fill="black"/>
<path d="M187.198 575.395C187.278 575.715 187.278 576.045 187.368 576.365C187.458 576.685 187.568 576.985 187.668 577.305C187.878 577.925 188.088 578.545 188.298 579.165C188.718 580.405 189.128 581.655 189.548 582.895C189.848 583.795 190.168 584.765 191.088 585.205C192.068 585.685 193.298 585.445 194.338 585.365C196.978 585.175 199.618 584.995 202.248 584.805C204.048 584.675 206.068 584.525 206.788 582.575C207.388 580.945 206.748 578.765 208.148 577.485C208.348 577.305 208.098 577.025 207.878 577.125C206.598 577.735 206.508 579.325 206.378 580.565C206.298 581.285 206.238 582.075 205.858 582.705C205.318 583.605 204.228 583.805 203.268 583.895C200.918 584.125 198.558 584.255 196.208 584.435C195.028 584.525 193.828 584.675 192.638 584.695C192.098 584.705 191.508 584.665 191.088 584.275C190.678 583.895 190.508 583.315 190.328 582.805C189.888 581.525 189.458 580.245 189.018 578.965C188.808 578.345 188.598 577.725 188.378 577.105C188.258 576.755 188.148 576.395 188.008 576.065C187.878 575.775 187.698 575.535 187.568 575.245C187.468 575.035 187.138 575.195 187.198 575.395Z" fill="black"/>
<path d="M193.878 580.675C195.898 581.135 198.068 580.815 199.908 579.875C200.048 579.805 200.128 579.595 200.078 579.445C199.698 578.325 198.358 577.685 197.278 578.205C196.778 578.445 196.418 578.915 196.258 579.435C196.098 579.955 196.088 580.625 196.528 580.995C196.668 581.115 196.968 581.055 196.948 580.825C196.908 580.465 196.818 580.085 196.918 579.735C197.008 579.385 197.228 579.055 197.548 578.885C198.218 578.525 199.128 578.945 199.358 579.645C199.418 579.505 199.478 579.365 199.528 579.215C197.838 580.065 195.928 580.315 194.068 580.005C193.638 579.945 193.448 580.575 193.878 580.675Z" fill="black"/>
<path d="M131.148 420.365C132.558 420.005 133.917 419.485 135.307 419.095C136.007 418.895 136.707 418.704 137.407 418.514C138.077 418.334 138.737 418.175 139.367 417.865C139.507 417.795 139.427 417.595 139.297 417.585C138.597 417.545 137.917 417.695 137.227 417.845C136.497 418.015 135.768 418.195 135.038 418.405C133.658 418.805 132.217 419.205 130.917 419.835C130.617 419.975 130.838 420.435 131.148 420.365Z" fill="#737373"/>
<path d="M114.088 401.205C115.978 401.285 117.858 401.575 119.668 402.105C120.568 402.365 121.448 402.685 122.298 403.075C123.058 403.435 123.758 403.945 124.538 404.265C124.698 404.335 124.868 404.105 124.768 403.965C124.278 403.305 123.438 402.875 122.718 402.515C121.828 402.075 120.888 401.725 119.938 401.455C118.048 400.915 116.058 400.585 114.088 400.655C113.738 400.675 113.738 401.185 114.088 401.205Z" fill="#737373"/>
<path d="M195.677 438.065C193.117 443.545 190.307 448.864 186.907 453.884C183.537 458.854 179.717 463.535 175.497 467.805C174.297 469.015 173.057 470.194 171.637 471.154C170.167 472.154 168.527 472.915 166.847 473.495C166.597 473.575 166.847 474.105 167.087 474.035C170.147 473.195 172.757 471.475 175.037 469.295C177.237 467.195 179.297 464.935 181.257 462.615C185.167 457.995 188.617 452.985 191.587 447.705C193.277 444.695 194.847 441.604 196.127 438.394C196.237 438.154 195.827 437.745 195.677 438.065Z" fill="#737373"/>
<path d="M127.767 419.955C127.837 424.485 128.737 429.015 129.777 433.405C130.837 437.865 132.167 442.265 133.497 446.655C134.747 450.805 136.117 454.885 138.007 458.785C139.837 462.555 142.017 466.225 144.607 469.525C147.247 472.885 151.427 476.395 156.027 475.185C156.187 475.145 156.137 474.795 155.967 474.815C151.687 475.405 148.087 472.925 145.487 469.765C142.897 466.615 140.757 463.035 138.937 459.395C136.997 455.525 135.547 451.485 134.277 447.345C132.997 443.195 131.727 439.035 130.647 434.825C129.407 429.945 128.577 425.035 128.097 420.025C128.087 419.835 127.757 419.665 127.767 419.955Z" fill="#737373"/>
<path d="M141.718 416.004C143.258 419.934 145.598 423.595 147.948 427.085C150.328 430.615 152.888 434.015 155.418 437.445C156.758 439.265 158.088 441.105 159.348 442.985C159.428 443.105 159.608 443.205 159.748 443.115C164.928 439.605 166.738 433.145 171.168 428.915C171.418 428.675 170.978 428.125 170.728 428.365C166.328 432.595 164.538 439.095 159.348 442.565C159.478 442.605 159.618 442.655 159.748 442.695C155.128 435.725 149.688 429.335 145.368 422.165C144.128 420.105 143.048 417.975 141.968 415.835C141.838 415.575 141.628 415.794 141.718 416.004Z" fill="#737373"/>
<path d="M192.577 451.365C192.247 452.365 192.447 453.555 192.577 454.585C192.717 455.795 192.887 457.015 193.047 458.225C193.377 460.755 193.667 463.325 194.227 465.805C194.257 465.945 194.407 465.915 194.397 465.775C194.327 463.425 193.967 461.065 193.657 458.735C193.507 457.605 193.357 456.465 193.207 455.335C193.037 454.055 193.047 452.775 192.927 451.495C192.907 451.325 192.657 451.125 192.577 451.365Z" fill="#737373"/>
<path d="M164.377 420.695C167.197 420.305 169.837 418.655 171.807 416.655C173.817 414.615 175.467 411.905 175.747 409.015C175.757 408.905 175.627 408.735 175.567 408.905C174.637 411.605 173.467 414.085 171.447 416.145C169.437 418.195 166.997 419.455 164.297 420.365C164.187 420.405 164.237 420.715 164.377 420.695Z" fill="#737373"/>
<path d="M129.187 400.345C128.767 399.135 128.237 397.965 127.887 396.725C127.717 396.125 127.577 395.525 127.447 394.915C127.307 394.275 127.257 393.585 127.047 392.965C126.997 392.815 126.807 392.855 126.787 393.005C126.717 393.635 126.857 394.295 126.967 394.915C127.087 395.565 127.257 396.215 127.447 396.855C127.817 398.095 128.267 399.355 128.997 400.435C129.057 400.525 129.227 400.475 129.187 400.345Z" fill="#FF996B"/>
<path d="M129.958 388.605C129.898 388.715 129.878 388.805 129.868 388.935C129.858 389.045 129.868 389.165 129.868 389.275C129.868 389.495 129.868 389.715 129.878 389.935C129.888 390.155 129.908 390.375 129.938 390.595C129.948 390.715 129.968 390.825 129.988 390.935C130.008 391.035 130.008 391.135 130.078 391.215C130.128 391.275 130.208 391.245 130.248 391.195C130.308 391.115 130.298 390.985 130.308 390.895C130.318 390.795 130.328 390.695 130.338 390.595C130.348 390.365 130.368 390.135 130.368 389.915C130.358 389.695 130.358 389.475 130.348 389.255C130.348 389.155 130.348 389.045 130.338 388.935C130.328 388.815 130.298 388.715 130.238 388.605C130.178 388.505 130.018 388.495 129.958 388.605Z" fill="#FF996B"/>
<path d="M136.218 380.715C135.718 381.315 135.428 382.015 135.138 382.735C134.848 383.455 134.598 384.195 134.388 384.945C134.178 385.695 134.018 386.455 133.898 387.225C133.838 387.605 133.788 387.995 133.758 388.375C133.728 388.745 133.668 389.135 133.808 389.485C133.838 389.565 133.938 389.585 133.988 389.505C134.188 389.185 134.188 388.805 134.258 388.435C134.318 388.075 134.388 387.725 134.448 387.365C134.588 386.625 134.768 385.895 134.968 385.175C135.168 384.455 135.398 383.735 135.668 383.035C135.948 382.315 136.298 381.625 136.488 380.875C136.528 380.725 136.328 380.585 136.218 380.715Z" fill="#FF996B"/>
<path d="M139.328 381.085C138.778 381.575 138.408 382.245 138.058 382.885C137.708 383.535 137.398 384.225 137.138 384.915C136.878 385.605 136.648 386.305 136.498 387.035C136.348 387.755 136.178 388.555 136.278 389.295C136.298 389.435 136.468 389.465 136.528 389.325C136.788 388.645 136.888 387.895 137.088 387.195C137.288 386.505 137.498 385.825 137.758 385.155C138.018 384.475 138.338 383.815 138.678 383.165C139.008 382.535 139.418 381.945 139.688 381.295C139.778 381.075 139.478 380.955 139.328 381.085Z" fill="#FF996B"/>
<path d="M115.328 375.625C115.488 375.915 115.808 376.095 116.058 376.315C116.308 376.545 116.558 376.785 116.788 377.025C117.018 377.265 117.248 377.505 117.488 377.735C117.608 377.855 117.738 377.965 117.868 378.065C117.988 378.165 118.148 378.295 118.298 378.325C118.388 378.345 118.468 378.265 118.448 378.175C118.418 378.025 118.298 377.865 118.208 377.735C118.108 377.585 117.998 377.445 117.878 377.295C117.658 377.025 117.448 376.765 117.208 376.515C116.968 376.275 116.728 376.035 116.468 375.805C116.198 375.565 115.898 375.295 115.528 375.255C115.338 375.265 115.248 375.495 115.328 375.625Z" fill="#FF996B"/>
<path d="M116.817 373.254C117.347 373.734 117.877 374.205 118.377 374.715C118.617 374.965 118.857 375.225 119.097 375.495C119.207 375.625 119.317 375.755 119.437 375.875C119.557 375.995 119.667 376.155 119.827 376.245C119.887 376.275 119.977 376.235 119.967 376.165C119.947 375.995 119.847 375.845 119.767 375.695C119.677 375.535 119.587 375.385 119.477 375.245C119.257 374.945 119.017 374.654 118.767 374.384C118.247 373.844 117.687 373.365 117.037 372.995C116.857 372.895 116.667 373.124 116.817 373.254Z" fill="#FF996B"/>
<path d="M124.657 422.965C124.467 423.055 124.277 423.105 124.097 423.205C123.927 423.305 123.767 423.405 123.597 423.525C123.267 423.755 122.937 423.985 122.607 424.215C121.947 424.685 121.307 425.185 120.697 425.705C119.547 426.675 118.407 427.685 117.517 428.915C117.417 429.055 117.597 429.435 117.777 429.295C119.007 428.315 120.127 427.205 121.347 426.215C121.927 425.745 122.527 425.275 123.127 424.835C123.417 424.625 123.707 424.415 123.997 424.215C124.137 424.115 124.287 424.025 124.427 423.915C124.617 423.775 124.757 423.595 124.937 423.445C125.117 423.295 124.867 422.855 124.657 422.965Z" fill="#737373"/>
<path d="M159.607 443.055C159.927 443.975 160.297 444.885 160.617 445.815C160.757 446.235 160.897 446.645 161.027 447.065C161.097 447.295 161.157 447.515 161.237 447.745C161.327 448.015 161.377 448.305 161.517 448.555C161.587 448.675 161.727 448.634 161.747 448.504C161.777 448.304 161.717 448.115 161.677 447.925C161.627 447.685 161.577 447.445 161.517 447.215C161.397 446.745 161.257 446.285 161.117 445.825C160.797 444.815 160.407 443.814 159.907 442.884C159.777 442.604 159.527 442.815 159.607 443.055Z" fill="#737373"/>
<path d="M100.267 365.445C101.037 365.975 101.827 366.475 102.617 366.975C103.007 367.225 103.407 367.475 103.807 367.715C104.217 367.955 104.627 368.145 105.057 368.355C105.207 368.435 105.397 368.225 105.247 368.105C104.887 367.815 104.547 367.525 104.177 367.265C103.777 366.985 103.377 366.725 102.967 366.465C102.167 365.945 101.367 365.435 100.557 364.945C100.237 364.755 99.9674 365.245 100.267 365.445Z" fill="#B6ABAC"/>
<path d="M105.018 360.135C105.788 360.725 106.518 361.435 107.088 362.215C107.378 362.605 107.628 363.015 107.868 363.445C107.988 363.665 108.098 363.885 108.208 364.105C108.318 364.325 108.438 364.535 108.548 364.755C108.638 364.945 108.898 364.805 108.858 364.625C108.808 364.365 108.768 364.125 108.678 363.865C108.588 363.625 108.488 363.385 108.378 363.145C108.158 362.675 107.868 362.235 107.558 361.815C106.918 360.965 106.168 360.275 105.258 359.735C104.988 359.585 104.788 359.965 105.018 360.135Z" fill="#B6ABAC"/>
<path d="M187.537 500.345C190.977 508.525 194.417 516.705 197.847 524.885C200.717 532.655 203.448 541.385 205.748 551.005C209.698 567.565 211.327 582.625 211.817 595.345C211.347 604.865 211.817 616.515 214.857 629.365C215.767 633.235 217.117 638.075 223.967 656.095C227.317 664.915 231.577 675.815 236.727 688.295C235.617 690.535 229.947 701.345 217.287 705.305C210.217 707.515 204.057 706.615 200.887 705.915C191.977 677.365 183.067 648.815 174.157 620.265C171.527 611.265 169.067 601.745 166.867 591.715C161.817 568.695 159.067 547.235 157.757 527.935C157.427 526.775 156.987 524.995 156.797 522.795C156.417 518.445 157.227 515.435 158.367 510.315C158.977 507.575 159.857 503.425 160.797 498.165C169.707 498.885 178.617 499.615 187.537 500.345Z" fill="#B75742"/>
<path d="M234.328 680.635C231.268 684.555 227.838 688.175 223.868 691.195C219.918 694.205 215.528 696.665 210.878 698.425C208.258 699.415 205.548 700.065 202.888 700.925C202.698 700.985 202.718 701.315 202.938 701.295C205.398 701.095 207.858 700.345 210.178 699.505C212.568 698.645 214.888 697.615 217.128 696.425C221.598 694.035 225.708 690.965 229.278 687.375C231.268 685.375 233.078 683.205 234.618 680.845C234.708 680.685 234.448 680.475 234.328 680.635Z" fill="#5F3328"/>
<path d="M680.278 633.375L670.578 699.135L683.408 704.195L700.638 633.375H680.278Z" fill="#FDD1B4"/>
<path d="M670.578 699.135L673.138 681.785L689.238 680.235L683.408 704.195L670.578 699.135Z" fill="white"/>
<path d="M670.228 698.845C670.228 698.845 679.908 703.845 685.308 696.395L708.878 710.505L666.658 710.225L670.228 698.845Z" fill="#0C1C39"/>
<path d="M666.707 710.203L666.68 714.263L708.9 714.547L708.927 710.487L666.707 710.203Z" fill="white"/>
<path d="M702.278 639.405L730.938 699.375L744.418 696.405L719.158 628.045L702.278 639.405Z" fill="#FDD1B4"/>
<path d="M730.938 699.375L723.378 683.555L735.868 673.275L744.418 696.405L730.938 699.375Z" fill="white"/>
<path d="M730.498 699.325C730.498 699.325 741.318 698.065 741.638 688.865L769.078 687.405L733.898 710.745L730.498 699.325Z" fill="#0C1C39"/>
<path d="M769.166 687.418L733.984 710.762L736.229 714.145L771.411 690.801L769.166 687.418Z" fill="white"/>
<path d="M652.828 493.955C652.828 493.955 639.438 521.365 648.398 550.285C658.128 581.705 652.218 639.245 652.218 639.245C652.218 639.245 706.718 649.695 739.868 624.835L708.628 499.085L652.828 493.955Z" fill="#EC9482"/>
<path d="M727.608 456.835L761.108 492.155L756.728 499.565L716.408 469.225L727.608 456.835Z" fill="#FDD1B4"/>
<path d="M709.618 415.795L734.488 456.505C734.488 456.505 726.388 471.545 717.378 484.895L702.808 470.455L709.618 415.795Z" fill="white"/>
<path d="M674.187 410.925C674.187 410.925 659.327 410.645 655.157 417.665C650.987 424.685 650.397 500.565 650.397 500.565C650.397 500.565 685.747 510.085 708.627 499.075L712.097 423.945C712.057 418.165 708.687 412.825 703.347 410.585C701.867 409.965 700.227 409.515 698.417 409.365C689.767 408.635 687.637 412.845 687.637 412.845L674.187 410.925Z" fill="white"/>
<path d="M709.638 477.235L711.048 439.975" stroke="#D7D7D7" stroke-width="0.716" stroke-miterlimit="10"/>
<path d="M630.298 456.405L586.498 499.265L594.158 505.015L641.438 469.755L630.298 456.405Z" fill="#FDD1B4"/>
<path d="M586.498 499.265L578.938 503.125C575.638 504.805 573.048 507.665 571.848 511.175C570.598 514.835 570.468 519.375 575.238 522.555C584.528 528.745 583.118 516.365 583.118 516.365C583.118 516.365 590.578 513.385 594.168 505.025L586.498 499.265Z" fill="#FDD1B4"/>
<path d="M656.568 415.795L623.178 448.905L636.808 486.195L665.528 463.315L656.568 415.795Z" fill="white"/>
<path d="M650.838 475.025L674.188 456.425" stroke="#D7D7D7" stroke-width="0.716" stroke-miterlimit="10"/>
<path d="M652.608 369.405C660.583 369.405 667.048 362.94 667.048 354.965C667.048 346.99 660.583 340.525 652.608 340.525C644.633 340.525 638.168 346.99 638.168 354.965C638.168 362.94 644.633 369.405 652.608 369.405Z" fill="#4A280D"/>
<path d="M671.608 356.725C671.608 356.725 666.148 352.245 663.588 357.565C661.588 361.725 662.328 364.315 665.888 364.695C669.438 365.075 671.608 356.725 671.608 356.725Z" fill="#F9A44B"/>
<path d="M702.808 353.575C702.808 353.575 673.988 345.765 665.828 360.215C659.918 370.705 666.898 389.685 680.408 395.035C693.278 400.135 689.618 358.215 689.618 358.215L702.808 353.575Z" fill="#4A280D"/>
<path d="M700.058 379.645C699.768 383.105 702.338 386.145 705.798 386.445C709.258 386.735 712.298 384.165 712.598 380.705C712.888 377.245 710.318 374.205 706.858 373.905C703.398 373.615 700.348 376.185 700.058 379.645Z" fill="#FDD1B4"/>
<path d="M697.238 397.215L696.168 410.885C695.798 415.685 692.648 418.025 687.928 417.625C683.898 417.285 680.288 414.885 680.128 410.845L682.848 389.425L697.238 397.215Z" fill="#FDD1B4"/>
<path d="M680.268 409.685C680.268 409.685 675.548 410.575 674.188 410.925C674.188 410.925 678.398 421.195 692.068 420.215C707.568 419.105 698.428 409.365 698.428 409.365L692.518 408.335L680.268 409.685Z" fill="#FDD1B4"/>
<path d="M696.678 404.565L680.708 392.725L697.368 395.815L696.678 404.565Z" fill="#201C2E"/>
<path d="M693.038 399.365C701.118 399.505 707.888 393.245 708.218 386.645L708.918 371.075C709.338 362.805 703.128 355.695 694.888 355.005C686.448 354.295 677.548 360.435 676.828 368.885L676.398 381.405C676.078 391.095 683.378 398.555 693.038 399.365Z" fill="#FDD1B4"/>
<path d="M686.578 368.895L679.798 379.565L669.108 366.715L686.578 368.895Z" fill="#4A280D"/>
<path d="M668.888 379.515C668.598 382.975 671.168 386.015 674.628 386.315C678.088 386.605 681.128 384.035 681.428 380.575C681.718 377.115 679.148 374.075 675.688 373.775C672.228 373.485 669.178 376.055 668.888 379.515Z" fill="#FDD1B4"/>
<path d="M677.188 382.095C677.188 382.095 677.568 377.554 673.168 377.904" stroke="#201C2E" stroke-width="0.4774" stroke-miterlimit="10" stroke-linecap="round" stroke-linejoin="round"/>
<path d="M692.678 387.075C692.678 387.075 693.418 389.825 697.848 389.375" stroke="#201C2E" stroke-width="0.4774" stroke-miterlimit="10" stroke-linecap="round" stroke-linejoin="round"/>
<path d="M702.808 353.575C702.808 353.575 714.518 355.775 711.598 371.435L705.128 370.395L704.308 363.725L701.778 370.545L676.998 370.185L673.658 358.405L684.828 354.695L702.808 353.575Z" fill="#4A280D"/>
<path d="M756.378 702.895L756.238 675.135L771.378 674.355L771.548 704.235L756.938 704.325L756.378 702.895Z" fill="#F1BD97"/>
<path d="M772.438 698.215C772.438 698.215 760.478 703.135 754.858 695.385L725.808 710.345L776.138 710.045L772.438 698.215Z" fill="#0C1C39"/>
<path d="M725.838 714.565L776.168 714.265L776.138 710.045L725.808 710.335L725.838 714.565Z" fill="white"/>
<path d="M755.158 701.925C755.028 701.875 754.907 701.785 754.817 701.665C752.937 699.205 751.048 697.985 751.038 697.975C750.668 697.735 750.567 697.255 750.817 696.905C751.067 696.545 751.577 696.465 751.937 696.695C752.027 696.745 754.078 698.065 756.138 700.765C756.398 701.115 756.318 701.595 755.958 701.845C755.718 702.005 755.418 702.025 755.158 701.925Z" fill="white"/>
<path d="M751.208 703.894C751.078 703.844 750.958 703.754 750.868 703.634C748.988 701.174 747.108 699.955 747.088 699.945C746.718 699.705 746.618 699.225 746.868 698.875C747.118 698.525 747.628 698.424 747.988 698.664C748.078 698.714 750.128 700.035 752.188 702.735C752.448 703.085 752.368 703.565 752.008 703.815C751.768 703.985 751.458 704.004 751.208 703.894Z" fill="white"/>
<path d="M747.258 705.875C747.128 705.825 747.008 705.735 746.918 705.625C745.038 703.165 743.148 701.945 743.138 701.935C742.768 701.695 742.668 701.215 742.918 700.865C743.168 700.515 743.678 700.414 744.038 700.654C744.128 700.704 746.178 702.025 748.238 704.725C748.498 705.065 748.418 705.555 748.058 705.805C747.818 705.955 747.518 705.975 747.258 705.875Z" fill="white"/>
<path d="M851.787 701.315L846.907 673.985L831.877 675.965L837.117 705.375L851.497 702.825L851.787 701.315Z" fill="#F1BD97"/>
<path d="M835.028 698.215C835.028 698.215 846.988 703.135 852.608 695.385L881.658 710.345L831.328 710.045L835.028 698.215Z" fill="#0C1C39"/>
<path d="M881.618 714.565L831.288 714.265L831.318 710.045L881.648 710.335L881.618 714.565Z" fill="white"/>
<path d="M852.298 701.925C852.428 701.875 852.548 701.785 852.638 701.665C854.518 699.205 856.408 697.985 856.418 697.975C856.788 697.735 856.888 697.255 856.638 696.905C856.388 696.545 855.878 696.465 855.518 696.695C855.428 696.745 853.378 698.065 851.318 700.765C851.058 701.115 851.138 701.595 851.498 701.845C851.738 702.005 852.048 702.025 852.298 701.925Z" fill="white"/>
<path d="M856.247 703.894C856.377 703.844 856.497 703.754 856.587 703.634C858.467 701.174 860.357 699.955 860.367 699.945C860.737 699.705 860.837 699.225 860.587 698.875C860.337 698.525 859.827 698.424 859.467 698.664C859.377 698.714 857.327 700.035 855.267 702.735C855.007 703.085 855.087 703.565 855.447 703.815C855.687 703.985 855.997 704.004 856.247 703.894Z" fill="white"/>
<path d="M860.198 705.875C860.328 705.825 860.448 705.735 860.538 705.625C862.418 703.165 864.308 701.945 864.318 701.935C864.688 701.695 864.788 701.215 864.538 700.865C864.288 700.515 863.778 700.414 863.418 700.654C863.328 700.704 861.278 702.025 859.218 704.725C858.958 705.065 859.038 705.555 859.398 705.805C859.638 705.955 859.948 705.975 860.198 705.875Z" fill="white"/>
<path d="M765.268 473.325C765.268 473.325 746.578 492.445 745.508 528.075C744.438 563.705 748.908 683.275 748.908 683.275L777.918 684.695L778.798 596.995L782.108 512.925L784.168 512.835C784.168 512.835 805.298 593.415 806.728 599.865C808.158 606.305 826.438 684.705 826.438 684.705L856.098 682.195L837.858 586.615C837.858 586.615 827.558 533.275 824.178 520.035C817.658 494.495 801.978 473.325 801.978 473.325H765.268V473.325Z" fill="#749BB6"/>
<path d="M748.388 666.865L778.088 668.195" stroke="#5E87A2" stroke-width="0.716" stroke-miterlimit="10"/>
<path d="M822.588 668.195L852.558 665.285" stroke="#5E87A2" stroke-width="0.716" stroke-miterlimit="10"/>
<path d="M791.588 514.125L775.048 511.925" stroke="#5E87A2" stroke-width="0.716" stroke-miterlimit="10"/>
<path d="M746.117 425.165L724.708 440.505L733.438 454.795L753.278 441.265L746.117 425.165Z" fill="#F1BD97"/>
<path d="M755.348 415.355L731.828 433.155L745.348 459.185L769.198 439.835L755.348 415.355Z" fill="#FABF51"/>
<path d="M773.088 406.975L755.958 414.915C754.338 415.815 753.398 417.395 752.518 419.025C750.918 421.975 754.498 443.195 761.318 479.035L802.398 474.905C802.398 474.905 808.398 448.385 813.308 434.885C815.728 428.215 816.298 416.745 816.418 410.425C816.468 407.915 814.508 405.825 811.988 405.695L790.588 404.635L773.088 406.975Z" fill="#FABF51"/>
<path d="M755.958 450.575L753.278 433.465" stroke="#E2A031" stroke-width="0.716" stroke-miterlimit="10"/>
<path d="M826.988 355.295L825.708 356.405C825.138 356.905 824.808 357.625 824.818 358.385L825.098 382.775C825.108 384.085 826.108 385.175 827.418 385.315L828.048 385.375L826.988 355.295Z" fill="black"/>
<path d="M840.527 355.775L827.687 355.115C827.027 355.085 826.477 355.615 826.487 356.275L826.977 384.265C826.987 384.865 827.457 385.345 828.047 385.385L840.927 386.145C841.587 386.185 842.147 385.645 842.137 384.985L841.607 356.895C841.597 356.295 841.127 355.805 840.527 355.775Z" fill="#141C35"/>
<path d="M830.318 357.825C830.318 358.255 829.968 358.605 829.538 358.605C829.108 358.605 828.758 358.255 828.758 357.825C828.758 357.395 829.108 357.045 829.538 357.045C829.968 357.045 830.318 357.395 830.318 357.825Z" fill="black"/>
<path d="M822.038 413.555L841.948 429.915L837.758 448.025L814.108 429.305L822.038 413.555Z" fill="#F1BD97"/>
<path d="M843.898 392.435L835.518 439.705C834.188 444.785 837.638 449.875 842.848 450.505C847.868 451.115 852.348 447.315 852.548 442.255C853.158 427.325 851.658 391.905 851.658 391.905L843.898 392.435Z" fill="#F1BD97"/>
<path d="M851.668 391.905C851.668 391.905 850.228 370.945 845.348 368.925C840.478 366.905 832.278 365.045 830.328 366.645C828.378 368.245 827.038 375.775 830.698 377.745C834.358 379.715 839.398 381.775 839.398 381.775C839.398 381.775 839.048 387.125 843.908 392.435C848.758 397.745 851.668 391.905 851.668 391.905Z" fill="#F1BD97"/>
<path d="M814.968 406.975L833.008 421.945L827.498 452.175C827.498 452.175 802.648 437.915 802.868 438.135C803.088 438.355 814.968 406.975 814.968 406.975Z" fill="#FABF51"/>
<path d="M810.768 442.605L800.868 436.125" stroke="#E2A031" stroke-width="0.716" stroke-miterlimit="10"/>
<path d="M756.847 363.645C756.847 363.645 755.137 389.545 751.337 394.295C751.337 394.295 763.847 397.465 778.027 390.155C778.027 390.155 789.417 390.505 803.007 385.525C803.007 385.525 805.457 363.725 797.167 353.195L773.357 352.135L756.847 363.645Z" fill="#201C2E"/>
<path d="M790.588 406.235L786.698 387.495C786.698 387.495 784.588 390.035 781.568 390.865C778.558 391.685 775.438 390.145 775.398 390.125C775.358 390.105 772.728 388.255 772.728 388.255L773.088 407.935C773.108 408.155 773.098 408.375 773.088 408.585L790.688 406.805C790.637 406.615 790.608 406.425 790.588 406.235Z" fill="#F1BD97"/>
<path d="M774.538 406.305L768.348 409.175C768.348 409.175 767.548 417.455 780.888 415.785C794.218 414.115 795.938 404.875 795.938 404.875L790.238 404.525L774.538 406.305Z" fill="#F1BD97"/>
<path d="M768.347 409.175C768.347 409.175 767.237 417.415 780.887 415.785C794.537 414.155 795.937 404.875 795.937 404.875" stroke="white" stroke-width="0.716" stroke-miterlimit="10"/>
<path d="M772.728 389.495L788.698 397.135L786.177 384.925L772.728 389.495Z" fill="#201C2E"/>
<path d="M799.587 361.585C800.597 373.795 791.917 384.485 780.187 385.455C768.457 386.425 757.927 377.375 756.917 365.155C755.907 352.945 764.477 342.675 776.207 341.705C787.937 340.745 798.577 349.375 799.587 361.585Z" fill="#201C2E"/>
<path d="M794.248 361.615C794.808 368.365 794.328 374.265 793.708 378.475C793.108 382.595 790.698 385.645 787.148 388.225L786.498 388.695C782.748 391.425 777.638 391.905 773.438 389.925C769.198 387.925 766.108 385.075 764.878 380.805C762.638 373.045 761.738 364.315 761.738 364.315C761.738 364.315 758.818 347.415 776.378 346.295C793.938 345.165 794.248 361.615 794.248 361.615Z" fill="#F1BD97"/>
<path d="M764.967 380.485C762.087 383.315 753.347 375.275 757.547 370.715C760.317 367.715 763.037 372.915 763.037 372.915L763.647 375.165L764.897 379.415L765.207 380.365L764.967 380.485Z" fill="#F1BD97"/>
<path d="M759.188 374.195C759.188 374.195 760.228 371.355 763.568 375.915" stroke="#201C2E" stroke-width="0.4774" stroke-miterlimit="10" stroke-linecap="round" stroke-linejoin="round"/>
<path d="M793.837 378.095C797.147 380.415 804.087 370.785 799.557 367.235C796.337 364.725 794.497 370.305 794.497 370.305L794.257 372.625L793.727 377.014L793.577 378.004L793.837 378.095Z" fill="#F1BD97"/>
<path d="M798.507 370.935C798.507 370.935 797.017 368.305 794.477 373.355" stroke="#201C2E" stroke-width="0.4774" stroke-miterlimit="10" stroke-linecap="round" stroke-linejoin="round"/>
<path d="M773.357 352.145C773.357 352.145 780.077 362.125 797.167 363.915C797.167 363.915 797.407 343.895 780.287 343.685C780.287 343.675 776.707 342.245 773.357 352.145Z" fill="#201C2E"/>
<path d="M779.127 351.665C779.127 351.665 774.227 361.655 759.967 366.995C759.967 366.995 756.897 350.304 773.287 345.004C773.277 345.004 776.307 342.785 779.127 351.665Z" fill="#201C2E"/>
<path d="M773.917 379.585L785.257 377.955C785.257 377.955 785.697 381.785 780.167 382.825C775.697 383.665 773.917 379.585 773.917 379.585Z" fill="white"/>
<path d="M802.708 474.795C806.908 480.635 812.478 489.315 817.358 500.615C822.518 512.565 824.678 522.295 825.728 527.135C833.608 563.435 837.548 581.595 841.078 603.895C844.028 622.505 848.658 649.205 855.728 682.055C854.578 682.305 853.418 682.535 852.238 682.755C843.108 684.445 834.438 685.005 826.418 684.845C820.458 653.645 814.268 628.705 809.668 611.575C805.318 595.375 802.298 585.775 792.218 550.165C786.638 530.465 782.168 514.335 779.258 503.775C779.388 502.275 779.558 499.965 779.658 497.125C779.848 491.575 779.568 489.645 779.868 486.155C780.058 483.945 780.518 480.745 781.748 476.885C788.758 476.185 795.738 475.485 802.708 474.795Z" fill="#40657A"/>
<path d="M461.128 480.725C458.928 473.565 455.477 464.715 449.927 455.295C445.897 448.445 441.628 442.785 437.728 438.235C442.038 453.565 446.348 468.885 450.658 484.215" fill="#4C7A5C"/>
<path d="M461.128 480.725C458.928 473.565 455.477 464.715 449.927 455.295C445.897 448.445 441.628 442.785 437.728 438.235C442.038 453.565 446.348 468.885 450.658 484.215" stroke="#E9C6BA" stroke-width="0.6962" stroke-miterlimit="10"/>
<path d="M443.278 480.655H478.178L470.238 506.895H451.938L443.278 480.655Z" fill="#EC9482"/>
<path d="M455.448 480.655C455.448 480.655 449.558 448.495 462.438 424.745C462.438 424.745 471.778 437.675 465.868 480.655" fill="#4C7A5C"/>
<path d="M455.448 480.655C455.448 480.655 449.558 448.495 462.438 424.745C462.438 424.745 471.778 437.675 465.868 480.655" stroke="#E9C6BA" stroke-width="0.6962" stroke-miterlimit="10"/>
<path d="M454.958 476.955C454.958 476.955 451.338 467.515 424.118 458.425C424.118 458.425 427.698 468.655 448.268 480.655" fill="#4C7A5C"/>
<path d="M454.958 476.955C454.958 476.955 451.338 467.515 424.118 458.425C424.118 458.425 427.698 468.655 448.268 480.655" stroke="#E9C6BA" stroke-width="0.6962" stroke-miterlimit="10"/>
<path d="M466.258 476.375C466.258 476.375 476.088 460.205 496.808 458.425C496.808 458.425 489.778 468.255 473.508 480.655" fill="#4C7A5C"/>
<path d="M466.258 476.375C466.258 476.375 476.088 460.205 496.808 458.425C496.808 458.425 489.778 468.255 473.508 480.655" stroke="#E9C6BA" stroke-width="0.6962" stroke-miterlimit="10"/>
<path d="M461.128 480.725C462.628 473.555 465.738 463.115 472.688 452.155C477.108 445.195 481.898 439.865 485.988 435.975C481.188 450.895 476.388 465.805 471.588 480.725" fill="#4C7A5C"/>
<path d="M461.128 480.725C462.628 473.555 465.738 463.115 472.688 452.155C477.108 445.195 481.898 439.865 485.988 435.975C481.188 450.895 476.388 465.805 471.588 480.725" stroke="#E9C6BA" stroke-width="0.6962" stroke-miterlimit="10"/>
<path d="M513.958 471.725C511.118 462.485 506.668 451.075 499.508 438.915C494.308 430.075 488.808 422.765 483.768 416.895C489.328 436.675 494.888 456.445 500.448 476.225" fill="#4C7A5C"/>
<path d="M513.958 471.725C511.118 462.485 506.668 451.075 499.508 438.915C494.308 430.075 488.808 422.765 483.768 416.895C489.328 436.675 494.888 456.445 500.448 476.225" stroke="#E9C6BA" stroke-width="0.6962" stroke-miterlimit="10"/>
<path d="M490.928 471.645H535.958L525.708 505.495H502.108L490.928 471.645Z" fill="#BC506C"/>
<path d="M506.628 471.645C506.628 471.645 499.018 430.145 515.638 399.495C515.638 399.495 527.688 416.175 520.068 471.645" fill="#4C7A5C"/>
<path d="M506.628 471.645C506.628 471.645 499.018 430.145 515.638 399.495C515.638 399.495 527.688 416.175 520.068 471.645" stroke="#E9C6BA" stroke-width="0.6962" stroke-miterlimit="10"/>
<path d="M505.997 466.865C505.997 466.865 501.328 454.685 466.208 442.955C466.208 442.955 470.828 456.165 497.378 471.645" fill="#4C7A5C"/>
<path d="M505.997 466.865C505.997 466.865 501.328 454.685 466.208 442.955C466.208 442.955 470.828 456.165 497.378 471.645" stroke="#E9C6BA" stroke-width="0.6962" stroke-miterlimit="10"/>
<path d="M520.578 466.115C520.578 466.115 533.268 445.255 560.008 442.955C560.008 442.955 550.938 455.645 529.948 471.645" fill="#4C7A5C"/>
<path d="M520.578 466.115C520.578 466.115 533.268 445.255 560.008 442.955C560.008 442.955 550.938 455.645 529.948 471.645" stroke="#E9C6BA" stroke-width="0.6962" stroke-miterlimit="10"/>
<path d="M513.958 471.725C515.888 462.475 519.908 448.995 528.878 434.855C534.578 425.865 540.767 418.995 546.047 413.975C539.857 433.225 533.658 452.475 527.468 471.715" fill="#4C7A5C"/>
<path d="M513.958 471.725C515.888 462.475 519.908 448.995 528.878 434.855C534.578 425.865 540.767 418.995 546.047 413.975C539.857 433.225 533.658 452.475 527.468 471.715" stroke="#E9C6BA" stroke-width="0.6962" stroke-miterlimit="10"/>
<path d="M677.528 707.495C691.378 717.355 609.748 733.505 539.088 727.925C468.428 722.355 339.318 726.344 333.558 709.634C327.798 692.924 493.598 692.345 535.418 692.345C577.238 692.345 650.128 687.995 677.528 707.495Z" fill="#DDDDDD"/>
<path d="M208.168 208.915C227.05 208.915 242.358 193.607 242.358 174.725C242.358 155.842 227.05 140.535 208.168 140.535C189.285 140.535 173.978 155.842 173.978 174.725C173.978 193.607 189.285 208.915 208.168 208.915Z" fill="white"/>
<path d="M530.108 345.895C558.352 345.895 581.248 322.998 581.248 294.755C581.248 266.511 558.352 243.615 530.108 243.615C501.864 243.615 478.968 266.511 478.968 294.755C478.968 322.998 501.864 345.895 530.108 345.895Z" fill="white"/>
<path d="M645.448 122.805C663.8 122.805 678.678 107.927 678.678 89.5746C678.678 71.2222 663.8 56.3446 645.448 56.3446C627.095 56.3446 612.218 71.2222 612.218 89.5746C612.218 107.927 627.095 122.805 645.448 122.805Z" fill="white"/>
<path d="M311.408 600.125C329.76 600.125 344.638 585.247 344.638 566.895C344.638 548.542 329.76 533.665 311.408 533.665C293.055 533.665 278.178 548.542 278.178 566.895C278.178 585.247 293.055 600.125 311.408 600.125Z" fill="white"/>
<path d="M886.268 602.295C898.992 602.295 909.307 591.979 909.307 579.255C909.307 566.53 898.992 556.215 886.268 556.215C873.543 556.215 863.228 566.53 863.228 579.255C863.228 591.979 873.543 602.295 886.268 602.295Z" fill="white"/>
</svg>
