<svg width="1049" height="1001" viewBox="0 0 1049 1001" fill="none" xmlns="http://www.w3.org/2000/svg">
<path d="M995.919 1000.75C995.889 1000.37 995.949 1000.07 996.449 1000.12C996.759 1000.15 997.039 1000.07 997.339 999.93C998.229 999.52 999.01 1000.18 999.86 1000.27C1000.03 1000.29 999.999 1000.58 1000.01 1000.76C998.639 1000.75 997.279 1000.75 995.919 1000.75Z" fill="#F5F6F4"/>
<path opacity="0.39" d="M223.579 784.72C221.699 789.17 242.069 806.18 267.819 810.83C283.259 813.62 291.789 810.36 323.179 803.5C377.129 791.7 398.639 791.12 398.439 786.61C398.199 781.09 370.999 777.24 353.339 776.4C326.879 775.14 317.229 780.41 256.509 784.7C233.519 786.33 224.709 782.06 223.579 784.72Z" fill="#A2B5BC"/>
<path opacity="0.18" d="M1045.81 423.18C1049.07 455.36 1064.12 604.12 970.83 696.41C901.41 765.08 790.9 765.07 569.88 765.04C523.5 765.03 444.809 756.36 287.119 742.16C152.019 730 118.499 725.2 83.7795 697.68C10.8895 639.89 -19.2105 519.99 12.6095 428.89C42.7695 342.57 101.909 358.29 217.219 222.38C302.309 122.08 305.649 71.62 368.449 49.54C422.919 30.39 455.45 57.29 569.88 92.75C800.7 164.27 848.89 113.96 933.98 185.52C1029.92 266.23 1042.7 392.48 1045.81 423.18Z" fill="#6095B2"/>
<path d="M923.809 343.11C909.489 343.11 897.019 343.11 884.559 343.11C845.539 343.11 806.519 343.14 767.489 343.06C763.779 343.05 758.649 344.58 757.909 338.76C757.269 333.71 760.049 329.08 764.999 328.53C780.249 326.82 791.959 320.43 801.429 307.93C806.979 300.61 817.289 299.31 826.069 297.37C837.169 294.92 847.769 306.37 848.219 320.88C848.389 326.31 848.969 327.17 854.909 325.58C880.939 318.63 900.659 322.85 923.809 343.11Z" fill="#FDFEFE"/>
<path d="M376.949 652.72C381.189 649.03 381.869 641.84 388.699 640.69C389.689 638.62 390.689 636.54 391.679 634.47C390.329 631.78 388.989 629.09 387.639 626.4C388.639 627.06 389.259 627.29 389.489 627.08C390.309 626.36 386.589 620.45 378.319 609.33C377.849 609.7 377.389 610.08 376.949 610.46C377.109 612.45 376.809 614.61 377.499 616.39C382.239 628.57 380.269 631.46 365.999 629.37C344.549 626.23 323.159 622.58 301.689 619.52C297.179 642.87 310.599 666.08 302.199 689.46C304.889 688.18 307.589 686.91 310.289 685.63C313.209 683.02 316.129 680.42 319.049 677.81C328.719 667.32 340.039 660.83 354.849 660.29C362.599 660.01 370.069 656.7 376.949 652.72Z" fill="#6CDEE5"/>
<path d="M241.559 547C234.069 556.16 231.479 568.38 223.009 576.92C251.199 584.89 280.409 587.08 309.069 592.38C318.679 594.16 331.489 591.37 331.869 607.4C338.379 607.93 348.759 596.85 349.899 613.47C357.739 618.24 364.109 612.72 370.949 610.45C371.029 607.86 371.719 605.59 374.199 604.28C364.459 594.46 356.489 583.35 350.229 570.99C347.199 569.66 347.319 584.27 341.719 572.48C339.939 568.73 334.149 568.63 329.569 568.07C317.349 566.58 304.929 565.53 293.109 562.34C281.239 559.13 270.099 556.91 260.369 563.81C253.399 561.93 259.989 549.14 251.829 553C242.529 557.39 245.619 547.43 241.559 547Z" fill="#71E3EA"/>
<path d="M340.689 538.01C335.279 516.88 331.009 495.28 314.349 479.18C297.689 463.08 280.649 465.27 269.309 485.26C263.899 494.79 258.669 504.44 253.369 514.03C258.829 518.95 263.029 525.72 272.549 523.23C275.879 522.36 280.059 525.36 283.939 525.94C303.099 528.83 321.129 537.07 340.689 538.01Z" fill="#7DE8EE"/>
<path d="M340.689 538.01C321.129 537.07 303.099 528.83 283.929 525.94C280.039 525.35 275.859 522.35 272.539 523.23C263.029 525.73 258.819 518.96 253.359 514.03C253.559 519.79 252.049 524.9 247.759 528.96C245.689 534.97 243.619 540.99 241.549 547C245.609 547.43 242.519 557.39 251.829 553C259.989 549.15 253.399 561.93 260.369 563.81C270.089 556.91 281.229 559.13 293.109 562.34C304.929 565.53 317.349 566.57 329.569 568.07C334.149 568.63 339.939 568.73 341.719 572.48C347.319 584.27 347.199 569.66 350.229 570.99C347.049 560 343.869 549 340.689 538.01Z" fill="#77E5ED"/>
<path d="M374.189 604.28C371.709 605.6 371.019 607.86 370.939 610.45C372.939 610.45 374.949 610.45 376.949 610.46C377.399 610.08 377.849 609.7 378.319 609.33C376.949 607.64 375.569 605.96 374.189 604.28Z" fill="#6CDEE5"/>
<path d="M214.249 595.02C196.679 639.55 223.719 685.88 271.129 692.48C272.899 684.48 262.439 678.65 267.419 669.27C271.229 673.64 274.519 677.86 278.279 681.6C282.409 685.7 286.239 686.73 286.709 678.89C288.079 656.03 293.599 633.52 292.539 610.45C271.509 618.5 252.129 607.13 232.189 604.21C227.139 603.47 216.149 605.6 214.249 595.02Z" fill="#6BDEE5"/>
<path d="M292.55 610.45C289.52 645.72 287.26 671.46 286.72 678.89C286.63 680.17 286.37 683.81 284.4 684.59C283.55 684.93 282.01 684.89 278.29 681.6C271.03 675.19 269.89 669.17 267.43 669.27C266.18 669.32 264.42 670.97 262.52 678.87C265.39 683.41 268.26 687.94 271.13 692.48C273.97 693.81 278.56 696.48 281.45 701.53C284.88 707.51 284.17 713.75 283.86 716.69C282.56 728.83 280.94 750.21 278.57 778.26C278.6 782.8 278.63 787.34 278.66 791.89C282.78 792.17 286.9 792.44 291.01 792.72C294.97 792.44 298.92 792.17 302.88 791.89C303.13 787.4 303.38 782.9 303.63 778.41C304.73 747.92 305.82 717.43 306.92 686.94C302.82 643.09 301.59 624.94 301.71 619.52C301.77 616.6 301.52 613.67 301.55 610.75C301.64 603.57 301.86 601.86 300.49 600.61C298.33 598.64 292.83 598.58 290.77 602.17C289.34 604.67 289.98 608.21 292.55 610.45Z" fill="#52B6BE"/>
<path d="M292.549 610.45C293.919 606.49 290.069 598.81 297.939 599.58C303.589 600.13 301.079 606.72 301.549 610.75C301.879 613.64 301.669 616.59 301.709 619.52C323.179 622.58 344.559 626.23 366.019 629.37C380.289 631.46 382.259 628.57 377.519 616.39C376.829 614.61 377.129 612.45 376.969 610.46C374.969 610.46 372.959 610.46 370.959 610.45C364.119 612.72 357.749 618.24 349.909 613.47C341.509 618.61 334.689 619.02 331.879 607.4C331.509 591.36 318.689 594.15 309.079 592.38C280.419 587.08 251.209 584.89 223.019 576.92C222.099 578.72 221.189 580.52 220.269 582.33C220.509 585.19 220.269 587.82 217.229 589.21L217.349 589.04C217.489 591.7 216.949 594.02 214.269 595.27L214.259 595.02C216.159 605.6 227.149 603.47 232.209 604.21C252.139 607.13 271.519 618.5 292.549 610.45Z" fill="#6DE1E7"/>
<path d="M217.22 589.21C220.26 587.82 220.5 585.19 220.26 582.33C217.95 584.04 217.15 586.43 217.22 589.21Z" fill="#6BDEE5"/>
<path d="M214.259 595.27C216.949 594.02 217.489 591.7 217.339 589.04C214.939 590.43 214.339 592.73 214.259 595.27Z" fill="#6BDEE5"/>
<path d="M274.689 694.59C273.569 693.83 272.449 693.06 271.319 692.3C272.449 693.06 273.569 693.82 274.689 694.59Z" fill="#6BDEE5"/>
<path d="M368.059 679.9C368.129 681.9 368.189 683.9 368.259 685.9C369.719 685.1 372.249 684.5 372.449 683.45C373.039 680.35 370.179 680.34 368.059 679.9Z" fill="#FAFAFA"/>
<path d="M331.869 607.4C334.679 619.02 341.499 618.6 349.899 613.47C348.759 596.85 338.369 607.94 331.869 607.4Z" fill="#6CDEE5"/>
<path d="M312.969 557.77C314.085 557.77 314.989 556.866 314.989 555.75C314.989 554.634 314.085 553.73 312.969 553.73C311.854 553.73 310.949 554.634 310.949 555.75C310.949 556.866 311.854 557.77 312.969 557.77Z" fill="#52B6BE"/>
<path d="M271.851 602.694C272.07 600.302 270.242 598.179 267.767 597.952C265.292 597.725 263.108 599.48 262.889 601.873C262.67 604.265 264.498 606.388 266.973 606.615C269.448 606.842 271.632 605.087 271.851 602.694Z" fill="#52B6BE"/>
<path d="M334.074 615.102C334.257 614.047 333.577 613.047 332.554 612.869C331.531 612.691 330.553 613.402 330.369 614.458C330.186 615.514 330.866 616.514 331.889 616.691C332.912 616.869 333.89 616.158 334.074 615.102Z" fill="#52B6BE"/>
<path d="M488.92 305.54C406.25 305.54 325.83 305.42 245.4 305.7C235.31 305.74 234.48 302.4 236.58 293.5C241.15 274.08 251.59 259.39 271.09 255.36C293.93 250.63 316.35 254.29 330.51 275.37C336.71 284.61 341.02 287.16 352.91 286.05C389.8 282.59 426.87 283.87 462.32 296.78C470.26 299.68 479.72 296.12 488.92 305.54Z" fill="#FDFEFE"/>
<path d="M721.26 71.97V223.87H394.03V71.97H507.31C507.31 71.94 507.31 71.9 507.34 71.83C507.35 71.72 507.35 71.59 507.36 71.44C507.38 71.15 507.39 70.98 507.39 70.96C507.48 69.5 507.53 68.76 507.69 65.42C507.83 62.61 510.01 54.49 511.13 51.64C512.94 47.05 527.07 18.07 556.03 16.85C582.52 15.73 602.32 38.53 607.1 58.18C608.42 63.62 608.46 68.45 608.25 71.96H721.26V71.97Z" fill="#EDC4B8"/>
<path d="M731.59 58.54V72.32H607.59C607.82 68.8 607.76 63.99 606.45 58.54C601.78 39.12 582.36 16.22 555.92 17.21C527.76 18.26 513.44 45.58 511.14 51.66C509.48 56.03 507.3 67.18 507.7 68.88C507.74 69.07 508.14 70.5 507.73 72.19C507.72 72.25 507.7 72.3 507.7 72.33C466.37 72.33 425.03 72.33 383.7 72.33V58.55C420.44 58.55 457.18 58.55 493.92 58.55C493.91 58.05 493.9 57.48 493.92 56.83C494.55 32.74 521.79 0 557.64 0C593.49 0 620.74 32.75 621.36 56.83C621.38 57.48 621.37 58.06 621.36 58.55C658.11 58.54 694.85 58.54 731.59 58.54Z" fill="#5A3EA2"/>
<path d="M559.37 92.98C576.49 92.98 590.37 79.1008 590.37 61.98C590.37 44.8592 576.49 30.98 559.37 30.98C542.249 30.98 528.37 44.8592 528.37 61.98C528.37 79.1008 542.249 92.98 559.37 92.98Z" fill="#A09BEE"/>
<path d="M476.7 103.32H418.14V203.21H476.7V103.32Z" fill="#A79CE7"/>
<path d="M459.462 92.9816L451.671 87.5457L379.82 190.526L387.611 195.962L459.462 92.9816Z" fill="#BFB3F0"/>
<path d="M484.226 108.578L465.675 95.6349L392.394 200.665L410.944 213.608L484.226 108.578Z" fill="#BFB3F0"/>
<path d="M559.37 92.98C576.49 92.98 590.37 79.1008 590.37 61.98C590.37 44.8592 576.49 30.98 559.37 30.98C542.249 30.98 528.37 44.8592 528.37 61.98C528.37 79.1008 542.249 92.98 559.37 92.98Z" stroke="#FCDFDC" stroke-width="1.5" stroke-miterlimit="10"/>
<path d="M559.37 30.98V92.99" stroke="#FCDFDC" stroke-width="1.5" stroke-miterlimit="10"/>
<path d="M590.37 61.98H528.37" stroke="#FCDFDC" stroke-width="1.5" stroke-miterlimit="10"/>
<path d="M476.7 103.32H418.14V203.21H476.7V103.32Z" stroke="#FCDFDC" stroke-width="1.5" stroke-miterlimit="10"/>
<path d="M586.929 103.32H528.369V203.21H586.929V103.32Z" fill="#A79CE7"/>
<path d="M569.681 92.9792L561.89 87.5433L490.039 190.523L497.83 195.959L569.681 92.9792Z" fill="#BFB3F0"/>
<path d="M594.453 108.581L575.902 95.6383L502.621 200.669L521.171 213.612L594.453 108.581Z" fill="#BFB3F0"/>
<path d="M586.93 103.32H528.37V203.21H586.93V103.32Z" stroke="#FCDFDC" stroke-width="1.5" stroke-miterlimit="10"/>
<path d="M693.709 103.32H635.149V203.21H693.709V103.32Z" fill="#A79CE7"/>
<path d="M676.468 92.9852L668.677 87.5493L596.826 190.529L604.617 195.965L676.468 92.9852Z" fill="#BFB3F0"/>
<path d="M701.232 108.582L682.681 95.6385L609.4 200.669L627.95 213.612L701.232 108.582Z" fill="#BFB3F0"/>
<path d="M693.709 103.32H635.149V203.21H693.709V103.32Z" stroke="#FCDFDC" stroke-width="1.5" stroke-miterlimit="10"/>
<path d="M559.37 103.32V203.21" stroke="#FCDFDC" stroke-width="1.5" stroke-miterlimit="10"/>
<path d="M666.149 103.32V203.21" stroke="#FCDFDC" stroke-width="1.5" stroke-miterlimit="10"/>
<path d="M449.14 103.32V203.21" stroke="#FCDFDC" stroke-width="1.5" stroke-miterlimit="10"/>
<path d="M418.14 154.99H476.7" stroke="#FCDFDC" stroke-width="1.5" stroke-miterlimit="10"/>
<path d="M528.37 154.99H586.92" stroke="#FCDFDC" stroke-width="1.5" stroke-miterlimit="10"/>
<path d="M635.149 154.99H693.699" stroke="#FCDFDC" stroke-width="1.5" stroke-miterlimit="10"/>
<path d="M731.589 220.43H383.689V234.21H731.589V220.43Z" fill="#E7F8FB"/>
<path d="M728.15 241.1H387.14V278.99H728.15V241.1Z" fill="#E7F8FB"/>
<path d="M717.809 241.1C611.029 241.1 504.249 241.1 397.469 241.1C392.879 238.8 388.279 236.51 383.689 234.21H731.589C726.999 236.51 722.409 238.8 717.809 241.1Z" fill="#CDC4F4"/>
<path d="M721.51 285.88C612.72 285.88 503.93 285.88 395.15 285.88C392.48 283.58 389.81 281.29 387.14 278.99C500.81 278.99 614.48 278.99 728.15 278.99C725.93 281.29 723.72 283.58 721.51 285.88Z" fill="#CDC4F4"/>
<path d="M721.26 285.88H394.03V465H721.26V285.88Z" fill="#FDC434"/>
<path d="M732.44 464.4H384.54V478.18H732.44V464.4Z" fill="#E7F8FB"/>
<path d="M728.989 485.07H387.979V522.96H728.989V485.07Z" fill="#E7F8FB"/>
<path d="M718.66 485.07C611.88 485.07 505.1 485.07 398.32 485.07C393.73 482.77 389.13 480.48 384.54 478.18H732.44C727.85 480.47 723.25 482.77 718.66 485.07Z" fill="#CDC4F4"/>
<path d="M722.349 529.85C613.559 529.85 504.769 529.85 395.989 529.85C393.319 527.55 390.649 525.26 387.979 522.96C501.649 522.96 615.319 522.96 728.989 522.96C726.779 525.25 724.569 527.55 722.349 529.85Z" fill="#CDC4F4"/>
<path d="M722.1 529.85H394.87V675.12H722.1V529.85Z" fill="#FDC434"/>
<path d="M731.59 675.11H387.14V761.22H731.59V675.11Z" fill="#63C9CB"/>
<path d="M600.7 578.66H514.59V730.22H600.7V578.66Z" fill="#F96A5A"/>
<path d="M593.82 692.33H521.479V723.3H593.82V692.33Z" fill="#FC8B7E"/>
<path d="M583.48 661.33C585.379 661.33 586.92 659.79 586.92 657.89C586.92 655.99 585.379 654.45 583.48 654.45C581.58 654.45 580.04 655.99 580.04 657.89C580.04 659.79 581.58 661.33 583.48 661.33Z" fill="#EE5F52"/>
<path d="M611.03 736.78H505.1V747.44H611.03V736.78Z" fill="#F0D2CB"/>
<path d="M628.26 747.45H488.3V761.23H628.26V747.45Z" fill="#F5D4C8"/>
<path d="M475.709 342.45H417.149V442.34H475.709V342.45Z" fill="#A79CE7"/>
<path d="M458.468 332.118L450.677 326.683L378.826 429.663L386.617 435.098L458.468 332.118Z" fill="#BFB3F0"/>
<path d="M483.232 347.715L464.681 334.772L391.399 439.802L409.95 452.745L483.232 347.715Z" fill="#BFB3F0"/>
<path d="M449.14 340.99V440.88" stroke="white" stroke-width="1.5" stroke-miterlimit="10"/>
<path d="M418.14 392.66H476.7" stroke="white" stroke-width="1.5" stroke-miterlimit="10"/>
<path d="M476.7 340.99H418.14V440.88H476.7V340.99Z" stroke="white" stroke-width="1.5" stroke-miterlimit="10"/>
<path d="M589.38 342.45H530.82V442.34H589.38V342.45Z" fill="#A79CE7"/>
<path d="M572.136 332.119L564.345 326.683L492.494 429.663L500.285 435.099L572.136 332.119Z" fill="#BFB3F0"/>
<path d="M596.9 347.716L578.349 334.773L505.067 439.803L523.618 452.746L596.9 347.716Z" fill="#BFB3F0"/>
<path d="M562.81 340.99V440.88" stroke="white" stroke-width="1.5" stroke-miterlimit="10"/>
<path d="M531.81 392.66H590.37" stroke="white" stroke-width="1.5" stroke-miterlimit="10"/>
<path d="M590.37 340.99H531.81V440.88H590.37V340.99Z" stroke="white" stroke-width="1.5" stroke-miterlimit="10"/>
<path d="M696.16 342.45H637.6V442.34H696.16V342.45Z" fill="#A79CE7"/>
<path d="M678.914 332.12L671.123 326.684L599.272 429.664L607.063 435.1L678.914 332.12Z" fill="#BFB3F0"/>
<path d="M703.678 347.716L685.127 334.773L611.846 439.803L630.396 452.746L703.678 347.716Z" fill="#BFB3F0"/>
<path d="M669.589 340.99V440.88" stroke="white" stroke-width="1.5" stroke-miterlimit="10"/>
<path d="M638.589 392.66H697.149" stroke="white" stroke-width="1.5" stroke-miterlimit="10"/>
<path d="M697.149 340.99H638.589V440.88H697.149V340.99Z" stroke="white" stroke-width="1.5" stroke-miterlimit="10"/>
<path d="M480.14 330.66C473.15 328.05 461.76 324.76 447.42 324.76C439.95 324.76 428.12 325.65 414.7 330.66C414.7 325.74 414.7 320.82 414.7 315.9C421.69 313.29 433.08 310 447.42 310C454.89 310 466.72 310.89 480.14 315.9C480.14 320.82 480.14 325.74 480.14 330.66Z" fill="#E8F7FF"/>
<path d="M593.81 330.66C586.82 328.05 575.43 324.76 561.09 324.76C553.62 324.76 541.79 325.65 528.37 330.66C528.37 325.74 528.37 320.82 528.37 315.9C535.36 313.29 546.75 310 561.09 310C568.56 310 580.39 310.89 593.81 315.9C593.81 320.82 593.81 325.74 593.81 330.66Z" fill="#E8F7FF"/>
<path d="M700.589 330.66C693.599 328.05 682.209 324.76 667.869 324.76C660.399 324.76 648.569 325.65 635.149 330.66C635.149 325.74 635.149 320.82 635.149 315.9C642.139 313.29 653.529 310 667.869 310C675.339 310 687.169 310.89 700.589 315.9C700.589 320.82 700.589 325.74 700.589 330.66Z" fill="#E8F7FF"/>
<path d="M693.65 588.27H635.09V688.16H693.65V588.27Z" fill="#A79CE7"/>
<path d="M676.406 577.923L668.615 572.487L596.764 675.467L604.555 680.903L676.406 577.923Z" fill="#BFB3F0"/>
<path d="M701.17 593.52L682.62 580.577L609.338 685.607L627.889 698.55L701.17 593.52Z" fill="#BFB3F0"/>
<path d="M635.149 613.11H693.699" stroke="white" stroke-width="1.5" stroke-miterlimit="10"/>
<path d="M694.64 586.81H636.08V686.7H694.64V586.81Z" stroke="white" stroke-width="1.5" stroke-miterlimit="10"/>
<path d="M474.959 587.58H416.399V687.47H474.959V587.58Z" fill="#A79CE7"/>
<path d="M457.711 577.23L449.92 571.794L378.069 674.774L385.86 680.21L457.711 577.23Z" fill="#BFB3F0"/>
<path d="M482.483 592.833L463.933 579.889L390.651 684.92L409.202 697.863L482.483 592.833Z" fill="#BFB3F0"/>
<path d="M416.45 612.42H475.01" stroke="white" stroke-width="1.5" stroke-miterlimit="10"/>
<path d="M475.95 586.12H417.39V686.01H475.95V586.12Z" stroke="white" stroke-width="1.5" stroke-miterlimit="10"/>
<path d="M748.82 196.32H721.26V203.21H748.82V196.32Z" fill="#5A3EA2"/>
<path d="M748.82 334.1H721.26V340.99H748.82V334.1Z" fill="#5A3EA2"/>
<path d="M807.71 409.88H758.82C753.32 409.88 748.82 405.38 748.82 399.88V151.21C748.82 145.71 753.32 141.21 758.82 141.21H807.71C813.21 141.21 817.71 145.71 817.71 151.21V399.88C817.71 405.38 813.21 409.88 807.71 409.88Z" fill="#FB8270"/>
<path d="M774.069 165.35L779.949 165.31L780.019 175.33L788.999 175.27L788.929 165.25L794.809 165.21L794.979 191.22L789.099 191.26L789.029 180.4L780.049 180.46L780.119 191.32L774.239 191.36L774.069 165.35Z" fill="white"/>
<path d="M773.239 226.13C773.179 217.63 777.949 212.73 784.959 212.68C791.969 212.63 796.799 217.51 796.859 225.97C796.919 234.47 792.149 239.6 785.139 239.64C778.129 239.69 773.289 234.62 773.239 226.13ZM790.839 226.01C790.809 220.8 788.549 217.73 784.999 217.76C781.449 217.78 779.229 220.88 779.269 226.09C779.299 231.3 781.559 234.59 785.109 234.57C788.649 234.55 790.869 231.23 790.839 226.01Z" fill="white"/>
<path d="M779.819 266.01L772.659 266.06L772.629 261.13L792.829 261L792.859 265.93L785.699 265.98L785.839 287.05L779.959 287.09L779.819 266.01Z" fill="white"/>
<path d="M775.009 308.99L791.299 308.88L791.329 313.81L780.909 313.88L780.939 319.1L789.809 319.04L789.839 323.97L780.969 324.03L781.009 330.02L791.819 329.95L791.849 334.88L775.159 334.99L775.009 308.99Z" fill="white"/>
<path d="M775.319 356.88L781.199 356.84L781.339 377.91L791.609 377.84L791.639 382.77L775.499 382.88L775.319 356.88Z" fill="white"/>
<path d="M403.179 625.9C402.219 621.54 401.279 617.15 403.809 612.36C405.859 608.48 409.399 606.25 413.489 605.77C425.089 604.39 426.119 614.76 437.139 619.3C441.849 621.24 446.679 620.68 450.889 623.19C458.489 627.72 455.689 633.19 450.649 645.02C438.309 673.98 417.089 657.21 413.339 651.51C410.559 647.27 403.799 628.71 403.179 625.9Z" fill="#13375B"/>
<path d="M410.279 647.76L411.469 641.56C411.469 641.56 407.959 642.4 405.729 645.86C403.499 649.33 399.759 661.04 399.129 661.39C398.489 661.74 391.439 650.86 390.199 649.15C388.669 647.03 388.099 644.6 387.149 642.75C386.199 640.9 382.829 640.27 381.549 640.5C380.279 640.73 383.299 646.14 383.299 646.14C383.299 646.14 390.949 659.43 393.499 666.71C396.049 673.99 404.009 677.45 405.289 676.41C406.559 675.37 410.279 647.76 410.279 647.76Z" fill="#F48C7F"/>
<path d="M408.899 666.36L399.159 660.8C399.159 660.8 403.579 642.16 411.469 641.56L408.899 666.36Z" fill="#F7CC7F"/>
<path d="M387.059 643.77C387.059 643.77 386.739 642.37 385.879 642.08C385.019 641.79 383.529 642.05 383.429 642.08C383.329 642.11 381.679 641.22 381.679 641.22L383.049 643.76C383.049 643.76 385.719 646.91 386.609 645.73C387.509 644.56 387.059 643.77 387.059 643.77Z" fill="#F7A491"/>
<path d="M381.209 641.34C381.209 641.34 380.249 646.25 380.489 647.28C380.729 648.31 381.349 647.76 381.459 647.53C381.929 646.61 382.269 643.46 382.269 643.46L381.209 641.34Z" fill="#F48C7F"/>
<path d="M383.289 645.42C383.289 645.42 382.829 648.46 382.359 648.82C382.049 649.05 381.659 648.92 381.529 648.3C381.399 647.69 382.139 643.93 382.139 643.93L383.289 645.42Z" fill="#F48C7F"/>
<path d="M386.099 654.06L387.699 653.28L380.899 639.33C380.019 639.76 379.649 640.83 380.079 641.71L386.099 654.06Z" fill="#184655"/>
<path d="M449.589 808.84C449.589 808.84 450.419 817.23 452.539 818.77C454.659 820.31 457.499 826.01 456.079 829.09C455.639 830.05 454.749 830.61 453.739 830.92C450.759 831.84 447.579 830.29 446.309 827.44C445.599 825.85 444.979 823.72 444.849 821.04C444.529 814.22 442.409 810.76 442.409 810.76L449.589 808.84Z" fill="#F7A491"/>
<path d="M416.949 812.28C416.949 812.28 416.279 820.75 416.819 823.5C417.109 824.97 418.729 828.01 417.989 829.39C417.249 830.78 416.399 831.12 416.399 831.12L397.129 831.43C396.079 831.45 396.769 830.77 397.619 830.15C399.009 829.13 400.119 828.46 404.549 826.33C404.839 826.19 405.889 825.52 406.269 825.29C407.229 824.7 408.199 823.78 409.029 822.86C410.409 821.32 410.529 813.87 410.529 813.87L416.949 812.28Z" fill="#F7A491"/>
<path d="M401.89 699.75C401.89 699.75 399.46 713.5 401.06 722.51C402.65 731.52 410.299 815.05 410.299 815.05L418.799 815.53C418.799 815.53 420.58 780.64 420.26 775.79C419.94 770.94 417.419 762.82 417.419 762.82L418.27 734.65L407.549 697.64L401.89 699.75Z" fill="#662A21"/>
<path d="M426.859 696.86C426.859 696.86 433.549 706.91 435.139 715.23C436.729 723.55 433.97 749.11 437.03 760.01C438.69 765.91 444.979 775.02 445.929 782.65C446.889 790.27 450.639 810.25 450.639 810.25L442.15 811.93L422.409 762.05L406.929 716.97L402.959 693.75L426.859 696.86Z" fill="#AD4B3B"/>
<path d="M421.45 639.67C421.45 639.67 426.04 640.43 429.46 643.77C436.79 650.94 425.15 678.6 424.52 683.46C423.88 688.31 429.74 699.63 429.74 699.63C429.74 699.63 407.85 703.68 401.9 699.75C401.9 699.75 401.2 660.82 401.84 657.35C402.48 653.88 409.61 643.19 410.88 641.8C412.14 640.41 421.45 639.67 421.45 639.67Z" fill="#F9B4DC"/>
<path d="M429.729 647.03C429.169 645.32 427.229 644.5 425.579 645.21C423.319 646.19 420.189 648.04 418.669 651.23C416.119 656.54 407.199 674.8 404.439 675.49C401.679 676.18 390.419 656.54 390.419 656.54C390.419 656.54 390.739 653.07 389.779 651.11C388.819 649.15 385.959 647.07 385.529 647.76C385.109 648.45 387.119 650.19 387.119 650.53C387.119 650.87 386.269 651.11 385.099 650.41C383.929 649.72 383.299 648.31 383.299 648.31C383.299 648.31 381.379 651.79 383.399 654.91C385.419 658.03 386.269 659.3 386.269 659.3C386.269 659.3 399.329 688.3 404.109 688.65C408.569 688.98 434.209 660.55 429.729 647.03Z" fill="#F7A491"/>
<path d="M418.499 627.86C418.499 627.86 418.549 628.12 418.629 628.56C419.019 630.69 420.549 637.74 421.569 639.68C422.809 642.02 417.319 649.49 412.029 648.58C410.459 648.31 413.359 641.71 413.219 641.02C412.949 639.68 412.589 637.86 412.219 635.99C412.009 634.94 411.799 633.87 411.599 632.86C411.029 630 410.569 627.67 410.569 627.67L418.499 627.86Z" fill="#F7A491"/>
<path d="M418.629 628.56C418.549 628.12 418.499 627.86 418.499 627.86L410.579 627.66C410.579 627.66 411.039 630 411.609 632.85C411.809 633.85 412.019 634.91 412.229 635.96C413.449 635.78 414.729 635.19 416.009 634.07C417.409 632.85 418.319 631.38 418.879 629.82C418.769 629.32 418.689 628.89 418.629 628.56Z" fill="#F47458"/>
<path d="M413.73 609.03C413.73 609.03 416.96 609.48 419.3 612.5C421.64 615.52 424.16 624.86 418.35 629.94C412.54 635.02 406.79 629.27 405.94 623.17C405.09 617.08 405.26 608.81 413.73 609.03Z" fill="#F7A491"/>
<path d="M404.079 621.09C404.769 622.44 405.939 623.18 406.679 622.76C407.419 622.33 407.459 620.9 406.769 619.55C406.079 618.2 404.909 617.46 404.169 617.88C403.429 618.31 403.389 619.75 404.079 621.09Z" fill="#F7A491"/>
<path d="M412.75 608.89C412.75 608.89 417.74 617.78 421.31 618.19C424.88 618.6 425.349 623.32 425.349 623.32C425.349 623.32 424.069 612.44 420.539 610.34C416.999 608.24 412.75 608.89 412.75 608.89Z" fill="#13375B"/>
<path d="M420.139 620.3C419.849 621.88 420.429 623.32 421.439 623.53C422.449 623.74 423.499 622.63 423.799 621.05C424.089 619.47 423.509 618.03 422.499 617.82C421.479 617.61 420.429 618.72 420.139 620.3Z" fill="#F7A491"/>
<path d="M445.739 825.94C450.369 826.78 453.449 824.08 455.049 822.06C456.229 824.35 456.949 827.21 456.079 829.1C455.319 830.76 453.319 830.89 451.569 830.96C449.719 831.03 447.899 830.38 446.979 828.77C446.549 828.01 446.109 827.07 445.739 825.94Z" fill="#E5558C"/>
<path d="M406.269 825.29C411.369 826.59 415.129 825.71 417.239 824.86C417.779 826.4 418.499 828.33 418.119 829.44C417.649 830.8 416.989 831.11 416.399 831.12C411.749 831.24 399.349 831.41 395.799 831.45C395.299 831.46 395.029 830.88 395.349 830.5C396.229 829.45 405.889 825.52 406.269 825.29Z" fill="#E5558C"/>
<path d="M421.179 672.52L411.099 664.99C411.099 664.99 415.299 651.49 419.919 646.71C424.539 641.93 426.719 643.09 427.689 644.08C430.369 646.83 429.889 653.52 426.849 661.77C423.809 670.01 421.179 672.52 421.179 672.52Z" fill="#E5558C"/>
<path opacity="0.39" d="M818.34 755.49C816.46 759.94 836.83 776.95 862.58 781.6C878.02 784.39 886.55 781.13 917.94 774.27C971.89 762.47 993.4 761.89 993.2 757.38C992.96 751.86 965.76 748.01 948.1 747.17C921.64 745.91 911.99 751.18 851.27 755.47C828.28 757.1 819.46 752.83 818.34 755.49Z" fill="#A2B5BC"/>
<path d="M812.87 624.9C808.63 621.21 807.95 614.02 801.12 612.87C800.13 610.8 799.13 608.72 798.14 606.65C799.49 603.96 800.83 601.27 802.18 598.58C801.18 599.24 800.56 599.47 800.33 599.26C799.51 598.54 803.23 592.63 811.5 581.51C811.97 581.88 812.43 582.26 812.87 582.64C812.71 584.63 813.01 586.79 812.32 588.57C807.58 600.75 809.55 603.64 823.82 601.55C845.27 598.41 866.66 594.76 888.13 591.7C892.64 615.05 879.22 638.26 887.62 661.64C884.93 660.36 882.23 659.09 879.53 657.81C876.61 655.2 873.69 652.6 870.77 649.99C861.1 639.5 849.78 633.01 834.97 632.47C827.22 632.19 819.75 628.88 812.87 624.9Z" fill="#6CDEE5"/>
<path d="M948.26 519.18C955.75 528.34 958.34 540.56 966.81 549.1C938.62 557.07 909.41 559.26 880.75 564.56C871.14 566.34 858.33 563.55 857.95 579.58C851.44 580.11 841.06 569.03 839.92 585.65C832.08 590.42 825.71 584.9 818.87 582.63C818.79 580.04 818.1 577.77 815.62 576.46C825.36 566.64 833.33 555.53 839.59 543.17C842.62 541.84 842.5 556.45 848.1 544.66C849.88 540.91 855.67 540.81 860.25 540.25C872.47 538.76 884.89 537.71 896.71 534.52C908.58 531.31 919.72 529.09 929.45 535.99C936.42 534.11 929.83 521.32 937.99 525.18C947.29 529.57 944.2 519.61 948.26 519.18Z" fill="#71E3EA"/>
<path d="M849.13 510.19C854.54 489.06 858.81 467.46 875.47 451.36C892.13 435.26 909.17 437.45 920.51 457.44C925.92 466.97 931.15 476.62 936.45 486.21C930.99 491.13 926.79 497.9 917.27 495.41C913.94 494.54 909.76 497.54 905.88 498.12C886.72 501.01 868.69 509.25 849.13 510.19Z" fill="#7DE8EE"/>
<path d="M849.13 510.19C868.69 509.25 886.72 501.01 905.89 498.12C909.78 497.53 913.96 494.53 917.28 495.41C926.79 497.91 931 491.14 936.46 486.21C936.26 491.97 937.77 497.08 942.06 501.14C944.13 507.15 946.2 513.17 948.27 519.18C944.21 519.61 947.3 529.57 937.99 525.18C929.83 521.33 936.42 534.11 929.45 535.99C919.73 529.09 908.59 531.31 896.71 534.52C884.89 537.71 872.47 538.75 860.25 540.25C855.67 540.81 849.88 540.91 848.1 544.66C842.5 556.45 842.62 541.84 839.59 543.17C842.77 532.18 845.95 521.18 849.13 510.19Z" fill="#77E5ED"/>
<path d="M815.63 576.46C818.11 577.78 818.8 580.04 818.88 582.63C816.88 582.63 814.87 582.63 812.87 582.64C812.42 582.26 811.97 581.88 811.5 581.51C812.87 579.82 814.25 578.14 815.63 576.46Z" fill="#6CDEE5"/>
<path d="M975.57 567.2C993.14 611.73 966.1 658.06 918.69 664.66C916.92 656.66 927.38 650.83 922.4 641.45C918.59 645.82 915.3 650.04 911.54 653.78C907.41 657.88 903.58 658.91 903.11 651.07C901.74 628.21 896.22 605.7 897.28 582.63C918.31 590.68 937.69 579.31 957.63 576.39C962.68 575.65 973.67 577.78 975.57 567.2Z" fill="#6BDEE5"/>
<path d="M897.269 582.63C900.299 617.9 902.559 643.64 903.099 651.07C903.189 652.35 903.449 655.99 905.419 656.77C906.269 657.11 907.809 657.07 911.529 653.78C918.799 647.37 919.929 641.35 922.389 641.45C923.639 641.5 925.399 643.15 927.299 651.05C924.429 655.59 921.559 660.12 918.689 664.66C915.849 665.99 911.259 668.66 908.369 673.71C904.939 679.69 905.649 685.93 905.959 688.87C907.259 701.01 908.879 722.39 911.249 750.44C911.219 754.98 911.189 759.52 911.159 764.07C907.039 764.35 902.919 764.62 898.809 764.9C894.849 764.62 890.899 764.35 886.939 764.07C886.689 759.58 886.439 755.08 886.189 750.59C885.089 720.1 883.999 689.61 882.899 659.12C886.999 615.27 888.229 597.12 888.109 591.7C888.049 588.78 888.299 585.85 888.269 582.93C888.179 575.75 887.959 574.04 889.329 572.79C891.489 570.82 896.989 570.76 899.049 574.35C900.479 576.85 899.829 580.39 897.269 582.63Z" fill="#52B6BE"/>
<path d="M897.27 582.63C895.9 578.67 899.75 570.99 891.88 571.76C886.23 572.31 888.74 578.9 888.27 582.93C887.94 585.82 888.15 588.77 888.11 591.7C866.64 594.76 845.26 598.41 823.8 601.55C809.53 603.64 807.56 600.75 812.3 588.57C812.99 586.79 812.69 584.63 812.85 582.64C814.85 582.64 816.86 582.64 818.86 582.63C825.7 584.9 832.07 590.42 839.91 585.65C848.31 590.79 855.13 591.2 857.94 579.58C858.31 563.54 871.13 566.33 880.74 564.56C909.4 559.26 938.61 557.07 966.8 549.1C967.72 550.9 968.63 552.7 969.55 554.51C969.31 557.37 969.55 560 972.59 561.39L972.47 561.22C972.33 563.88 972.87 566.2 975.55 567.45C975.55 567.45 975.56 567.2 975.56 567.19C973.66 577.77 962.67 575.64 957.61 576.38C937.68 579.31 918.3 590.68 897.27 582.63Z" fill="#6DE1E7"/>
<path d="M972.6 561.39C969.56 560 969.32 557.37 969.56 554.51C971.87 556.22 972.67 558.61 972.6 561.39Z" fill="#6BDEE5"/>
<path d="M975.56 567.45C972.87 566.2 972.33 563.88 972.48 561.22C974.88 562.61 975.48 564.91 975.56 567.45Z" fill="#6BDEE5"/>
<path d="M915.13 666.77C916.25 666.01 917.37 665.24 918.5 664.48C917.37 665.24 916.25 666 915.13 666.77Z" fill="#6BDEE5"/>
<path d="M821.76 652.08C821.69 654.08 821.63 656.08 821.56 658.08C820.1 657.28 817.57 656.68 817.37 655.63C816.78 652.53 819.64 652.52 821.76 652.08Z" fill="#FAFAFA"/>
<path d="M857.949 579.58C855.139 591.2 848.319 590.78 839.919 585.65C841.059 569.03 851.449 580.12 857.949 579.58Z" fill="#6CDEE5"/>
<path d="M876.85 529.95C877.965 529.95 878.87 529.046 878.87 527.93C878.87 526.814 877.965 525.91 876.85 525.91C875.734 525.91 874.83 526.814 874.83 527.93C874.83 529.046 875.734 529.95 876.85 529.95Z" fill="#52B6BE"/>
<path d="M922.792 578.808C925.267 578.581 927.095 576.458 926.876 574.066C926.657 571.673 924.473 569.918 921.998 570.145C919.523 570.372 917.694 572.495 917.914 574.887C918.133 577.28 920.317 579.035 922.792 578.808Z" fill="#52B6BE"/>
<path d="M857.864 588.923C858.886 588.745 859.567 587.745 859.383 586.69C859.2 585.634 858.222 584.922 857.199 585.1C856.176 585.278 855.495 586.278 855.679 587.334C855.863 588.389 856.841 589.101 857.864 588.923Z" fill="#52B6BE"/>
<path d="M837.279 817.23C837.279 817.23 840.009 819.93 840.069 820.92C840.129 821.91 840.309 832.53 839.199 833.52C838.089 834.51 834.809 835.21 835.859 836.33C836.659 837.17 842.769 836.99 846.829 836.77C848.009 836.7 849.499 827.13 849.969 825.72C850.649 823.68 853.099 819.23 852.489 817.8C852.189 817.11 849.949 815.52 847.909 814.19C845.769 812.79 843.719 809.67 843.719 809.67L837.279 817.23Z" fill="#F7A491"/>
<path d="M800.759 823.86C800.759 823.86 802.879 829.92 803.169 830.77C803.189 830.83 804.099 834.72 804.099 835.72C804.099 839.51 787.259 832.51 791.029 830.83C791.369 830.68 792.439 829.47 792.559 828.18C792.729 826.2 791.139 823.71 791.139 823.71L800.759 823.86Z" fill="#F7A491"/>
<path d="M777.519 691.04L771.419 706.83C771.419 706.83 767.439 744.51 769.759 767.07C770.729 776.5 791.699 827.01 791.699 827.01L802.119 825.52L788.169 765.72L793.299 742.85L800.569 697.64L777.519 691.04Z" fill="#1C4363"/>
<path d="M806.239 691.87L811.469 709.45L819.429 762.52L846.329 812.16C846.329 812.16 842.279 818.37 837.939 819.35L799.749 769.18L779.049 706.37L779.779 692.42L806.239 691.87Z" fill="#355389"/>
<path d="M781.499 680.13C782.019 678.76 787.199 651.62 787.199 651.62L774.299 652.98L770.539 675.95C765.989 673.86 762.179 672.1 762.179 672.1C762.179 672.1 754.629 668.68 754.299 668.16C754.019 667.72 754.699 667.51 752.629 664.01C752.029 663 750.549 662.17 750.549 662.17C750.549 662.17 748.719 661.17 748.359 661.51C747.999 661.86 748.069 662.49 748.329 662.79C748.589 663.1 749.369 663.41 749.629 663.72C749.889 664.03 749.799 665.28 749.599 665.69C749.399 666.1 744.099 662.97 744.099 662.97C744.099 662.97 742.619 662 742.159 661.64C741.759 661.33 740.649 660.32 740.649 660.32C740.649 660.32 738.689 658.8 738.289 659.33C737.799 659.97 744.079 665.3 743.879 665.64C743.629 666.05 740.679 664.4 740.679 664.4C740.679 664.4 739.469 663.31 738.809 663.01C738.179 662.22 736.559 661.26 736.119 661.93C736.039 662.05 737.769 663.89 737.769 663.89C737.769 663.89 738.949 664.89 739.479 665.4C740.419 666.3 742.139 667.17 742.819 667.74C743.389 668.21 743.059 668.24 743.059 668.32C743.059 668.38 742.219 667.88 741.049 667.21C740.459 666.87 739.729 666.61 739.099 666.12C738.519 665.66 737.639 665.14 737.099 664.84C735.569 663.99 735.299 665.07 736.589 666.09C737.079 666.48 737.619 666.9 738.169 667.32C740.299 668.96 742.589 670.01 742.489 670.28C742.369 670.63 738.319 668.47 738.319 668.47C738.319 668.47 735.799 667.92 737.709 669.42C739.929 671.17 741.969 672.04 742.059 672.08C742.689 672.31 744.659 673.76 746.959 674.21C749.259 674.66 752.949 675.27 752.949 675.27C754.759 676.29 769.579 685.33 778.519 690.58L785.069 682.6C784.319 682.26 782.879 681.61 781.069 680.78C781.309 680.46 781.459 680.23 781.499 680.13Z" fill="#F8A492"/>
<path d="M771.699 660.76L786.549 662.3C786.549 662.3 787.229 649.96 787.229 644.08C787.229 636.94 786.279 628.05 785.429 628.25C783.039 628.81 780.169 629.84 778.259 632.5C771.639 641.72 771.699 660.76 771.699 660.76Z" fill="#FFBD48"/>
<path d="M847.779 814.1C847.779 814.1 842.029 831.73 839.569 832.6C838.919 832.83 835.239 833.76 834.639 835.17C834.629 835.21 834.609 835.25 834.599 835.3C834.409 836.19 835.159 837.01 836.069 837.01H847.749C847.749 837.01 849.409 829.1 850.059 825.62C850.059 825.62 853.529 817.13 853.149 816.35C852.769 815.58 847.779 814.1 847.779 814.1Z" fill="#184655"/>
<path d="M805.059 836.98L803.169 830.78C803.169 830.78 799.079 832.54 797.049 832.25C795.029 831.96 791.069 830.8 791.069 830.8C782.989 833.5 776.359 834.81 777.569 836.97H805.059V836.98Z" fill="#3C8F7C"/>
<path d="M804.359 627.4C804.359 627.4 812.219 628.49 814.289 630.01C816.619 631.72 820.969 638.54 820.969 638.54C820.969 638.54 808.819 682.71 809.399 690.36C809.979 698.01 811.629 709.35 811.629 709.35C811.629 709.35 782.469 711.19 771.429 706.83C771.429 706.83 774.919 689.49 774.919 684.94C774.919 680.39 776.879 634.88 778.269 632.49C779.659 630.11 782.469 628.75 787.799 627.59C793.119 626.43 804.359 627.4 804.359 627.4Z" fill="#FFF492"/>
<path d="M802.209 615.12L804.159 627.86C804.159 627.86 797.369 638.73 793.119 637.41C789.559 636.31 791.439 627.19 791.439 627.19C791.439 627.19 792.119 624.67 792.549 621.86C792.849 619.92 793.029 617.85 792.799 616.37C792.219 612.77 802.209 615.12 802.209 615.12Z" fill="#F7A491"/>
<path d="M792.799 616.37C792.219 612.76 802.209 615.12 802.209 615.12L802.369 616.18C802.079 616.89 801.719 617.49 801.289 617.96C799.059 620.35 795.569 621.78 792.549 621.89C792.849 619.94 793.039 617.85 792.799 616.37Z" fill="#F47458"/>
<path d="M803.849 597.1C804.129 597 806.109 611.61 802.349 615.63C798.589 619.65 791.259 620.96 788.639 617.8C785.729 614.3 785.879 598.6 791.729 594.46C797.569 590.33 803.849 597.1 803.849 597.1Z" fill="#F7A491"/>
<path d="M795.729 588.03C800.249 588.95 807.309 592.84 810.189 597.58C813.729 603.4 811.119 609.86 806.989 613.02C802.869 616.19 802.909 619.86 802.909 619.86L802.269 617.95C801.789 616.52 801.589 615 801.749 613.49C801.849 612.59 802.039 611.61 802.419 610.81C803.409 608.7 800.289 607.29 799.419 605.53C798.749 604.18 798.709 601.08 797.649 598.84L796.379 597.13C796.379 597.13 793.519 595.4 790.589 595.51C788.829 595.58 789.929 586.86 795.729 588.03Z" fill="#F47458"/>
<path d="M799.619 608.14C799.589 609.92 800.409 611.38 801.439 611.4C802.479 611.42 803.339 609.99 803.369 608.2C803.399 606.42 802.579 604.96 801.549 604.94C800.509 604.93 799.649 606.36 799.619 608.14Z" fill="#F7A491"/>
<path d="M816.499 832.26H810.029V837.14H816.499V832.26Z" fill="#13375B"/>
<path d="M822.709 727.64C822.709 727.06 823.139 726.59 823.669 726.59H840.109C840.639 726.59 841.069 727.06 841.069 727.64V756.67H843.979V727.64C843.979 725.31 842.239 723.41 840.109 723.41H823.669C821.539 723.41 819.799 725.31 819.799 727.64V756.67H822.709V727.64Z" fill="#355389"/>
<path d="M852.999 837.36L813.649 835.15C811.549 835.15 809.839 833.36 809.839 831.15L806.109 761.15C805.989 756.25 811.549 755.48 813.649 755.48H856.469C858.569 755.48 860.279 757.27 860.279 759.48V831.15C860.289 834.87 856.639 837.29 852.999 837.36Z" fill="#13375B"/>
<path d="M836.689 837.35H825.939C814.979 837.35 806.099 828.47 806.099 817.51V777.53C806.099 766.57 814.979 757.69 825.939 757.69H836.689C847.649 757.69 856.529 766.57 856.529 777.53V817.51C856.529 828.47 847.649 837.35 836.689 837.35Z" fill="#466EB6"/>
<path d="M847.169 837.35H815.889V794.37C815.889 787.57 821.399 782.06 828.199 782.06H834.869C841.669 782.06 847.179 787.57 847.179 794.37V837.35H847.169Z" fill="#355389"/>
<path d="M832.589 752.48C836.549 752.48 839.909 754.24 840.049 756.35H843.229C843.109 752.88 838.399 750.08 832.589 750.08C826.789 750.08 822.069 752.87 821.949 756.35H825.129C825.269 754.23 828.629 752.48 832.589 752.48Z" fill="#13375B"/>
<path d="M838.809 726.83H825.169C824.289 726.83 823.569 726.11 823.569 725.23V724.36C823.569 723.48 824.289 722.76 825.169 722.76H838.809C839.689 722.76 840.409 723.48 840.409 724.36V725.23C840.399 726.11 839.689 726.83 838.809 726.83Z" fill="#13375B"/>
<path d="M813.949 658.07C813.949 658.07 824.169 675.95 824.679 680.72C825.189 685.49 826.729 713.92 826.729 713.92C826.729 713.92 824.679 726.18 825.699 727.21C826.719 728.23 829.619 727.89 830.469 728.06C831.099 728.19 833.129 727.94 834.149 727.8C834.529 727.75 834.899 727.64 835.249 727.49L836.649 726.84C836.649 726.84 833.719 715.27 833.799 714.43C833.879 713.59 836.269 681.92 834.899 675.62C833.539 669.32 824.339 648.21 824.339 648.21L813.949 658.07Z" fill="#F8A492"/>
<path d="M831.309 659.49L817.579 666.64C817.579 666.64 813.119 656.22 810.199 650.07C807.249 643.84 811.349 629.24 814.489 630.08C821.519 631.97 831.309 659.49 831.309 659.49Z" fill="#FFE669"/>
<path d="M794.509 703.8C794.649 706.12 794.769 708.43 794.879 710.75C795.089 714.14 791.809 717.17 787.619 717.18C782.169 717.19 776.749 716.81 771.409 716.05C767.289 715.46 764.699 712.06 765.499 708.76C766.019 706.5 766.529 704.24 767.029 701.97C767.799 698.65 771.049 696.54 774.389 697.01C778.819 697.63 783.319 697.93 787.849 697.91C791.259 697.88 794.269 700.4 794.509 703.8Z" fill="#184655"/>
<path d="M810.819 700.52C810.819 700.52 799.269 703.75 793.539 704.7L793.949 710.56L811.629 709.35L810.819 700.52Z" fill="#184655"/>
<path d="M792.459 703.8C792.599 706.12 792.719 708.43 792.829 710.75C793.039 714.14 789.759 717.17 785.569 717.18C780.119 717.19 774.709 716.81 769.359 716.05C765.239 715.46 762.649 712.06 763.449 708.76C763.969 706.5 764.479 704.24 764.979 701.97C765.749 698.65 768.999 696.54 772.339 697.01C776.769 697.63 781.269 697.93 785.799 697.91C789.209 697.88 792.219 700.4 792.459 703.8Z" fill="#3C8F7C"/>
<path d="M779.819 705.63C773.129 705.63 767.519 703.77 767.189 703.65L767.579 702.49C767.689 702.53 779.129 706.33 788.599 703.05L788.999 704.21C785.969 705.26 782.789 705.63 779.819 705.63Z" fill="#184655"/>
<path d="M785.149 705.37L784.469 705.48C784.149 705.53 783.859 705.32 783.799 705L783.749 704.69C783.699 704.37 783.909 704.07 784.229 704.02L784.909 703.91C785.229 703.86 785.519 704.07 785.579 704.39L785.629 704.7C785.679 705.02 785.469 705.32 785.149 705.37Z" fill="#355389"/>
<path d="M785.009 704.65L784.399 704.77L784.299 707.32L786.209 707.05L785.009 704.65ZM784.799 705.14L785.589 706.73L784.729 706.85L784.799 705.14Z" fill="#13375B"/>
<path d="M857.169 737.49H841.039V743.91H857.169V737.49Z" fill="#9BC1F9"/>
<path d="M225.189 217.3C211.209 212.46 197.239 207.61 183.259 202.77C195.099 198.97 206.549 197.2 215.859 185.5C230.999 166.47 255.819 172.5 263.669 195.19C265.949 201.79 268.419 203.68 275.099 200.27C296.889 189.13 317.149 193.14 335.899 207.68C338.079 209.37 342.789 209.91 341.459 213.79C340.299 217.19 336.199 216.16 333.239 216.16C302.939 216.19 272.629 216.11 242.329 216.2C236.619 216.22 230.909 216.92 225.189 217.3Z" fill="#FDFEFE"/>
<path opacity="0.39" d="M391.17 831.76C390.5 835.97 434.87 852.03 485.98 850.4C520.58 849.3 557.94 840.09 557.67 833.41C557.45 827.89 531.56 824.08 514.74 823.27C489.55 822.05 480.35 827.33 449.7 830.28C411.28 833.98 391.61 828.98 391.17 831.76Z" fill="#A2B5BC"/>
<path opacity="0.39" d="M778.05 836.6C776.17 841.05 796.54 858.06 822.29 862.71C837.73 865.5 846.26 862.24 877.65 855.38C931.6 843.58 953.11 843 952.91 838.49C952.67 832.97 925.47 829.12 907.81 828.28C881.35 827.02 871.7 832.29 810.98 836.58C787.99 838.21 779.17 833.94 778.05 836.6Z" fill="#A2B5BC"/>
</svg>
