<svg width="1013" height="772" viewBox="0 0 1013 772" fill="none" xmlns="http://www.w3.org/2000/svg">
<path d="M1012.15 358.619C1013.83 402.579 1011.69 435.039 1009.08 472.939C999.855 606.839 995.245 673.789 972.195 707.319C926.215 774.179 842.925 739.559 523.225 749.429C309.925 756.009 185.195 776.409 124.405 698.229C111.995 682.269 100.315 658.489 77.3547 610.739C53.2247 560.549 22.2447 487.989 10.5247 443.529C-26.9853 301.259 38.2347 88.5793 166.885 33.1193C210.865 14.1593 220.805 31.4493 336.605 33.9493C585.215 39.3293 665.845 -37.6107 750.305 24.0893C761.635 32.3693 757.605 32.9293 773.365 46.8393C856.205 119.919 917.175 90.1393 966.165 135.719C1005.02 171.859 1007.4 234.109 1012.15 358.619Z" fill="#FFD9E3"/>
<path d="M261.885 667.329L285.755 647.719L274.475 635.439L250.205 657.179L261.585 668.509L261.885 667.329Z" fill="#F1BD97"/>
<path d="M255.325 650.759C255.325 650.759 258.455 664.629 268.985 664.789L273.885 700.399L242.335 654.899L255.325 650.759Z" fill="#0C1C39"/>
<path d="M270.055 703.049L238.505 657.539L242.335 654.899L273.875 700.399L270.055 703.049Z" fill="white"/>
<path d="M262.905 668.659C263.035 668.739 263.185 668.789 263.345 668.799C266.745 668.929 269.035 669.869 269.055 669.869C269.505 670.059 269.995 669.839 270.155 669.389C270.315 668.939 270.075 668.429 269.635 668.239C269.535 668.199 267.055 667.179 263.315 667.029C262.835 667.009 262.455 667.389 262.455 667.869C262.475 668.209 262.645 668.499 262.905 668.659Z" fill="white"/>
<path d="M263.615 673.469C263.745 673.549 263.895 673.599 264.055 673.609C267.455 673.749 269.745 674.679 269.765 674.679C270.215 674.869 270.705 674.649 270.865 674.199C271.025 673.749 270.785 673.239 270.345 673.049C270.245 673.009 267.765 671.989 264.025 671.839C263.545 671.819 263.165 672.199 263.165 672.679C263.195 673.009 263.365 673.299 263.615 673.469Z" fill="white"/>
<path d="M264.335 678.269C264.465 678.349 264.615 678.399 264.775 678.409C268.175 678.549 270.465 679.479 270.485 679.489C270.935 679.679 271.425 679.459 271.585 679.019C271.745 678.569 271.505 678.059 271.065 677.869C270.965 677.829 268.485 676.809 264.755 676.659C264.275 676.639 263.895 677.019 263.895 677.499C263.915 677.819 264.085 678.109 264.335 678.269Z" fill="white"/>
<path d="M298.785 476.079C298.785 476.079 315.515 572.239 313.585 576.639L262.135 637.669L279.855 661.449L339.955 604.539C364.525 584.399 342.475 465.799 342.475 465.799L298.785 476.079Z" fill="#749BB6"/>
<path d="M320.235 722.849L317.895 692.039L301.355 694.219L305.205 726.569L321.025 723.769L320.235 722.849Z" fill="#F1BD97"/>
<path d="M302.905 718.699C302.905 718.699 316.055 724.109 322.235 715.579L354.195 732.029L298.825 731.699L302.905 718.699Z" fill="#0C1C39"/>
<path d="M354.155 736.679L298.795 736.359L298.825 731.709L354.195 732.029L354.155 736.679Z" fill="white"/>
<path d="M321.905 722.779C322.045 722.719 322.175 722.629 322.275 722.499C324.345 719.789 326.415 718.459 326.435 718.439C326.845 718.179 326.955 717.649 326.685 717.259C326.415 716.869 325.855 716.769 325.455 717.019C325.355 717.079 323.105 718.519 320.835 721.489C320.545 721.869 320.635 722.399 321.035 722.679C321.285 722.869 321.625 722.889 321.905 722.779Z" fill="white"/>
<path d="M326.245 724.949C326.385 724.889 326.515 724.799 326.615 724.669C328.685 721.959 330.755 720.629 330.775 720.609C331.185 720.349 331.295 719.819 331.025 719.429C330.755 719.039 330.195 718.939 329.795 719.189C329.695 719.249 327.445 720.689 325.175 723.659C324.885 724.039 324.975 724.569 325.375 724.849C325.635 725.039 325.965 725.059 326.245 724.949Z" fill="white"/>
<path d="M330.595 727.119C330.735 727.059 330.865 726.969 330.965 726.839C333.035 724.129 335.105 722.799 335.125 722.779C335.535 722.519 335.645 721.989 335.375 721.599C335.105 721.209 334.545 721.109 334.145 721.359C334.045 721.419 331.795 722.859 329.525 725.829C329.235 726.209 329.325 726.739 329.725 727.019C329.985 727.209 330.315 727.239 330.595 727.119Z" fill="white"/>
<path d="M293.705 468.669C293.705 468.669 275.995 495.779 278.595 531.699L298.215 707.299L323.925 704.859L323.645 470.629L293.705 468.669Z" fill="#749BB6"/>
<path d="M323.814 617.429L323.924 515.619L335.684 504.579" stroke="#5E87A2" stroke-width="0.6162" stroke-miterlimit="10"/>
<path d="M287.115 608.029L291.785 649.709" stroke="#5E87A2" stroke-width="0.6162" stroke-miterlimit="10"/>
<path d="M370.515 455.639L366.365 421.459L346.325 430.229L354.955 470.849L366.315 476.949L370.515 455.639Z" fill="#F1BD97"/>
<path d="M374.515 522.629L354.945 470.849C354.105 468.079 358.665 458.419 361.145 456.909C364.785 454.699 370.515 455.639 370.515 455.639L387.355 520.689L374.515 522.629Z" fill="#F1BD97"/>
<path d="M367.805 564.059C368.285 564.039 368.665 563.629 368.645 563.139L368.085 550.899C367.685 542.219 374.415 534.839 383.095 534.439C391.775 534.039 399.155 540.769 399.555 549.449L400.115 561.689C400.135 562.169 400.545 562.549 401.035 562.529C401.515 562.509 401.895 562.099 401.875 561.609L401.315 549.369C400.875 539.729 392.665 532.239 383.025 532.689C373.385 533.129 365.895 541.339 366.345 550.979L366.905 563.219C366.915 563.709 367.325 564.089 367.805 564.059Z" fill="white"/>
<path d="M351.095 628.129L421.175 635.169L423.555 558.929L363.935 552.929L351.095 628.129Z" fill="#A0A0F1"/>
<path d="M330.545 626.059L400.635 633.109L403.015 556.859L343.395 550.859L330.545 626.059Z" fill="#938CE4"/>
<path d="M412.605 557.785L409.945 634.169L411.854 634.236L414.514 557.851L412.605 557.785Z" fill="#8181DB"/>
<path d="M359.005 559.239C359.485 559.309 359.925 558.979 359.995 558.499L361.765 546.369C363.025 537.769 371.035 531.799 379.625 533.059C388.225 534.319 394.195 542.329 392.935 550.919L391.165 563.049C391.095 563.529 391.425 563.969 391.905 564.039C392.385 564.109 392.825 563.779 392.895 563.299L394.665 551.169C396.065 541.619 389.425 532.709 379.875 531.319C370.325 529.929 361.415 536.559 360.025 546.109L358.255 558.239C358.195 558.719 358.535 559.169 359.005 559.239Z" fill="white"/>
<path d="M394.445 528.899C393.875 522.239 388.025 517.299 381.365 517.869C374.705 518.439 369.765 524.289 370.335 530.949C370.905 537.609 376.755 542.549 383.415 541.979C390.075 541.409 395.005 535.549 394.445 528.899Z" fill="#F1BD97"/>
<path d="M374.365 538.969C374.365 538.969 369.255 541.039 368.225 534.769C367.205 528.499 369.345 519.849 381.365 517.869L374.365 538.969Z" fill="#F1BD97"/>
<path d="M362.065 400.389C362.065 400.389 370.225 401.629 370.525 414.069C370.825 426.519 374.975 448.839 374.975 448.839C374.975 448.839 358.435 452.599 351.295 449.929L362.065 400.389Z" fill="#EC9482"/>
<path d="M272.055 421.069L253.875 455.879C252.595 458.609 251.875 461.569 251.745 464.589L253.875 514.809L266.105 512.189L268.805 465.199L291.525 431.409L272.055 421.069Z" fill="#F1BD97"/>
<path d="M266.115 512.179L269.585 515.859C271.395 517.779 272.495 520.109 272.755 522.529L273.855 532.909C273.975 534.039 273.145 535.029 271.895 535.259C270.465 535.519 269.015 534.679 268.695 533.399L266.825 525.999C266.825 525.999 265.165 531.459 265.915 540.919C266.065 542.789 264.205 544.209 262.105 543.779C258.605 543.069 254.485 541.469 253.685 538.179C251.375 528.579 253.995 514.179 253.995 514.179L266.115 512.179Z" fill="#F1BD97"/>
<path d="M304.305 390.219C304.305 390.219 289.495 389.899 282.935 398.319C274.635 408.979 260.385 426.169 260.385 426.169L293.405 448.949L304.305 390.219Z" fill="#EC9482"/>
<path d="M301.795 390.269H327.555L362.055 400.389C362.055 400.389 356.525 447.819 348.945 470.989C347.615 475.049 343.555 477.539 339.345 476.839L294.645 469.399C294.645 469.399 288.025 464.069 288.755 454.539L297.855 393.669C298.145 391.719 299.825 390.269 301.795 390.269Z" fill="#EC9482"/>
<path d="M354.405 450.889L361.245 420.479" stroke="#DB7564" stroke-width="0.75" stroke-miterlimit="10"/>
<path d="M289.945 446.569L301.135 413.499" stroke="#DB7564" stroke-width="0.75" stroke-miterlimit="10"/>
<path d="M300.685 362.379C305.285 355.629 307.475 353.219 307.905 345.689C308.125 341.799 308.805 338.719 309.445 336.589C310.115 334.349 311.245 332.299 312.785 330.559C315.885 327.059 322.295 321.419 331.215 321.859L331.205 321.849C331.205 321.849 354.585 321.659 360.375 339.319C360.985 341.179 361.285 343.149 361.365 345.159H361.395C361.395 356.119 365.835 359.949 365.835 359.949C375.345 367.079 373.235 384.889 368.785 390.579L302.155 382.829C295.435 377.109 297.795 366.619 300.685 362.379Z" fill="#663616"/>
<path d="M322.865 355.109C322.675 358.999 319.365 362.009 315.475 361.819C311.585 361.629 308.575 358.319 308.765 354.429C308.955 350.539 312.265 347.529 316.155 347.719C320.045 347.899 323.055 351.209 322.865 355.109Z" fill="#DE9D74"/>
<path d="M323.405 375.079L322.575 390.439C322.275 395.829 325.435 398.909 330.745 399.159C335.275 399.379 339.795 401.159 340.575 396.689V368.529L323.405 375.079Z" fill="#F1BD97"/>
<path d="M322.955 383.039L337.845 376.179L323.465 373.509L322.955 383.039Z" fill="#20120C"/>
<path d="M327.755 378.089C318.745 377.049 312.145 369.079 312.745 361.689L314.265 344.269C315.015 335.009 322.975 328.019 332.255 328.459C341.755 328.919 350.755 337.069 350.295 346.569L348.915 360.569C347.855 371.399 338.625 378.619 327.755 378.089Z" fill="#F1BD97"/>
<path d="M339.465 345.149L345.425 358.019L359.225 345.299L339.465 345.149Z" fill="#663616"/>
<path d="M357.565 359.579C357.375 363.469 354.065 366.479 350.175 366.289C346.285 366.099 343.275 362.789 343.465 358.899C343.655 355.009 346.965 351.999 350.855 352.189C354.745 352.379 357.755 355.689 357.565 359.579Z" fill="#F1BD97"/>
<path d="M347.945 361.219C347.945 361.219 348.195 356.109 353.045 357.149" stroke="#20120C" stroke-width="0.5" stroke-miterlimit="10" stroke-linecap="round" stroke-linejoin="round"/>
<path d="M312.905 344.149C312.905 344.149 325.525 338.349 324.895 325.719C324.885 325.719 313.485 335.089 312.905 344.149Z" fill="#663616"/>
<path d="M315.405 332.869C315.405 332.869 324.155 348.519 355.625 348.779C355.625 348.779 359.465 333.859 344.845 327.269C330.245 320.679 315.405 332.869 315.405 332.869Z" fill="#663616"/>
<path d="M314.875 390.219L329.255 390.049L347.735 396.139C347.735 396.139 346.375 409.529 331.195 407.159C316.015 404.789 314.875 390.219 314.875 390.219Z" fill="#F1BD97"/>
<path opacity="0.37" d="M516.305 742.899C529.415 757.499 449.175 778.569 380.515 768.609C311.845 758.649 185.825 760.909 180.865 736.629C175.915 712.359 337.595 716.039 378.365 717.179C419.145 718.319 490.385 714.019 516.305 742.899Z" fill="#A0938A"/>
<path d="M356.045 503.409C356.045 503.409 358.775 502.129 361.255 497.599C362.845 494.689 367.585 490.969 365.615 490.359C363.645 489.759 360.625 494.669 360.055 493.259C359.485 491.849 365.135 481.209 363.345 480.669C361.555 480.119 356.885 490.469 356.375 489.209C355.865 487.949 361.155 478.909 358.625 478.129C356.095 477.359 353.375 489.259 352.015 488.849C350.655 488.439 352.635 479.349 350.605 478.729C348.575 478.109 348.855 489.959 348.125 489.619C347.735 489.439 345.925 483.689 344.825 484.129C343.575 484.619 346.945 496.399 345.455 498.999C343.955 501.599 331.985 533.889 336.075 537.919C340.535 542.319 368.935 552.389 374.875 550.659C380.815 548.929 384.225 543.139 382.795 539.589C381.365 536.029 353.295 528.039 352.845 526.929C352.385 525.819 356.045 503.409 356.045 503.409Z" fill="#FFC49C"/>
<path d="M358.364 493.929C357.504 493.889 356.664 494.079 355.844 494.379C355.724 494.459 353.035 495.239 351.875 498.169C353.155 496.659 354.574 495.009 358.364 493.929Z" fill="#FFC49C"/>
<path d="M363.694 529.189L382.004 530.509L376.384 551.909L357.614 548.579L363.694 529.189Z" fill="#50BFA5"/>
<path d="M426.444 540.539C426.444 540.539 430.534 590.199 430.534 594.519C430.534 598.839 413.134 600.049 413.134 600.049L407.814 549.079L426.444 540.539Z" fill="#466EB6"/>
<path d="M400.484 528.449C400.484 528.449 411.774 522.499 421.084 527.949C430.394 533.409 432.924 565.459 432.924 565.459L403.114 568.979L400.484 528.449Z" fill="#86B1F2"/>
<path d="M439.784 706.899C439.784 706.899 441.714 713.649 443.244 715.149C444.774 716.659 449.845 722.499 448.595 725.399C447.345 728.299 416.444 732.449 415.274 731.299C414.104 730.149 420.614 725.259 424.304 722.259C427.994 719.259 430.635 715.579 429.095 711.109C427.545 706.639 427.544 707.079 427.544 706.639C427.544 706.199 439.784 706.899 439.784 706.899Z" fill="#FFC49C"/>
<path d="M415.275 731.299C413.875 730.269 418.215 725.649 424.505 722.089C427.135 722.089 430.655 721.909 433.625 721.179C438.285 720.029 441.855 716.059 442.915 714.769C443.015 714.899 450.505 722.009 449.035 725.399C447.795 728.299 418.065 733.359 415.275 731.299Z" fill="#355389"/>
<path d="M388.514 710.179C388.514 710.179 387.944 717.109 389.104 718.909C390.264 720.709 394.314 727.839 392.054 730.059C390.014 732.069 361.714 730.779 360.824 729.399C359.934 728.019 364.784 723.909 369.044 721.769C373.314 719.639 376.704 716.609 376.184 711.919C375.664 707.229 375.564 707.659 375.664 707.229C375.764 706.789 388.514 710.179 388.514 710.179Z" fill="#FFC49C"/>
<path d="M357.315 730.509C355.835 729.589 362.365 723.779 369.295 721.649C371.865 722.209 375.335 722.799 378.395 722.719C383.195 722.599 387.554 719.489 388.874 718.459C388.934 718.609 395.385 727.809 392.495 730.149C390.235 731.989 359.555 731.909 357.315 730.509Z" fill="#355389"/>
<path d="M386.444 612.059L404.714 664.209L425.674 712.489L443.234 708.149C443.234 708.149 436.894 674.679 430.944 664.169C426.444 656.219 423.294 610.569 423.294 610.569L386.444 612.059Z" fill="#F47458"/>
<path d="M395.224 620.839L388.894 712.489H373.934C373.934 712.489 367.405 616.459 369.795 607.329C372.185 598.189 397.114 600.259 397.114 600.259L395.224 620.839Z" fill="#B75742"/>
<path d="M380.865 530.849C380.865 530.849 400.145 525.159 403.115 525.529C406.365 525.929 414.265 530.049 414.265 530.049C414.265 530.049 413.775 563.019 415.175 572.339C416.575 581.659 426.345 611.529 426.345 611.529C426.345 611.529 412.575 619.389 389.435 616.839C366.295 614.289 367.885 608.779 367.885 608.779C367.885 608.779 370.085 575.769 372.275 561.229C374.475 546.689 380.865 530.849 380.865 530.849Z" fill="#96D9C9"/>
<path d="M411.175 528.519C411.175 528.519 406.835 527.869 403.115 541.739C398.895 557.449 403.435 573.729 410.415 577.849C417.395 581.969 420.265 581.179 420.265 581.179L419.165 590.869C419.165 590.869 398.555 586.329 395.745 568.969C391.145 540.529 404.715 525.879 404.715 525.879C404.715 525.879 407.265 526.279 408.055 526.599C408.915 526.959 411.175 528.519 411.175 528.519Z" fill="#466EB6"/>
<path d="M421.825 561.359C421.825 561.359 421.825 578.129 421.825 581.659C421.825 585.199 417.705 609.139 412.645 617.339C407.595 625.539 400.745 634.689 399.325 635.209C397.905 635.729 394.825 637.659 393.225 636.079C391.625 634.509 390.365 635.229 388.375 634.379C386.385 633.529 388.645 630.709 391.435 627.959C394.225 625.209 394.825 624.549 394.365 624.099C393.895 623.639 391.635 626.199 390.445 625.799C389.245 625.409 391.175 621.279 394.305 619.839C397.435 618.399 402.415 615.579 402.885 614.079C403.355 612.569 403.355 612.969 403.355 612.569C403.355 612.179 406.875 588.399 406.875 583.749C406.875 579.099 408.275 563.969 408.275 563.969L421.825 561.359Z" fill="#FFC49C"/>
<path d="M412.395 529.239C414.205 529.459 419.125 531.229 420.855 536.999C422.585 542.759 427.135 559.139 426.345 567.129C426.345 567.129 406.925 569.619 406.925 568.829C406.925 568.039 402.675 547.539 404.795 538.569C406.655 530.739 409.245 528.859 412.395 529.239Z" fill="#50BFA5"/>
<path d="M383.885 529.979L370.385 577.759C370.985 571.519 371.635 565.559 372.285 561.229C374.475 546.689 380.985 530.439 380.985 530.439C380.985 530.439 382.005 530.189 383.885 529.979Z" fill="#466EB6"/>
<path d="M391.605 481.129C391.605 481.129 384.285 478.519 379.555 485.819C374.825 493.129 377.385 492.429 375.075 496.089C372.775 499.739 366.765 498.989 366.765 504.659C366.765 510.329 369.455 511.209 369.455 511.209C369.455 511.209 367.025 515.619 369.715 520.149C372.405 524.689 379.095 528.589 384.705 527.959C384.705 527.959 393.125 532.509 401.565 530.359C410.005 528.209 407.065 528.209 410.515 528.209C413.965 528.209 423.305 523.549 421.775 516.749C421.775 516.749 427.465 510.089 421.945 504.659C416.425 499.219 415.385 493.699 412.185 486.389C408.975 479.089 395.445 479.369 391.605 481.129Z" fill="#184655"/>
<path d="M386.715 520.029C386.715 520.029 387.025 530.059 386.065 530.999C385.105 531.939 383.775 533.499 385.175 535.899C386.585 538.289 392.685 536.769 395.535 535.399C398.265 534.089 400.025 531.639 400.025 531.639L398.605 515.749L386.715 520.029Z" fill="#FFC49C"/>
<path d="M390.775 524.189C392.735 523.509 396.165 522.209 398.805 517.969L398.605 515.749L386.705 520.029C386.705 520.029 386.785 522.479 386.745 525.069C388.415 524.999 389.845 524.509 390.775 524.189Z" fill="#B75742"/>
<path d="M400.705 504.399C400.705 504.399 400.995 498.499 404.675 499.649C408.355 500.799 405.545 509.699 402.505 509.399C399.455 509.109 400.705 504.399 400.705 504.399Z" fill="#F7A491"/>
<path d="M389.145 485.129C389.145 485.129 383.385 484.999 380.445 489.409C377.505 493.819 374.305 506.419 379.165 515.109C384.025 523.799 390.225 521.659 392.785 520.779C395.345 519.899 400.395 517.949 402.955 509.819C405.515 501.699 403.665 483.429 389.145 485.129Z" fill="#FFC49C"/>
<path d="M255.295 460.609C256.005 452.669 256.534 444.289 256.814 435.509C257.134 425.639 257.094 416.239 256.814 407.369C250.974 396.429 245.135 385.489 239.285 374.549C239.555 377.119 239.814 379.699 240.084 382.269C239.574 392.919 239.074 403.559 238.564 414.209C241.374 418.189 244.304 422.999 246.934 428.659C252.644 440.989 254.625 452.399 255.295 460.609Z" fill="#FFC49C"/>
<path d="M257.445 410.279L231.365 419.539C231.365 419.539 223.285 398.719 221.525 389.109C219.395 377.459 222.035 356.879 223.505 356.969C227.645 357.239 235.175 360.049 239.155 363.889C252.945 377.199 257.445 410.279 257.445 410.279Z" fill="#B75742"/>
<path d="M230.655 407.899L218.285 377.909C212.555 364.019 193.895 351.879 180.265 358.209L146.625 287.259C143.755 280.319 135.805 277.009 128.865 279.869C121.925 282.729 118.615 290.689 121.475 297.629L154.725 367.749C123.605 379.129 152.475 420.229 158.225 434.169C158.225 434.169 148.785 454.439 153.665 473.069C167.125 524.439 199.195 528.009 223.295 518.069L237.945 512.029C262.045 502.089 261.465 454.869 248.825 428.469C245.435 421.379 230.655 407.899 230.655 407.899Z" fill="#184655"/>
<path d="M249.995 699.889C249.995 699.889 249.155 714.689 249.155 714.719C248.845 716.599 247.635 721.239 247.635 722.949C247.635 729.369 276.185 717.499 269.785 714.659C269.205 714.399 266.175 712.459 265.985 710.269C265.695 706.899 264.945 700.099 264.945 700.099L249.995 699.889Z" fill="#FFC49C"/>
<path d="M269.715 714.589C269.715 714.589 263.015 716.549 259.575 717.039C256.135 717.529 251.265 715.179 248.835 716.299C246.165 717.529 247.035 732.079 247.035 732.079C247.035 732.079 283.285 733.009 295.305 732.379C299.515 732.169 283.415 719.159 269.715 714.589Z" fill="#F47458"/>
<path d="M187.094 701.309C187.094 701.309 186.254 716.109 186.254 716.139C185.944 718.019 184.734 722.659 184.734 724.369C184.734 730.789 213.284 718.919 206.884 716.079C206.304 715.819 202.374 712.419 202.184 710.239C201.894 706.879 202.044 701.519 202.044 701.519L187.094 701.309Z" fill="#FFC49C"/>
<path d="M206.815 716.009C206.815 716.009 200.115 717.969 196.675 718.459C193.235 718.949 188.715 714.819 186.285 715.929C183.615 717.159 182.925 731.959 182.925 731.959C182.925 731.959 222.365 733.709 231.595 732.399C235.765 731.819 220.515 720.579 206.815 716.009Z" fill="#F47458"/>
<path d="M232.335 487.669L244.405 492.879L269.795 614.139L268.765 705.039L248.415 705.509C248.415 705.509 238.945 625.989 238.945 619.829C238.945 613.669 195.095 511.989 195.095 511.989L232.335 487.669Z" fill="#355389"/>
<path d="M223.025 494.339C223.025 494.339 219.655 586.319 219.655 602.069C219.655 617.819 214.845 706.349 214.845 706.349L186.515 707.279C186.515 707.279 185.045 680.409 182.855 640.889C182.515 634.699 183.295 622.209 182.855 615.799C179.685 569.709 173.405 526.319 176.405 509.119C176.885 506.349 177.795 499.109 179.565 497.289C192.915 483.469 223.025 494.339 223.025 494.339Z" fill="#466EB6"/>
<path d="M189.415 354.629C189.415 354.629 175.335 356.589 171.635 359.309C167.465 362.369 162.834 369.229 162.834 369.229C162.834 369.229 180.115 450.939 180.155 464.689C180.175 475.329 176.415 501.439 176.415 501.439C176.415 501.439 228.644 504.739 248.434 496.929C248.434 496.929 242.184 465.869 242.184 457.709C242.184 449.549 234.715 375.379 233.015 370.199C231.475 365.499 228.654 357.059 219.104 354.969C209.544 352.899 189.415 354.629 189.415 354.629Z" fill="#F47458"/>
<path d="M193.265 332.629L189.895 354.669C189.895 354.669 200.484 373.569 208.074 371.209C214.444 369.229 212.554 354.239 212.554 354.239C212.554 354.239 209.085 341.329 210.125 334.869C211.165 328.419 193.265 332.629 193.265 332.629Z" fill="#FFC49C"/>
<path d="M210.115 334.879C211.155 328.419 193.255 332.639 193.255 332.639L192.965 334.529C193.485 335.799 194.125 336.879 194.905 337.709C198.905 341.979 205.155 344.549 210.555 344.749C210.025 341.259 209.695 337.529 210.115 334.879Z" fill="#C6916D"/>
<path d="M190.324 300.349C189.814 300.169 186.264 326.339 193.004 333.539C199.744 340.739 212.864 343.099 217.574 337.429C222.784 331.159 222.524 303.029 212.044 295.629C201.574 288.209 190.324 300.349 190.324 300.349Z" fill="#FFC49C"/>
<path d="M208.054 281.619C199.954 283.259 194.714 288.169 192.794 290.269C189.114 290.699 184.124 292.719 178.964 301.199C172.624 311.629 177.304 323.189 184.694 328.859C188.684 331.919 190.484 335.269 191.294 337.689C191.584 338.569 192.844 338.569 193.144 337.689C194.004 335.119 194.354 332.399 194.064 329.709C193.894 328.089 193.544 326.349 192.874 324.909C191.094 321.119 196.684 318.609 198.254 315.459C199.464 313.029 199.524 307.479 201.424 303.469L203.694 300.409C203.694 300.409 208.934 296.359 214.064 297.499C219.174 298.649 218.444 279.519 208.054 281.619Z" fill="#13375B"/>
<path d="M197.904 320.119C197.954 323.309 196.494 325.929 194.644 325.959C192.784 325.989 191.244 323.429 191.184 320.239C191.134 317.049 192.594 314.429 194.444 314.399C196.304 314.369 197.854 316.929 197.904 320.119Z" fill="#FFC49C"/>
<path d="M225.314 437.739L225.655 439.689C225.825 440.689 226.785 441.359 227.785 441.189L268.155 434.199C269.155 434.029 269.825 433.069 269.655 432.069L269.314 430.119C269.144 429.119 268.184 428.449 267.184 428.619L226.814 435.609C225.814 435.789 225.144 436.739 225.314 437.739Z" fill="#13375B"/>
<path d="M168.085 365.149C172.825 365.009 177.015 396.259 174.005 399.339C171.005 402.419 170.425 440.909 170.425 440.909L215.115 439.799L215.125 439.809C215.995 439.229 225.355 432.939 226.695 431.559C228.095 430.119 234.925 430.839 236.725 432.819C238.535 434.799 233.245 434.109 231.685 434.859C229.935 435.689 232.315 438.049 232.315 438.049C232.315 438.049 243.635 439.689 245.845 437.349C248.055 435.009 253.955 431.039 254.755 433.379C255.165 434.589 252.125 438.249 250.415 439.789C252.555 438.189 255.115 436.489 255.995 436.779C257.595 437.319 256.935 439.359 256.065 439.959C255.195 440.559 246.205 447.419 244.805 447.909C243.435 448.379 222.525 448.899 218.905 449.699C218.905 449.699 159.975 463.119 156.625 462.279C153.685 461.549 150.745 442.679 150.745 428.239C150.745 413.799 153.285 365.579 168.085 365.149Z" fill="#FFC49C"/>
<path d="M174.225 358.019C174.225 358.019 163.925 360.429 157.465 369.489C150.705 378.969 144.845 426.919 144.845 426.919L171.585 431.239L173.715 407.669L180.855 396.889L174.225 358.019Z" fill="#F47458"/>
<path d="M172.804 353.949L241.474 422.779V431.249L162.854 359.579L172.804 353.949Z" fill="#184655"/>
<path d="M269.775 381.919C266.655 380.829 263.345 382.209 262.375 384.989C261.405 387.769 262.295 403.339 262.295 403.339C262.295 403.339 272.685 391.699 273.655 388.919C274.635 386.139 272.895 383.009 269.775 381.919ZM267.005 389.879C265.685 389.419 264.985 387.969 265.445 386.649C265.905 385.329 267.355 384.629 268.675 385.089C269.995 385.549 270.695 386.999 270.235 388.319C269.775 389.639 268.325 390.339 267.005 389.879Z" fill="#F7AA4F"/>
<path d="M815.365 357.629C815.365 357.629 807.545 367.559 805.915 374.039C804.595 379.289 805.335 388.389 824.545 376.189C843.755 363.989 815.365 357.629 815.365 357.629Z" fill="black"/>
<path d="M874.445 725.189L855.885 720.599L847.035 711.809C849.495 707.029 848.285 695.619 848.375 695.009L848.405 694.999C849.105 694.519 863.675 684.689 863.675 690.929V690.939C863.635 701.529 864.985 711.819 864.985 711.819L871.845 717.119L874.445 725.189Z" fill="#FFC49C"/>
<path d="M868.805 594.859L867.945 601.019L864.525 672.909L863.665 690.929V690.949L848.405 695.009L848.375 695.019L847.745 676.339L844.965 593.979L868.805 594.859Z" fill="#FFC49C"/>
<path d="M874.445 725.189L855.885 720.599L845.925 716.559C848.385 711.779 848.285 695.629 848.375 695.019L847.745 676.349C848.105 676.109 848.475 675.889 848.885 675.689C853.695 673.299 858.925 675.839 864.305 675.819L863.665 690.939V690.949C863.625 701.539 864.975 711.829 864.975 711.829L871.835 717.129L874.445 725.189Z" fill="#AD5543"/>
<path d="M831.825 720.619C829.625 724.799 824.505 721.449 821.095 720.599L812.245 711.809C814.705 707.029 813.495 695.619 813.615 694.999C814.315 694.519 828.885 684.689 828.885 690.929C828.885 696.949 829.235 702.969 829.875 708.949C830.265 712.689 833.565 715.659 832.255 719.599C832.125 719.989 831.975 720.319 831.825 720.619Z" fill="#FFC49C"/>
<path d="M834.115 588.029L833.155 601.019L829.735 672.909L828.885 690.929V690.949L813.615 695.009L813.585 695.019L812.965 676.339L808.585 587.369L834.115 588.029Z" fill="#FFC49C"/>
<path d="M832.885 721.579C832.255 722.889 830.935 723.359 828.865 722.599C826.365 721.689 823.545 721.599 821.085 720.599L811.125 716.559C813.585 711.779 813.485 695.629 813.575 695.019L812.945 676.349C813.305 676.109 813.675 675.889 814.085 675.689C818.895 673.299 824.285 674.629 829.675 674.619C829.675 674.619 828.865 690.939 828.865 690.959C828.845 696.159 829.135 701.359 829.615 706.529C829.755 708.059 829.725 709.809 830.365 711.179C831.475 713.529 832.795 714.919 833.185 717.749C833.425 719.349 833.325 720.669 832.885 721.579Z" fill="#AD5543"/>
<path d="M872.985 527.089C873.515 528.169 873.105 531.329 873.225 533.279C873.685 541.119 874.005 548.729 874.045 556.639C874.065 559.839 873.895 563.029 873.725 566.229C873.085 578.229 872.445 590.219 871.805 602.219C861.805 601.099 851.625 604.169 841.705 602.469C842.155 596.279 840.764 589.789 841.144 583.589C841.274 581.509 841.325 579.429 841.305 577.339C841.295 575.649 841.234 573.949 841.164 572.259C841.124 571.389 841.085 570.519 841.045 569.649C841.035 569.419 841.025 569.179 841.015 568.949C841.005 568.779 841.055 568.449 840.985 568.299C840.825 567.949 840.624 568.449 840.614 568.659C840.524 570.079 840.425 571.499 840.315 572.919C840.205 574.329 840.085 575.739 839.965 577.139C839.845 578.519 839.734 579.899 839.624 581.279C839.494 582.999 838.355 601.679 838.245 601.689C826.445 602.709 814.264 603.139 802.664 600.679C802.214 595.139 802.765 589.669 802.265 584.179C800.605 565.849 801.085 547.309 803.705 529.099C803.765 528.679 803.835 528.249 804.055 527.899C804.605 527.029 805.815 527.009 806.815 527.069C818.835 527.779 830.984 525.379 842.894 527.219C845.974 527.689 849.024 528.449 852.134 528.449C855.504 528.449 858.815 527.559 862.175 527.369C864.825 527.219 867.825 526.059 870.445 526.779C871.845 527.189 872.645 526.399 872.985 527.089Z" fill="black"/>
<path d="M864.985 403.799C865.125 403.759 865.185 404.009 865.075 404.099C864.965 404.189 864.805 404.169 864.665 404.139C861.395 403.439 857.975 402.649 855.465 400.369C853.385 398.469 852.165 395.719 851.595 392.909C851.025 390.099 851.035 387.199 851.055 384.329C850.255 382.909 848.725 382.549 847.195 382.099C844.975 381.449 842.755 381.089 840.535 380.419C839.345 380.059 834.665 378.089 834.035 379.619C833.875 380.019 833.885 380.469 833.895 380.909C833.965 384.519 833.635 388.129 832.945 391.659C832.395 394.449 832.565 397.559 830.295 399.619C829.435 400.399 828.355 400.879 827.265 401.269C824.815 402.139 822.235 402.599 819.645 402.629C819.415 409.389 823.735 416.039 829.385 419.449C835.035 422.859 841.925 423.549 848.395 422.539C852.975 421.829 857.595 420.209 860.965 416.909C864.325 413.629 866.515 408.339 864.985 403.799Z" fill="#FFC49C"/>
<path d="M865.515 404.639C867.795 406.229 870.055 407.849 871.775 410.089C874.065 413.069 875.605 416.579 877.105 420.029C878.555 423.379 880.215 427.579 878.335 431.089C876.615 434.289 873.065 436.259 873.165 440.479C873.265 444.469 874.685 448.689 875.135 452.689C876.255 462.649 875.135 472.949 875.465 482.969C875.885 495.749 875.245 508.579 876.365 521.269C876.525 523.099 876.335 525.079 875.245 526.539C874.375 527.709 873.045 528.409 871.725 528.989C864.175 532.329 855.595 533.119 847.595 531.199C843.545 530.229 839.825 526.969 835.685 526.549C829.485 525.919 823.175 529.679 816.995 530.449C813.505 530.889 808.225 531.569 804.865 530.199C801.505 528.829 802.465 523.479 802.385 520.439C802.125 511.589 802.125 502.689 803.455 493.929C804.485 487.189 806.305 480.599 807.175 473.839C808.075 466.909 809.505 459.959 802.655 456.909C799.565 455.529 796.575 453.889 793.745 451.999C793.235 451.659 792.715 451.289 792.435 450.749C792.095 450.099 792.145 449.319 792.215 448.579C793.245 437.279 796.135 426.169 800.725 415.869C801.925 413.189 803.245 410.539 805.035 408.239C808.165 404.239 812.585 401.509 817.235 399.709C820.205 398.559 823.325 397.859 826.435 397.259C827.985 396.959 829.555 396.579 831.115 396.399C832.025 396.289 831.925 396.179 832.385 396.829C832.825 397.459 833.005 398.519 833.455 399.229C835.905 403.089 839.995 405.199 844.415 405.249C846.745 405.269 849.335 404.729 851.275 403.329C852.225 402.639 853.005 401.719 853.335 400.549C853.805 398.839 853.435 397.949 852.585 396.079C855.965 398.139 859.565 400.309 862.735 402.699C863.645 403.339 864.585 403.989 865.515 404.639Z" fill="#AD5543"/>
<path d="M831.275 359.109C831.275 359.109 832.325 360.009 833.205 363.219C834.685 357.639 835.325 346.459 835.715 343.769C841.155 344.349 854.015 348.619 856.235 347.039C861.945 348.389 868.265 347.919 870.355 342.149C871.855 338.019 871.355 333.309 869.905 329.229C869.175 327.179 867.485 324.949 865.325 324.259C863.885 323.809 862.315 323.999 861.635 325.549C861.545 325.749 861.475 325.959 861.435 326.179C861.435 326.179 865.085 326.669 863.885 328.679C863.235 329.779 859.555 327.779 860.655 324.959C859.625 326.569 859.685 327.439 860.385 328.889C859.145 329.499 856.665 327.569 854.705 326.499C852.745 325.429 848.705 324.779 844.205 326.419C842.305 323.609 829.385 321.519 824.175 332.099C823.045 334.039 817.585 332.279 814.965 341.359C812.345 350.439 812.635 373.789 828.705 376.489C833.255 376.949 837.105 373.279 837.105 373.279L833.275 368.129L831.275 359.109Z" fill="#3EA09F"/>
<path d="M868.135 345.459C864.665 349.959 853.055 350.329 845.405 345.669C841.965 343.739 836.715 342.749 835.795 347.969C835.485 349.959 835.755 365.659 830.055 363.239C824.345 360.809 825.075 350.749 825.075 350.749C825.075 350.749 826.935 342.839 827.095 341.989C827.255 341.139 836.315 334.649 836.315 334.649L845.995 332.879L853.695 332.789L867.205 345.269C867.205 345.259 868.295 345.249 868.135 345.459Z" fill="#3EA09F"/>
<path d="M865.585 366.219C865.445 367.599 865.275 368.969 865.025 370.309C864.825 371.439 864.565 372.539 864.265 373.609C864.255 373.639 864.255 373.679 864.235 373.709C862.105 381.159 856.495 388.079 849.065 389.189C844.365 389.889 839.085 388.269 835.515 384.929C834.215 383.709 833.215 382.199 832.305 380.649C831.405 379.109 830.575 377.519 829.835 375.889C829.135 374.349 829.345 373.649 827.625 373.239C824.845 372.569 822.635 370.679 821.085 368.239C820.115 366.729 819.385 364.989 819.385 363.169C819.385 361.349 820.255 359.459 821.835 358.669C823.415 357.869 825.635 358.509 826.295 360.189C826.435 353.019 829.225 345.799 834.405 341.009C839.575 336.229 847.175 334.179 853.775 336.409C859.455 338.329 864.665 343.959 865.295 350.299C865.795 355.329 866.085 360.899 865.585 366.219Z" fill="#FFC49C"/>
<path d="M849.685 383.239C847.575 382.979 844.815 379.769 846.015 377.589C846.125 377.379 846.275 377.179 846.485 377.079C846.735 376.959 847.035 376.999 847.305 377.049C848.365 377.229 849.425 377.419 850.495 377.559C853.365 377.909 855.165 377.819 855.015 379.099C854.865 380.369 852.555 383.589 849.685 383.239Z" fill="#F8F4EB"/>
<path opacity="0.35" d="M842.605 367.659C842.535 368.919 840.495 369.819 838.065 369.669C835.625 369.519 833.715 368.369 833.785 367.109C833.855 365.849 835.895 364.949 838.325 365.099C840.755 365.249 842.675 366.399 842.605 367.659Z" fill="#FF7F71"/>
<path opacity="0.35" d="M857.355 371.409C857.285 372.679 859.195 373.819 861.635 373.979C862.605 374.039 863.505 373.919 864.235 373.709C864.245 373.679 864.245 373.639 864.265 373.609C864.565 372.539 864.825 371.439 865.025 370.309C864.245 369.829 863.135 369.489 861.885 369.409C859.465 369.249 857.425 370.149 857.355 371.409Z" fill="#FF7F71"/>
<path d="M867.375 466.629C867.245 470.029 866.645 475.319 864.145 481.099C860.155 490.339 853.745 495.219 846.935 500.399C839.045 506.409 835.095 509.409 830.445 508.559C821.035 506.849 817.365 491.909 817.185 491.119" stroke="white" stroke-miterlimit="10"/>
<path d="M863.375 345.439C860.765 349.779 850.865 350.669 843.645 347.379C840.415 346.049 835.695 345.739 835.415 350.439C835.345 352.229 837.155 366.029 831.885 364.509C826.615 362.989 822.795 354.469 822.795 354.469C822.795 354.469 827.095 346.879 827.145 346.109C827.205 345.339 834.535 338.649 834.535 338.649L842.885 336.049L854.745 332.219L864.965 339.509C864.965 339.499 863.495 345.229 863.375 345.439Z" fill="#3EA09F"/>
<path d="M826.365 360.169C826.365 360.169 829.365 360.509 834.115 369.989C833.375 370.389 832.095 370.469 832.095 370.469C832.095 370.469 829.445 364.549 828.295 362.669C827.835 361.959 826.365 360.169 826.365 360.169Z" fill="black"/>
<path d="M833.635 379.129L827.625 373.239L823.915 371.459C823.915 371.459 831.815 380.399 833.715 382.119C833.565 379.429 833.635 379.129 833.635 379.129Z" fill="black"/>
<path d="M865.365 369.459C865.225 370.059 865.075 370.659 864.915 371.259C864.555 372.639 864.165 374.029 863.695 375.379C861.045 383.149 855.395 389.199 848.205 390.209C842.395 390.609 835.905 386.819 832.525 381.199C832.385 380.969 832.255 380.739 832.125 380.509C832.115 380.499 832.115 380.499 832.095 380.479C831.765 379.889 831.455 379.269 831.145 378.669C830.775 377.909 830.425 377.149 830.095 376.389C829.875 375.919 829.145 374.719 829.185 374.199V374.159C829.235 373.779 829.395 373.349 829.395 373.349L831.355 368.889C831.355 368.889 831.415 368.859 831.505 368.829C831.695 368.719 832.105 368.539 832.665 368.309C836.795 366.639 851.265 362.869 865.365 369.459Z" fill="black"/>
<path d="M865.535 457.519L870.975 459.389C873.775 460.349 876.265 460.439 876.535 459.579L887.595 425.099C887.865 424.239 885.825 422.769 883.025 421.809L877.585 419.939C874.785 418.979 872.295 418.889 872.025 419.749L860.965 454.229C860.695 455.079 862.745 456.559 865.535 457.519Z" fill="#13375B"/>
<path d="M784.785 501.899C784.705 501.529 784.674 501.169 784.654 500.819C784.594 497.809 786.835 495.029 788.935 492.759C791.525 489.939 794.185 487.089 797.525 485.319C803.715 482.059 811.135 483.089 817.985 484.329C819.565 484.609 821.165 484.909 822.705 485.329C824.475 485.809 826.195 486.439 827.765 487.389C831.285 489.529 833.824 493.139 835.384 497.059C836.924 500.969 837.565 505.199 837.975 509.419C838.755 517.549 838.705 525.739 838.355 533.909C838.325 534.619 838.295 535.359 837.925 535.969C837.645 536.429 837.215 536.759 836.775 537.079C835.245 538.199 833.725 539.329 832.205 540.449C831.005 541.339 829.794 542.229 828.404 542.719C827.894 542.909 827.355 543.019 826.825 543.099C825.665 543.269 824.455 543.249 823.275 543.229C812.995 543.059 802.705 542.889 792.435 542.709C791.275 542.699 790.065 542.659 789.035 542.079C786.965 540.919 786.535 538.089 786.325 535.659C785.875 530.289 785.435 524.919 784.985 519.549C784.475 513.509 783.975 507.429 784.575 501.399C784.605 501.199 784.614 500.999 784.654 500.809C784.964 498.539 785.815 496.029 787.935 495.499" fill="#FFDEBE"/>
<path d="M838.365 533.909C838.335 534.619 838.305 535.359 837.935 535.969C837.655 536.429 837.225 536.759 836.785 537.079C835.255 538.199 833.735 539.329 832.215 540.449C831.015 541.339 829.805 542.229 828.415 542.719C827.905 542.909 827.365 543.019 826.835 543.099C827.865 527.679 828.665 512.159 826.795 496.839C826.525 494.619 826.165 492.369 825.445 490.269C824.875 488.599 823.275 486.929 822.725 485.309C824.495 485.789 826.215 486.419 827.785 487.369C831.305 489.509 833.845 493.119 835.405 497.039C836.945 500.949 837.585 505.179 837.995 509.399C838.765 517.549 838.715 525.739 838.365 533.909Z" fill="#F2B17B"/>
<path d="M823.095 502.699C822.955 502.689 823.115 502.439 823.215 502.529C823.315 502.619 823.275 502.789 823.215 502.919C822.205 505.179 819.955 506.789 817.555 506.969C816.515 507.049 815.385 506.839 814.655 506.079C813.765 505.159 813.685 503.719 813.685 502.409C813.675 500.509 813.855 498.299 815.365 497.209C815.685 498.529 816.685 498.739 817.835 499.399C819.705 500.479 821.225 501.619 823.095 502.699Z" stroke="#B6ABAC" stroke-width="1.1893" stroke-miterlimit="10" stroke-linecap="round" stroke-linejoin="round"/>
<path d="M823.145 503.349C831.945 489.509 837.965 473.969 846.295 459.819C848.215 456.559 850.255 453.379 852.215 450.149C859.605 437.989 866.575 424.469 872.855 411.649C872.365 409.599 871.345 407.569 869.945 406.019C868.335 404.239 866.295 403.249 863.895 403.429C862.765 405.639 861.645 407.849 860.515 410.049C851.825 427.079 839.245 441.469 831.085 458.939C825.185 471.569 820.975 485.099 813.715 496.949C817.615 498.629 819.705 500.819 823.145 503.349Z" fill="black"/>
<path d="M839.415 442.609C841.555 444.059 843.735 445.449 845.875 446.879C846.935 447.589 847.975 448.309 849.025 449.029C849.545 449.389 850.075 449.759 850.585 450.119C851.125 450.499 851.665 450.979 852.255 451.259C853.005 451.609 853.485 450.489 852.695 450.209C852.575 450.169 852.465 450.119 852.355 450.059C852.105 449.949 851.745 450.139 851.845 450.449C851.895 450.609 851.945 450.759 851.985 450.919C852.305 450.729 852.625 450.549 852.945 450.359C852.535 449.919 851.985 449.599 851.495 449.249C850.945 448.859 850.395 448.459 849.845 448.079C848.775 447.329 847.685 446.599 846.585 445.879C844.395 444.439 842.175 443.049 839.855 441.819C839.345 441.539 838.925 442.279 839.415 442.609Z" fill="#505050"/>
<path d="M842.985 436.509C844.925 437.919 847.365 438.559 849.615 439.309C852.125 440.149 854.635 440.999 857.165 441.799C857.965 442.049 858.285 440.819 857.505 440.549C855.075 439.719 852.625 438.939 850.185 438.149C847.935 437.419 845.515 436.879 843.405 435.789C842.925 435.529 842.555 436.189 842.985 436.509Z" fill="#505050"/>
<path d="M874.665 462.989C875.995 464.169 877.335 465.369 878.885 466.189C880.695 467.149 882.315 467.609 883.965 466.179C887.805 462.849 889.485 458.419 890.015 453.379C890.315 450.499 890.015 448.919 888.275 446.709C886.535 444.499 884.295 442.749 881.945 441.279C880.385 440.299 878.695 439.399 876.875 439.239C875.875 439.149 874.565 439.589 874.545 440.629C874.535 441.259 875.025 441.769 875.475 442.199C876.785 443.429 878.105 444.649 879.415 445.879C877.445 444.809 875.255 444.189 873.035 444.089C872.565 444.069 872.075 444.069 871.645 444.269C871.215 444.469 870.865 444.919 870.905 445.409C870.945 445.859 871.295 446.209 871.615 446.519C872.625 447.459 873.635 448.409 874.635 449.349C873.565 449.339 872.505 448.999 871.445 449.109C870.385 449.209 869.235 449.989 869.255 451.089C869.265 451.979 869.995 452.649 870.665 453.209C871.895 454.229 873.175 455.209 874.365 456.289C873.095 455.869 869.945 454.509 869.725 456.839C869.525 459.119 873.215 461.699 874.665 462.989Z" fill="#FFC49C"/>
<path d="M873.965 456.129C874.085 457.009 875.275 457.399 875.965 457.719C876.585 458.009 877.095 458.439 877.665 458.809C878.315 459.229 878.985 459.639 879.675 459.999C880.145 460.239 880.705 460.619 881.265 460.539C881.425 460.519 881.405 460.319 881.305 460.239C880.855 459.899 880.345 459.659 879.865 459.369C879.245 458.999 878.615 458.639 878.005 458.239C877.485 457.899 877.045 457.509 876.475 457.229C876.065 457.029 875.645 456.869 875.245 456.659C874.865 456.459 874.545 456.169 874.175 455.959C874.055 455.909 873.955 456.019 873.965 456.129Z" fill="#FF996B"/>
<path d="M875.705 449.849C876.775 450.809 877.995 451.629 879.125 452.529C879.675 452.969 880.215 453.429 880.765 453.869C881.305 454.309 881.825 454.799 882.475 455.069C882.595 455.119 882.695 454.959 882.635 454.859C882.295 454.249 881.715 453.799 881.195 453.339C880.645 452.859 880.075 452.409 879.505 451.969C878.385 451.089 877.245 450.159 875.995 449.479C875.765 449.359 875.495 449.659 875.705 449.849Z" fill="#FF996B"/>
<path d="M879.015 445.659C879.235 446.019 879.546 446.329 879.856 446.609C880.316 447.019 880.775 447.419 881.245 447.819C882.245 448.679 883.225 449.579 884.265 450.379C884.665 450.689 885.085 450.989 885.485 451.299C885.585 451.379 885.775 451.269 885.685 451.149C885.055 450.299 884.255 449.629 883.465 448.939C882.465 448.079 881.445 447.249 880.445 446.389C880.055 446.049 879.665 445.719 879.245 445.439C879.095 445.349 878.935 445.519 879.015 445.659Z" fill="#FF996B"/>
<path d="M884.965 445.689C885.055 446.249 884.995 446.829 884.835 447.379C884.515 448.449 883.725 449.049 883.245 449.979C882.905 450.649 883.055 451.449 882.885 452.189C882.615 453.359 882.035 454.459 881.235 455.339C880.915 455.679 880.145 456.079 879.955 456.499C879.875 456.659 880.015 457.169 879.985 457.379C879.935 457.749 879.735 458.109 879.555 458.439C878.225 460.699 876.255 462.439 874.125 463.839C873.045 464.559 871.915 465.219 870.755 465.809C869.745 466.319 868.805 466.329 867.715 466.589C865.215 467.189 862.855 467.169 860.295 467.099C858.055 467.039 855.525 466.989 853.565 468.279C849.725 470.799 846.225 473.969 842.325 476.479C835.515 480.879 828.725 485.269 821.915 489.669C817.575 492.469 813.225 495.279 808.485 497.269C806.285 498.179 803.825 498.929 801.585 498.149C799.595 497.459 798.105 495.669 797.265 493.679C796.435 491.679 796.175 489.489 795.975 487.329C795.155 478.679 795.145 469.959 795.925 461.299C796.085 459.479 795.965 456.289 796.235 454.549C796.275 454.229 796.185 453.589 796.205 453.469L796.755 454.119L796.845 454.159C796.885 454.179 796.945 454.199 796.985 454.229C797.065 454.259 797.145 454.309 797.225 454.339L798.665 455.029C798.675 455.029 798.675 455.029 798.685 455.039C799.705 455.559 800.725 456.079 801.745 456.609C805.595 458.569 811.435 460.739 815.295 462.699C815.345 463.129 814.885 472.079 816.905 470.849C819.975 468.949 823.405 468.359 826.695 467.029C831.015 465.269 835.065 462.929 839.205 460.779C843.335 458.629 847.955 457.359 851.455 454.119C853.045 452.649 854.075 450.669 855.115 448.759C856.455 446.269 857.885 443.849 859.295 441.399C860.435 439.419 861.405 437.539 863.285 436.149C863.595 435.929 863.925 435.719 864.305 435.709C865.005 435.689 865.565 436.389 865.665 437.109C865.765 437.819 865.525 438.529 865.285 439.219C864.805 440.639 864.315 442.059 863.835 443.489C863.715 443.849 863.605 444.279 863.845 444.559C864.005 444.749 864.265 444.779 864.495 444.799C870.525 445.419 876.125 441.939 881.655 439.399C882.145 439.179 882.665 438.959 883.205 438.979C884.215 439.019 885.025 439.989 885.155 441.019C885.305 442.229 884.135 443.239 884.305 444.189C884.385 444.669 884.875 445.129 884.965 445.689Z" fill="#FFC49C"/>
<path d="M884.235 443.309C883.155 443.749 882.145 444.369 881.095 444.869C879.715 445.529 878.305 446.139 876.885 446.719C875.525 447.279 874.145 447.819 872.765 448.349C871.645 448.779 870.495 449.179 869.425 449.709C869.185 449.829 869.355 450.209 869.605 450.129C872.215 449.349 874.775 448.229 877.305 447.199C878.645 446.659 879.965 446.099 881.275 445.479C882.345 444.979 883.575 444.459 884.435 443.619C884.565 443.509 884.425 443.229 884.235 443.309Z" fill="#FF996B"/>
<path d="M882.945 449.979C882.405 450.089 881.915 450.389 881.435 450.639C880.865 450.939 880.295 451.229 879.725 451.519C878.615 452.079 877.485 452.609 876.345 453.099C875.205 453.589 874.045 454.029 872.855 454.379C872.245 454.559 871.635 454.719 871.015 454.849C870.405 454.979 869.745 455.029 869.175 455.259C869.025 455.319 868.965 455.599 869.175 455.629C870.305 455.799 871.615 455.389 872.705 455.099C873.965 454.759 875.205 454.329 876.415 453.839C877.565 453.369 878.675 452.839 879.785 452.279C880.395 451.969 880.995 451.659 881.595 451.339C882.145 451.049 882.735 450.789 883.175 450.349C883.335 450.189 883.165 449.929 882.945 449.979Z" fill="#FF996B"/>
<path d="M879.725 457.099C879.235 457.309 878.875 457.689 878.435 457.989C877.995 458.289 877.535 458.539 877.065 458.779C876.135 459.239 875.145 459.579 874.145 459.889C873.065 460.229 871.985 460.539 870.895 460.869C869.625 461.259 868.335 461.719 866.985 461.679C866.725 461.669 866.665 462.099 866.925 462.139C868.245 462.339 869.465 461.929 870.715 461.569C871.975 461.199 873.245 460.849 874.505 460.449C875.545 460.119 876.585 459.749 877.565 459.249C878.415 458.809 879.565 458.189 879.945 457.269C880.005 457.139 879.835 457.059 879.725 457.099Z" fill="#FF996B"/>
<path d="M816.335 461.729C817.015 458.409 817.555 455.039 818.255 451.719C818.965 448.399 819.855 445.119 820.485 441.779C820.555 441.419 820.065 441.289 819.935 441.629C818.415 445.699 817.525 450.049 816.705 454.309C816.295 456.449 815.905 458.609 815.605 460.769C815.535 461.249 815.315 462.349 816.095 462.419C816.495 462.449 816.865 461.989 816.555 461.669C816.485 461.609 816.355 461.629 816.335 461.729Z" fill="#8F4234"/>
<path d="M806.735 597.109C808.755 597.119 810.795 597.139 812.785 597.519C815.765 598.099 818.695 598.249 821.735 598.299C824.795 598.359 827.875 598.119 830.925 597.899C833.415 597.719 835.915 597.699 838.415 597.839C838.665 597.849 838.925 597.879 839.125 598.039C839.415 598.279 839.435 598.729 839.415 599.109C839.355 600.919 839.175 602.719 838.885 604.509C838.795 605.039 838.385 605.459 837.865 605.539C825.815 607.479 813.425 607.179 801.475 604.669C801.055 604.579 800.605 604.479 800.285 604.179C799.595 603.549 799.775 602.409 800.015 601.489C800.345 600.189 799.765 597.339 800.995 596.809C801.985 596.389 805.565 597.109 806.735 597.109Z" fill="#B6ABAC"/>
<path d="M846.305 597.509C850.895 597.339 855.655 597.209 860.235 597.539C864.545 597.849 868.515 597.119 872.855 597.259C873.065 597.269 873.284 597.279 873.454 597.439C873.704 597.669 873.735 598.119 873.735 598.499C873.745 600.209 873.665 601.919 873.505 603.619C873.435 604.329 872.925 604.919 872.245 605.069C862.345 607.289 852.104 607.349 842.134 605.249C841.774 605.169 841.404 605.089 841.114 604.799C840.514 604.189 840.625 603.049 840.795 602.119C841.025 600.809 841.075 597.989 842.085 597.429C842.935 596.959 845.325 597.549 846.305 597.509Z" fill="#B6ABAC"/>
<path d="M824.185 323.769C824.295 324.829 823.555 325.779 822.545 325.899C821.525 326.009 820.615 325.239 820.505 324.179C820.395 323.119 821.135 322.169 822.145 322.049C823.165 321.939 824.075 322.709 824.185 323.769Z" fill="black"/>
<path d="M822.315 324.379C816.085 329.719 805.325 343.979 814.705 360.859C814.705 360.859 852.305 332.739 858.675 328.699C854.935 323.379 840.495 313.519 822.315 324.379ZM838.065 340.839C836.505 338.559 835.755 334.289 840.105 331.579C844.455 328.879 848.135 333.229 848.135 333.229L838.065 340.839Z" fill="black"/>
<path d="M785.505 501.779C786.535 508.199 791.745 513.379 797.615 515.689C800.965 517.009 804.625 517.479 808.205 517.319C811.675 517.159 815.275 516.479 818.255 514.619C821.685 512.479 823.695 508.899 825.445 505.369C825.755 504.759 824.825 504.209 824.525 504.829C823.035 507.839 821.385 510.979 818.665 513.059C816.025 515.079 812.645 515.909 809.385 516.209C802.775 516.819 795.805 515.159 790.985 510.379C788.535 507.939 786.905 504.959 786.055 501.629C785.975 501.249 785.445 501.419 785.505 501.779Z" fill="#B78458"/>
<path d="M787.715 501.469C788.275 501.989 788.765 502.089 789.525 502.079C790.505 502.069 791.485 502.009 792.475 501.969C794.505 501.899 796.535 501.839 798.555 501.809C800.545 501.779 802.535 501.779 804.515 501.809C805.505 501.829 806.505 501.849 807.495 501.879C808.515 501.909 809.575 502.089 810.545 501.719C810.735 501.649 810.825 501.349 810.605 501.239C809.765 500.829 808.915 500.879 807.995 500.849C807.005 500.819 806.005 500.799 805.015 500.779C803.065 500.749 801.125 500.749 799.175 500.779C797.225 500.809 795.285 500.859 793.335 500.959C792.345 501.009 791.345 501.059 790.355 501.139C789.605 501.199 788.595 501.439 787.865 501.179C787.715 501.129 787.595 501.359 787.715 501.469Z" fill="#B78458"/>
<path d="M802.985 513.709C802.075 514.619 801.925 516.049 801.915 517.359C801.905 518.689 801.995 520.029 802.175 521.349C802.375 522.809 803.005 524.559 804.415 524.709C805.695 524.849 806.675 523.519 807.055 522.249C807.875 519.549 807.295 516.639 806.715 513.869C806.675 513.659 806.615 513.439 806.465 513.309C806.325 513.189 806.135 513.169 805.965 513.149C804.885 513.029 803.555 513.029 802.975 513.979" fill="#B78458"/>
<path d="M869.845 595.299C869.825 595.469 869.805 595.629 869.815 595.809C869.815 595.979 869.825 596.149 869.825 596.319C869.825 596.399 869.835 596.479 869.845 596.549C869.855 596.599 869.855 596.639 869.865 596.689C869.875 596.749 869.895 596.829 869.905 596.859C869.945 597.019 869.955 597.179 869.995 597.339C870.035 597.519 870.315 597.519 870.365 597.339C870.405 597.179 870.415 597.019 870.455 596.859C870.455 596.839 870.485 596.749 870.495 596.709C870.505 596.659 870.505 596.619 870.515 596.569C870.525 596.489 870.535 596.399 870.535 596.319C870.535 596.149 870.545 595.979 870.545 595.809C870.545 595.639 870.535 595.479 870.515 595.299C870.495 595.129 870.375 594.959 870.185 594.969C869.975 594.979 869.865 595.109 869.845 595.299Z" fill="#B6ABAC"/>
<path d="M825.445 364.929C825.395 364.259 824.615 363.579 823.945 364.009C823.575 364.249 823.555 364.889 823.525 365.299C823.475 365.949 823.585 366.599 823.815 367.209C823.865 367.339 823.985 367.479 824.145 367.459C825.105 367.349 825.895 366.619 825.965 365.629C826.045 364.639 825.295 363.719 824.325 363.539C824.125 363.499 823.965 363.589 823.895 363.779C823.545 364.789 823.835 365.919 824.655 366.599C824.785 366.709 825.025 366.759 825.155 366.599C825.825 365.739 825.625 364.359 824.575 363.889C824.435 363.829 824.265 363.819 824.145 363.949C823.345 364.789 823.345 366.129 824.155 366.969C824.285 367.099 824.525 367.109 824.655 366.969C825.595 365.979 825.225 364.279 823.975 363.769C823.855 363.719 823.715 363.779 823.635 363.859C822.485 364.899 822.975 367.069 824.485 367.479C824.645 367.519 824.785 367.449 824.885 367.319C825.685 366.229 825.315 364.549 824.125 363.919C823.945 363.829 823.745 363.879 823.635 364.049C822.825 365.289 823.555 366.789 824.555 367.659C825.185 368.209 825.915 368.609 826.525 369.179C827.095 369.709 827.535 370.359 827.865 371.069C829.285 374.179 828.355 377.709 827.135 380.719C826.425 382.469 825.605 384.179 824.985 385.959C824.385 387.709 824.005 389.519 823.805 391.349C823.395 395.089 823.775 398.859 824.365 402.559C824.985 406.399 825.865 410.189 826.525 414.009C827.195 417.869 827.715 421.779 826.335 425.549C825.685 427.329 824.805 429.019 824.265 430.839C823.735 432.609 823.465 434.459 823.365 436.309C823.175 440.159 823.725 443.989 824.215 447.799C824.675 451.399 824.845 455.009 824.375 458.619C823.925 462.089 822.935 465.589 820.875 468.459C820.535 468.929 821.315 469.379 821.655 468.909C825.265 463.869 825.905 456.969 825.465 450.959C825.195 447.279 824.485 443.649 824.295 439.959C824.095 436.079 824.495 432.329 825.995 428.719C826.725 426.969 827.545 425.239 827.885 423.349C828.235 421.439 828.175 419.489 827.955 417.569C827.535 413.819 826.695 410.129 825.975 406.429C825.235 402.629 824.565 398.799 824.525 394.919C824.485 391.049 825.235 387.409 826.725 383.839C828.185 380.349 829.865 376.819 829.265 372.939C829.025 371.379 828.385 369.819 827.225 368.709C826.155 367.689 822.995 366.329 824.255 364.379C824.095 364.419 823.925 364.469 823.765 364.509C824.645 364.969 824.855 366.159 824.275 366.939C824.405 366.889 824.535 366.829 824.675 366.779C823.655 366.499 823.385 365.019 824.145 364.339C824.035 364.369 823.915 364.399 823.805 364.429C824.575 364.739 824.725 365.889 824.175 366.459C824.345 366.459 824.505 366.459 824.675 366.459C824.135 365.899 824.135 364.999 824.665 364.429C824.525 364.449 824.385 364.469 824.235 364.489C824.815 364.759 825.085 365.559 824.675 366.099C824.845 366.099 825.005 366.099 825.175 366.099C824.535 365.559 824.325 364.749 824.595 363.959C824.455 364.039 824.305 364.119 824.165 364.199C825.585 364.449 825.665 366.579 824.165 366.759C824.275 366.839 824.385 366.929 824.495 367.009C824.295 366.489 824.185 365.949 824.215 365.389C824.225 365.249 824.225 364.719 824.335 364.619C824.595 364.389 824.855 364.739 824.885 364.989C824.915 365.339 825.465 365.259 825.445 364.929Z" fill="#FFF1E2"/>
<path d="M822.115 468.529C825.165 462.849 827.815 456.789 829.295 450.499C830.055 447.269 830.185 444.039 830.425 440.749C830.685 437.169 831.315 433.669 833.355 430.639C835.115 428.029 837.535 425.949 839.815 423.819C842.305 421.489 844.495 418.989 846.325 416.089C848.265 413.009 849.845 409.719 851.475 406.469C853.245 402.939 855.025 399.399 856.795 395.869C858.615 392.239 860.445 388.599 861.975 384.829C863.505 381.049 864.855 377.029 865.145 372.939C865.175 372.549 864.515 372.459 864.465 372.849C863.935 376.499 863.015 380.009 861.705 383.449C860.365 386.959 858.725 390.339 857.045 393.699C855.315 397.169 853.575 400.639 851.835 404.109C850.175 407.429 848.575 410.789 846.735 414.009C844.995 417.039 842.965 419.809 840.465 422.249C838.245 424.419 835.825 426.419 833.865 428.849C831.785 431.439 830.595 434.369 830.125 437.649C829.635 441.039 829.785 444.489 829.235 447.869C828.645 451.489 827.525 455.019 826.215 458.429C824.925 461.799 823.415 465.099 821.745 468.299C821.615 468.559 821.985 468.779 822.115 468.529Z" fill="#FFF1E2"/>
<path d="M791.455 449.319C791.385 449.779 791.335 450.279 791.535 450.699C791.705 451.039 792.015 451.279 792.305 451.499C793.655 452.509 795.015 453.509 796.365 454.519C797.915 455.669 799.475 456.829 801.185 457.689C802.835 458.519 804.615 459.069 806.375 459.619C809.485 460.579 812.605 461.829 815.705 462.789C815.855 460.299 816.505 456.619 817.025 454.179C815.465 454.079 814.155 453.079 812.865 452.169C810.995 450.839 808.625 450.639 806.575 449.619C803.095 447.899 799.635 446.159 796.145 444.459C794.765 443.779 792.915 442.909 792.915 442.909C792.915 442.909 791.645 448.019 791.455 449.319Z" fill="#8F4234"/>
<path d="M795.595 485.689C793.965 486.229 792.485 487.379 791.245 488.549C789.925 489.789 788.785 491.219 787.815 492.739C785.805 495.889 784.535 499.499 783.895 503.159C783.085 507.799 783.175 512.539 783.595 517.219C784.025 522.049 784.735 526.869 785.355 531.679C785.645 533.949 785.755 536.359 786.395 538.569C786.855 540.139 787.725 541.809 789.525 541.979C789.945 542.019 789.935 541.449 789.615 541.309C788.185 540.709 787.545 539.229 787.205 537.819C786.735 535.859 786.605 533.799 786.355 531.799C785.785 527.299 785.155 522.809 784.705 518.299C783.915 510.269 784.015 501.929 787.885 494.639C788.805 492.909 789.915 491.289 791.255 489.849C792.615 488.389 794.215 487.319 795.795 486.139C795.995 485.989 795.885 485.589 795.595 485.689Z" fill="#B78458"/>
<path d="M825.785 497.609C825.685 498.299 825.785 498.939 825.865 499.619C825.955 500.389 826.045 501.159 826.135 501.919C826.295 503.419 826.445 504.919 826.575 506.419C826.825 509.379 827.015 512.349 827.125 515.319C827.345 521.259 827.275 527.219 826.905 533.149C826.695 536.519 826.385 539.889 825.985 543.249C825.915 543.829 826.825 543.829 826.895 543.249C828.315 531.369 828.585 519.319 827.585 507.389C827.445 505.689 827.275 503.979 827.085 502.279C826.995 501.469 826.895 500.659 826.795 499.849C826.695 499.049 826.645 498.259 826.305 497.519C826.215 497.319 825.825 497.369 825.785 497.609Z" fill="#B78458"/>
<path d="M790.105 541.979C790.255 542.699 790.945 542.929 791.605 543.009C792.775 543.149 793.984 543.109 795.154 543.149C797.694 543.229 800.235 543.259 802.775 543.319C807.815 543.429 812.844 543.559 817.884 543.669C818.544 543.679 818.544 542.659 817.884 542.649C813.224 542.549 808.564 542.489 803.904 542.399C801.574 542.349 799.244 542.309 796.914 542.259C795.744 542.239 794.584 542.229 793.414 542.209C792.684 542.199 791.144 542.489 790.644 541.769C790.444 541.489 790.035 541.649 790.105 541.979Z" fill="#B78458"/>
<path d="M882.425 428.409C883.021 428.409 883.505 427.912 883.505 427.299C883.505 426.686 883.021 426.189 882.425 426.189C881.828 426.189 881.345 426.686 881.345 427.299C881.345 427.912 881.828 428.409 882.425 428.409Z" fill="white"/>
<path d="M905.465 380.159C905.995 380.449 906.535 380.729 907.055 381.029C910.085 382.819 912.315 385.379 913.775 388.649C915.215 391.889 915.625 395.269 914.985 398.769C914.225 402.869 912.285 406.269 909.105 408.849C905.365 411.879 901.115 413.069 896.415 412.299C891.985 411.579 888.425 409.299 885.795 405.539C883.255 401.899 882.245 397.819 882.855 393.369C883.555 388.229 886.055 384.229 890.275 381.429C893.435 379.329 896.915 378.499 900.655 378.899C901.545 378.989 902.425 379.239 903.305 379.409C903.385 379.429 903.465 379.429 903.555 379.439C904.195 379.679 904.835 379.919 905.465 380.159ZM893.875 410.349C901.685 413.259 910.365 409.029 913.175 400.949C915.985 392.859 911.905 383.889 904.095 380.969C896.285 378.059 887.605 382.289 884.795 390.369C881.985 398.469 886.065 407.439 893.875 410.349Z" fill="#A84E5F"/>
<path d="M894.045 398.389C894.675 398.319 895.295 398.309 895.865 398.159C896.895 397.889 897.705 397.219 898.365 396.379C899.505 394.939 900.235 393.329 900.245 391.429C900.245 390.079 899.905 388.829 899.145 387.709C898.045 386.099 896.375 385.599 894.535 386.359C892.245 387.309 890.965 389.119 890.475 391.579C890.275 392.589 890.235 393.599 890.435 394.609C890.665 395.759 891.175 396.719 892.105 397.429C892.195 397.499 892.285 397.579 892.375 397.659C892.395 397.669 892.395 397.699 892.425 397.729C891.365 400.339 890.305 402.959 889.235 405.579C886.265 402.749 883.765 396.639 886.265 390.249C888.815 383.749 895.775 380.109 902.315 381.839C908.985 383.609 913.415 390.189 912.635 397.189C911.855 404.289 906.465 408.799 901.445 409.579C901.675 408.769 901.905 407.979 902.135 407.179C902.555 405.749 902.985 404.329 903.395 402.899C903.465 402.669 903.545 402.589 903.785 402.609C904.795 402.679 905.735 402.409 906.535 401.779C906.825 401.549 907.055 401.159 907.175 400.789C907.625 399.489 908.065 398.179 908.405 396.849C908.905 394.919 909.325 392.969 909.785 391.029C909.795 390.989 909.795 390.949 909.815 390.879C909.615 390.809 909.425 390.739 909.215 390.649C908.175 393.629 907.145 396.599 906.095 399.599C905.825 399.499 905.565 399.399 905.295 399.299C906.335 396.319 907.365 393.349 908.415 390.359C908.115 390.249 907.835 390.139 907.515 390.019C906.475 392.989 905.445 395.969 904.395 398.969C904.115 398.869 903.875 398.779 903.595 398.669C904.635 395.689 905.675 392.709 906.715 389.709C906.405 389.599 906.135 389.489 905.845 389.379C904.805 392.369 903.765 395.339 902.725 398.329C902.455 398.229 902.215 398.139 901.935 398.029C902.975 395.059 904.005 392.079 905.055 389.079C904.765 388.969 904.515 388.879 904.225 388.769C903.745 389.789 903.235 390.779 902.785 391.809C901.955 393.719 901.135 395.639 900.345 397.559C900.105 398.159 899.855 398.779 900.065 399.469C900.355 400.409 900.875 401.179 901.625 401.779C901.685 401.829 901.745 401.869 901.805 401.919C901.825 401.929 901.825 401.949 901.865 401.999C901.635 402.579 901.395 403.179 901.155 403.769C900.365 405.709 899.575 407.659 898.795 409.599C898.725 409.769 898.645 409.829 898.465 409.819C895.995 409.709 893.715 408.989 891.625 407.609C891.445 407.489 891.385 407.399 891.455 407.169C892.295 404.339 893.125 401.499 893.955 398.659C893.975 398.579 894.025 398.459 894.045 398.389Z" fill="#A84E5F"/>
<path d="M891.295 391.689C891.745 390.599 892.255 389.749 893.055 389.129C893.145 389.059 893.295 389.069 893.415 389.039C893.385 389.169 893.395 389.319 893.335 389.419C891.955 391.489 891.705 393.709 892.465 396.079C892.495 396.169 892.465 396.279 892.465 396.379C892.365 396.339 892.225 396.339 892.175 396.259C891.915 395.859 891.615 395.479 891.445 395.039C890.995 393.899 891.005 392.719 891.295 391.689Z" fill="#A84E5F"/>
<path d="M867.485 713.699C867.485 713.699 860.785 715.729 857.345 716.239C853.915 716.749 849.035 714.319 846.605 715.469C843.935 716.739 844.805 731.799 844.805 731.799C844.805 731.799 881.055 732.759 893.075 732.119C897.285 731.889 881.195 718.429 867.485 713.699Z" fill="black"/>
<path d="M833.455 714.649C833.455 714.649 826.675 716.379 823.225 716.729C819.775 717.079 815.435 712.609 812.955 713.649C810.235 714.799 808.905 730.079 808.905 730.079C808.905 730.079 848.235 733.659 857.515 732.709C861.695 732.289 846.945 719.989 833.455 714.649Z" fill="#443437"/>
<path opacity="0.37" d="M935.274 737.279C942.954 746.249 895.874 759.279 855.614 753.209C815.354 747.139 741.434 748.629 738.554 733.689C735.674 718.759 830.484 720.899 854.394 721.559C878.304 722.239 920.084 719.529 935.274 737.279Z" fill="#A0938A"/>
<path d="M506.665 413.059C506.665 319.509 506.665 225.959 506.665 132.419C507.265 132.229 507.035 131.649 507.175 131.269C508.965 126.369 512.045 122.579 516.795 120.309C518.475 119.499 520.175 118.629 522.145 118.769C522.405 118.789 522.635 118.729 522.685 118.419C560.715 118.419 598.755 118.419 636.785 118.419C636.865 118.849 637.215 118.759 637.505 118.779C637.925 118.809 638.355 118.779 638.765 118.879C642.165 119.679 645.105 121.369 647.625 123.749C649.885 125.879 651.335 128.559 652.385 131.469C652.475 131.709 652.415 132.039 652.805 132.079C652.805 225.869 652.805 319.659 652.805 413.449C652.545 413.479 652.495 413.659 652.435 413.889C650.475 421.439 645.255 425.489 637.965 427.289C637.735 427.349 637.555 427.389 637.525 427.649C598.945 427.649 560.365 427.649 521.785 427.649C521.755 427.489 521.695 427.339 521.525 427.319C520.295 427.199 519.205 426.629 518.115 426.139C515.935 425.159 513.795 424.119 512.045 422.399C509.515 419.909 507.805 416.989 507.045 413.519C506.975 413.279 506.935 413.089 506.665 413.059ZM509.945 272.599C509.945 317.799 509.955 362.989 509.925 408.189C509.925 412.349 511.615 415.749 514.275 418.749C516.125 420.829 518.655 421.939 521.125 423.089C522.695 423.819 524.335 424.019 526.065 424.019C546.195 423.989 566.325 423.999 586.455 423.999C602.435 423.999 618.425 423.999 634.405 423.999C634.855 423.999 635.305 424.029 635.755 423.889C639.685 422.659 643.355 420.989 645.945 417.619C647.995 414.949 649.335 411.999 649.335 408.519C649.325 318.369 649.325 228.219 649.355 138.069C649.355 135.699 648.875 133.569 647.785 131.459C645.355 126.719 641.405 123.989 636.475 122.429C635.955 122.269 635.415 122.229 634.865 122.229C629.375 122.239 623.885 122.229 618.395 122.239C617.135 122.239 616.515 122.709 616.225 123.959C615.885 125.429 615.545 126.909 615.295 128.389C614.875 130.979 613.595 132.939 611.345 134.279C610.995 134.489 610.645 134.629 610.235 134.609C606.625 134.479 603.035 134.839 599.425 134.789C598.905 134.779 598.375 134.609 597.895 134.669C595.605 134.949 593.305 134.699 591.015 134.769C588.315 134.849 585.615 134.789 582.915 134.789C580.925 134.789 578.925 134.789 576.935 134.789C572.365 134.789 567.795 134.799 563.215 134.779C561.855 134.779 560.475 134.639 559.135 134.729C555.735 134.949 552.355 134.539 548.975 134.589C548.685 134.589 548.355 134.509 548.105 134.369C546.275 133.289 544.815 131.889 544.295 129.739C543.815 127.709 543.425 125.669 542.915 123.649C542.655 122.629 542.015 122.239 540.985 122.239C535.375 122.239 529.765 122.239 524.155 122.239C523.795 122.239 523.435 122.269 523.075 122.369C518.325 123.669 514.495 126.249 511.975 130.549C510.645 132.819 509.875 135.179 509.875 137.929C509.965 182.809 509.945 227.699 509.945 272.599Z" fill="#F2F2F2"/>
<path d="M509.945 272.599C509.945 227.709 509.965 182.809 509.895 137.919C509.895 135.169 510.665 132.799 511.995 130.539C514.525 126.239 518.345 123.659 523.095 122.359C523.455 122.259 523.805 122.229 524.175 122.229C529.785 122.229 535.395 122.229 541.005 122.229C542.035 122.229 542.675 122.619 542.935 123.639C543.445 125.659 543.835 127.709 544.315 129.729C544.825 131.879 546.295 133.279 548.125 134.359C548.375 134.509 548.705 134.589 548.995 134.579C552.385 134.529 555.755 134.939 559.155 134.719C560.495 134.629 561.875 134.769 563.235 134.769C567.805 134.779 572.375 134.779 576.955 134.779C578.945 134.779 580.945 134.779 582.935 134.779C585.635 134.779 588.335 134.839 591.035 134.759C593.325 134.689 595.625 134.949 597.915 134.659C598.395 134.599 598.925 134.769 599.445 134.779C603.045 134.829 606.645 134.459 610.255 134.599C610.665 134.619 611.015 134.469 611.365 134.269C613.615 132.929 614.895 130.959 615.315 128.379C615.555 126.889 615.905 125.419 616.245 123.949C616.535 122.699 617.155 122.229 618.415 122.229C623.905 122.229 629.395 122.229 634.885 122.219C635.435 122.219 635.975 122.259 636.495 122.419C641.425 123.979 645.365 126.709 647.805 131.449C648.885 133.559 649.375 135.689 649.375 138.059C649.345 228.209 649.345 318.359 649.355 408.509C649.355 411.979 648.025 414.939 645.965 417.609C643.375 420.979 639.695 422.639 635.775 423.879C635.325 424.019 634.875 423.989 634.425 423.989C618.445 423.989 602.455 423.989 586.475 423.989C566.345 423.989 546.215 423.979 526.085 424.009C524.355 424.009 522.715 423.809 521.145 423.079C518.665 421.929 516.145 420.829 514.295 418.739C511.625 415.739 509.935 412.349 509.945 408.179C509.955 362.989 509.945 317.789 509.945 272.599Z" fill="#F2F2F2"/>
<path d="M652.485 272.709C652.485 318.609 652.485 364.509 652.485 410.409C652.485 417.149 649.205 421.889 643.455 425.089C643.375 425.129 643.295 425.169 643.215 425.209C640.375 426.799 637.355 427.439 634.065 427.429C597.755 427.369 561.444 427.359 525.124 427.439C521.384 427.449 518.045 426.519 514.945 424.639C509.705 421.459 506.695 416.879 506.695 410.599C506.685 318.349 506.685 226.099 506.725 133.839C506.725 132.599 507.025 131.299 507.485 130.149C509.565 124.929 513.315 121.339 518.595 119.449C520.015 118.939 521.604 118.659 523.114 118.649C540.194 118.579 557.275 118.579 574.355 118.579C594.715 118.579 615.064 118.599 635.424 118.609C641.584 118.609 646.165 121.579 649.685 126.389C650.535 127.549 651.215 128.879 651.735 130.229C652.175 131.359 652.475 132.629 652.475 133.829C652.495 180.119 652.485 226.419 652.485 272.709ZM509.685 272.769C509.685 276.769 509.685 280.779 509.685 284.779C509.685 326.029 509.684 367.289 509.674 408.539C509.674 410.199 509.985 411.769 510.535 413.339C512.765 419.729 520.575 424.179 526.525 424.169C561.595 424.079 596.655 424.109 631.725 424.149C634.465 424.149 636.975 423.629 639.435 422.429C645.775 419.329 649.124 414.469 649.124 407.239C649.084 317.479 649.094 227.729 649.144 137.969C649.144 135.199 648.515 132.749 647.065 130.489C643.645 125.149 638.924 122.039 632.414 122.039C627.954 122.039 623.495 122.039 619.035 122.039C616.665 122.039 616.325 122.339 615.805 124.689C615.415 126.499 615.095 128.329 614.575 130.099C613.735 132.939 611.445 134.599 608.505 134.609C595.465 134.629 582.414 134.629 569.374 134.639C562.944 134.639 556.515 134.639 550.085 134.599C549.285 134.589 548.395 134.529 547.715 134.169C545.725 133.119 544.375 131.499 543.935 129.209C543.605 127.509 543.235 125.819 542.855 124.139C542.465 122.439 541.955 122.059 540.195 122.049C535.645 122.039 531.095 122.139 526.545 122.019C522.015 121.899 518.195 123.569 514.985 126.529C511.625 129.619 509.644 133.339 509.654 138.189C509.714 183.049 509.685 227.909 509.685 272.769Z" fill="black"/>
<path d="M563.055 359.679C547.455 347.239 547.215 328.009 555.585 315.879C564.725 302.639 581.655 298.219 595.965 305.379C609.935 312.359 616.785 328.839 612.015 343.699C607.335 358.239 592.314 368.659 574.464 364.909C573.144 367.489 571.794 370.129 570.444 372.769C567.974 377.639 565.525 382.519 563.055 387.389C561.015 391.409 558.584 392.239 554.714 390.259C550.754 388.239 549.925 385.669 552.005 381.559C555.305 375.039 558.644 368.529 561.954 362.019C562.344 361.229 562.695 360.429 563.055 359.679ZM556.704 342.079C561.264 356.049 576.354 363.739 590.154 359.119C603.954 354.489 611.435 339.649 606.965 325.759C602.455 311.779 587.465 304.029 573.605 308.529C559.755 313.009 552.154 328.109 556.704 342.079Z" fill="#0F367C"/>
<path d="M567.245 180.069L578.495 176.709C588.545 173.709 599.125 179.429 602.125 189.479L605.715 201.529C608.715 211.579 602.995 222.159 592.945 225.159L581.695 228.519C571.645 231.519 561.065 225.799 558.065 215.749L554.475 203.699C551.485 193.639 557.195 183.059 567.245 180.069Z" fill="#FFE8DA" stroke="#243A79"/>
<path d="M577.545 216.209C575.705 215.359 574.905 213.159 575.755 211.329L585.385 190.529C586.235 188.689 588.435 187.889 590.265 188.739C592.105 189.589 592.905 191.789 592.055 193.619L582.425 214.419C581.585 216.249 579.385 217.059 577.545 216.209Z" fill="#0F367C"/>
<path d="M575.535 211.219C574.625 213.179 575.485 215.519 577.445 216.429C579.405 217.339 581.745 216.479 582.655 214.519L582.435 214.419L582.655 214.519L592.285 193.719C593.195 191.759 592.335 189.419 590.375 188.509C588.415 187.599 586.075 188.459 585.165 190.419L575.535 211.219Z" stroke="white"/>
<path d="M586.955 215.959C585.115 215.109 584.315 212.909 585.165 211.079L591.265 197.909C592.115 196.069 594.315 195.269 596.145 196.119C597.985 196.969 598.785 199.169 597.935 200.999L591.836 214.179C590.986 215.999 588.795 216.809 586.955 215.959Z" fill="#F7931E"/>
<path d="M584.945 210.969C584.035 212.929 584.895 215.269 586.855 216.179C588.815 217.089 591.155 216.229 592.065 214.269L598.165 201.099C599.075 199.139 598.215 196.799 596.255 195.889C594.295 194.979 591.955 195.839 591.045 197.799L584.945 210.969Z" stroke="white"/>
<path d="M571.755 208.859C569.915 208.009 569.115 205.809 569.965 203.979L576.065 190.809C576.915 188.969 579.115 188.169 580.945 189.019C582.785 189.869 583.585 192.069 582.735 193.899L576.635 207.069C575.785 208.909 573.595 209.709 571.755 208.859Z" fill="#F7931E"/>
<path d="M576.865 207.169L582.965 193.999C583.875 192.039 583.015 189.699 581.055 188.789C579.095 187.879 576.755 188.739 575.845 190.699L569.745 203.869C568.835 205.829 569.695 208.169 571.655 209.079C573.615 209.989 575.955 209.129 576.865 207.169Z" stroke="white"/>
<path d="M577.855 194.419C576.485 193.329 576.465 191.639 577.205 190.579C578.005 189.419 579.485 189.029 580.745 189.659C581.965 190.269 582.565 191.719 582.155 193.019C581.745 194.289 580.425 195.209 578.865 194.879C578.745 195.109 578.635 195.339 578.515 195.569C578.295 195.999 578.085 196.419 577.865 196.849C577.685 197.199 577.475 197.269 577.135 197.099C576.785 196.919 576.715 196.699 576.895 196.339C577.185 195.769 577.475 195.199 577.765 194.629C577.785 194.549 577.815 194.479 577.855 194.419ZM577.295 192.879C577.695 194.099 579.015 194.779 580.225 194.369C581.435 193.959 582.085 192.659 581.695 191.449C581.305 190.229 579.985 189.549 578.775 189.939C577.565 190.329 576.895 191.649 577.295 192.879Z" fill="white"/>
<path d="M587.085 195.569C586.775 194.819 586.425 193.979 586.105 193.129C585.615 191.819 586.095 190.469 587.265 189.759C588.645 188.929 590.485 189.509 591.155 190.989C591.825 192.459 591.105 194.169 589.575 194.719C588.725 195.029 587.865 195.309 587.085 195.569ZM590.605 193.029C591.095 191.949 590.615 190.669 589.535 190.179C588.475 189.699 587.185 190.169 586.695 191.229C586.205 192.299 586.695 193.589 587.765 194.079C588.845 194.569 590.125 194.099 590.605 193.029Z" fill="white"/>
<path d="M596.015 197.039C596.105 197.099 596.195 197.159 596.285 197.229C596.805 197.609 597.155 198.099 597.355 198.709C597.555 199.309 597.565 199.909 597.375 200.509C597.155 201.219 596.735 201.769 596.105 202.159C595.365 202.619 594.565 202.739 593.725 202.509C592.935 202.289 592.325 201.819 591.925 201.099C591.535 200.409 591.435 199.669 591.625 198.899C591.855 198.009 592.385 197.359 593.215 196.949C593.835 196.649 594.485 196.569 595.155 196.719C595.315 196.759 595.475 196.819 595.625 196.859C595.635 196.869 595.655 196.869 595.665 196.869C595.785 196.929 595.905 196.989 596.015 197.039ZM593.305 202.109C594.665 202.779 596.335 202.219 597.005 200.849C597.675 199.489 597.115 197.819 595.745 197.149C594.385 196.479 592.715 197.039 592.045 198.409C591.375 199.779 591.935 201.439 593.305 202.109Z" fill="white"/>
<path d="M593.575 200.009C593.695 200.009 593.805 200.019 593.915 200.009C594.105 199.979 594.265 199.879 594.405 199.749C594.645 199.519 594.805 199.249 594.845 198.919C594.875 198.679 594.835 198.449 594.715 198.239C594.545 197.929 594.255 197.809 593.905 197.909C593.465 198.029 593.195 198.319 593.065 198.739C593.005 198.909 592.985 199.089 592.995 199.269C593.015 199.479 593.085 199.659 593.245 199.799C593.265 199.809 593.275 199.829 593.285 199.849C593.285 199.849 593.285 199.859 593.295 199.859C593.055 200.299 592.805 200.739 592.555 201.179C592.075 200.619 591.735 199.499 592.315 198.419C592.905 197.329 594.245 196.829 595.405 197.269C596.585 197.719 597.265 198.969 596.985 200.179C596.705 201.409 595.635 202.089 594.705 202.129C594.765 201.989 594.815 201.859 594.875 201.719C594.975 201.479 595.085 201.239 595.185 200.989C595.205 200.949 595.215 200.939 595.265 200.949C595.445 200.979 595.625 200.959 595.785 200.859C595.845 200.829 595.895 200.759 595.925 200.699C596.035 200.479 596.135 200.259 596.225 200.029C596.355 199.699 596.465 199.369 596.595 199.039C596.595 199.029 596.595 199.029 596.605 199.009C596.575 198.989 596.535 198.979 596.495 198.959C596.245 199.459 595.995 199.959 595.745 200.469C595.695 200.449 595.655 200.419 595.605 200.399C595.855 199.899 596.105 199.399 596.355 198.889C596.305 198.859 596.255 198.839 596.195 198.809C595.945 199.309 595.695 199.809 595.445 200.319C595.395 200.299 595.355 200.269 595.305 200.249C595.555 199.749 595.805 199.239 596.055 198.739C596.005 198.709 595.955 198.689 595.905 198.669C595.655 199.169 595.405 199.679 595.155 200.179C595.105 200.159 595.065 200.139 595.015 200.109C595.265 199.609 595.515 199.109 595.765 198.599C595.715 198.579 595.665 198.549 595.615 198.529C595.505 198.699 595.395 198.859 595.295 199.039C595.105 199.359 594.915 199.679 594.735 199.999C594.675 200.099 594.625 200.199 594.645 200.329C594.675 200.499 594.755 200.649 594.885 200.769C594.895 200.779 594.905 200.789 594.915 200.799C594.915 200.799 594.915 200.809 594.925 200.809C594.875 200.909 594.815 201.009 594.765 201.109C594.585 201.439 594.405 201.759 594.215 202.089C594.195 202.119 594.185 202.129 594.155 202.119C593.705 202.049 593.305 201.879 592.955 201.589C592.925 201.569 592.915 201.549 592.935 201.509C593.145 201.029 593.355 200.549 593.555 200.059C593.555 200.039 593.565 200.019 593.575 200.009Z" fill="white"/>
<path d="M593.205 198.779C593.305 198.599 593.415 198.459 593.575 198.369C593.595 198.359 593.615 198.359 593.645 198.359C593.635 198.379 593.635 198.409 593.625 198.419C593.335 198.759 593.245 199.139 593.335 199.569C593.335 199.589 593.335 199.599 593.325 199.619C593.305 199.609 593.285 199.609 593.275 199.589C593.235 199.509 593.185 199.439 593.165 199.359C593.105 199.159 593.135 198.949 593.205 198.779Z" fill="white"/>
<path d="M569.055 189.149C562.475 189.979 562.875 196.879 563.895 200.219C568.855 199.569 571.395 197.129 572.155 195.549C574.515 190.689 571.115 188.989 569.055 189.149Z" fill="#243A79"/>
<path d="M569.625 191.999C567.185 192.249 567.275 194.809 567.615 196.049C569.855 195.729 570.475 194.999 570.715 194.389C571.465 192.509 570.395 191.969 569.625 191.999Z" fill="white"/>
<path d="M557.105 190.799C562.015 187.299 565.285 189.449 566.745 191.089L565.845 191.709C562.525 189.149 559.215 189.839 557.105 190.799Z" fill="#0F367C"/>
<path d="M558.235 195.419C559.375 190.869 563.365 191.099 565.625 191.659L565.295 192.549C561.315 191.589 559.265 193.689 558.235 195.419Z" fill="#0F367C"/>
<path d="M598.685 203.869L594.665 212.729C596.315 214.099 597.145 216.989 597.365 218.259C601.635 213.259 600.025 206.579 598.685 203.869Z" fill="#243A79"/>
<path d="M553.045 233.839C550.605 233.279 546.035 232.859 541.535 233.179C541.075 232.789 540.465 232.499 539.875 232.499C538.655 232.519 538.555 232.889 538.555 233.529C533.815 234.259 529.735 235.999 529.125 239.519C529.005 240.229 529.665 240.009 529.765 239.449C530.085 237.519 533.865 236.519 538.415 236.129C538.025 242.309 537.245 257.409 541.855 257.289C543.415 257.269 541.955 256.089 541.855 252.229C541.755 248.099 542.295 239.159 542.465 235.929C546.695 235.879 550.895 236.219 553.195 236.759C554.345 237.029 555.125 237.839 555.245 237.029C555.385 236.229 554.435 234.159 553.045 233.839ZM554.395 242.269C553.275 242.269 551.215 247.769 550.585 250.969C550.535 250.289 550.515 249.499 550.515 248.599C550.515 246.739 551.005 245.519 551.005 244.519C551.005 243.489 550.245 242.639 548.615 242.639C547.785 242.639 547.465 246.279 547.465 248.769C547.465 258.199 551.475 256.979 551.475 256.319C551.475 255.899 551.105 255.439 550.835 253.659C551.035 250.189 553.865 244.549 553.865 244.549C553.865 244.549 553.445 246.649 553.445 247.189C553.445 247.729 554.345 248.219 555.595 248.219C556.815 248.219 557.335 246.269 557.335 244.239C557.335 242.209 555.735 242.269 554.395 242.269ZM573.775 247.319C573.605 247.859 570.915 255.579 570.405 255.579C569.595 255.579 569.745 250.889 569.675 249.229C569.675 249.109 569.675 248.989 569.675 248.839C569.675 248.329 569.065 247.639 567.575 247.639C566.105 247.639 566.105 248.519 566.105 249.009C566.105 250.279 564.565 255.389 563.835 255.389C563.105 255.389 563.005 253.919 563.005 253.019C563.005 248.519 565.135 244.179 567.525 244.179C568.425 244.179 568.595 246.159 568.595 246.719C568.595 247.259 569.475 246.959 569.475 246.619C569.475 243.049 567.695 243.049 565.175 243.049C561.555 243.049 559.795 248.279 559.795 251.479C559.795 254.879 561.355 256.169 563.285 256.169C565.215 256.169 566.145 252.459 566.335 252.459C566.505 252.459 567.065 257.219 569.365 257.219C569.535 257.219 569.685 257.199 569.755 257.149C571.835 256.419 574.225 248.009 574.345 247.449C574.485 246.839 573.925 246.809 573.775 247.319ZM611.135 235.649C611.205 236.849 609.665 246.989 609.885 251.459C610.085 255.909 612.495 258.199 613.865 258.129C615.255 258.079 613.225 257.689 612.965 252.269C612.815 248.729 614.305 237.879 614.235 236.339C614.165 234.809 611.065 233.669 611.135 235.649ZM626.065 245.689C626.065 244.789 624.765 244.049 623.495 244.049C622.425 244.049 623.105 244.809 623.105 245.389C623.105 245.439 623.105 245.509 623.105 245.589C623.105 247.029 621.125 253.119 620.615 254.699C620.415 254.109 620.245 253.209 620.245 251.499C620.245 248.009 621.195 245.099 621.195 244.219C621.195 243.319 619.605 242.579 618.335 242.579C617.265 242.579 617.945 243.339 617.945 243.919C617.945 244.749 617.305 248.999 617.305 251.669C617.305 255.209 619.745 256.209 620.655 256.119C620.705 256.119 620.755 256.099 620.775 256.099C620.875 256.079 620.945 256.029 620.975 255.949C621.835 255.139 622.735 251.259 623.145 249.299C623.165 250.739 623.195 252.309 623.195 253.499C623.195 258.699 619.825 261.319 618.475 261.169C617.135 261.019 616.155 259.849 616.075 260.579C616.005 261.309 617.075 262.489 618.955 262.709C622.715 263.129 626.215 257.849 626.215 251.959C626.235 248.469 626.065 246.569 626.065 245.689Z" fill="#243A79"/>
<path d="M583.395 243.949C583.075 243.729 581.195 243.269 580.415 244.069C579.435 245.019 578.165 250.369 577.755 252.889C577.515 252.009 577.335 250.889 577.335 249.469C577.335 244.049 578.315 239.749 578.315 238.889C578.315 238.009 576.165 237.279 575.695 237.279C575.205 237.279 575.185 237.669 575.185 237.839C575.185 238.039 574.335 243.829 574.335 246.979C574.335 251.599 575.145 256.219 578.855 256.219C579.565 256.219 578.835 255.729 578.145 254.069C578.535 252.239 580.195 244.959 581.855 244.959C582.715 244.959 583.125 255.979 580.095 255.979C578.725 255.979 579.805 256.879 581.215 256.879C586.625 256.879 586.495 246.029 583.395 243.949ZM607.885 248.199C607.645 248.589 605.295 254.549 602.875 254.549C601.775 254.549 601.235 252.159 601.185 250.079C602.725 249.859 605.825 249.009 605.825 245.459C605.825 244.089 605.265 242.969 604.525 242.599C603.765 242.259 601.715 242.379 600.465 243.549C599.515 244.449 597.895 246.699 597.825 249.779C597.435 250.539 595.845 253.929 593.595 253.929C592.275 253.929 591.765 251.489 591.955 249.039C592.465 249.189 593.155 249.359 593.715 249.359C595.305 249.359 596.545 248.019 596.545 245.449C596.545 244.079 595.985 242.959 595.255 242.589C594.495 242.249 592.175 242.099 591.175 242.979C590.175 243.859 588.565 246.789 588.565 249.989C588.565 252.409 589.595 255.489 593.015 255.489C595.265 255.489 596.995 252.779 597.875 251.039C598.165 253.209 599.345 256.099 602.275 256.099C605.985 256.099 608.285 248.649 608.525 248.179C608.785 247.759 608.125 247.809 607.885 248.199ZM594.345 244.469C595.595 244.469 595.105 249.889 592.025 248.549C592.295 246.419 593.095 244.469 594.345 244.469ZM603.655 243.779C604.435 243.779 604.515 248.939 601.185 249.549C601.235 246.789 602.095 243.779 603.655 243.779Z" fill="#F7931E"/>
<path d="M580.934 339.249C577.184 335.089 572.885 330.529 568.825 325.779C562.585 318.479 562.494 308.579 568.414 301.209C575.354 292.579 588.645 291.999 596.485 299.989C604.295 307.949 603.655 320.729 595.015 327.899C590.255 331.849 585.384 335.669 580.934 339.249ZM597.765 314.499C598.395 306.339 592.274 299.189 584.124 298.579C576.094 297.969 568.895 304.079 568.235 312.059C567.565 320.119 573.784 327.369 581.904 327.979C589.994 328.599 597.145 322.509 597.765 314.499Z" fill="#FFE8DA" stroke="#243A79"/>
<path d="M251.115 356.799C264.825 344.749 280.485 332.609 298.265 321.059C369.105 275.049 440.615 259.989 489.915 254.889" stroke="white" stroke-width="2" stroke-miterlimit="10"/>
<path d="M665.975 291.779C683.425 295.689 710.505 304.019 738.985 322.959C764.785 340.129 781.905 359.479 792.225 373.149" stroke="white" stroke-width="2" stroke-miterlimit="10"/>
<path d="M392.454 354.829C391.694 354.469 390.794 354.149 390.024 353.649C389.184 353.099 389.214 352.489 390.054 351.909C390.614 351.519 391.264 351.179 391.924 351.029C392.754 350.839 392.974 350.419 392.904 349.649C392.854 349.109 392.874 348.549 392.914 347.999C393.004 346.639 393.714 345.929 395.054 345.839C395.534 345.809 396.014 345.869 396.484 345.809C396.854 345.759 397.474 345.649 397.514 345.449C397.604 345.099 397.464 344.509 397.204 344.289C395.834 343.139 395.324 341.539 394.704 339.969C393.904 337.949 394.234 335.899 394.694 333.929C395.154 331.979 397.364 330.839 399.234 331.569C401.564 332.479 403.344 333.729 404.114 336.619C404.964 339.819 403.324 341.589 401.764 343.659C401.594 343.889 401.294 344.049 401.164 344.299C400.984 344.629 400.734 345.099 400.844 345.369C400.944 345.619 401.484 345.749 401.844 345.799C402.384 345.869 402.944 345.799 403.494 345.829C405.014 345.889 405.904 346.649 405.764 348.169C405.604 349.979 406.004 351.119 407.954 351.519C408.454 351.619 409.094 352.349 409.154 352.849C409.204 353.209 408.434 353.719 407.964 354.089C407.694 354.309 407.304 354.399 406.954 354.509C406.544 354.649 406.124 354.739 405.984 354.779C406.414 354.179 407.154 353.479 407.384 352.639C407.494 352.229 406.644 351.559 406.234 350.999C406.134 351.049 406.044 351.099 405.944 351.149C405.894 351.339 405.784 351.549 405.814 351.729C406.014 352.929 405.404 353.459 404.314 353.699C401.004 354.439 397.714 354.389 394.384 353.729C392.864 353.429 392.754 352.429 392.884 351.169C392.774 351.119 392.664 351.079 392.554 351.029C392.114 351.529 391.274 352.059 391.314 352.529C391.384 353.279 392.004 353.979 392.454 354.829ZM395.414 339.629C396.974 335.589 400.374 336.999 403.094 336.599C403.114 334.859 402.164 333.509 400.584 333.189C398.784 332.819 397.254 333.449 396.044 334.799C394.844 336.159 394.674 337.699 395.414 339.629ZM401.834 337.329C402.404 338.469 402.854 339.349 403.294 340.239C403.504 339.389 403.614 338.509 403.434 337.689C403.384 337.479 402.444 337.459 401.834 337.329ZM398.714 332.249C397.114 331.989 395.894 332.679 395.574 333.959C396.554 333.419 397.644 332.829 398.714 332.249Z" fill="#A84E5F"/>
<path d="M388.514 345.639C387.274 344.689 387.504 342.669 388.574 341.629C390.304 339.939 390.284 339.929 390.674 337.929C391.974 338.949 391.935 340.899 390.595 342.169C389.005 343.659 389.004 343.659 388.514 345.639Z" fill="#A84E5F"/>
<path d="M410.575 337.749C411.835 339.369 411.774 341.039 410.414 342.139C409.314 343.029 408.415 343.949 408.545 345.559C407.275 344.509 407.255 342.699 408.595 341.639C409.845 340.669 410.575 339.539 410.575 337.749Z" fill="#A84E5F"/>
<path d="M390.464 355.699C388.994 355.109 387.474 354.619 386.074 353.879C384.914 353.269 384.924 352.349 386.104 351.739C387.494 351.019 389.014 350.539 390.474 349.959C390.524 350.089 390.574 350.209 390.634 350.339C390.154 350.569 389.624 350.729 389.214 351.049C388.564 351.579 388.004 352.219 387.404 352.809C388.024 353.419 388.604 354.079 389.274 354.639C389.644 354.949 390.164 355.089 390.614 355.299C390.574 355.429 390.524 355.559 390.464 355.699Z" fill="#A84E5F"/>
<path d="M408.084 355.289C408.664 354.999 409.304 354.799 409.804 354.399C410.374 353.949 411.194 353.319 411.184 352.789C411.174 352.239 410.334 351.649 409.764 351.199C409.274 350.809 408.644 350.609 408.074 350.319C408.134 350.189 408.184 350.059 408.244 349.929C409.764 350.559 411.334 351.109 412.784 351.869C413.714 352.349 413.714 353.279 412.794 353.769C411.334 354.529 409.764 355.079 408.244 355.719C408.194 355.579 408.144 355.439 408.084 355.289Z" fill="#A84E5F"/>
<path d="M399.415 364.019C409.704 364.019 418.045 355.678 418.045 345.389C418.045 335.1 409.704 326.759 399.415 326.759C389.125 326.759 380.785 335.1 380.785 345.389C380.785 355.678 389.125 364.019 399.415 364.019Z" stroke="#A84E5F" stroke-width="2" stroke-miterlimit="10"/>
<path d="M445.285 481.309C443.425 481.309 441.565 481.309 439.645 481.309C439.645 479.919 439.645 478.519 439.645 476.969C438.665 477.359 437.785 477.699 436.905 478.039C435.685 478.519 435.345 478.409 434.635 477.329C433.875 476.179 433.115 475.029 432.365 473.879C431.755 472.949 431.795 472.209 432.485 471.769C433.155 471.349 433.815 471.589 434.415 472.479C435.085 473.489 435.755 474.509 436.445 475.549C437.555 475.119 438.635 474.739 439.675 474.279C440.575 473.889 441.495 473.609 442.465 473.759C443.515 473.919 444.095 473.469 444.605 472.579C445.615 470.799 446.755 469.089 447.845 467.349C448.395 466.479 449.025 466.239 449.695 466.639C450.375 467.049 450.445 467.789 449.895 468.679C448.435 471.019 446.965 473.339 445.535 475.689C445.305 476.059 445.185 476.549 445.165 476.989C445.115 478.179 445.145 479.379 445.155 480.569C445.155 480.819 445.225 481.069 445.265 481.319L445.285 481.309Z" fill="#A84E5F"/>
<path d="M445.265 481.339C446.095 480.969 446.915 480.599 447.745 480.229C448.685 479.819 449.545 480.179 449.815 481.189C450.295 482.999 450.745 484.809 451.165 486.639C451.365 487.479 450.915 488.209 450.155 488.389C449.335 488.589 448.605 488.169 448.375 487.299C448.075 486.179 447.805 485.039 447.525 483.919C445.495 484.449 443.915 486.189 441.595 485.789C440.695 487.859 439.795 489.919 438.895 491.989C438.665 492.509 438.435 493.039 438.205 493.559C437.785 494.499 437.195 494.819 436.385 494.549C435.515 494.249 435.005 493.299 435.265 492.419C435.335 492.199 435.445 491.989 435.535 491.769C436.795 488.859 438.075 485.969 439.315 483.049C439.545 482.509 439.835 482.329 440.415 482.349C441.965 482.399 443.525 482.369 445.085 482.369C445.165 481.969 445.225 481.649 445.285 481.329C445.285 481.309 445.265 481.339 445.265 481.339Z" fill="#A84E5F"/>
<path d="M444.205 471.099C444.205 472.309 443.245 473.269 442.035 473.279C440.795 473.289 439.795 472.299 439.815 471.069C439.835 469.869 440.825 468.909 442.025 468.919C443.225 468.929 444.195 469.909 444.205 471.099Z" fill="#A84E5F"/>
<path d="M446.195 480.049C445.975 479.329 446.185 479.029 446.645 478.729C448.095 477.799 449.145 476.469 450.045 475.029C451.665 472.429 452.775 469.609 453.505 466.639C453.565 466.419 453.615 466.189 453.675 465.939C453.925 465.939 454.145 465.939 454.535 465.939C453.115 471.469 451.305 476.659 446.195 480.049Z" fill="#A84E5F"/>
<path d="M445.105 485.959C445.105 489.239 445.105 492.449 445.105 495.719C444.825 495.729 444.585 495.739 444.235 495.759C444.235 495.439 444.235 495.159 444.235 494.879C444.235 492.259 444.255 489.649 444.215 487.029C444.215 486.379 444.445 486.089 445.105 485.959Z" fill="#A84E5F"/>
<path d="M443.525 499.399C453.814 499.399 462.155 491.058 462.155 480.769C462.155 470.48 453.814 462.139 443.525 462.139C433.236 462.139 424.895 470.48 424.895 480.769C424.895 491.058 433.236 499.399 443.525 499.399Z" stroke="#A84E5F" stroke-width="2" stroke-miterlimit="10"/>
</svg>
