<svg width="289" height="289" viewBox="0 0 289 289" fill="none" xmlns="http://www.w3.org/2000/svg">
<path d="M144.293 288.587C223.984 288.587 288.587 223.984 288.587 144.293C288.587 64.6023 223.984 0 144.293 0C64.6023 0 0 64.6023 0 144.293C0 223.984 64.6023 288.587 144.293 288.587Z" fill="#4A90D1"/>
<path d="M278.464 84.676L277.551 86.8406L161.507 56.7883C162.152 59.5303 162.703 61.9497 163.287 64.353C164.233 68.2692 164.197 68.3176 160.026 67.6692V126.806H155.739V66.3272C155.406 66.1399 155.055 65.9875 154.69 65.8724C152.755 65.4949 152.29 64.5401 153.139 62.6949C154.19 60.411 155.019 58.0238 156.061 55.3786L55.2722 29.2522L55.9464 26.3328L157.071 52.5205C157.323 52.0334 157.452 51.5817 157.739 51.2785C158.113 50.885 158.649 50.3108 159.052 50.3688C159.455 50.4269 160.078 51.0817 160.126 51.5301C160.326 53.3011 161.474 53.6818 162.962 54.0657C200.812 63.8315 238.662 73.6231 276.512 83.4405C277.158 83.605 277.803 83.6663 278.467 83.7631L278.464 84.676ZM155.536 63.3465C158.116 61.7626 159.407 63.3143 160.549 65.4627L160.916 64.8175C160.215 61.9486 159.516 59.0798 158.82 56.2109H158.339C157.403 58.5959 156.469 60.9744 155.536 63.3465V63.3465Z" fill="white"/>
<path d="M49.8688 142.284C51.9656 142.722 54.0818 143.093 56.156 143.616C67.0294 146.345 77.8963 149.098 88.7567 151.874C89.4987 152.065 90.2148 152.345 90.9406 152.581L90.7342 153.352L49.8688 143.174V142.284Z" fill="white"/>
<path d="M160.249 159.152C158.713 167.097 161.216 174.046 163.474 181.049C165.3 186.649 165.233 186.688 171.104 186.678C181.507 186.678 179.926 186.149 186.839 193.478C194.543 201.651 202.234 209.837 209.914 218.037C212.172 220.427 212.882 223.198 211.666 226.256C210.559 229.053 208.369 230.621 205.385 230.931C202.649 231.211 200.546 230.002 198.695 228.027C190.92 219.715 183.126 211.421 175.313 203.143C173.33 201.04 171.313 201.056 169.223 203.088C168.087 204.188 167.049 203.927 165.942 202.853C165.355 202.282 164.416 201.759 163.636 201.756C156.423 201.737 149.203 202.027 142 201.795C139.7 201.717 137.309 200.598 135.203 199.495C133.69 198.701 132.577 197.136 131.835 196.44C130.154 195.936 128.635 195.927 128.112 195.201C127.59 194.475 128.112 193.046 128.464 191.904C123.596 184.349 120.541 175.959 118.751 167.065C117.68 161.733 118.28 156.803 122.17 152.719C126.509 148.168 131.716 148.442 136.109 153.687L132.045 153.907C127.945 154.119 125.183 156.839 125.393 160.452C125.603 164.065 128.564 166.491 132.68 166.291C134.835 166.184 137 166.139 139.132 165.878C140.745 165.678 141.474 166.152 142 167.742C143.042 170.904 144.374 173.968 145.745 177.481C149.116 174.578 152.294 171.949 155.284 169.133C155.813 168.636 155.458 167.287 155.723 166.4C156.017 165.502 156.434 164.649 156.961 163.865C157.9 162.429 158.923 161.049 160.249 159.152ZM147.739 181.339C148.658 182.826 149.413 184.185 150.319 185.446C150.71 185.994 151.371 186.691 151.932 186.717C154.787 186.846 157.652 186.775 160.868 186.775C159.432 182.201 158.129 178.039 156.739 173.604L147.739 181.339Z" fill="white"/>
<path d="M142.451 164.326C139.187 164.522 135.921 164.717 132.654 164.913C129.358 165.103 127.025 163.326 126.799 160.468C126.574 157.61 128.735 155.497 131.993 155.307C137.116 154.984 142.238 154.661 147.364 154.455C148.855 154.4 149.345 153.903 149.577 152.442C150.626 145.91 151.835 139.4 152.968 132.883C153.555 129.561 155.79 127.722 158.581 128.203C161.458 128.716 162.978 131.061 162.416 134.416C161.029 142.7 159.597 150.98 158.119 159.255C157.578 162.284 156 163.562 152.919 163.742L142.451 164.326Z" fill="white"/>
<path d="M146.645 128.216C145.055 128.122 144.006 127.867 143.026 128.032C139.613 128.606 136.203 129.225 132.832 130.009C128.374 131.042 124.009 132.729 119.503 133.254C114.135 133.9 111.909 130.738 113.209 125.432C114.857 118.699 120.348 113.841 126.948 113.27C133.909 112.67 139.887 116.28 142.926 122.68C143.78 124.503 145.174 126.074 146.645 128.216ZM137.822 125.287L138.645 125.167C138.967 124.635 139.674 123.832 139.526 123.619C138.838 122.625 137.913 121.793 137.074 120.903C136.693 121.345 135.9 121.967 136 122.193C136.461 123.29 137.18 124.27 137.813 125.287H137.822Z" fill="white"/>
<path d="M143.022 129.922C145.019 137.161 139.658 145.426 132.419 146.342C131.89 146.41 130.996 146.139 130.806 145.751C128.945 142.261 127.832 138.593 129.003 134.613C129.199 133.919 129.635 133.317 130.232 132.912C133.838 130.867 138.7 129.764 143.022 129.922Z" fill="white"/>
<path d="M116.157 135.384L127.087 134.277C126.051 138.387 127.138 142.474 128.996 146.484C122.567 146.464 117.128 141.6 116.157 135.384Z" fill="white"/>
<path d="M95.2246 157.755L66.9305 150.561L67.1724 149.594L95.4891 156.774C95.3988 157.107 95.3117 157.429 95.2246 157.755Z" fill="white"/>
<path d="M74.6564 145.135L102.967 152.303L102.725 153.271L74.4177 146.097L74.6564 145.135Z" fill="white"/>
</svg>
