<svg id="Layer_1" data-name="Layer 1" xmlns="http://www.w3.org/2000/svg" xmlns:xlink="http://www.w3.org/1999/xlink" viewBox="0 0 894.61 894.61"><defs><style>.cls-1{fill:none;}.cls-2{clip-path:url(#clip-path);}.cls-3{fill:#655b7c;}.cls-4{fill:#fff;}</style><clipPath id="clip-path" transform="translate(-546.41 -57.32)"><circle class="cls-1" cx="992.71" cy="506.7" r="447.3"/></clipPath></defs><title>adventure </title><g class="cls-2"><circle class="cls-3" cx="447.3" cy="447.3" r="447.3"/><path class="cls-4" d="M1409.63,319.81l-2.83,6.71-359.73-93.16c2,8.5,3.71,16,5.52,23.45,2.93,12.14,2.82,12.29-10.11,10.28V450.41h-13.29V262.93a17.19,17.19,0,0,0-3.25-1.41c-6-1.17-7.44-4.13-4.81-9.85,3.26-7.08,5.83-14.48,9.06-22.68L717.75,148l2.09-9.05,313.48,81.18c.78-1.51,1.18-2.91,2.07-3.85,1.16-1.22,2.82-3,4.07-2.82s3.18,2.21,3.33,3.6c.62,5.49,4.18,6.67,8.79,7.86q176,45.41,352,91.06c2,.51,4,.7,6.06,1Zm-381.07-66.12c8-4.91,12-.1,15.54,6.56l1.14-2q-3.26-13.34-6.5-26.68h-1.49Q1032.9,242.66,1028.56,253.69Z" transform="translate(-546.41 -57.32)"/><path class="cls-4" d="M701,498.39c6.5,1.36,13.06,2.51,19.49,4.13q50.56,12.69,101.06,25.6c2.3.59,4.52,1.46,6.77,2.19l-.64,2.39L701,501.15Z" transform="translate(-546.41 -57.32)"/><path class="cls-4" d="M1043.17,550.68c-4.76,24.63,3,46.17,10,67.88,5.66,17.36,5.45,17.48,23.65,17.45,32.25,0,27.35-1.64,48.78,21.08q35.82,38,71.53,76.13c7,7.41,9.2,16,5.43,25.48-3.43,8.67-10.22,13.53-19.47,14.49-8.48.87-15-2.88-20.74-9q-36.15-38.65-72.48-77.14c-6.15-6.52-12.4-6.47-18.88-.17-3.52,3.41-6.74,2.6-10.17-.73-1.82-1.77-4.73-3.39-7.15-3.4-22.36-.06-44.74.84-67.07.12-7.13-.24-14.54-3.71-21.07-7.13-4.69-2.46-8.14-7.31-10.44-9.47-5.21-1.56-9.92-1.59-11.54-3.84s0-6.68,1.09-10.22c-15.09-23.42-24.56-49.43-30.11-77-3.32-16.53-1.46-31.81,10.6-44.47,13.45-14.11,29.59-13.26,43.21,3l-12.6.68c-12.71.66-21.27,9.09-20.62,20.29s9.83,18.72,22.59,18.1c6.68-.33,13.39-.47,20-1.28,5-.62,7.26.85,8.89,5.78,3.23,9.8,7.36,19.3,11.61,30.19,10.45-9,20.3-17.15,29.57-25.88,1.64-1.54.54-5.72,1.36-8.47a31.82,31.82,0,0,1,3.84-7.86C1035.89,560.84,1039.06,556.56,1043.17,550.68Zm-38.78,68.78c2.85,4.61,5.19,8.82,8,12.73,1.21,1.7,3.26,3.86,5,3.94,8.85.4,17.73.18,27.7.18-4.45-14.18-8.49-27.08-12.8-40.83Z" transform="translate(-546.41 -57.32)"/><path class="cls-4" d="M988,566.72q-15.18.91-30.37,1.82c-10.22.59-17.45-4.92-18.15-13.78s6-15.41,16.1-16c15.88-1,31.76-2,47.65-2.64,4.62-.17,6.14-1.71,6.86-6.24,3.25-20.25,7-40.43,10.51-60.63,1.82-10.3,8.75-16,17.4-14.51,8.92,1.59,13.63,8.86,11.89,19.26q-6.45,38.52-13.32,77c-1.68,9.39-6.57,13.35-16.12,13.91Z" transform="translate(-546.41 -57.32)"/><path class="cls-4" d="M1001,454.78c-4.93-.29-8.18-1.08-11.22-.57-10.58,1.78-21.15,3.7-31.6,6.13-13.82,3.2-27.35,8.43-41.32,10.06-16.64,2-23.54-7.8-19.51-24.25,5.11-20.87,22.13-35.93,42.59-37.7,21.58-1.86,40.11,9.33,49.53,29.17C992.12,443.27,996.44,448.14,1001,454.78Zm-27.35-9.08,2.55-.37c1-1.65,3.19-4.14,2.73-4.8-2.13-3.08-5-5.66-7.6-8.42-1.18,1.37-3.64,3.3-3.33,4C969.43,439.51,971.66,442.55,973.62,445.7Z" transform="translate(-546.41 -57.32)"/><path class="cls-4" d="M989.77,460.07c6.19,22.44-10.43,48.06-32.87,50.9-1.64.21-4.41-.63-5-1.83-5.77-10.82-9.22-22.19-5.59-34.53a9.49,9.49,0,0,1,3.81-5.27C961.3,463,976.37,459.58,989.77,460.07Z" transform="translate(-546.41 -57.32)"/><path class="cls-4" d="M906.49,477l33.88-3.43c-3.21,12.74.16,25.41,5.92,37.84C926.36,511.35,909.5,496.27,906.49,477Z" transform="translate(-546.41 -57.32)"/><path class="cls-4" d="M841.6,546.35l-87.71-22.3.75-3,87.78,22.26C842.14,544.34,841.87,545.34,841.6,546.35Z" transform="translate(-546.41 -57.32)"/><path class="cls-4" d="M777.84,507.23l87.76,22.22-.75,3L777.1,510.21Z" transform="translate(-546.41 -57.32)"/></g></svg>