<svg width="72" height="73" viewBox="0 0 72 73" fill="none" xmlns="http://www.w3.org/2000/svg">
<path d="M19.2601 6.93001L34.09 2.51003C47.34 -1.43997 61.2901 6.09003 65.2401 19.35L69.9801 35.24C73.9301 48.49 66.4001 62.44 53.1401 66.39L38.3101 70.81C25.0601 74.76 11.1101 67.23 7.16005 53.97L2.42006 38.08C-1.52994 24.83 6.00009 10.88 19.2601 6.93001Z" fill="#FFE8DA" stroke="#243A79"/>
<path d="M32.84 54.58C30.42 53.46 29.36 50.56 30.48 48.14L43.1701 20.71C44.2901 18.29 47.19 17.23 49.61 18.35C52.03 19.47 53.09 22.37 51.97 24.79L39.2801 52.22C38.1501 54.64 35.26 55.7 32.84 54.58Z" fill="#0F367C"/>
<path d="M30.1801 48.01C28.9801 50.59 30.1201 53.68 32.7001 54.88C35.2801 56.08 38.3701 54.94 39.5701 52.36L39.2802 52.22L39.5701 52.36L52.2601 24.93C53.4601 22.35 52.3201 19.26 49.7401 18.06C47.1601 16.86 44.0701 18 42.8701 20.58L30.1801 48.01Z" stroke="white"/>
<path d="M45.24 54.25C42.82 53.13 41.7601 50.23 42.8801 47.81L50.9201 30.44C52.0401 28.02 54.94 26.96 57.36 28.08C59.78 29.2 60.84 32.1 59.72 34.52L51.6801 51.89C50.5601 54.31 47.66 55.37 45.24 54.25Z" fill="#F7931E"/>
<path d="M42.58 47.68C41.38 50.26 42.52 53.35 45.1 54.55C47.68 55.75 50.77 54.61 51.97 52.03L60.0101 34.66C61.2101 32.08 60.07 28.99 57.49 27.79C54.91 26.59 51.82 27.73 50.62 30.31L42.58 47.68Z" stroke="white"/>
<path d="M25.2 44.9C22.78 43.78 21.72 40.88 22.84 38.46L30.88 21.09C32 18.67 34.8999 17.61 37.3199 18.73C39.7399 19.85 40.8 22.75 39.68 25.17L31.64 42.54C30.52 44.96 27.62 46.02 25.2 44.9Z" fill="#F7931E"/>
<path d="M31.93 42.67L39.97 25.3C41.17 22.72 40.0299 19.63 37.4499 18.43C34.8699 17.23 31.78 18.37 30.58 20.95L22.54 38.32C21.34 40.9 22.48 43.99 25.06 45.19C27.65 46.39 30.74 45.25 31.93 42.67Z" stroke="white"/>
<path d="M33.2301 25.85C31.4301 24.41 31.4001 22.19 32.3701 20.79C33.4301 19.26 35.3802 18.75 37.0402 19.58C38.6502 20.39 39.4501 22.29 38.8901 24.01C38.3501 25.69 36.6102 26.89 34.5502 26.46C34.4002 26.76 34.2401 27.06 34.0901 27.37C33.8001 27.93 33.5201 28.5 33.2401 29.06C33.0001 29.52 32.7201 29.62 32.2801 29.39C31.8201 29.16 31.7301 28.86 31.9701 28.39C32.3501 27.64 32.7401 26.88 33.1201 26.13C33.1501 26.03 33.1901 25.94 33.2301 25.85ZM32.5001 23.82C33.0301 25.43 34.7701 26.32 36.3601 25.79C37.9501 25.26 38.8202 23.54 38.3002 21.94C37.7802 20.33 36.0501 19.43 34.4501 19.95C32.8501 20.46 31.9801 22.21 32.5001 23.82Z" fill="white"/>
<path d="M45.4101 27.38C45.0101 26.39 44.53 25.29 44.11 24.17C43.47 22.45 44.1001 20.66 45.6401 19.73C47.4501 18.63 49.8801 19.4 50.7701 21.35C51.6501 23.29 50.7001 25.55 48.6801 26.27C47.5701 26.66 46.4401 27.02 45.4101 27.38ZM50.0501 24.03C50.7001 22.6 50.0601 20.92 48.6401 20.28C47.2401 19.64 45.5401 20.27 44.9001 21.66C44.2501 23.06 44.9001 24.78 46.3101 25.42C47.7301 26.05 49.4201 25.43 50.0501 24.03Z" fill="white"/>
<path d="M57.18 29.31C57.3 29.39 57.42 29.47 57.54 29.56C58.22 30.06 58.6899 30.71 58.9499 31.51C59.2099 32.3 59.22 33.1 58.98 33.89C58.69 34.82 58.14 35.56 57.3 36.07C56.32 36.67 55.27 36.83 54.16 36.53C53.12 36.24 52.32 35.62 51.79 34.67C51.28 33.76 51.14 32.78 51.4 31.77C51.7 30.6 52.41 29.74 53.49 29.2C54.3 28.8 55.16 28.7 56.05 28.89C56.26 28.94 56.47 29.02 56.67 29.08C56.69 29.09 56.71 29.09 56.73 29.09C56.89 29.16 57.04 29.24 57.18 29.31ZM53.61 36C55.41 36.88 57.6 36.14 58.49 34.34C59.38 32.54 58.6299 30.35 56.8299 29.46C55.0299 28.57 52.8399 29.32 51.9499 31.12C51.0699 32.92 51.81 35.11 53.61 36Z" fill="white"/>
<path d="M53.9601 33.23C54.1101 33.23 54.2602 33.25 54.4002 33.23C54.6502 33.2 54.8702 33.06 55.0502 32.89C55.3602 32.59 55.5802 32.23 55.6302 31.79C55.6702 31.48 55.6201 31.18 55.4601 30.9C55.2401 30.5 54.8502 30.34 54.3902 30.46C53.8202 30.62 53.4602 31 53.2802 31.56C53.2102 31.79 53.1701 32.02 53.1901 32.26C53.2101 32.53 53.3102 32.77 53.5202 32.96C53.5402 32.98 53.5601 33 53.5801 33.02C53.5801 33.02 53.5801 33.03 53.5901 33.04C53.2701 33.62 52.9401 34.2 52.6201 34.78C51.9801 34.04 51.5402 32.56 52.3102 31.15C53.0902 29.71 54.8602 29.06 56.3802 29.63C57.9402 30.22 58.8301 31.87 58.4601 33.47C58.0901 35.1 56.6701 35.99 55.4501 36.04C55.5301 35.86 55.6002 35.68 55.6802 35.5C55.8202 35.18 55.9601 34.86 56.0901 34.54C56.1101 34.49 56.1301 34.47 56.1901 34.48C56.4301 34.53 56.6601 34.49 56.8701 34.36C56.9501 34.31 57.0102 34.23 57.0502 34.15C57.1902 33.86 57.3301 33.57 57.4501 33.27C57.6201 32.84 57.7702 32.4 57.9302 31.96C57.9302 31.95 57.9401 31.94 57.9401 31.93C57.8901 31.91 57.8502 31.89 57.8002 31.86C57.4702 32.52 57.1501 33.18 56.8201 33.85C56.7601 33.82 56.7002 33.79 56.6402 33.76C56.9702 33.1 57.2901 32.44 57.6201 31.77C57.5501 31.74 57.4902 31.7 57.4102 31.67C57.0802 32.33 56.7602 32.99 56.4302 33.66C56.3702 33.63 56.3101 33.6 56.2501 33.57C56.5801 32.91 56.9001 32.24 57.2301 31.58C57.1601 31.55 57.1002 31.51 57.0302 31.48C56.7002 32.14 56.3802 32.81 56.0502 33.47C55.9902 33.44 55.9301 33.41 55.8701 33.38C56.2001 32.72 56.5201 32.06 56.8501 31.39C56.7801 31.36 56.7202 31.33 56.6602 31.3C56.5202 31.52 56.3701 31.74 56.2301 31.97C55.9801 32.39 55.7301 32.81 55.4901 33.24C55.4201 33.37 55.3401 33.51 55.3701 33.67C55.4101 33.9 55.5202 34.09 55.6802 34.25C55.6902 34.26 55.7101 34.27 55.7201 34.29C55.7201 34.29 55.7301 34.3 55.7301 34.31C55.6601 34.44 55.5902 34.57 55.5102 34.7C55.2702 35.13 55.0302 35.56 54.7902 35.99C54.7702 36.03 54.7501 36.04 54.7101 36.03C54.1201 35.94 53.5902 35.71 53.1302 35.33C53.0902 35.3 53.0801 35.27 53.1001 35.22C53.3701 34.59 53.6502 33.95 53.9202 33.31C53.9402 33.27 53.9601 33.24 53.9601 33.23Z" fill="white"/>
<path d="M53.48 31.6C53.62 31.36 53.76 31.18 53.97 31.05C53.99 31.04 54.0301 31.04 54.0601 31.04C54.0501 31.07 54.0501 31.1 54.0301 31.12C53.6501 31.56 53.5301 32.07 53.6501 32.64C53.6501 32.66 53.64 32.69 53.64 32.71C53.62 32.7 53.58 32.69 53.57 32.68C53.52 32.58 53.4601 32.48 53.4301 32.38C53.3501 32.1 53.38 31.83 53.48 31.6Z" fill="white"/>
<path d="M21.64 18.9C12.96 20 13.49 29.09 14.83 33.5C21.36 32.64 24.72 29.42 25.73 27.34C28.84 20.93 24.35 18.7 21.64 18.9Z" fill="#243A79"/>
<path d="M22.3901 22.67C19.1701 23 19.2901 26.37 19.7501 28.01C22.7001 27.58 23.5201 26.62 23.8301 25.83C24.8201 23.34 23.4001 22.62 22.3901 22.67Z" fill="white"/>
<path d="M5.88013 21.08C12.3501 16.47 16.6601 19.3001 18.5901 21.4701L17.4001 22.2901C13.0301 18.9101 8.66013 19.82 5.88013 21.08Z" fill="#0F367C"/>
<path d="M7.37012 27.1701C8.88012 21.1701 14.1301 21.48 17.1201 22.21L16.6801 23.3901C11.4301 22.1201 8.73012 24.8901 7.37012 27.1701Z" fill="#0F367C"/>
<path d="M60.7101 38.3101L55.4102 49.9901C57.5802 51.8001 58.6801 55.6101 58.9601 57.2901C64.6001 50.7001 62.4801 41.8901 60.7101 38.3101Z" fill="#243A79"/>
</svg>
