<svg width="327" height="215" viewBox="0 0 327 215" fill="none" xmlns="http://www.w3.org/2000/svg">
<g clip-path="url(#clip0)" filter="url(#filter0_d)">
<path d="M318.449 83.6208C306.744 35.8837 266.298 1.4242 218.824 0.0420579C193.726 -0.688638 167.316 7.94442 148.088 38.1547C113.714 92.1588 150.2 129.477 175.637 147.21C187.926 155.795 198.999 166.117 208.535 177.878C225.717 199.024 258.77 225.3 298.136 184.129C326.668 154.287 326.246 115.418 318.449 83.6208Z" fill="#F2F2F2"/>
<path d="M47.9337 119.813C47.6183 119.328 47.3083 118.831 47.0121 118.334L47.4905 118.027C47.7827 118.517 48.0886 119.008 48.3997 119.486L47.9337 119.813Z" fill="#3F3D56"/>
<path d="M45.3165 115.208C44.7949 114.147 44.3101 113.05 43.8756 111.948L44.396 111.727C44.8248 112.814 45.303 113.896 45.8176 114.944L45.3165 115.208ZM42.7003 108.576C42.3553 107.44 42.052 106.275 41.7987 105.114L42.3473 104.985C42.5971 106.131 42.8963 107.28 43.2366 108.4L42.7003 108.576ZM41.1768 101.586C41.0174 100.409 40.9032 99.209 40.837 98.0186L41.3986 97.9849C41.4636 99.1596 41.5765 100.344 41.7337 101.505L41.1768 101.586ZM41.3406 94.447L40.7785 94.4333C40.8056 93.2411 40.8803 92.0376 41.0004 90.8562L41.5598 90.9174C41.4411 92.0831 41.3674 93.2706 41.3406 94.447V94.447ZM42.0569 87.4185L41.5044 87.3097C41.7186 86.14 41.9826 84.9653 42.2892 83.8183L42.8313 83.9741C42.5287 85.1057 42.2682 86.2646 42.0569 87.4185V87.4185ZM43.8784 80.608L43.3509 80.4061C43.7485 79.2888 44.1965 78.1746 44.6824 77.0947L45.1921 77.3413C44.7126 78.4067 44.2706 79.5058 43.8784 80.608V80.608ZM120.899 78.805C120.459 77.7238 119.97 76.6474 119.445 75.6056L119.943 75.3353C120.475 76.3913 120.971 77.4824 121.417 78.5783L120.899 78.805ZM46.7616 74.1988L46.2733 73.9094C46.8429 72.8762 47.4614 71.8541 48.1118 70.8716L48.5753 71.2017C47.9337 72.1711 47.3234 73.1795 46.7616 74.1988ZM117.741 72.5412C117.135 71.5491 116.482 70.5705 115.799 69.6328L116.248 69.2814C116.94 70.2319 117.602 71.2237 118.216 72.2292L117.741 72.5412ZM50.6205 68.3694L50.1844 68.0009C50.9099 67.0777 51.681 66.1746 52.4766 65.3163L52.882 65.7205C52.097 66.5674 51.3361 67.4585 50.6205 68.3694ZM113.635 66.899C112.88 66.0221 112.082 65.1671 111.261 64.3577L111.649 63.9351C112.48 64.7554 113.29 65.6219 114.054 66.5105L113.635 66.899ZM55.3447 63.2726L54.9726 62.8354C55.8331 62.0477 56.7359 61.2871 57.6558 60.575L57.9922 61.0423C57.0845 61.7451 56.1938 62.4954 55.3447 63.2726ZM108.695 62.0264C107.813 61.2891 106.89 60.5806 105.953 59.921L106.269 59.4383C107.219 60.107 108.154 60.8249 109.048 61.5722L108.695 62.0264ZM60.8063 59.0451L60.5081 58.5507C61.4819 57.919 62.4921 57.3222 63.511 56.7768L63.7689 57.2952C62.7637 57.8332 61.767 58.422 60.8063 59.0451ZM103.054 58.0563C102.066 57.478 101.044 56.9362 100.016 56.4459L100.251 55.9159C101.293 56.413 102.329 56.9622 103.33 57.5482L103.054 58.0563ZM66.8601 55.8049L66.6443 55.2664C67.7041 54.8098 68.795 54.3939 69.8867 54.0302L70.0586 54.5855C68.9817 54.9443 67.9055 55.3545 66.8601 55.8049ZM96.8603 55.1013C95.7959 54.7006 94.7016 54.3412 93.6079 54.0332L93.7554 53.4704C94.8639 53.7825 95.9732 54.1468 97.0523 54.5531L96.8603 55.1013ZM73.3458 53.6447L73.219 53.0765C74.3358 52.808 75.4787 52.5845 76.6157 52.4122L76.697 52.9894C75.5752 53.1594 74.4478 53.3798 73.3458 53.6447V53.6447ZM90.2813 53.2485C89.1697 53.0361 88.0336 52.8689 86.9044 52.7518L86.9604 52.1714C88.1048 52.2902 89.2565 52.4595 90.3832 52.6749L90.2813 53.2485ZM80.0887 52.6227L80.0533 52.0405C81.1972 51.9656 82.3634 51.939 83.5095 51.9605L83.4993 52.5438C82.3675 52.5223 81.2176 52.5489 80.0887 52.6227V52.6227Z" fill="#3F3D56"/>
<path d="M122.592 83.8238C122.442 83.2687 122.278 82.7092 122.106 82.1609L122.641 81.98C122.815 82.536 122.981 83.1031 123.134 83.6658L122.592 83.8238Z" fill="#3F3D56"/>
<path d="M119.163 51.1601H118.601C118.601 50.5764 118.611 49.9841 118.63 49.4L119.192 49.4202C119.173 49.9978 119.163 50.5831 119.163 51.1601Z" fill="#3F3D56"/>
<path d="M119.431 45.9129L118.871 45.8511C118.992 44.6764 119.155 43.4922 119.356 42.3313L119.91 42.4344C119.711 43.5816 119.55 44.752 119.431 45.9129ZM120.628 39.0007L120.083 38.8566C120.365 37.7118 120.69 36.5641 121.05 35.4451L121.584 35.6296C121.228 36.7355 120.906 37.8696 120.628 39.0007V39.0007ZM210.319 32.847C209.898 31.7646 209.434 30.6846 208.94 29.6374L209.445 29.3811C209.945 30.4408 210.415 31.5336 210.84 32.6291L210.319 32.847ZM122.772 32.3358L122.253 32.1116C122.69 31.0217 123.172 29.9336 123.685 28.8775L124.187 29.1398C123.68 30.1835 123.204 31.2586 122.772 32.3358V32.3358ZM207.342 26.5385C206.777 25.5305 206.169 24.5305 205.535 23.5661L206 23.2374C206.641 24.2133 207.257 25.2252 207.829 26.2451L207.342 26.5385ZM125.819 26.0581L125.336 25.7591C125.919 24.7463 126.546 23.7413 127.199 22.7719L127.66 23.106C127.015 24.0639 126.395 25.0572 125.819 26.0581H125.819ZM203.527 20.7352C202.828 19.8197 202.088 18.9195 201.33 18.0597L201.744 17.6658C202.512 18.5359 203.26 19.4466 203.968 20.3729L203.527 20.7352ZM129.699 20.2983L129.262 19.9309C129.98 19.0132 130.738 18.1113 131.516 17.25L131.926 17.6488C131.157 18.5 130.408 19.3915 129.699 20.2983ZM198.954 15.5533C198.137 14.7505 197.282 13.9684 196.412 13.2286L196.769 12.7778C197.648 13.5261 198.514 14.3176 199.341 15.1298L198.954 15.5533ZM134.329 15.1708L133.947 14.7428C134.782 13.9409 135.656 13.1598 136.544 12.4215L136.896 12.8766C136.018 13.6064 135.154 14.3782 134.329 15.1708V15.1708ZM193.717 11.0977C192.798 10.4236 191.844 9.77567 190.882 9.17189L191.173 8.67292C192.147 9.28382 193.112 9.93944 194.041 10.6215L193.717 11.0977ZM139.613 10.7782L139.293 10.2983C140.229 9.62786 141.201 8.98406 142.181 8.38456L142.467 8.88695C141.498 9.47947 140.538 10.1157 139.613 10.7782V10.7782ZM187.921 7.46179C186.919 6.93063 185.885 6.43109 184.849 5.97669L185.069 5.43955C186.117 5.89922 187.162 6.40489 188.177 6.94231L187.921 7.46179ZM145.444 7.21302L145.194 6.6907C146.213 6.16609 147.263 5.67324 148.315 5.22596L148.529 5.76566C147.488 6.20766 146.451 6.69467 145.444 7.21301V7.21302ZM181.682 4.72513C180.619 4.34947 179.526 4.00913 178.437 3.71365L178.579 3.14945C179.682 3.44835 180.787 3.79282 181.864 4.17289L181.682 4.72513ZM151.704 4.55254L151.529 3.99831C152.61 3.63091 153.718 3.29955 154.824 3.01345L154.96 3.57935C153.868 3.86202 152.772 4.1894 151.704 4.55252L151.704 4.55254ZM175.13 2.94824C174.024 2.73534 172.896 2.56147 171.778 2.43132L171.841 1.85175C172.972 1.98347 174.113 2.15933 175.232 2.37465L175.13 2.94824ZM158.274 2.85226L158.178 2.27753C159.298 2.07517 160.441 1.9124 161.574 1.7935L161.631 2.37393C160.511 2.49126 159.381 2.65218 158.274 2.85225L158.274 2.85226ZM168.4 2.16389C167.274 2.11647 166.129 2.1102 165.011 2.14481L164.994 1.56182C166.125 1.52679 167.283 1.53291 168.423 1.58119L168.4 2.16389Z" fill="#3F3D56"/>
<path d="M211.964 37.852C211.813 37.2969 211.651 36.7365 211.481 36.1861L212.016 36.0084C212.188 36.5652 212.353 37.1323 212.505 37.6939L211.964 37.852Z" fill="#3F3D56"/>
<path d="M47.6048 127.052C52.7782 127.052 56.9721 126.726 56.9721 126.323C56.9721 125.921 52.7782 125.595 47.6048 125.595C42.4314 125.595 38.2376 125.921 38.2376 126.323C38.2376 126.726 42.4314 127.052 47.6048 127.052Z" fill="#6C63FF"/>
<path d="M122.309 91.8343C127.482 91.8343 131.676 91.5081 131.676 91.1056C131.676 90.7032 127.482 90.377 122.309 90.377C117.135 90.377 112.942 90.7032 112.942 91.1056C112.942 91.5081 117.135 91.8343 122.309 91.8343Z" fill="#6C63FF"/>
<path d="M214.576 55.1595C219.75 55.1595 223.944 54.8333 223.944 54.4309C223.944 54.0284 219.75 53.7022 214.576 53.7022C209.403 53.7022 205.209 54.0284 205.209 54.4309C205.209 54.8333 209.403 55.1595 214.576 55.1595Z" fill="#6C63FF"/>
<path d="M210.865 52.0387L182.698 81.2522L183.095 81.6646L211.262 52.4511L210.865 52.0387Z" fill="#3F3D56"/>
<path d="M174.531 84.9848H127.227V85.5681H174.531V84.9848Z" fill="#3F3D56"/>
<path d="M118.593 88.9612L92.1348 116.402L92.5325 116.814L118.99 89.3736L118.593 88.9612Z" fill="#3F3D56"/>
<path d="M84.1372 120.202H52.5226V120.786H84.1372V120.202Z" fill="#3F3D56"/>
<path d="M43.9287 123.894L12.513 156.477L12.9106 156.889L44.3263 124.307L43.9287 123.894Z" fill="#3F3D56"/>
<path d="M47.6049 125.886C46.5766 125.886 45.5714 125.57 44.7164 124.978C43.8614 124.385 43.195 123.543 42.8015 122.558C42.4079 121.572 42.305 120.488 42.5055 119.442C42.7061 118.396 43.2013 117.435 43.9284 116.681C44.6555 115.927 45.5819 115.414 46.5904 115.205C47.5989 114.997 48.6443 115.104 49.5943 115.512C50.5443 115.92 51.3563 116.612 51.9276 117.498C52.4989 118.385 52.8038 119.428 52.8038 120.494C52.8023 121.924 52.254 123.294 51.2794 124.305C50.3047 125.316 48.9833 125.885 47.6049 125.886V125.886ZM47.6049 115.685C46.6878 115.685 45.7914 115.967 45.0288 116.496C44.2663 117.024 43.672 117.775 43.321 118.654C42.9701 119.532 42.8782 120.499 43.0571 121.432C43.236 122.365 43.6776 123.222 44.3261 123.894C44.9745 124.567 45.8007 125.025 46.7001 125.211C47.5996 125.396 48.5318 125.301 49.3791 124.937C50.2264 124.573 50.9505 123.957 51.46 123.166C51.9695 122.375 52.2414 121.445 52.2414 120.494C52.24 119.219 51.7511 117.997 50.8819 117.095C50.0127 116.194 48.8342 115.687 47.6049 115.685V115.685Z" fill="#3F3D56"/>
<path d="M89.0549 125.886C88.0267 125.886 87.0215 125.57 86.1665 124.977C85.3115 124.385 84.6451 123.543 84.2516 122.558C83.8581 121.572 83.7552 120.488 83.9558 119.442C84.1564 118.396 84.6515 117.435 85.3786 116.681C86.1057 115.927 87.0321 115.414 88.0407 115.205C89.0492 114.997 90.0945 115.104 91.0445 115.512C91.9946 115.92 92.8065 116.612 93.3778 117.498C93.9491 118.385 94.254 119.428 94.254 120.494C94.2525 121.924 93.7043 123.294 92.7296 124.305C91.7549 125.316 90.4334 125.885 89.0549 125.886ZM89.0549 115.685C88.1379 115.685 87.2414 115.967 86.4789 116.496C85.7164 117.024 85.1221 117.775 84.7712 118.654C84.4203 119.532 84.3284 120.499 84.5074 121.432C84.6863 122.365 85.1279 123.222 85.7763 123.894C86.4248 124.567 87.2509 125.025 88.1504 125.211C89.0498 125.396 89.9821 125.301 90.8293 124.937C91.6766 124.573 92.4007 123.957 92.9102 123.166C93.4197 122.375 93.6916 121.445 93.6916 120.494C93.6902 119.219 93.2013 117.997 92.332 117.095C91.4628 116.194 90.2842 115.687 89.0549 115.685V115.685Z" fill="#3F3D56"/>
<path d="M122.309 90.6686C121.281 90.6686 120.275 90.3524 119.42 89.7599C118.565 89.1674 117.899 88.3252 117.506 87.34C117.112 86.3547 117.009 85.2705 117.21 84.2246C117.41 83.1786 117.906 82.2178 118.633 81.4638C119.36 80.7097 120.286 80.1961 121.295 79.9881C122.303 79.78 123.348 79.8868 124.298 80.2949C125.248 80.703 126.06 81.3941 126.632 82.2808C127.203 83.1675 127.508 84.21 127.508 85.2765C127.506 86.7061 126.958 88.0767 125.983 89.0875C125.009 90.0984 123.687 90.667 122.309 90.6686V90.6686ZM122.309 80.4677C121.392 80.4677 120.495 80.7498 119.733 81.2782C118.97 81.8066 118.376 82.5576 118.025 83.4363C117.674 84.3151 117.582 85.282 117.761 86.2148C117.94 87.1476 118.382 88.0044 119.03 88.6769C119.679 89.3495 120.505 89.8074 121.404 89.993C122.304 90.1785 123.236 90.0833 124.083 89.7193C124.931 89.3553 125.655 88.7389 126.164 87.9481C126.674 87.1573 126.946 86.2276 126.945 85.2765C126.944 84.0015 126.455 82.7792 125.586 81.8777C124.717 80.9762 123.538 80.4691 122.309 80.4677V80.4677Z" fill="#3F3D56"/>
<path d="M179.449 90.6686C178.421 90.6686 177.416 90.3524 176.561 89.7599C175.706 89.1674 175.039 88.3252 174.646 87.34C174.252 86.3547 174.149 85.2705 174.35 84.2246C174.551 83.1786 175.046 82.2178 175.773 81.4638C176.5 80.7097 177.426 80.1961 178.435 79.9881C179.443 79.78 180.489 79.8868 181.439 80.2949C182.389 80.703 183.201 81.3941 183.772 82.2808C184.343 83.1675 184.648 84.21 184.648 85.2765C184.647 86.7061 184.098 88.0767 183.124 89.0875C182.149 90.0984 180.827 90.667 179.449 90.6686V90.6686ZM179.449 80.4677C178.532 80.4677 177.636 80.7498 176.873 81.2782C176.111 81.8066 175.516 82.5576 175.165 83.4363C174.814 84.3151 174.723 85.282 174.902 86.2148C175.081 87.1476 175.522 88.0044 176.171 88.6769C176.819 89.3495 177.645 89.8074 178.545 89.993C179.444 90.1785 180.376 90.0833 181.224 89.7193C182.071 89.3553 182.795 88.7389 183.304 87.9481C183.814 87.1573 184.086 86.2276 184.086 85.2765C184.084 84.0015 183.595 82.7792 182.726 81.8777C181.857 80.9762 180.678 80.4691 179.449 80.4677V80.4677Z" fill="#3F3D56"/>
<path d="M214.576 53.9939C213.548 53.9939 212.543 53.6776 211.688 53.0851C210.833 52.4926 210.167 51.6505 209.773 50.6652C209.38 49.6799 209.277 48.5958 209.477 47.5498C209.678 46.5039 210.173 45.5431 210.9 44.789C211.627 44.0349 212.554 43.5213 213.562 43.3133C214.571 43.1052 215.616 43.212 216.566 43.6201C217.516 44.0282 218.328 44.7193 218.899 45.606C219.471 46.4927 219.775 47.5352 219.775 48.6017C219.774 50.0313 219.226 51.4019 218.251 52.4128C217.276 53.4236 215.955 53.9923 214.576 53.9939V53.9939ZM214.576 43.793C213.659 43.793 212.763 44.075 212 44.6034C211.238 45.1318 210.644 45.8829 210.293 46.7616C209.942 47.6403 209.85 48.6072 210.029 49.54C210.208 50.4728 210.649 51.3297 211.298 52.0022C211.946 52.6747 212.773 53.1327 213.672 53.3182C214.571 53.5037 215.504 53.4085 216.351 53.0445C217.198 52.6805 217.922 52.0642 218.432 51.2734C218.941 50.4825 219.213 49.5528 219.213 48.6017C219.212 47.3268 218.723 46.1045 217.853 45.203C216.984 44.3015 215.806 43.7944 214.576 43.7929V43.793Z" fill="#3F3D56"/>
<path d="M9.19906 165.718C8.17078 165.719 7.16558 165.402 6.31057 164.81C5.45557 164.217 4.78917 163.375 4.39565 162.39C4.00212 161.405 3.89914 160.32 4.09973 159.274C4.30032 158.228 4.79548 157.268 5.52258 156.513C6.24967 155.759 7.17606 155.246 8.18459 155.038C9.19311 154.83 10.2385 154.936 11.1885 155.345C12.1385 155.753 12.9505 156.444 13.5218 157.331C14.0931 158.217 14.398 159.26 14.398 160.326C14.3964 161.756 13.8482 163.126 12.8736 164.137C11.8989 165.148 10.5774 165.717 9.19906 165.718V165.718ZM9.19906 155.517C8.28201 155.517 7.38554 155.799 6.62302 156.328C5.8605 156.856 5.26619 157.607 4.91522 158.486C4.56426 159.365 4.47242 160.332 4.65131 161.264C4.83021 162.197 5.2718 163.054 5.92024 163.727C6.56869 164.399 7.39487 164.857 8.2943 165.043C9.19373 165.228 10.126 165.133 10.9733 164.769C11.8205 164.405 12.5447 163.789 13.0542 162.998C13.5637 162.207 13.8356 161.277 13.8356 160.326C13.8342 159.051 13.3453 157.829 12.4761 156.928C11.6068 156.026 10.4283 155.519 9.19906 155.517V155.517Z" fill="#3F3D56"/>
<path d="M47.6048 88.6768C46.3747 88.6768 45.1566 88.9281 44.0201 89.4164C42.8837 89.9046 41.851 90.6202 40.9812 91.5224C40.1114 92.4245 39.4214 93.4955 38.9506 94.6742C38.4799 95.8529 38.2376 97.1162 38.2376 98.392C38.2376 103.758 47.6048 121.466 47.6048 121.466C47.6048 121.466 56.9721 103.758 56.9721 98.392C56.9721 97.1162 56.7298 95.8529 56.2591 94.6742C55.7883 93.4955 55.0983 92.4245 54.2285 91.5224C53.3587 90.6202 52.326 89.9046 51.1895 89.4164C50.053 88.9281 48.835 88.6768 47.6048 88.6768V88.6768ZM47.6048 103.492C46.6322 103.492 45.6814 103.193 44.8727 102.633C44.0639 102.072 43.4336 101.276 43.0614 100.344C42.6892 99.4119 42.5918 98.3864 42.7815 97.397C42.9713 96.4076 43.4397 95.4988 44.1274 94.7855C44.8152 94.0721 45.6915 93.5864 46.6454 93.3896C47.5994 93.1928 48.5882 93.2938 49.4868 93.6798C50.3854 94.0659 51.1535 94.7196 51.6938 95.5584C52.2342 96.3971 52.5226 97.3833 52.5226 98.392C52.5226 99.7448 52.0045 101.042 51.0823 101.999C50.16 102.955 48.9091 103.492 47.6048 103.492V103.492Z" fill="#6C63FF"/>
<path d="M122.309 52.2449C119.824 52.2449 117.442 53.2685 115.685 55.0904C113.928 56.9124 112.942 59.3835 112.942 61.9601C112.942 67.3257 122.309 85.0337 122.309 85.0337C122.309 85.0337 131.676 67.3256 131.676 61.9601C131.676 60.6843 131.434 59.421 130.963 58.2423C130.492 57.0636 129.802 55.9926 128.932 55.0904C128.063 54.1883 127.03 53.4727 125.894 52.9844C124.757 52.4962 123.539 52.2449 122.309 52.2449V52.2449ZM122.309 67.0606C121.336 67.0606 120.385 66.7614 119.577 66.201C118.768 65.6406 118.138 64.844 117.765 63.912C117.393 62.98 117.296 61.9545 117.485 60.9651C117.675 59.9757 118.144 59.0669 118.831 58.3535C119.519 57.6402 120.395 57.1545 121.349 56.9577C122.303 56.7609 123.292 56.8619 124.191 57.2479C125.089 57.6339 125.857 58.2877 126.398 59.1264C126.938 59.9652 127.227 60.9513 127.227 61.9601C127.227 63.3128 126.708 64.6102 125.786 65.5667C124.864 66.5232 123.613 67.0606 122.309 67.0606V67.0606Z" fill="#6C63FF"/>
<path d="M306.203 206.287H178.671V207H306.203V206.287Z" fill="#2F2E41"/>
<path d="M283.91 21.1239C281.927 27.212 278.887 32.7592 272.691 32.7592C266.495 32.7592 261.822 27.5397 261.473 21.1239C261.027 12.9257 266.353 9.45456 272.691 9.48851C280.18 9.52863 286.263 13.8987 283.91 21.1239Z" fill="#2F2E41"/>
<path d="M283.615 20.2053H261.473V49.2937H283.615V20.2053Z" fill="#2F2E41"/>
<path d="M284.265 41.8763H286.148C286.148 41.8763 290.752 47.9531 288.659 56.2003C286.567 64.4475 288.241 65.9667 288.241 65.9667C288.241 65.9667 290.965 74.8977 288.036 88.3536C285.106 101.81 290.752 105.466 290.752 105.466L285.521 94.6148L282.591 65.9667L284.265 41.8763Z" fill="#575A89"/>
<path opacity="0.1" d="M284.265 42.5902H286.148C286.148 42.5902 290.752 48.6671 288.659 56.9143C286.567 65.1614 288.241 66.6806 288.241 66.6806C288.241 66.6806 290.965 75.6116 288.036 89.0675C285.106 102.523 290.752 106.18 290.752 106.18L285.521 95.3287L282.591 66.6806L284.265 42.5902Z" fill="black"/>
<path d="M277.673 31.3503C277.673 31.3503 275.999 38.2953 276.836 38.2953C277.673 38.2953 280.603 41.9848 280.603 41.9848L282.486 49.1468L281.021 54.3556L275.999 53.2704L269.722 46.1084L267.838 44.1551L266.164 37.8612C266.164 37.8612 268.257 35.2568 266.792 33.0865C265.327 30.9162 277.673 31.3503 277.673 31.3503Z" fill="#FBBEBE"/>
<path opacity="0.1" d="M277.673 31.3503C277.673 31.3503 275.999 38.2953 276.836 38.2953C277.673 38.2953 280.603 41.9848 280.603 41.9848L282.486 49.1468L281.021 54.3556L275.999 53.2704L269.722 46.1084L267.838 44.1551L266.164 37.8612C266.164 37.8612 268.257 35.2568 266.792 33.0865C265.327 30.9162 277.673 31.3503 277.673 31.3503Z" fill="black"/>
<path d="M227.033 50.666L222.429 42.8529C222.429 42.8529 217.46 31.4492 213.902 35.5728C210.345 39.6964 219.29 48.0617 219.29 48.0617L223.894 54.3556L227.033 50.666Z" fill="#FBBEBE"/>
<path d="M288.136 118.597L284.788 143.989C284.788 143.989 285.207 145.943 281.021 153.105C276.836 160.267 265.536 175.893 265.536 175.893L262.188 169.382C262.188 169.382 266.164 148.764 273.07 144.423L272.233 113.171L288.136 118.597Z" fill="#FBBEBE"/>
<path opacity="0.1" d="M288.136 118.597L284.788 143.989C284.788 143.989 285.207 145.943 281.021 153.105C276.836 160.267 265.536 175.893 265.536 175.893L262.188 169.382C262.188 169.382 266.164 148.764 273.07 144.423L272.233 113.171L288.136 118.597Z" fill="black"/>
<path d="M262.188 166.778L266.792 175.893C266.792 175.893 263.025 186.961 264.49 188.047C265.955 189.132 267.838 198.898 263.862 197.813C259.886 196.728 256.747 192.387 256.747 191.736C256.747 191.085 259.049 181.97 257.794 179.799C256.538 177.629 255.701 176.978 255.701 176.978L252.562 182.404L251.516 181.753L256.747 172.637C256.747 172.637 257.375 170.901 259.886 169.816L262.188 166.778Z" fill="#2F2E41"/>
<path opacity="0.1" d="M262.188 166.778L266.792 175.893C266.792 175.893 263.025 186.961 264.49 188.047C265.955 189.132 267.838 198.898 263.862 197.813C259.886 196.728 256.747 192.387 256.747 191.736C256.747 191.085 259.049 181.97 257.794 179.799C256.538 177.629 255.701 176.978 255.701 176.978L252.562 182.404L251.516 181.753L256.747 172.637C256.747 172.637 257.375 170.901 259.886 169.816L262.188 166.778Z" fill="black"/>
<path d="M272.281 114.994C272.281 114.994 273.907 138.998 270.349 145.291V176.544L265.536 177.195C265.536 177.195 255.817 160.649 259.374 144.372C262.932 128.095 255.701 113.171 255.701 113.171L272.281 114.994Z" fill="#FBBEBE"/>
<path d="M271.082 36.6676C275.936 36.6676 279.871 32.5865 279.871 27.5523C279.871 22.518 275.936 18.437 271.082 18.437C266.228 18.437 262.293 22.518 262.293 27.5523C262.293 32.5865 266.228 36.6676 271.082 36.6676Z" fill="#FBBEBE"/>
<path d="M279.975 51.5342L271.186 40.0315L266.164 36.559L264.072 39.3804L258.212 41.1167C258.212 41.1167 254.446 41.9848 250.47 46.7595C246.494 51.5342 239.379 54.3556 239.379 54.3556L233.52 53.2704C233.52 53.2704 226.614 50.0149 226.614 49.1468C226.614 48.2787 220.546 55.0067 222.011 57.611C223.475 60.2154 226.614 63.4709 228.288 65.2071C229.962 66.9434 230.59 71.9351 240.844 70.4159C251.097 68.8966 254.864 63.6879 254.864 63.6879C254.864 63.6879 256.747 73.6713 262.188 75.6246C267.629 77.5779 285.416 78.8801 285.416 78.8801L289.183 65.8582C289.183 65.8582 293.368 60.2154 287.718 51.9682C287.718 51.9682 287.609 47.3558 287.002 44.2866C286.766 43.0928 286.454 42.1324 286.044 41.7678C284.579 40.4656 276.836 38.2953 276.836 38.2953C276.836 38.2953 278.092 42.6359 278.72 42.8529C279.347 43.07 280.812 50.449 279.975 51.5342Z" fill="#575A89"/>
<path d="M251.83 116.318C262.368 115.558 268.504 117.349 271.241 118.714C271.75 118.953 272.229 119.254 272.668 119.612C272.869 119.788 272.965 119.925 272.965 120.007C272.965 120.658 287.404 121.961 292.635 120.658C297.867 119.356 289.078 91.3593 286.776 88.972C284.474 86.5846 285.715 77.847 285.715 77.847C285.715 77.847 281.126 76.8183 279.871 77.2523C278.615 77.6864 272.128 76.6012 269.826 75.2991C267.524 73.9969 264.595 74.865 262.711 74.4309C261.87 74.2378 261.445 74.5633 261.234 74.9844C260.905 75.6159 260.408 76.1364 259.803 76.484C255.36 79.1383 251.794 97.4904 249.11 107.637C246.18 118.705 251.83 116.318 251.83 116.318Z" fill="#2F2E41"/>
<path d="M271.186 174.591L272.023 179.365C272.023 179.365 276.418 185.876 275.162 191.302C275.162 191.302 276.209 198.464 279.975 200.417C283.742 202.371 280.603 206.928 277.046 206.711C273.488 206.494 270.14 206.928 269.722 205.843C269.303 204.758 266.792 194.123 266.792 194.123L266.105 206.568L264.012 206.785L264.699 192.387C264.699 192.387 263.025 189.132 265.327 183.706L264.746 175.377C264.746 175.377 270.559 176.761 271.186 174.591Z" fill="#2F2E41"/>
<path opacity="0.1" d="M271.241 118.714C271.75 118.953 272.229 119.254 272.668 119.612C272.779 117.561 273.419 105.158 272.651 105.358L271.241 118.714Z" fill="black"/>
<path d="M267.443 15C267.443 15 267.346 14.438 263.539 15.9186C259.733 17.3991 257.451 28.3248 259.354 34.7405C260.121 37.326 259.497 39.1901 258.479 40.4944C254.657 45.3889 256.161 52.7404 261.728 55.2573C261.885 55.3284 262.046 55.3986 262.209 55.468L264.588 56.9485C264.588 56.9485 261.555 52.8096 263.073 47.5151C264.391 43.004 264.554 38.2146 263.545 33.6185C263.371 32.8431 263.173 32.0439 262.949 31.2283C261.045 24.3191 261.971 25.117 268.633 18.2078C268.633 18.2078 272.44 21.1689 275.771 22.6494C279.101 24.13 281.956 25.6105 279.577 30.5456C277.198 35.4808 271.488 39.9224 275.295 46.338C279.101 52.7537 279.577 50.2861 279.101 52.7537L278.626 55.2212L281.481 52.2602L279.577 56.2083C279.577 56.2083 285.763 56.2083 287.666 51.2731L288.618 52.2602C288.618 52.2602 292.425 45.351 285.287 38.9353C285.287 38.9353 282.908 37.4548 286.239 32.5197C289.57 27.5846 287.012 16.974 282.729 15C278.447 13.0259 267.443 15 267.443 15Z" fill="#2F2E41"/>
<path d="M272.691 11.9381C275.137 11.9381 277.12 9.88175 277.12 7.34516C277.12 4.80856 275.137 2.75225 272.691 2.75225C270.246 2.75225 268.263 4.80856 268.263 7.34516C268.263 9.88175 270.246 11.9381 272.691 11.9381Z" fill="#2F2E41"/>
<path d="M267.377 4.8956C267.377 3.75705 267.785 2.6591 268.522 1.81474C269.258 0.970377 270.271 0.439788 271.363 0.32589C271.217 0.310882 271.07 0.302696 270.92 0.302696C269.746 0.302696 268.619 0.78659 267.789 1.64793C266.958 2.50926 266.492 3.67749 266.492 4.8956C266.492 6.11372 266.958 7.28194 267.789 8.14328C268.619 9.00462 269.746 9.48851 270.92 9.48851C271.07 9.48851 271.217 9.48033 271.363 9.46532C270.271 9.35142 269.258 8.82083 268.522 7.97646C267.785 7.1321 267.377 6.03416 267.377 4.8956V4.8956Z" fill="#2F2E41"/>
<path d="M214.576 17.2703C213.346 17.2703 212.128 17.5216 210.992 18.0098C209.855 18.4981 208.823 19.2137 207.953 20.1158C207.083 21.018 206.393 22.0889 205.922 23.2676C205.451 24.4463 205.209 25.7097 205.209 26.9855C205.209 32.351 214.576 50.059 214.576 50.059C214.576 50.059 223.944 32.351 223.944 26.9855C223.944 25.7097 223.701 24.4463 223.231 23.2676C222.76 22.0889 222.07 21.018 221.2 20.1158C220.33 19.2137 219.298 18.4981 218.161 18.0098C217.025 17.5216 215.807 17.2703 214.576 17.2703V17.2703ZM214.576 32.086C213.604 32.086 212.653 31.7868 211.844 31.2264C211.035 30.6659 210.405 29.8693 210.033 28.9374C209.661 28.0054 209.563 26.9798 209.753 25.9904C209.943 25.0011 210.411 24.0922 211.099 23.3789C211.787 22.6656 212.663 22.1798 213.617 21.983C214.571 21.7862 215.56 21.8872 216.458 22.2733C217.357 22.6593 218.125 23.3131 218.665 24.1518C219.206 24.9906 219.494 25.9767 219.494 26.9855C219.494 28.3382 218.976 29.6355 218.054 30.5921C217.132 31.5486 215.881 32.086 214.576 32.086V32.086Z" fill="#6C63FF"/>
<path d="M139.063 198.036C141.863 198.036 144.132 195.683 144.132 192.78C144.132 189.876 141.863 187.523 139.063 187.523C136.264 187.523 133.995 189.876 133.995 192.78C133.995 195.683 136.264 198.036 139.063 198.036Z" fill="#F1F1F1"/>
<path d="M170.598 175.8C173.398 175.8 175.667 173.447 175.667 170.544C175.667 167.64 173.398 165.287 170.598 165.287C167.799 165.287 165.53 167.64 165.53 170.544C165.53 173.447 167.799 175.8 170.598 175.8Z" fill="#F1F1F1"/>
<path d="M131.6 155.096C134.399 155.096 136.669 152.742 136.669 149.839C136.669 146.936 134.399 144.582 131.6 144.582C128.801 144.582 126.531 146.936 126.531 149.839C126.531 152.742 128.801 155.096 131.6 155.096Z" fill="#F1F1F1"/>
</g>
<defs>
<filter id="filter0_d" x="0" y="0" width="327" height="215" filterUnits="userSpaceOnUse" color-interpolation-filters="sRGB">
<feFlood flood-opacity="0" result="BackgroundImageFix"/>
<feColorMatrix in="SourceAlpha" type="matrix" values="0 0 0 0 0 0 0 0 0 0 0 0 0 0 0 0 0 0 127 0"/>
<feOffset dy="4"/>
<feGaussianBlur stdDeviation="2"/>
<feColorMatrix type="matrix" values="0 0 0 0 0 0 0 0 0 0 0 0 0 0 0 0 0 0 0.25 0"/>
<feBlend mode="normal" in2="BackgroundImageFix" result="effect1_dropShadow"/>
<feBlend mode="normal" in="SourceGraphic" in2="effect1_dropShadow" result="shape"/>
</filter>
<clipPath id="clip0">
<rect width="319" height="207" fill="white" transform="translate(4)"/>
</clipPath>
</defs>
</svg>
