<svg width="289" height="289" viewBox="0 0 289 289" fill="none" xmlns="http://www.w3.org/2000/svg">
<path d="M144.293 288.586C223.984 288.586 288.586 223.984 288.586 144.293C288.586 64.6022 223.984 0 144.293 0C64.6022 0 0 64.6022 0 144.293C0 223.984 64.6022 288.586 144.293 288.586Z" fill="#FF8A85"/>
<path d="M111.547 191.551C110.219 191.03 108.788 190.826 107.368 190.956C105.948 191.085 104.577 191.543 103.365 192.295C102.374 192.983 101.534 193.865 100.894 194.888C100.255 195.911 99.8303 197.053 99.646 198.245C93.5242 193.618 88.1666 188.058 83.7689 181.769C77.5343 172.78 73.3559 162.529 71.5302 151.743C69.7046 140.957 70.2767 129.901 73.2059 119.361C79.8999 95.661 101.831 71.543 132.827 66.875C163.694 62.226 194.79 78.23 209.735 106.752L195.656 119.889C189.811 117.012 185.74 117.404 182.42 121.111C178.642 125.33 174.239 128.991 170.048 132.95C159.779 114.661 147.979 108.911 133.442 114.89C121.922 119.627 114.849 132.726 117.913 143.89C118.375 143.925 118.839 143.921 119.301 143.878C120.873 143.615 122.437 143.301 124.369 142.937C123.888 134.868 126.153 127.927 133.132 123.305C135.296 121.835 137.747 120.839 140.323 120.381C142.899 119.924 145.543 120.015 148.081 120.65C152.095 121.577 155.704 123.774 158.37 126.915C161.037 130.056 162.619 133.973 162.881 138.085C163.03 140.423 162.774 142.768 162.126 145.019C160.048 152.719 154.554 157.469 151.726 159.563C151.24 158.401 150.473 157.379 149.494 156.588C147.594 155.096 145.887 155.415 143.543 154.356C141.761 153.519 140.224 152.239 139.08 150.637C146.129 151.747 152.503 149.329 154.925 144.752C155.86 142.86 156.248 140.745 156.045 138.644C155.931 136.938 155.464 135.274 154.672 133.758C153.881 132.243 152.783 130.908 151.448 129.84C150.113 128.772 148.57 127.993 146.918 127.553C145.265 127.114 143.539 127.023 141.85 127.286C134.133 128.406 130.327 135.002 132.188 144.626C129.332 144.626 126.551 144.631 123.77 144.626C119.245 144.617 115.965 145.634 113.826 147.787C111.016 150.614 110.78 154.727 110.726 157.458C110.447 171.357 111.228 186.067 111.547 191.551Z" fill="white"/>
<path d="M115.397 196.105V190.53C115.397 179.499 115.401 168.467 115.41 157.436C115.421 151.146 117.277 149.346 123.682 149.324C125.17 149.318 126.657 149.324 128.144 149.324C133.779 149.324 135.8 151.232 136.017 156.755C136.041 157.367 136.095 157.977 136.158 158.955C139.009 159.115 142.045 158.646 144.524 159.61C146.824 160.505 148.524 162.93 150.14 165.133C154.81 166.144 161.178 164.176 162.308 172.667C164.295 172.667 166.233 172.575 168.16 172.687C171.849 172.901 174.276 174.819 174.309 178.35C174.459 194.429 174.375 210.51 174.375 226.8H167.72V179.618H162.247V203.537L155.452 203.877V172.965H149.39V203.633H142.716V166.301H135.89V203.501L134.768 203.722L130.143 203.451C129.443 179.82 129.075 163.013 129.391 159.913C129.49 159.356 129.475 158.785 129.344 158.234C129.214 157.684 128.972 157.166 128.633 156.713C128.237 156.394 127.78 156.159 127.29 156.023C126.8 155.886 126.288 155.851 125.784 155.92C125.252 155.851 124.711 155.891 124.195 156.039C123.679 156.187 123.199 156.439 122.784 156.779C122.436 157.191 122.186 157.675 122.051 158.197C121.917 158.719 121.902 159.265 122.008 159.793C121.624 172.032 121.584 184.813 121.986 198.093C122.156 203.7 122.396 209.206 122.707 214.613L116.012 215.357L115.443 203.105H110.63L110.805 227.258H104.111C103.972 218.221 103.833 209.183 103.696 200.146C104.965 198.318 106.783 196.941 108.886 196.215C110.99 195.489 113.27 195.452 115.396 196.108L115.397 196.105Z" fill="white"/>
<path d="M214.68 122.634C222.58 150.742 209.445 187.234 179.462 203.034C179.347 201.86 179.162 200.853 179.162 199.846C179.138 193.284 179.224 186.72 179.135 180.159C179.035 172.538 175.603 168.838 168.099 167.827C167.128 167.508 166.201 167.067 165.342 166.513C162.959 165.322 160.644 163.997 158.409 162.546C164.467 157.161 168.78 150.091 170.795 142.24C174.204 145.817 177.612 149.372 180.995 152.95C183.012 155.083 187.653 156.301 189.695 154.45C196.261 148.491 202.513 142.186 208.877 136.005C208.938 135.945 208.884 135.766 208.884 135.626C205.51 131.098 205.497 131.084 209.82 126.982C211.317 125.554 212.9 124.218 214.68 122.634Z" fill="white"/>
<path d="M236.463 210.735C236.416 214.289 235.317 217.75 233.303 220.68C231.289 223.609 228.451 225.875 225.148 227.191C221.846 228.507 218.228 228.813 214.751 228.072C211.274 227.331 208.096 225.575 205.617 223.026C203.139 220.478 201.472 217.252 200.828 213.756C200.184 210.26 200.591 206.651 201.999 203.387C203.406 200.122 205.75 197.349 208.734 195.417C211.718 193.485 215.208 192.482 218.763 192.535C221.122 192.562 223.452 193.055 225.62 193.985C227.788 194.916 229.751 196.265 231.395 197.956C233.04 199.648 234.334 201.647 235.204 203.84C236.074 206.033 236.502 208.376 236.463 210.735V210.735ZM217.439 207.471L221.845 212.182L229.245 204.914L224.345 199.814L217.439 207.471Z" fill="white"/>
<path d="M199.263 131.637L202.936 135.86C197.97 140.56 193.145 145.301 188.046 149.729C187.341 150.341 184.83 149.885 183.923 149.07C180.804 146.27 177.997 143.11 175.123 140.034C173.264 138.04 173.448 136.125 175.471 134.265C178.386 131.585 181.23 128.829 184.092 126.093C188.944 121.455 188.94 121.451 194.149 126.168C195.615 124.779 197.125 123.38 198.599 121.945C205.25 115.471 211.829 108.923 218.571 102.545C219.498 101.752 220.227 100.754 220.701 99.631C221.175 98.5074 221.381 97.2889 221.303 96.0719C221.12 89.3929 221.234 82.705 221.25 76.021C221.25 74.821 221.361 73.6139 221.43 72.2209H228.04C228.04 76.2259 228.067 80.1449 228.034 84.0639C227.982 90.2379 229.568 97.1199 227.345 102.386C225.122 107.652 219.038 111.295 214.705 115.706C209.618 120.894 204.589 126.14 199.263 131.637ZM186.503 142.107L193.391 135.595L189.015 130.873L182.044 137.379L186.503 142.107Z" fill="white"/>
<path d="M71.5499 56.2419H77.7159V68.8159H71.5499V56.2419Z" fill="white"/>
<path d="M143.705 144.402C142.395 144.347 141.153 143.803 140.225 142.878C139.296 141.952 138.749 140.712 138.69 139.402C138.695 138.421 138.99 137.462 139.538 136.648C140.086 135.834 140.862 135.2 141.769 134.826C142.677 134.452 143.674 134.354 144.637 134.546C145.6 134.737 146.484 135.209 147.179 135.902C147.874 136.595 148.349 137.478 148.543 138.44C148.738 139.402 148.643 140.4 148.272 141.309C147.901 142.217 147.269 142.996 146.456 143.546C145.644 144.097 144.686 144.394 143.705 144.402V144.402Z" fill="white"/>
<path d="M59.395 56.377V62.494H53.075V56.377H59.395Z" fill="white"/>
<path d="M53.311 68.8159H59.478V84.3889H53.311V68.8159Z" fill="white"/>
<path d="M62.4559 67.6729V73.7889H49.5179V67.6709L62.4559 67.6729Z" fill="white"/>
<path d="M71.4559 74.6479H77.428V84.4369H71.4559V74.6479Z" fill="white"/>
<path d="M80.3049 72.0439V78.0179H67.778V72.0439H80.3049Z" fill="white"/>
</svg>
