<svg width="110" height="111" viewBox="0 0 110 111" fill="none" xmlns="http://www.w3.org/2000/svg">
<path d="M40.0001 0C17.8401 0 0 19.2921 0 43.2556C0 67.2192 17.8401 86.5107 40.0001 86.5107V111L58.5174 86.5107H70.0004C92.1604 86.5107 110 67.2192 110 43.2556C110 19.2921 92.1604 0 70.0004 0H40.0001Z" fill="#27AD88"/>
<path d="M75.3368 68.6768H45.6124H31.3214C28.0096 68.6768 25.3435 66.1839 25.3435 63.0873V41.6105C25.3435 38.5139 28.0096 36.0209 31.3214 36.0209H41.4044C44.9805 36.0209 52.9809 27.3801 55.6634 24.1378C58.3459 20.8956 63.5477 10.3375 65.8072 11.3881C71.9536 14.9359 62.2013 31.441 61.337 32.5796H77.4553C80.7672 32.5796 83.4333 34.592 83.4333 37.0917C83.4333 39.5915 80.7672 41.6039 77.4553 41.6039H73.086H78.6788C81.9905 41.6039 84.6567 43.6163 84.6567 46.116C84.6567 48.6158 81.9904 50.6602 78.6788 50.6282L71.0626 50.5545L77.342 50.6282C80.6535 50.667 83.3199 52.6406 83.3199 55.1404C83.3199 57.6401 80.6537 59.6525 77.342 59.6525H69.718L75.3368 59.6525C78.6486 59.6525 81.3148 61.6649 81.3148 64.1647C81.3148 66.6644 78.6486 68.6768 75.3368 68.6768" stroke="white" stroke-width="2.64583" stroke-linecap="round" stroke-linejoin="round"/>
</svg>
