<svg width="16" height="17" viewBox="0 0 16 17" fill="none" xmlns="http://www.w3.org/2000/svg">
<path d="M15.4467 8.47066C15.4467 12.592 12.1054 15.9333 7.98404 15.9333C7.27471 15.9333 6.58671 15.8333 5.93604 15.6493H2.37071V13.3867C1.22004 12.0733 0.522705 10.3547 0.522705 8.47066C0.522705 4.34933 3.86404 1.008 7.98537 1.008C12.1067 1.008 15.4467 4.34933 15.4467 8.47066Z" stroke="#243B78" stroke-miterlimit="10"/>
<path d="M4.14936 9.53999C4.70606 9.53999 5.15736 9.08869 5.15736 8.53199C5.15736 7.97528 4.70606 7.52399 4.14936 7.52399C3.59266 7.52399 3.14136 7.97528 3.14136 8.53199C3.14136 9.08869 3.59266 9.53999 4.14936 9.53999Z" stroke="#F69220" stroke-miterlimit="10"/>
<path d="M8.18281 9.53999C8.73951 9.53999 9.1908 9.08869 9.1908 8.53199C9.1908 7.97528 8.73951 7.52399 8.18281 7.52399C7.6261 7.52399 7.1748 7.97528 7.1748 8.53199C7.1748 9.08869 7.6261 9.53999 8.18281 9.53999Z" stroke="#F69220" stroke-miterlimit="10"/>
<path d="M11.9775 9.53999C12.5342 9.53999 12.9855 9.08869 12.9855 8.53199C12.9855 7.97528 12.5342 7.52399 11.9775 7.52399C11.4208 7.52399 10.9695 7.97528 10.9695 8.53199C10.9695 9.08869 11.4208 9.53999 11.9775 9.53999Z" stroke="#F69220" stroke-miterlimit="10"/>
</svg>
