<svg width="3" height="11" viewBox="0 0 3 11" fill="none" xmlns="http://www.w3.org/2000/svg">
<path d="M1.47055 2.2433C2.07412 2.2433 2.56341 1.75401 2.56341 1.15044C2.56341 0.546875 2.07412 0.0575867 1.47055 0.0575867C0.866976 0.0575867 0.377686 0.546875 0.377686 1.15044C0.377686 1.75401 0.866976 2.2433 1.47055 2.2433Z" fill="#F69220"/>
<path d="M1.47055 6.61473C2.07412 6.61473 2.56341 6.12544 2.56341 5.52187C2.56341 4.9183 2.07412 4.42902 1.47055 4.42902C0.866976 4.42902 0.377686 4.9183 0.377686 5.52187C0.377686 6.12544 0.866976 6.61473 1.47055 6.61473Z" fill="#243B78"/>
<path d="M1.47055 10.729C2.07412 10.729 2.56341 10.2397 2.56341 9.63616C2.56341 9.03259 2.07412 8.5433 1.47055 8.5433C0.866976 8.5433 0.377686 9.03259 0.377686 9.63616C0.377686 10.2397 0.866976 10.729 1.47055 10.729Z" fill="#F69220"/>
</svg>
