<svg width="179" height="257" viewBox="0 0 179 257" fill="none" xmlns="http://www.w3.org/2000/svg">
<path d="M111.044 153.681L89.4535 221.152L67.8655 153.681L68.0148 148.723L68.2308 141.32L68.4455 134.452V134.431L68.8961 119.452V119.3L69.3468 104.751H109.541L109.992 119.3V119.452L110.379 131.425L110.465 134.452L110.7 141.727L110.892 148.723L111.044 153.681" fill="#FFD4BB"/>
<path d="M110.239 127.076L109.992 119.452V119.3L109.541 104.751H109.575L110.024 119.3V119.452L110.26 127.027C110.252 127.043 110.245 127.06 110.239 127.076" fill="url(#paint0_radial)"/>
<path d="M88.3494 146.105C81.4827 146.105 72.2774 137.887 68.6481 128.765L68.9281 119.452V119.3L69.3787 104.751H109.541L109.992 119.3V119.452L110.239 127.076C105.424 138.06 95.4414 146.105 88.3494 146.105Z" fill="#EFC2A5"/>
<path d="M131.269 61.2293C129.96 60.5853 128.88 60.6679 128.009 61.0639C128.341 35.9319 122.345 12.7159 88.3321 12.7159C54.3161 12.7159 48.3241 35.9319 48.6574 61.0639C47.7854 60.6679 46.7068 60.5853 45.3961 61.2293C41.3974 63.1946 43.3094 69.4173 43.3094 69.4173C43.3094 69.4173 44.1815 90.5439 46.4388 93.3266C47.6721 94.8439 49.3521 95.4253 50.6428 95.6493C52.7601 109.244 70.9921 131.989 88.3321 131.989C104.256 131.989 123.908 109.244 126.024 95.6493C127.313 95.4253 128.993 94.8439 130.225 93.3266C132.488 90.5439 133.356 69.4173 133.356 69.4173C133.356 69.4173 135.268 63.1946 131.269 61.2293" fill="#FFD4BB"/>
<path d="M76.2935 105.657H104.227C104.227 105.657 89.1268 123.279 76.2935 105.657Z" fill="#E86859"/>
<path d="M76.2935 105.657H104.227C104.227 105.657 89.1268 116.763 76.2935 105.657Z" fill="white"/>
<path d="M126.163 28.3947C121.531 19.808 114.359 14.8693 109.243 13.5027C107.951 12.356 106.045 11.048 103.184 9.61599C89.2347 3.89465 66.8161 8.99201 56.4174 19.0053C43.9921 30.9693 46.4641 53.2747 47.4201 59.3893C48.5454 68.9373 50.6014 76.412 50.6014 76.412C50.6014 76.412 50.3734 67.6907 50.8708 61.38C51.0441 60.376 51.2854 59.4347 51.5654 58.532C63.0188 46.7987 98.9441 42.672 106.964 34.904C106.987 35.0573 107.02 35.216 107.043 35.368C108.193 43.4293 123.359 46.6387 125.895 61.38C126.392 67.6907 126.163 76.412 126.163 76.412C126.163 76.412 134.924 44.644 126.163 28.3947Z" fill="#CF854B"/>
<path d="M178.908 234.952C178.908 234.952 174.616 182.909 167.105 168.423C165.495 164.131 119.265 153.991 119.265 153.991L89.4667 251.498L59.6453 153.991C59.6453 153.991 13.4133 164.131 11.8027 168.423C4.29067 182.909 0 234.952 0 234.952C16.4467 245.561 57.6106 256.969 89.4533 256.969C121.465 256.969 162.463 245.561 178.908 234.952Z" fill="#676C7A"/>
<path d="M91.3613 123.736V122.403C107.717 122.403 119.455 118.639 126.245 111.216C132.853 103.995 132.203 95.756 132.196 95.6733L133.524 95.5533C133.556 95.9106 134.248 104.425 127.252 112.092C120.201 119.819 108.125 123.736 91.3613 123.736" fill="#3D3D3D"/>
<path d="M97.0907 122.36C97.0907 125.899 94.2254 128.765 90.6854 128.765C87.1467 128.765 84.2827 125.899 84.2827 122.36C84.2827 118.823 87.1467 115.956 90.6854 115.956C94.2254 115.956 97.0907 118.823 97.0907 122.36Z" fill="#3D3D3D"/>
<path d="M134.852 68.6213H132.852V46.5213C132.852 21.972 112.881 2.00001 88.3334 2.00001C63.784 2.00001 43.812 21.972 43.812 46.5213V68.6213H41.812V46.5213C41.812 20.8693 62.6814 1.26972e-05 88.3334 1.26972e-05C113.984 1.26972e-05 134.852 20.8693 134.852 46.5213V68.6213Z" fill="#919191"/>
<path d="M137.319 95.7266H128.735V67.2919H137.319V95.7266" fill="#3D3D3D"/>
<path d="M47.9294 95.7266H39.3467V67.2919H47.9294V95.7266" fill="#3D3D3D"/>
<path d="M68.4453 134.452L68.2307 141.32L68.0146 148.723L63.98 136.705C63.98 136.705 64.476 134.903 68.4453 134.452" fill="#CDDCF5"/>
<path d="M114.949 136.705L110.892 148.723L110.7 141.727L110.465 134.452C114.435 134.903 114.949 136.705 114.949 136.705Z" fill="#CDDCF5"/>
<path d="M116.835 166.813C117.551 159.303 105.029 153.58 98.9494 162.165C98.9494 162.165 94.3014 175.756 91.4388 199.363C90.9348 207.692 90.1628 211.493 89.7494 213.016L89.1934 213.064C88.7774 211.573 87.9814 207.785 87.4694 199.363C84.6108 175.756 79.9588 162.165 79.9588 162.165C73.8801 153.58 61.3601 159.303 62.0761 166.813C62.7361 173.764 88.7254 256.834 89.4534 256.834C90.2254 256.834 116.175 173.735 116.835 166.813" fill="#E0EBFF"/>
<path d="M89.2255 256.834C89.2255 256.834 65.7721 231.988 49.0468 202.623C49.8468 202.087 50.5681 201.603 51.2188 201.167C67.7281 231.721 89.2255 256.834 89.2255 256.834ZM51.4281 195.296L27.9841 187.863C27.9841 187.863 29.7361 185.719 32.7895 182.461L57.2321 191.007C57.2321 191.007 57.2321 191.007 51.4281 195.296Z" fill="#4E5771"/>
<path d="M89.6827 256.834C89.6827 256.834 111.183 231.721 127.691 201.167C128.341 201.603 129.063 202.087 129.863 202.623C113.139 231.988 89.6827 256.834 89.6827 256.834ZM127.483 195.296C121.679 191.005 121.679 191.007 121.679 191.007L146.119 182.461C149.173 185.719 150.924 187.863 150.924 187.863L127.483 195.296Z" fill="#4E5771"/>
<path d="M60.4321 149.375L89.2255 256.834C89.2255 256.834 65.7721 229.436 49.0468 197.056C57.2321 191.007 57.2321 191.007 57.2321 191.007L27.9841 180.781C27.9841 180.781 42.2868 161.473 60.4321 149.375" fill="#758EBF"/>
<path d="M118.476 149.375L89.6827 256.834C89.6827 256.834 113.139 229.436 129.863 197.056C121.679 191.007 121.679 191.007 121.679 191.007L150.924 180.781C150.924 180.781 136.625 161.473 118.476 149.375" fill="#758EBF"/>
<path d="M115.177 161.687C113.839 160.028 111.827 158.771 109.597 158.203L111.044 153.681L110.892 148.723L112.188 144.884C114.055 141.899 114.939 140.116 114.939 140.116C116.457 143.2 119.005 147.079 121.088 151.183C120.228 150.565 119.356 149.961 118.476 149.375L115.177 161.687" fill="url(#paint1_radial)"/>
<path d="M100.673 160.239C105.163 155.119 108.519 150.495 110.844 146.973L110.892 148.723L111.044 153.681L109.597 158.203C108.749 157.988 107.871 157.872 106.985 157.872C104.795 157.872 102.564 158.58 100.673 160.239Z" fill="#D3B6A6"/>
<path d="M110.892 148.723L110.844 146.973C111.339 146.225 111.787 145.527 112.188 144.884L110.892 148.723Z" fill="#B0BCCE"/>
<path d="M113.504 167.933C109.272 164.256 104.572 161.628 101.22 161.628C100.367 161.628 99.5988 161.799 98.9495 162.165C99.5415 161.516 100.116 160.873 100.673 160.239C102.564 158.58 104.795 157.872 106.985 157.872C107.871 157.872 108.749 157.988 109.597 158.203C111.827 158.771 113.839 160.028 115.177 161.687L113.504 167.933" fill="#BEC6D5"/>
<path d="M122.319 178.92C120.543 175.16 117.201 171.147 113.504 167.933L115.177 161.687L118.476 149.375C119.356 149.961 120.228 150.565 121.088 151.183C121.725 152.44 122.32 153.719 122.828 155.001C123.325 165.189 122.319 178.92 122.319 178.92" fill="#7385A9"/>
<path d="M63.7321 161.688L60.4321 149.375C59.5534 149.961 58.6814 150.565 57.8214 151.183C59.9041 147.079 62.4534 143.2 63.9708 140.116C63.9708 140.116 64.8574 141.907 66.7321 144.901L68.0147 148.723L67.8654 153.681L69.3121 158.203C67.0814 158.771 65.0708 160.028 63.7321 161.688" fill="url(#paint2_radial)"/>
<path d="M78.2375 160.24C76.3468 158.581 74.1161 157.872 71.9241 157.872C71.0388 157.872 70.1601 157.988 69.3121 158.203L67.8655 153.681L68.0148 148.723L68.0668 146.975C70.3921 150.496 73.7482 155.12 78.2375 160.24Z" fill="#D3B6A6"/>
<path d="M68.0147 148.723L66.7321 144.901C67.1321 145.54 67.5761 146.233 68.0667 146.975L68.0147 148.723" fill="#B0BCCE"/>
<path d="M65.4054 167.935L63.7321 161.688C65.0707 160.028 67.0814 158.771 69.312 158.203C70.16 157.988 71.0387 157.872 71.924 157.872C74.116 157.872 76.3467 158.581 78.2374 160.24C78.7934 160.875 79.3667 161.516 79.9587 162.165C79.3094 161.799 78.5427 161.628 77.688 161.628C74.336 161.628 69.6374 164.257 65.4054 167.935" fill="#BEC6D5"/>
<path d="M56.5921 178.92C56.5921 178.92 55.5841 165.189 56.0827 155.001C56.5894 153.719 57.1841 152.44 57.8214 151.183C58.6814 150.565 59.5534 149.961 60.4321 149.375L63.7321 161.688L65.4054 167.935C61.7081 171.148 58.3681 175.16 56.5921 178.92" fill="#7385A9"/>
<path d="M114.939 136.704C114.939 136.704 110.039 150.005 98.9495 162.165C104.377 159.097 117.993 166.351 122.319 175.511C122.319 175.511 123.325 161.78 122.828 151.591C120.664 146.12 116.923 140.735 114.939 136.704" fill="#F0F5FF"/>
<path d="M63.9707 136.704C63.9707 136.704 68.8721 150.005 79.9587 162.165C74.5307 159.097 60.9174 166.351 56.5921 175.511C56.5921 175.511 55.5854 161.78 56.0827 151.591C58.2441 146.12 61.9881 140.735 63.9707 136.704" fill="#F0F5FF"/>
<path d="M76.2935 105.657C76.2935 105.657 89.2788 101.305 104.227 105.657C89.2255 105.657 76.2935 105.657 76.2935 105.657Z" fill="#E86859"/>
<defs>
<radialGradient id="paint0_radial" cx="0" cy="0" r="1" gradientUnits="userSpaceOnUse" gradientTransform="translate(-58.6046 121.657) scale(581.638 491.144)">
<stop stop-color="#EFD8C7"/>
<stop offset="0.349462" stop-color="#EFD8C7"/>
<stop offset="0.711056" stop-color="#EFD8C7"/>
<stop offset="1" stop-color="#C4AD9B"/>
</radialGradient>
<radialGradient id="paint1_radial" cx="0" cy="0" r="1" gradientUnits="userSpaceOnUse" gradientTransform="translate(-58.6078 121.657) scale(581.649 491.144)">
<stop stop-color="#D3D4D5"/>
<stop offset="0.349462" stop-color="#D3D4D5"/>
<stop offset="0.711056" stop-color="#D3D4D5"/>
<stop offset="1" stop-color="#969799"/>
</radialGradient>
<radialGradient id="paint2_radial" cx="0" cy="0" r="1" gradientUnits="userSpaceOnUse" gradientTransform="translate(-58.6078 121.657) scale(581.649 491.144)">
<stop stop-color="#D3D4D5"/>
<stop offset="0.349462" stop-color="#D3D4D5"/>
<stop offset="0.711056" stop-color="#D3D4D5"/>
<stop offset="1" stop-color="#969799"/>
</radialGradient>
</defs>
</svg>
