<svg width="385" height="385" viewBox="0 0 385 385" fill="none" xmlns="http://www.w3.org/2000/svg">
<path d="M384.78 192.389C384.78 298.643 298.644 384.779 192.391 384.779C86.136 384.779 0 298.643 0 192.389C0 86.136 86.136 0 192.391 0C298.644 0 384.78 86.136 384.78 192.389Z" fill="#CA91C9"/>
<path d="M157.699 117.216H127.107V143.813H157.699V117.216ZM217.586 143.672H248.286V117.137H217.586V143.672ZM172.637 143.744H203.202V116.985H172.637V143.744ZM157.615 197.697H127.25V224.5H157.615V197.697ZM127.139 182.984H157.726V156.043H127.139V182.984ZM248.458 197.768H217.653V224.413H248.458V197.768ZM203.247 197.707H172.558V224.421H203.247V197.707ZM248.314 156.06H217.882V183.067H248.314V156.06ZM203.355 156.052H172.443V182.885H203.355V156.052ZM218.174 279.735H248.586V242.689H218.174V279.735ZM158.057 242.797H127.573V279.82H158.057V242.797ZM207.251 242.857H168.867V295.989H207.251V242.857ZM262.245 98.7587V296.221H281.627V307.927H94.4006V296.512H113.457V98.7587H262.245Z" fill="white"/>
<path d="M127.842 77.5391C128.129 82.0284 128.375 85.9084 128.633 89.9551H120.665V63.8484H128.538C128.329 67.5244 128.119 71.2018 127.89 75.2364H137.239C137.065 71.3164 136.903 67.6764 136.731 63.7871H144.453V90.0004H136.375C136.702 86.0418 137.037 81.9831 137.402 77.5391H127.842Z" fill="white"/>
<path d="M170.824 76.8836C170.854 68.9089 168.601 64.7916 164.129 64.6476C159.41 64.4956 156.672 69.0742 156.744 76.9942C156.814 84.5956 159.466 89.0556 163.894 89.0156C168.326 88.9756 170.793 84.6569 170.824 76.8836ZM163.878 63.0929C172.108 63.1182 177.872 68.5356 178.018 76.3822C178.168 84.4809 172.238 90.5342 164.074 90.6129C155.501 90.6942 149.398 84.6542 149.622 76.3089C149.832 68.5142 155.708 63.0662 163.878 63.0929Z" fill="white"/>
<path d="M229.13 68.5409C225.566 67.0969 221.983 65.6462 217.491 63.8276V76.4822C219.74 74.7542 221.316 73.5449 223.043 72.2209V80.9729C221.466 79.7582 219.842 78.5076 217.372 76.6062V87.4516C222.671 90.0249 226.558 87.6342 230.526 83.2969C230.3 85.9196 230.148 87.6796 229.964 89.8076H209.946V63.8076H228.859C228.966 65.6836 229.072 67.5449 229.13 68.5409Z" fill="white"/>
<path d="M196.695 63.6698V89.9245H188.499V64.2605C185.836 65.7925 183.488 67.1445 181.104 68.5165V63.8725H204.516V68.9485C202.292 67.4472 200.005 65.9045 196.695 63.6698Z" fill="white"/>
<path d="M236.633 89.996V63.708H243.832C243.832 71.368 243.539 78.86 243.979 86.3094C244.153 89.2627 251.477 89.4294 254.305 86.4907C255.515 85.2347 256.291 83.5627 257.743 81.348C257.743 83.336 257.868 84.5694 257.709 85.764C257.527 87.1374 257.092 88.4774 256.727 89.996H236.633Z" fill="white"/>
</svg>
