<svg width="595" height="1179" viewBox="0 0 595 1179" fill="none" xmlns="http://www.w3.org/2000/svg">
<path d="M273.83 1178.54C425.062 1178.54 547.66 1154.28 547.66 1124.37C547.66 1094.45 425.062 1070.2 273.83 1070.2C122.598 1070.2 0 1094.45 0 1124.37C0 1154.28 122.598 1178.54 273.83 1178.54Z" fill="#CECFD0"/>
<path d="M207.07 374.477C207.07 374.477 191.16 380.747 178.89 398.397C166.61 416.047 157.87 477.637 170.15 510.637C182.43 543.637 214.31 543.607 214.31 543.607" fill="#6AC4D1"/>
<path d="M320.54 276.117C320.54 276.117 240.19 256.727 209.83 367.457C182.22 468.157 196.68 529.197 214.3 543.607C228.59 555.297 243.31 552.477 243.31 552.477C243.31 552.477 362.79 547.977 373.18 529.967C383.57 511.957 375.95 349.877 371.1 333.947C366.25 318.017 359.33 288.237 320.54 276.117Z" fill="#6AC4D1"/>
<path d="M379.59 431.177C378.84 403.417 377.79 375.517 374.92 347.877C372.63 325.817 364.65 302.647 347.06 288.147C339.38 281.817 330.45 277.447 321 274.437C309.98 271.797 297.54 272.837 286.65 275.387C260.11 281.597 239.25 300.377 225.78 323.567C216.85 338.927 211.1 355.717 206.59 372.817C194.53 377.647 183.15 388.007 176.46 398.967C168.93 411.287 166.36 427.197 164.47 441.247C162.06 459.137 161.47 477.627 164.47 495.477C167.17 511.577 173.92 526.987 187.76 536.467C195.12 541.507 204.64 545.137 213.71 545.317C221.81 552.107 232.88 555.257 243.38 554.207C243.53 554.197 243.54 554.187 243.53 554.187C243.57 554.187 243.71 554.187 244.18 554.167C245.26 554.137 246.33 554.077 247.41 554.027C251.57 553.837 255.72 553.607 259.87 553.357C287.92 551.677 316.33 549.547 343.89 543.857C353.11 541.957 364.77 539.977 372.21 533.667C377.26 529.387 377.57 521.147 378.25 515.067C381.33 487.377 380.34 458.987 379.59 431.177ZM168.78 499.657C165.15 483.077 165.35 465.577 167.04 448.767C168.52 434.087 170.96 418.377 177.25 404.877C180.97 396.887 187.28 390.107 194.07 384.587C197.3 381.967 201.81 378.917 205.49 377.077C205.03 378.897 204.58 380.727 204.15 382.547L203.97 382.147L203.95 382.117L203.92 382.127C203.66 382.247 202.26 382.907 200.19 384.137L200.16 384.157L200.87 385.347L200.9 385.327C201.94 384.717 202.97 384.147 203.88 383.697C203.52 385.237 203.16 386.777 202.81 388.317C197.55 411.307 193.87 434.767 192.92 458.357C192.24 475.237 192.89 492.357 196.29 508.947C198.33 518.917 201.36 529.387 207.11 537.937L206.99 538.477L206.98 538.517H207.02C207.24 538.567 207.43 538.607 207.59 538.637C207.67 538.757 207.75 538.877 207.83 538.987C208.47 539.877 209.15 540.737 209.86 541.547C204.41 540.797 198.94 538.817 194.24 536.327C180.03 528.837 172.13 514.957 168.78 499.657ZM376.08 496.707C375.68 506.017 375.41 515.717 373.18 524.807C372.58 527.247 371.93 529.357 369.97 531.037C366.94 533.647 362.83 535.098 359.1 536.348C347.04 540.388 334.23 542.367 321.67 544.117C307.36 546.117 292.97 547.497 278.56 548.617C268.46 549.397 258.35 550.047 248.23 550.527C240.31 550.907 233.01 551.427 225.27 548.217C214.31 543.667 208.32 535.277 204.27 524.557C199.44 511.747 197.43 497.907 196.58 484.307C195.35 464.627 196.67 444.797 199.41 425.297C202.88 400.657 208.06 375.567 216.46 352.107C226.74 323.387 244.83 295.627 273.79 283.217C287.35 277.407 303.38 275.007 317.74 277.337C318.52 277.467 319.3 277.597 320.06 277.777C337.95 283.487 352.64 294.727 361.15 311.627C365.33 319.937 368.84 329.517 370.31 338.757C371.76 347.877 372.35 357.167 373.02 366.377C374.01 380.157 374.74 393.947 375.31 407.747C376.55 437.347 377.36 467.097 376.08 496.707Z" fill="#254059"/>
<path d="M203.43 475.317C203.38 473.977 203.34 472.587 203.31 471.207L203.3 471.177L201.91 471.207L201.92 471.237C201.95 472.627 202 474.028 202.04 475.408L202.05 475.437L203.4 475.377L203.43 475.317Z" fill="#254059"/>
<path d="M369.87 452.787V452.817C369.88 454.227 369.9 455.617 369.92 456.977V457.007L371.31 456.997L371.3 456.537C371.29 455.307 371.27 454.067 371.26 452.787V452.757L369.87 452.787Z" fill="#254059"/>
<path d="M369.96 461.107L369.97 461.137C369.98 462.567 369.99 463.957 370 465.307V465.337L371.35 465.327L371.43 465.257H371.38C371.37 463.917 371.35 462.537 371.34 461.127H371.31L371.3 461.098L369.96 461.107Z" fill="#254059"/>
<path d="M370.12 477.777V477.867C370.14 479.337 370.15 480.717 370.18 481.977V482.007L371.57 481.987V481.957C371.55 480.507 371.53 479.147 371.51 477.797V477.767L370.12 477.777Z" fill="#254059"/>
<path d="M371.42 469.427L370.03 469.437V469.467C370.04 470.917 370.06 472.297 370.07 473.627V473.658L371.46 473.647V473.617C371.45 472.287 371.43 470.897 371.42 469.457V469.427Z" fill="#254059"/>
<path d="M370.26 486.117V486.147C370.27 486.217 370.27 486.287 370.27 486.357C370.3 487.697 370.33 489.027 370.35 490.287V490.317L371.7 490.307V490.277H371.73C371.72 488.977 371.69 487.647 371.65 486.327C371.65 486.297 371.65 486.257 371.65 486.227C371.64 486.197 371.64 486.157 371.64 486.117V486.087L370.26 486.117Z" fill="#254059"/>
<path d="M317.16 537.897C315.84 538.067 314.45 538.247 313.04 538.417L313.01 538.427L313.17 539.767L313.21 539.797C314.48 539.637 315.84 539.467 317.34 539.267L317.37 539.257L317.19 537.887L317.16 537.897Z" fill="#254059"/>
<path d="M369.77 444.497C369.79 445.907 369.81 447.298 369.83 448.658V448.687L371.22 448.667V448.637C371.21 447.387 371.19 446.117 371.17 444.837L371.16 444.447L369.77 444.467V444.497Z" fill="#254059"/>
<path d="M369.08 411.227H369.05C369.09 412.617 369.13 414.007 369.17 415.387V415.417L370.56 415.387L370.55 415.197C370.52 413.877 370.47 412.527 370.43 411.187V411.158L369.08 411.197V411.227V411.227Z" fill="#254059"/>
<path d="M369.28 419.517V419.547C369.32 420.937 369.36 422.327 369.38 423.707V423.737L370.77 423.707V423.677C370.74 422.297 370.7 420.917 370.67 419.517V419.487L369.28 419.517Z" fill="#254059"/>
<path d="M368.75 402.887L368.76 402.917C368.82 404.457 368.86 405.827 368.91 407.077V407.107L370.3 407.057V407.027C370.24 405.417 370.2 404.087 370.15 402.867H370.12V402.837L368.75 402.887Z" fill="#254059"/>
<path d="M369.64 436.147L369.65 436.887C369.67 438.047 369.69 439.198 369.71 440.348V440.377L371.06 440.357L371.09 440.348V440.317C371.07 439.057 371.05 437.787 371.03 436.497L371.02 436.127L369.67 436.147H369.64Z" fill="#254059"/>
<path d="M369.48 427.827V427.857C369.51 429.257 369.54 430.637 369.56 432.017V432.047L370.95 432.017V431.987C370.92 430.607 370.89 429.227 370.87 427.827V427.797L369.48 427.827Z" fill="#254059"/>
<path d="M315.7 281.617L316.01 280.267L315.98 280.257C314.05 279.807 312.81 279.627 312.58 279.597C312.52 279.587 312.27 279.527 311.85 279.447L311.82 279.437L311.58 280.797L311.61 280.807C312.07 280.887 312.29 280.947 312.3 280.947L312.38 280.957H312.39C312.7 280.997 313.87 281.177 315.67 281.597L315.7 281.617Z" fill="#254059"/>
<path d="M308.91 538.907C307.61 539.057 306.26 539.207 304.79 539.357L304.76 539.367V539.397L304.91 540.737L304.94 540.727C306.35 540.577 307.74 540.417 309.07 540.267H309.1L308.94 538.887L308.91 538.907Z" fill="#254059"/>
<path d="M267.9 290.377C266.74 291.097 265.56 291.877 264.4 292.667L264.37 292.687L265.15 293.827L265.18 293.817C266.3 293.037 267.46 292.287 268.63 291.557L268.66 291.547L267.93 290.367L267.9 290.377Z" fill="#254059"/>
<path d="M272.18 289.457C273.39 288.777 274.62 288.137 275.83 287.527L275.86 287.517L275.25 286.277L275.22 286.287C274 286.887 272.75 287.547 271.52 288.237H271.47L272.16 289.467L272.18 289.457Z" fill="#254059"/>
<path d="M275.8 541.957C274.4 542.057 273.02 542.167 271.67 542.267H271.64L271.74 543.657H271.77C273.13 543.557 274.51 543.447 275.92 543.337L275.95 543.327L275.84 541.907L275.8 541.957Z" fill="#254059"/>
<path d="M261 295.117C259.89 295.947 258.79 296.817 257.71 297.697L257.68 297.717L258.56 298.787L258.59 298.757C259.66 297.887 260.74 297.037 261.8 296.237L261.84 296.297V296.177L261.02 295.087L261 295.117Z" fill="#254059"/>
<path d="M368.41 394.557V394.587C368.49 396.257 368.54 397.537 368.59 398.747V398.777L369.98 398.717V398.687C369.92 397.417 369.87 396.057 369.8 394.527V394.497L368.41 394.557Z" fill="#254059"/>
<path d="M267.52 542.588C266.09 542.688 264.71 542.788 263.37 542.888H263.34L263.44 544.278L263.47 544.268C264.81 544.178 266.2 544.078 267.63 543.968H267.66L267.56 542.578L267.52 542.588Z" fill="#254059"/>
<path d="M283.42 284.267L282.94 282.967L282.91 282.977C281.61 283.457 280.29 283.977 279.01 284.527L278.98 284.537L279.53 285.807L279.56 285.797C280.81 285.257 282.1 284.747 283.38 284.277L283.42 284.267Z" fill="#254059"/>
<path d="M300.67 539.777C299.46 539.897 298.16 540.027 296.53 540.177L296.5 540.187L296.63 541.567L296.66 541.557C298.27 541.407 299.58 541.277 300.8 541.157H300.83L300.69 539.777H300.67Z" fill="#254059"/>
<path d="M307.59 280.357L307.67 279.007H307.64V278.977C306.3 278.897 304.86 278.877 303.43 278.917H303.4L303.43 280.307H303.46C304.77 280.277 306.23 280.297 307.56 280.367H307.59V280.357Z" fill="#254059"/>
<path d="M299.4 280.547L299.26 279.157L299.23 279.167C297.85 279.307 296.45 279.497 295.07 279.727L295.04 279.737L295.27 281.097L295.3 281.087C296.68 280.847 298.04 280.667 299.37 280.537H299.4V280.547Z" fill="#254059"/>
<path d="M284.1 541.277C282.8 541.387 281.44 541.497 279.96 541.627H279.93L280.04 543.017L280.07 543.007C281.56 542.887 282.92 542.777 284.22 542.667L284.25 542.657L284.14 541.277H284.1Z" fill="#254059"/>
<path d="M291.29 281.907L290.97 280.557L290.94 280.567C289.61 280.887 288.25 281.247 286.89 281.657L286.86 281.667L287.26 282.987L287.29 282.977C288.6 282.587 289.94 282.227 291.26 281.907H291.29Z" fill="#254059"/>
<path d="M292.39 540.557C290.96 540.687 289.56 540.817 288.25 540.927L288.22 540.938L288.34 542.318H288.37C289.75 542.198 291.13 542.078 292.52 541.948L292.55 541.938L292.43 540.557H292.39Z" fill="#254059"/>
<path d="M357.88 530.128L357.81 529.958V530.148C356.66 530.518 355.33 530.897 353.88 531.287L353.85 531.297L354.2 532.638L354.23 532.628C355.72 532.228 357.08 531.838 358.26 531.468L358.29 531.458L357.87 530.177V530.128H357.88Z" fill="#254059"/>
<path d="M259.22 543.167C257.76 543.267 256.37 543.358 255.07 543.448H255.04L255.13 544.838L255.44 544.818C256.66 544.738 257.95 544.647 259.32 544.557H259.35L259.25 543.167H259.22Z" fill="#254059"/>
<path d="M359.73 316.147C359.22 314.847 358.64 313.557 358.03 312.297L358.02 312.267L356.77 312.867L356.78 312.897C357.37 314.107 357.92 315.367 358.43 316.647V316.697L359.73 316.177V316.147Z" fill="#254059"/>
<path d="M349.86 532.267C348.63 532.557 347.27 532.857 345.82 533.157L345.79 533.167L346.07 534.527L346.1 534.517C347.52 534.217 348.89 533.917 350.17 533.617H350.22L349.9 532.257L349.86 532.267Z" fill="#254059"/>
<path d="M354.88 309.307L356.05 308.627L356.06 308.617V308.537L356.04 308.547C355.35 307.357 354.6 306.167 353.81 305.017L353.79 304.987L352.65 305.777L352.66 305.807C353.44 306.937 354.18 308.097 354.86 309.267L354.88 309.307Z" fill="#254059"/>
<path d="M364.55 526.227C363.67 527.327 362.72 528.127 361.64 528.677C361.63 528.677 361.63 528.688 361.63 528.688L361.6 528.698L362.2 529.908L362.22 529.938L362.25 529.917C362.26 529.917 362.26 529.918 362.26 529.908C363.51 529.288 364.64 528.338 365.63 527.098L365.65 527.068L364.57 526.198L364.55 526.227Z" fill="#254059"/>
<path d="M348.53 298.487L348.5 298.467L347.49 299.417L347.52 299.447C348.46 300.437 349.36 301.477 350.21 302.527L350.23 302.557L351.28 301.707L351.29 301.697V301.627L351.26 301.637C350.42 300.577 349.5 299.517 348.53 298.487Z" fill="#254059"/>
<path d="M362.24 324.167C361.88 322.737 361.5 321.387 361.11 320.127L361.1 320.097L359.59 320.567H359.79C360.17 321.797 360.54 323.127 360.89 324.517L360.9 324.547L362.24 324.207V324.167Z" fill="#254059"/>
<path d="M369.46 510.947C369.27 512.397 369.07 513.767 368.82 515.017V515.047L370.18 515.307L370.19 515.277C370.43 513.997 370.65 512.607 370.83 511.127L370.84 511.098L369.46 510.927V510.947V510.947Z" fill="#254059"/>
<path d="M370.16 502.717C370.08 504.207 369.99 505.557 369.88 506.837V506.867L371.26 506.987L371.27 506.957C371.38 505.617 371.47 504.217 371.54 502.787L371.55 502.757L370.16 502.687V502.717Z" fill="#254059"/>
<path d="M370.37 494.437C370.36 495.817 370.34 497.207 370.31 498.577V498.607L371.7 498.637V498.607C371.73 497.247 371.76 495.837 371.76 494.437V494.408L370.37 494.397V494.437Z" fill="#254059"/>
<path d="M366.69 365.597L368.03 365.497V365.467C367.91 363.947 367.79 362.587 367.68 361.307V361.277L366.34 361.397L366.31 361.407V361.437C366.42 362.707 366.54 364.057 366.66 365.547L366.42 365.607H366.69V365.597Z" fill="#254059"/>
<path d="M367.3 357.157C367.16 355.717 367.02 354.317 366.88 353.017L366.87 352.987L365.49 353.137L365.5 353.167C365.63 354.397 365.76 355.707 365.92 357.297L365.93 357.327L367.31 357.197L367.3 357.157Z" fill="#254059"/>
<path d="M367.9 518.987C367.51 520.397 367.05 521.677 366.56 522.787H366.41L367.8 523.397L367.81 523.367C368.34 522.187 368.81 520.837 369.23 519.367L369.24 519.337L367.91 518.967L367.9 518.987Z" fill="#254059"/>
<path d="M338.19 291.487L338.97 290.337L338.94 290.327C337.8 289.547 336.61 288.787 335.4 288.067L335.39 288.057L334.66 289.237L334.69 289.257C335.86 289.947 337.03 290.687 338.15 291.467L338.19 291.487Z" fill="#254059"/>
<path d="M363.34 336.687C363.56 338.037 363.78 339.417 363.97 340.787L363.98 340.817L365.35 340.627L365.34 340.597C365.13 339.117 364.92 337.767 364.71 336.467L364.7 336.437L363.33 336.657L363.34 336.687Z" fill="#254059"/>
<path d="M364.53 344.907C364.7 346.207 364.86 347.557 365.04 349.027L365.05 349.057L366.43 348.897L366.42 348.867C366.25 347.397 366.08 346.057 365.91 344.757L366.15 344.697H365.87L364.57 344.867L364.53 344.907Z" fill="#254059"/>
<path d="M323.58 283.987L324.06 282.687L324.03 282.677C322.71 282.197 321.37 281.737 320.05 281.347L320.02 281.337L319.62 282.667L319.65 282.677C320.95 283.067 322.26 283.507 323.56 283.987H323.58Z" fill="#254059"/>
<path d="M361.83 328.537C362.09 329.797 362.36 331.147 362.63 332.567L362.39 332.627H362.68L364.01 332.387L364 332.357C363.74 330.947 363.47 329.557 363.18 328.247L363.15 328.257V328.287L363.14 328.227L361.82 328.507L361.83 328.537Z" fill="#254059"/>
<path d="M366.97 369.677L366.98 369.707C367.08 371.077 367.18 372.467 367.27 373.857V373.887L368.66 373.787V373.757C368.56 372.377 368.47 370.987 368.36 369.597V369.567L366.97 369.677Z" fill="#254059"/>
<path d="M367.53 377.967V377.997C367.61 379.277 367.69 380.637 367.78 382.147V382.187L369.17 382.107V382.077C369.08 380.517 369 379.157 368.92 377.917V377.887L367.53 377.967Z" fill="#254059"/>
<path d="M331.13 287.277L331.77 286.027H331.72C330.49 285.407 329.22 284.797 327.93 284.237L327.9 284.227L327.35 285.497L327.38 285.507C328.64 286.057 329.89 286.647 331.1 287.267L331.13 287.277Z" fill="#254059"/>
<path d="M368.01 386.277V386.307C368.08 387.667 368.16 389.057 368.22 390.447L368.23 390.477L369.61 390.417V390.387C369.55 389.017 369.47 387.627 369.4 386.237V386.207L368.01 386.277Z" fill="#254059"/>
<path d="M325.39 536.747C323.96 536.957 322.61 537.157 321.28 537.347H321.25L321.43 538.687L321.47 538.717C322.74 538.537 324.1 538.347 325.59 538.117L325.62 538.107L325.42 536.747H325.39Z" fill="#254059"/>
<path d="M341.75 533.977C340.48 534.227 339.11 534.487 337.67 534.737L337.64 534.747L337.88 536.077L337.91 536.107H337.92C339.3 535.857 340.68 535.597 342.01 535.347L342.04 535.337L341.78 533.977H341.75Z" fill="#254059"/>
<path d="M342.33 292.817L342.3 292.797L341.44 293.877L341.47 293.907C342.54 294.757 343.59 295.647 344.59 296.567L344.62 296.587L345.56 295.567L345.53 295.537C344.5 294.587 343.42 293.677 342.33 292.817Z" fill="#254059"/>
<path d="M333.59 535.487L333.58 535.458C332.23 535.678 330.85 535.907 329.48 536.117L329.45 536.128L329.66 537.458H329.69V537.487C331.08 537.277 332.47 537.048 333.8 536.828L333.83 536.818L333.62 535.497H333.59V535.487Z" fill="#254059"/>
<path d="M209.13 401.087C209.41 399.677 209.68 398.347 209.96 397.017L209.97 396.987L208.61 396.707L208.6 396.737C208.32 398.067 208.05 399.437 207.77 400.827L207.76 400.857L209.12 401.127L209.13 401.087Z" fill="#254059"/>
<path d="M204.01 433.877C204.11 432.457 204.23 431.067 204.35 429.747L204.36 429.717L202.98 429.587L202.97 429.617C202.85 430.977 202.73 432.377 202.62 433.777V433.807L204 433.908L204.01 433.877Z" fill="#254059"/>
<path d="M203.26 450.447C203.29 449.097 203.33 447.707 203.37 446.297L203.38 446.267L202.02 446.227L201.99 446.257C201.95 447.667 201.91 449.067 201.88 450.417V450.447L203.27 450.477V450.447H203.26Z" fill="#254059"/>
<path d="M203.53 442.158C203.6 440.618 203.67 439.257 203.74 438.007L202.36 437.897L202.35 437.927C202.28 439.217 202.21 440.577 202.14 442.087V442.117L203.53 442.177V442.158Z" fill="#254059"/>
<path d="M203.22 467.087V467.057V467.027C203.19 465.557 203.18 464.207 203.17 462.917L201.78 462.887V462.917C201.79 464.217 201.81 465.577 201.83 467.077V467.107L203.22 467.087Z" fill="#254059"/>
<path d="M203.16 458.747C203.16 457.357 203.17 455.968 203.19 454.598V454.567L201.8 454.557V454.587C201.79 455.907 201.77 457.307 201.77 458.747V458.777L203.16 458.787V458.747Z" fill="#254059"/>
<path d="M205.34 500.147C205.16 498.817 205 497.427 204.85 496.037L204.84 496.007L203.47 496.158V496.187C203.62 497.577 203.79 498.967 203.96 500.327L203.97 500.357L205.34 500.177V500.147Z" fill="#254059"/>
<path d="M203.83 483.677L203.82 483.647C203.74 482.257 203.67 480.867 203.6 479.507V479.477L202.25 479.537V479.567H202.22C202.28 480.917 202.36 482.317 202.44 483.727V483.757L203.83 483.677Z" fill="#254059"/>
<path d="M204.44 491.908C204.33 490.638 204.22 489.287 204.11 487.777V487.747L202.72 487.848L202.73 487.877C202.83 489.297 202.94 490.697 203.06 492.037L203.07 492.067L204.45 491.947L204.44 491.908Z" fill="#254059"/>
<path d="M207.59 409.287L207.6 409.257C207.86 407.787 208.11 406.447 208.35 405.167L208.36 405.137L207 404.877L206.99 404.908C206.74 406.248 206.48 407.627 206.23 409.007L206.22 409.037L207.56 409.277H207.59V409.287Z" fill="#254059"/>
<path d="M204.8 425.637C204.99 424.117 205.2 422.758 205.42 421.598L205.43 421.537L204.07 421.277L204.06 421.337C203.84 422.517 203.62 423.907 203.43 425.467L203.42 425.497L204.79 425.667L204.8 425.637Z" fill="#254059"/>
<path d="M232.61 330.507C233.28 329.287 233.97 328.077 234.65 326.917L234.67 326.887L233.48 326.177L233.46 326.207C232.75 327.417 232.05 328.637 231.4 329.847L231.39 329.877L232.6 330.547L232.61 330.507Z" fill="#254059"/>
<path d="M217.04 368.837C217.42 367.567 217.82 366.277 218.27 364.877L218.28 364.847L216.96 364.427L216.95 364.457C216.51 365.817 216.1 367.167 215.72 368.437L215.71 368.467L217.03 368.867L217.04 368.837Z" fill="#254059"/>
<path d="M255.47 301.417L254.56 300.377L254.53 300.407C253.5 301.317 252.46 302.267 251.45 303.227L251.43 303.257L252.39 304.257L252.41 304.237C253.41 303.287 254.43 302.347 255.46 301.447L255.47 301.417Z" fill="#254059"/>
<path d="M206.15 417.457C206.23 416.987 206.32 416.497 206.41 415.997C206.56 415.167 206.71 414.277 206.87 413.357V413.327L205.51 413.087L205.5 413.117C205.29 414.327 205.1 415.457 204.91 416.507L204.79 417.257L206.15 417.497V417.457V417.457Z" fill="#254059"/>
<path d="M206.66 508.307C206.4 507.017 206.15 505.647 205.93 504.237L205.92 504.207L204.55 504.417L204.56 504.447C204.8 505.927 205.05 507.307 205.3 508.567L205.31 508.598L206.67 508.317L206.66 508.307Z" fill="#254059"/>
<path d="M212.69 384.857C213.04 383.427 213.37 382.107 213.7 380.837L213.71 380.807L212.37 380.457L212.36 380.487C212.01 381.877 211.67 383.237 211.35 384.527L211.34 384.557L212.68 384.887L212.69 384.857Z" fill="#254059"/>
<path d="M225.42 345.437C225.95 344.167 226.51 342.897 227.08 341.637L227.09 341.607L225.86 341.047H225.85L225.81 341.067C225.26 342.297 224.69 343.587 224.14 344.887L224.13 344.917L225.4 345.457L225.42 345.437Z" fill="#254059"/>
<path d="M237.93 319.147C237.15 320.287 236.39 321.457 235.64 322.637L235.62 322.667L236.79 323.407L236.8 323.377C237.55 322.207 238.31 321.047 239.07 319.927L239.09 319.897L237.95 319.117L237.93 319.147Z" fill="#254059"/>
<path d="M243.4 544.177C241.97 544.247 240.56 544.258 239.3 544.218H239.27L239.23 545.607H239.26C239.74 545.617 240.24 545.628 240.76 545.628C241.64 545.628 242.55 545.608 243.46 545.568L243.49 545.557L243.43 544.177H243.4Z" fill="#254059"/>
<path d="M208.01 513.817C207.86 513.327 207.73 512.817 207.59 512.317L207.58 512.287L206.24 512.637L206.25 512.667C206.4 513.237 206.54 513.737 206.69 514.207C206.94 515.057 207.2 515.887 207.46 516.677L207.47 516.707L208.79 516.277L208.78 516.247C208.52 515.467 208.26 514.637 208.01 513.817Z" fill="#254059"/>
<path d="M223.86 539.887L223.83 539.877L223.1 541.017L223.09 541.027L223.1 541.067C224.29 541.827 225.55 542.497 226.86 543.067L226.89 543.077L227.44 541.807L227.41 541.797C226.18 541.257 224.98 540.617 223.86 539.887Z" fill="#254059"/>
<path d="M229.48 333.517L229.44 333.537C228.81 334.767 228.19 336.027 227.58 337.287L227.57 337.317L228.82 337.917L228.83 337.887C229.45 336.617 230.07 335.357 230.67 334.177L230.69 334.147L229.48 333.517Z" fill="#254059"/>
<path d="M250.93 543.718C249.31 543.818 247.92 543.907 246.77 543.977H246.74L246.82 545.367L247.31 545.338C248.36 545.268 249.6 545.188 251.01 545.098H251.04L250.95 543.708L250.93 543.718Z" fill="#254059"/>
<path d="M242.92 312.427C242.05 313.507 241.19 314.627 240.36 315.737L240.34 315.767L241.43 316.567L241.45 316.577H241.56L241.5 316.537C242.35 315.397 243.18 314.317 244.01 313.307L244.03 313.277L242.95 312.407L242.92 312.427Z" fill="#254059"/>
<path d="M249.49 307.107L248.5 306.137L248.47 306.167C247.51 307.157 246.54 308.187 245.62 309.237L245.6 309.267L246.63 310.187L246.66 310.157C247.56 309.127 248.5 308.117 249.46 307.127L249.49 307.107Z" fill="#254059"/>
<path d="M235.2 543.888C233.83 543.698 232.5 543.437 231.25 543.107L231.22 543.098L230.86 544.438L230.89 544.448C232.21 544.798 233.61 545.078 235.05 545.268L235.08 545.278L235.27 543.908L235.26 543.667L235.2 543.888Z" fill="#254059"/>
<path d="M210.43 388.567H210.22L210.38 388.627C210.1 389.877 209.8 391.197 209.47 392.667L209.46 392.697L210.82 392.987L210.83 392.957C211.11 391.647 211.42 390.287 211.73 388.927H212.01L210.43 388.567Z" fill="#254059"/>
<path d="M210.12 520.167L210.11 520.137L208.84 520.607L208.82 520.617V520.647C209.33 522.017 209.85 523.327 210.38 524.537L210.39 524.567L211.66 524.017L211.65 523.987C211.13 522.777 210.61 521.487 210.12 520.167Z" fill="#254059"/>
<path d="M223.85 349.237L222.56 348.717L222.55 348.747C222.04 350.017 221.54 351.327 221.05 352.637L221.04 352.667L222.34 353.157L222.35 353.127C222.86 351.767 223.35 350.497 223.85 349.267V349.237Z" fill="#254059"/>
<path d="M213.41 527.687L213.39 527.657L212.16 528.297L212.17 528.327C212.84 529.617 213.56 530.837 214.29 531.977L214.33 531.987L215.47 531.247L215.45 531.217C214.76 530.137 214.07 528.947 213.41 527.687Z" fill="#254059"/>
<path d="M217.87 534.507L217.84 534.477L216.77 535.367L216.8 535.397C217.73 536.517 218.71 537.547 219.73 538.467L219.76 538.497L220.69 537.467L220.66 537.447C219.68 536.557 218.75 535.567 217.87 534.507Z" fill="#254059"/>
<path d="M219.61 356.557C219.17 357.787 218.72 359.067 218.25 360.467H218.24L218.23 360.537L219.55 360.977V360.937C219.99 359.617 220.45 358.307 220.91 357.027L220.92 356.997L219.62 356.537L219.61 356.557Z" fill="#254059"/>
<path d="M214.53 372.437C214.17 373.717 213.8 375.027 213.41 376.457L213.4 376.487L214.74 376.847L214.75 376.817C215.09 375.547 215.46 374.207 215.86 372.817L215.87 372.787L214.54 372.407L214.53 372.437Z" fill="#254059"/>
<path d="M172.64 441.587C172.81 440.177 172.99 438.797 173.17 437.477L173.18 437.447L171.81 437.257L171.8 437.287C171.62 438.627 171.44 440.017 171.27 441.417L171.26 441.447L172.64 441.617V441.587V441.587Z" fill="#254059"/>
<path d="M177.82 510.447L177.81 510.417L176.6 511.037L176.59 511.047V511.127L176.61 511.117C177.24 512.347 177.91 513.567 178.61 514.767L178.63 514.797L179.79 514.107L179.8 514.098V514.017L179.78 514.027C179.11 512.867 178.44 511.667 177.82 510.447Z" fill="#254059"/>
<path d="M181.99 517.547L181.97 517.517L180.82 518.287L180.84 518.317C181.63 519.497 182.45 520.627 183.28 521.697L183.22 521.737H183.34L184.42 520.908L184.39 520.877C183.57 519.807 182.76 518.687 181.99 517.547Z" fill="#254059"/>
<path d="M171.95 495.098L171.94 495.067L170.6 495.417L170.61 495.447C170.96 496.777 171.35 498.137 171.78 499.477L171.79 499.507L173.11 499.087L173.1 499.057C172.68 497.747 172.29 496.418 171.95 495.098Z" fill="#254059"/>
<path d="M184.28 397.767C183.4 398.887 182.57 400.027 181.82 401.197L181.8 401.227L182.97 401.987L182.98 401.957C183.7 400.837 184.5 399.727 185.36 398.637L185.38 398.607L184.29 397.747L184.28 397.767Z" fill="#254059"/>
<path d="M174.47 502.927L174.46 502.897L173.16 503.387L173.17 503.417C173.67 504.717 174.21 506.017 174.78 507.297L174.79 507.327L176.05 506.767L176.04 506.737C175.48 505.487 174.95 504.207 174.47 502.927Z" fill="#254059"/>
<path d="M194.12 389.997C195.19 389.157 196.3 388.337 197.43 387.557L197.46 387.537L196.68 386.397L196.65 386.417C195.49 387.217 194.35 388.047 193.26 388.907L193.23 388.927L194.09 390.017L194.12 389.997Z" fill="#254059"/>
<path d="M199.76 534.218L199.73 534.208L199.08 535.427L199.11 535.438C200.38 536.127 201.67 536.727 202.95 537.227L202.98 537.237L203.49 535.948L203.46 535.938C202.23 535.458 200.99 534.878 199.76 534.218Z" fill="#254059"/>
<path d="M187.98 525.037C187.65 524.697 187.34 524.357 187.03 524.017L187.01 523.997L185.98 524.927L186 524.947C186.3 525.287 186.62 525.637 186.97 525.997C187.62 526.677 188.28 527.337 188.94 527.967L188.97 527.987L189.93 526.987L189.9 526.957C189.25 526.347 188.61 525.707 187.98 525.037Z" fill="#254059"/>
<path d="M192.97 529.667L192.94 529.647L192.07 530.717L192.1 530.737C193.2 531.637 194.34 532.477 195.49 533.247L195.52 533.257L196.31 532.087H196.25C195.15 531.357 194.05 530.537 192.97 529.667Z" fill="#254059"/>
<path d="M190.04 391.617C188.99 392.577 187.98 393.567 187.03 394.567L187.01 394.597L188.02 395.547L188.04 395.517C188.96 394.537 189.94 393.577 190.97 392.647L191 392.627L190.06 391.597L190.04 391.617Z" fill="#254059"/>
<path d="M171.03 491.087C170.76 489.737 170.54 488.367 170.36 487.027L170.35 486.997L168.98 487.187L168.99 487.217C169.16 488.557 169.4 489.957 169.68 491.357L169.69 491.387L171.05 491.117L171.03 491.087Z" fill="#254059"/>
<path d="M175.14 425.187C175.41 423.777 175.69 422.417 175.96 421.127L175.97 421.098L174.62 420.807L174.61 420.837C174.33 422.127 174.05 423.507 173.78 424.927L173.77 424.957L175.13 425.217L175.14 425.187Z" fill="#254059"/>
<path d="M176.92 417.098C177.27 415.698 177.64 414.357 178.01 413.117L178.02 413.087L176.69 412.687L176.68 412.717C176.29 413.997 175.92 415.357 175.56 416.767L175.55 416.797L176.89 417.137L176.92 417.098Z" fill="#254059"/>
<path d="M179.32 409.217C179.48 408.817 179.62 408.457 179.75 408.127C180.11 407.247 180.51 406.357 180.96 405.477L180.97 405.447L179.74 404.827L179.72 404.857C179.27 405.747 178.85 406.678 178.47 407.598C178.32 407.978 178.17 408.357 178.03 408.737L178.02 408.767L179.32 409.247V409.217Z" fill="#254059"/>
<path d="M173.76 433.357C173.98 431.907 174.2 430.557 174.41 429.267L174.42 429.237L173.09 429.017L173.07 429.007L173.02 429.067L173.05 429.077C172.82 430.427 172.6 431.807 172.39 433.167V433.197L173.75 433.397L173.76 433.357Z" fill="#254059"/>
<path d="M169.96 482.937C169.88 481.787 169.85 480.637 169.85 479.527C169.85 479.307 169.85 479.087 169.85 478.857L169.91 478.807L168.47 478.797V478.827C168.47 479.057 168.47 479.287 168.47 479.527C168.47 480.677 168.5 481.857 168.58 483.027V483.067L169.97 482.977V482.937H169.96Z" fill="#254059"/>
<path d="M169.98 474.707C170.04 473.407 170.1 472.017 170.17 470.557L170.18 470.527L168.79 470.447V470.477C168.71 471.857 168.65 473.247 168.6 474.617L169.98 474.737V474.707Z" fill="#254059"/>
<path d="M170.41 466.408C170.5 465.018 170.59 463.627 170.69 462.257V462.227L169.31 462.127L169.3 462.158C169.2 463.508 169.12 464.877 169.03 466.317L169.02 466.348L170.41 466.427V466.408Z" fill="#254059"/>
<path d="M171 458.117C171.1 456.777 171.22 455.377 171.35 453.987V453.957L169.97 453.837V453.867C169.85 455.177 169.73 456.537 169.62 458.027V458.057L171 458.158V458.117Z" fill="#254059"/>
<path d="M171.74 449.848C171.87 448.488 172.02 447.097 172.17 445.707L172.18 445.677L170.84 445.527L170.8 445.517V445.557C170.65 446.877 170.51 448.277 170.37 449.697L170.36 449.727L171.74 449.867V449.848Z" fill="#254059"/>
<path d="M282.87 1097.13L253.92 1097.12C253.92 1097.12 233.74 1122.44 237.21 1126.9C240.68 1131.37 329.02 1126.9 329.02 1126.9L282.87 1097.13Z" fill="#D0AE89"/>
<path d="M329.9 1125.41C314.52 1115.48 299.13 1105.56 283.75 1095.63C281.87 1094.42 280.13 1097.41 282 1098.62C283.37 1099.5 284.73 1100.38 286.1 1101.27C283.32 1102.63 280.78 1104.37 278.52 1106.54C276.91 1108.09 279.36 1110.53 280.97 1108.99C283.32 1106.73 286.03 1104.92 289.05 1103.69C289.21 1103.62 289.35 1103.54 289.48 1103.44C291.08 1104.47 292.67 1105.5 294.27 1106.53C291.89 1107.76 289.7 1109.29 287.69 1111.09C286.03 1112.58 288.49 1115.03 290.14 1113.54C292.38 1111.52 294.91 1109.94 297.67 1108.73C299.21 1109.73 300.76 1110.72 302.3 1111.72C300.42 1112.78 298.58 1113.9 296.78 1115.11C294.94 1116.35 296.67 1119.35 298.53 1118.1C300.82 1116.56 303.18 1115.15 305.61 1113.86C311.59 1117.72 317.57 1121.58 323.55 1125.44C309.81 1126.09 296.06 1126.59 282.31 1126.91C271.67 1127.16 261.01 1127.36 250.37 1126.99C247.17 1126.88 243.91 1126.8 240.74 1126.28C240.12 1126.18 238.76 1125.94 238.54 1125.77C238.54 1125.75 238.55 1125.73 238.54 1125.69C238.42 1124.85 238.81 1123.89 239.08 1123.12C241.01 1117.51 244.91 1112.34 248.3 1107.54C250.5 1104.43 252.77 1101.35 255.14 1098.37C256.51 1096.64 254.08 1094.18 252.69 1095.92C247 1103.07 241.19 1110.64 237.17 1118.87C235.96 1121.36 233.55 1126.09 236.3 1128.42C237.92 1129.79 240.89 1129.81 242.86 1130.01C252.68 1130.99 262.69 1130.7 272.53 1130.56C284.5 1130.39 296.46 1130.01 308.42 1129.55C315.29 1129.28 322.15 1129 329.01 1128.65C330.75 1128.55 331.36 1126.36 329.9 1125.41Z" fill="#254059"/>
<path d="M380.25 1086.34L351.3 1086.33C351.3 1086.33 331.12 1111.65 334.59 1116.11C338.06 1120.58 426.4 1116.11 426.4 1116.11L380.25 1086.34Z" fill="#D0AE89"/>
<path d="M427.27 1114.62C411.89 1104.69 396.5 1094.77 381.12 1084.84C379.24 1083.63 377.5 1086.62 379.37 1087.83C380.74 1088.71 382.1 1089.59 383.47 1090.48C380.69 1091.84 378.15 1093.58 375.89 1095.75C374.28 1097.3 376.73 1099.74 378.34 1098.2C380.69 1095.94 383.4 1094.13 386.42 1092.9C386.58 1092.83 386.72 1092.75 386.85 1092.65C388.45 1093.68 390.04 1094.71 391.64 1095.74C389.26 1096.97 387.07 1098.5 385.06 1100.3C383.4 1101.79 385.86 1104.24 387.51 1102.75C389.75 1100.73 392.28 1099.15 395.04 1097.94C396.58 1098.94 398.13 1099.93 399.67 1100.93C397.79 1101.99 395.95 1103.11 394.15 1104.32C392.31 1105.56 394.04 1108.56 395.9 1107.31C398.19 1105.77 400.55 1104.36 402.98 1103.07C408.96 1106.93 414.94 1110.79 420.92 1114.65C407.18 1115.3 393.43 1115.8 379.68 1116.12C369.04 1116.37 358.38 1116.57 347.74 1116.2C344.54 1116.09 341.28 1116.01 338.11 1115.49C337.49 1115.39 336.13 1115.15 335.91 1114.98C335.91 1114.96 335.92 1114.94 335.91 1114.9C335.79 1114.06 336.18 1113.1 336.45 1112.33C338.38 1106.72 342.28 1101.55 345.67 1096.75C347.87 1093.64 350.14 1090.56 352.51 1087.58C353.88 1085.85 351.45 1083.39 350.06 1085.13C344.37 1092.28 338.56 1099.85 334.54 1108.08C333.33 1110.57 330.92 1115.3 333.67 1117.63C335.29 1119 338.26 1119.02 340.23 1119.22C350.05 1120.2 360.05 1119.91 369.9 1119.77C381.87 1119.6 393.83 1119.22 405.79 1118.76C412.66 1118.49 419.52 1118.21 426.38 1117.86C428.13 1117.76 428.74 1115.56 427.27 1114.62Z" fill="#254059"/>
<path d="M252.48 630.718L253.92 1097.13H286.13L348.19 696.948L348.52 1086.06H383.74L434.85 635.138" fill="#7C8C9B"/>
<path d="M263.37 1096.59C263.51 1081.21 263.65 1065.82 263.78 1050.44C264.11 1013.63 264.44 976.817 264.77 940.007C265.17 895.507 265.57 850.998 265.97 806.498C266.32 767.958 266.66 729.418 267.01 690.878C267.12 678.308 267.24 665.737 267.35 653.167C267.4 647.227 268 640.988 267.51 635.058C267.49 634.798 267.51 634.538 267.52 634.278C267.53 633.168 265.8 633.158 265.79 634.278C265.65 649.658 265.51 665.048 265.38 680.428C265.05 717.238 264.72 754.047 264.39 790.857C263.99 835.357 263.59 879.868 263.19 924.368C262.84 962.908 262.5 1001.45 262.15 1039.99C262.04 1052.56 261.92 1065.13 261.81 1077.7C261.76 1083.64 261.16 1089.88 261.65 1095.81C261.67 1096.07 261.65 1096.33 261.64 1096.59C261.63 1097.7 263.36 1097.7 263.37 1096.59Z" fill="#254059"/>
<path d="M363.11 1085.16C363.11 1073.38 363.06 1061.6 363 1049.82C362.86 1021.12 362.61 992.428 362.25 963.728C361.8 928.078 361.19 892.428 360.24 856.778C359.38 824.128 358.32 791.467 356.35 758.857C355.62 746.837 354.79 734.808 353.53 722.828C352.72 715.158 351.95 707.308 349.98 699.828C349.7 698.778 349.4 697.728 349.01 696.708C348.62 695.678 346.95 696.117 347.34 697.167C349.63 703.247 350.29 710.078 351.07 716.468C352.44 727.648 353.3 738.887 354.06 750.127C356.17 781.567 357.26 813.088 358.16 844.588C359.19 880.388 359.86 916.197 360.35 952.017C360.76 981.847 361.04 1011.68 361.21 1041.52C361.27 1051.28 361.31 1061.05 361.34 1070.81C361.35 1075.22 360.7 1080.21 361.37 1084.58C361.4 1084.76 361.37 1084.97 361.37 1085.16C361.38 1086.28 363.11 1086.28 363.11 1085.16Z" fill="#254059"/>
<path d="M347.94 644.848C347.75 659.578 347.55 674.318 347.36 689.048C347.33 691.278 350.79 691.278 350.82 689.048C351.01 674.318 351.21 659.578 351.4 644.848C351.43 642.618 347.97 642.618 347.94 644.848Z" fill="#254059"/>
<path d="M353.79 686.357C358.5 682.697 366.06 680.677 367.45 674.107C368.33 669.967 367.74 665.148 367.77 660.938C367.81 655.438 367.86 649.948 367.9 644.448C367.91 643.338 366.18 643.328 366.17 644.448C366.1 653.478 366.49 662.648 365.95 671.658C365.5 679.208 357.74 681.108 352.56 685.118C351.69 685.818 352.92 687.037 353.79 686.357Z" fill="#254059"/>
<path d="M332.21 691.968C337.51 693.328 342.41 695.468 347.02 698.408C348.9 699.608 350.64 696.617 348.77 695.417C343.93 692.327 338.69 690.057 333.13 688.627C330.97 688.067 330.05 691.408 332.21 691.968Z" fill="#254059"/>
<path d="M348.05 698.677C357.46 693.647 367.4 689.897 377.79 687.427C379.96 686.907 379.04 683.567 376.87 684.087C366.2 686.617 355.97 690.517 346.31 695.687C344.33 696.737 346.08 699.727 348.05 698.677Z" fill="#254059"/>
<path d="M433.12 635.138C431.42 650.098 429.73 665.058 428.03 680.028C423.96 715.958 419.89 751.878 415.81 787.808C410.89 831.258 405.96 874.707 401.04 918.167C396.79 955.707 392.53 993.237 388.28 1030.78C386.88 1043.13 385.48 1055.48 384.08 1067.83C383.65 1071.67 383.21 1075.5 382.78 1079.34C382.6 1080.9 382.17 1082.68 382.1 1084.33C375.77 1084.33 369.44 1084.33 363.11 1084.33C363.11 1072.83 363.06 1061.33 363 1049.83C362.86 1021.13 362.61 992.438 362.25 963.738C361.8 928.088 361.19 892.437 360.24 856.787C359.38 824.137 358.32 791.478 356.35 758.868C355.62 746.848 354.79 734.818 353.53 722.838C352.73 715.238 351.96 707.457 350.03 700.037C350.01 699.257 349.97 698.488 349.92 697.708C358.77 693.168 368.08 689.728 377.78 687.428C379.95 686.908 379.03 683.568 376.86 684.088C366.77 686.488 357.08 690.108 347.88 694.868C343.29 692.058 338.35 689.968 333.13 688.618C330.97 688.058 330.05 691.398 332.21 691.958C336.93 693.168 341.33 695.008 345.5 697.468C345.61 697.878 345.86 698.268 346.2 698.528C344.24 711.158 342.28 723.778 340.33 736.408C335.38 768.348 330.42 800.298 325.47 832.238C319.5 870.738 313.53 909.238 307.56 947.738C302.4 980.998 297.24 1014.26 292.09 1047.52C290.4 1058.43 288.71 1069.34 287.01 1080.25C286.48 1083.69 285.94 1087.14 285.41 1090.58C285.19 1092.01 284.59 1093.85 284.56 1095.39C277.51 1095.39 270.45 1095.39 263.4 1095.39C263.53 1080.41 263.67 1065.42 263.8 1050.44C264.13 1013.63 264.46 976.817 264.79 940.007C265.19 895.507 265.59 850.998 265.99 806.498C266.34 767.958 266.68 729.418 267.03 690.878C267.14 678.308 267.26 665.737 267.37 653.167C267.42 647.227 268.02 640.988 267.53 635.058C267.51 634.798 267.53 634.538 267.54 634.278C267.55 633.168 265.82 633.158 265.81 634.278C265.67 649.658 265.53 665.048 265.4 680.428C265.07 717.238 264.74 754.047 264.41 790.857C264.01 835.357 263.61 879.868 263.21 924.368C262.86 962.908 262.52 1001.45 262.17 1039.99C262.06 1052.56 261.94 1065.13 261.83 1077.7C261.78 1083.51 261.21 1089.59 261.64 1095.4C259.65 1095.4 257.66 1095.4 255.66 1095.4C255.61 1080.42 255.57 1065.45 255.52 1050.47C255.41 1013.37 255.29 976.267 255.18 939.167C255.04 894.327 254.9 849.488 254.76 804.648C254.64 765.708 254.52 726.768 254.4 687.838C254.36 675.138 254.32 662.448 254.28 649.748C254.26 643.688 254.55 637.548 254.22 631.498C254.21 631.238 254.22 630.978 254.22 630.718C254.21 628.488 250.75 628.488 250.76 630.718C250.81 646.268 250.86 661.828 250.9 677.378C251.01 714.478 251.13 751.578 251.24 788.678C251.38 833.518 251.52 878.358 251.66 923.198C251.78 962.138 251.9 1001.08 252.02 1040.01C252.06 1052.71 252.1 1065.4 252.14 1078.1C252.16 1084.16 251.87 1090.3 252.2 1096.35C252.21 1096.61 252.2 1096.87 252.2 1097.13C252.2 1098.07 252.99 1098.86 253.93 1098.86C264.66 1098.86 275.4 1098.86 286.13 1098.86C286.82 1098.86 287.69 1098.33 287.8 1097.59C289.86 1084.28 291.93 1070.97 293.99 1057.67C298.94 1025.73 303.9 993.778 308.85 961.838C314.82 923.338 320.79 884.838 326.76 846.338C331.92 813.078 337.08 779.818 342.23 746.558C343.64 737.448 345.06 728.337 346.47 719.227C346.47 724.767 346.48 730.308 346.48 735.838C346.51 766.718 346.53 797.608 346.56 828.488C346.59 866.058 346.62 903.628 346.66 941.208C346.69 973.498 346.71 1005.78 346.74 1038.07C346.75 1048.78 346.76 1059.49 346.77 1070.2C346.77 1075.22 346.42 1080.4 346.78 1085.41C346.8 1085.62 346.78 1085.84 346.78 1086.06C346.78 1087 347.57 1087.79 348.51 1087.79C360.25 1087.79 371.99 1087.79 383.73 1087.79C384.74 1087.79 385.36 1086.99 385.46 1086.06C387.16 1071.1 388.85 1056.14 390.55 1041.17C394.62 1005.24 398.69 969.317 402.77 933.387C407.69 889.937 412.62 846.488 417.54 803.028C421.79 765.488 426.05 727.957 430.3 690.417C431.7 678.067 433.1 665.718 434.5 653.368C435.15 647.608 436.27 641.698 436.48 635.908C436.49 635.658 436.54 635.398 436.57 635.148C436.83 632.928 433.37 632.948 433.12 635.138ZM354.07 750.138C356.18 781.578 357.27 813.098 358.17 844.598C359.2 880.398 359.87 916.207 360.36 952.027C360.77 981.857 361.05 1011.69 361.22 1041.53C361.28 1051.29 361.32 1061.06 361.35 1070.82C361.36 1075.14 360.74 1080.02 361.35 1084.33C357.65 1084.33 353.95 1084.33 350.25 1084.33C350.24 1071.95 350.23 1059.56 350.22 1047.18C350.19 1016.3 350.17 985.407 350.14 954.527C350.11 916.957 350.08 879.388 350.04 841.808C350.01 809.518 349.99 777.238 349.96 744.948C349.95 734.238 349.94 723.528 349.93 712.818C349.93 711.268 349.96 709.698 350 708.128C350.43 710.938 350.75 713.758 351.09 716.488C352.46 727.668 353.32 738.908 354.07 750.138Z" fill="#254059"/>
<path d="M350.82 689.048C351.01 674.318 351.21 659.578 351.4 644.848C351.43 642.618 347.97 642.618 347.94 644.848C347.75 659.578 347.55 674.318 347.36 689.048C347.33 691.278 350.79 691.278 350.82 689.048Z" fill="#254059"/>
<path d="M353.79 686.357C358.5 682.697 366.06 680.677 367.45 674.107C368.33 669.967 367.74 665.148 367.77 660.938C367.81 655.438 367.86 649.948 367.9 644.448C367.91 643.338 366.18 643.328 366.17 644.448C366.1 653.478 366.49 662.648 365.95 671.658C365.5 679.208 357.74 681.108 352.56 685.118C351.69 685.818 352.92 687.037 353.79 686.357Z" fill="#254059"/>
<path d="M420.67 322.208C478.59 318.448 511.7 310.477 519.33 308.787C534.16 305.517 523.02 269.997 502.24 260.767C479.73 250.767 429.82 260.317 388.4 261.737C388.4 261.737 379.83 271.717 384.8 291.037C389.78 310.347 409.32 321.908 420.67 322.208Z" fill="#89ADD3"/>
<path d="M388.4 263.467C412.16 262.617 435.76 259.417 459.5 258.307C476.39 257.517 497.69 256.047 510.81 268.807C516.59 274.427 520.92 281.807 523.11 289.557C524.46 294.307 526.12 302.917 521.07 306.237C518.44 307.967 514 308.227 510.97 308.867C505.2 310.087 499.41 311.187 493.6 312.187C469.47 316.347 445.08 318.877 420.65 320.487C418.44 320.637 418.42 324.097 420.65 323.947C444.14 322.397 467.6 319.987 490.84 316.147C497.52 315.047 504.17 313.817 510.8 312.437C514.35 311.697 518.75 311.327 522.02 309.677C527.33 306.997 528.25 300.417 527.7 295.087C526.89 287.207 523.49 279.507 518.94 273.077C514.2 266.387 507.97 260.867 500.17 258.097C491.55 255.037 481.99 254.597 472.93 254.537C444.68 254.367 416.61 258.997 388.41 260.007C386.18 260.077 386.17 263.547 388.4 263.467Z" fill="#254059"/>
<path d="M523.36 263.577C508.52 244.207 447.83 195.707 441.25 190.467C440.93 186.337 439.27 182.407 435.57 179.487C430.24 175.277 423.35 173.637 418.56 168.817C413.46 163.687 413.07 159.087 413.11 152.257C413.13 149.567 412.85 146.637 410.2 145.197C407.75 143.867 405.62 144.867 404.81 147.517C404.18 149.567 404.79 152.477 404.85 154.547C405.05 160.717 405.25 166.887 405.45 173.057C402.51 167.287 399.57 161.517 396.63 155.747C395.23 153.007 392.94 145.027 388.42 146.757C382.88 148.887 388.08 158.347 389.36 161.557C391.72 167.517 394.09 173.477 396.45 179.437C392.34 173.897 388.23 168.347 384.11 162.807C382.22 160.257 374.04 150.737 373.39 159.357C373.02 164.167 378.8 170.967 381.09 174.907C384.16 180.177 387.59 185.237 391.36 190.027C384.31 187.047 378.25 181.787 374.25 175.267C372.9 173.057 371.7 168.587 369.12 167.477C365.78 166.037 364.36 168.497 364.59 171.567C364.99 177.077 369.12 183.017 372.03 187.497C375.49 192.827 379.4 198.087 384.03 202.467L384.38 202.497C384.89 203.567 385.59 204.597 386.34 205.447C391.46 211.257 398.57 215.297 406.19 216.707C412.56 217.887 419.24 217.217 425.28 214.877C431.67 222.897 489.07 294.487 508.54 301.797C529.17 309.547 539.05 284.067 523.36 263.577Z" fill="#FFC49C"/>
<path d="M531.87 277.097C529.24 266.277 521.47 258.157 513.8 250.567C505.31 242.167 496.35 234.247 487.32 226.447C472.8 213.907 458 201.677 442.95 189.787C442.72 187.647 442.14 185.547 441.14 183.577C436.09 173.637 422.41 173.537 416.93 163.957C414.3 159.357 415.42 154.507 414.69 149.557C414.16 145.957 411.29 142.157 407.18 142.987C402.73 143.877 402.71 149.087 402.98 152.607C403.31 156.887 403.43 161.187 403.54 165.497C401.15 160.837 398.79 156.157 396.61 151.397C394.93 147.737 391.55 142.827 386.93 145.577C382.67 148.117 384.37 153.917 385.81 157.597C387 160.637 388.22 163.657 389.45 166.677C387.41 163.917 385.29 161.227 382.98 158.767C380.83 156.467 376.15 151.897 373.03 155.297C369.02 159.677 373.86 167.067 376.34 170.807C379.39 175.427 382.29 180.107 385.39 184.667C381.01 181.587 377.26 177.577 374.93 172.777C373.31 169.437 368.9 161.857 364.31 166.617C360.02 171.067 365.17 179.797 367.61 183.817C371.96 190.947 376.79 197.897 382.82 203.707C382.99 203.867 383.16 203.977 383.34 204.057C383.67 204.717 384.06 205.347 384.51 205.927C393.99 218.077 410.81 221.567 424.89 216.787C433.38 227.547 442.14 238.097 451.05 248.517C458.77 257.537 466.58 266.777 474.84 275.547C474.82 282.507 475.66 289.357 477.39 296.097C477.67 297.177 479.34 296.717 479.06 295.637C477.73 290.417 476.94 285.147 476.68 279.797C480.46 289.217 486.73 297.607 494.24 304.377C495.07 305.127 496.29 303.897 495.46 303.157C488.12 296.527 481.96 288.337 478.27 279.127C484.28 285.307 490.54 291.197 497.19 296.547C503.56 301.667 511.12 306.557 519.73 304.507C531.67 301.657 534.37 287.427 531.87 277.097ZM523.48 298.927C515.79 304.937 506.42 299.497 500.02 294.417C483.73 281.497 469.89 265.087 456.36 249.407C446.76 238.287 437.35 226.987 428.23 215.467C428.7 215.257 429.16 215.037 429.62 214.807C431.61 213.807 429.86 210.817 427.87 211.817C415.04 218.267 399.32 216.057 389.08 205.847C386.9 203.667 382.6 197.857 388.36 197.127C391.06 196.787 394.94 200.247 397.46 201.287C403.17 203.657 409.42 203.927 415.39 202.417C417.55 201.867 416.63 198.527 414.47 199.077C409.65 200.297 404.67 200.197 399.95 198.557C396.17 197.247 392.9 193.987 388.8 193.707C384.78 193.427 382.78 195.497 382.31 198.207C378.83 194.357 375.81 190.157 372.96 185.787C371.32 183.267 369.64 180.747 368.33 178.037C367.61 176.537 364.28 167.897 368.21 169.167C370.46 169.897 371.26 173.317 372.25 175.227C373.4 177.437 374.95 179.467 376.57 181.347C380.38 185.757 385.16 189.187 390.48 191.537C392.32 192.347 393.81 190.397 392.58 188.817C388.59 183.697 385.29 178.237 381.8 172.787C379.47 169.147 374.1 163.497 375.21 158.817C375.76 156.497 377.62 158.487 378.83 159.567C380.07 160.677 381.19 161.927 382.23 163.217C386.67 168.747 390.72 174.637 394.95 180.327C396.01 181.747 398.9 180.977 398.11 178.997C395.64 172.757 393.29 166.447 390.66 160.277C389.54 157.637 386.17 152.067 387.96 149.267C390.63 145.087 394.11 154.487 394.9 156.187C397.71 162.197 400.93 168.037 403.93 173.947C404.71 175.477 407.21 174.757 407.16 173.077C406.99 167.787 406.81 162.497 406.64 157.207C406.57 154.977 406.27 152.737 406.24 150.507C406.22 149.037 406.15 145.587 409.29 146.707C410.75 147.227 411.13 149.187 411.29 150.467C411.75 154.067 411.19 157.657 412.09 161.237C412.94 164.627 414.84 167.607 417.3 170.067C423.15 175.917 433.42 177.187 437.7 184.567C441.54 191.187 439.01 199.817 435.22 205.857C434.03 207.747 437.03 209.487 438.21 207.607C440.65 203.707 442.5 198.987 442.94 194.227C453.67 202.757 464.27 211.467 474.74 220.307C483.88 228.017 492.94 235.837 501.74 243.937C508.59 250.237 515.64 256.657 521.43 263.967C528.47 272.797 534.4 290.397 523.48 298.927Z" fill="#254059"/>
<path d="M411.08 175.237C404.55 178.867 399.68 184.487 396.94 191.427C396.53 192.467 398.2 192.917 398.61 191.887C401.19 185.377 405.85 180.127 411.96 176.737C412.93 176.187 412.06 174.697 411.08 175.237Z" fill="#254059"/>
<path d="M390.96 261.227C390.96 261.227 415.68 249.247 421.31 335.247C421.31 335.247 432.67 316.127 424.29 284.977C414.14 247.257 390.96 261.227 390.96 261.227Z" fill="#079DB2"/>
<path d="M427.55 291.437C424.85 277.207 417.4 255.607 399.22 257.027C396.11 257.267 392.79 258.117 390.09 259.727C389.08 260.207 389.02 261.197 389.46 261.947C389.85 262.757 390.78 263.297 391.77 262.747C391.85 262.717 391.96 262.677 392.09 262.657C393.04 262.437 392.82 262.427 393.54 262.407C395.44 262.337 397.12 262.787 398.93 263.877C408.04 269.347 411.45 283.067 413.74 292.517C417.14 306.507 418.62 320.917 419.58 335.257C419.69 336.917 421.9 337.677 422.81 336.127C430.36 323.267 430.22 305.517 427.55 291.437ZM391.77 262.747C391.53 262.857 391.58 262.817 391.77 262.747V262.747ZM424.28 321.337C423.81 323.597 423.26 325.927 422.52 328.197C421.59 316.817 420.21 305.447 417.72 294.307C415.97 286.457 413.69 278.507 409.82 271.407C407.57 267.287 404.27 262.757 399.93 260.457C403.92 260.367 407.94 261.637 411.07 264.177C418.59 270.267 421.73 280.847 423.71 289.907C425.95 300.177 426.42 310.987 424.28 321.337Z" fill="#254059"/>
<path d="M358.64 264.457C358.64 264.457 392.35 258.917 399.28 262.607C406.21 266.297 411.29 271.847 416.83 294.467L420.4 322.277L442.97 628.417C442.97 628.417 428.18 644.497 357.37 644.497C301.3 644.497 244.68 627.707 244.68 627.707C241.23 611.597 246.25 376.397 267.2 330.487C293.21 273.537 358.64 264.457 358.64 264.457Z" fill="#89ADD3"/>
<path d="M444.41 624.487C443.45 611.417 442.48 598.347 441.52 585.287C439.87 562.967 438.23 540.657 436.58 518.337C434.69 492.697 432.8 467.057 430.91 441.427C429.22 418.487 427.53 395.547 425.84 372.607C424.77 358.067 423.7 343.527 422.62 328.977C421.79 317.767 420.13 306.647 418.68 295.497C417.78 288.557 415.2 281.277 412.31 274.907C410.11 270.057 407.11 265.647 402.66 262.627C398.58 259.857 394.15 259.577 389.32 259.617C382.47 259.677 375.62 260.417 368.83 261.277C365.27 261.727 361.72 262.217 358.18 262.797C350.96 263.807 343.78 265.977 336.92 268.387C321.51 273.787 306.91 281.657 294.39 292.187C281.11 303.347 269.57 318.077 263.74 334.557C260.14 344.717 258.22 355.517 256.48 366.127C251.25 397.987 248.76 430.328 246.67 462.528C244.47 496.588 243.05 530.717 242.34 564.837C242.07 577.707 241.9 590.577 241.97 603.457C242.01 610.807 241.91 618.267 242.66 625.587C242.75 626.457 242.84 627.327 243.02 628.187C243.14 628.777 243.68 629.237 244.23 629.397C273.82 638.147 305.05 643.387 335.79 645.477C357.46 646.957 379.51 646.557 401.06 643.677C412.15 642.187 423.4 640.067 433.77 635.737C436.96 634.407 441.77 632.657 444.05 629.817C445.17 628.387 444.53 626.177 444.41 624.487ZM419.33 636.757C403.3 640.777 386.62 642.087 370.16 642.587C330.41 643.777 290.59 638.037 252.17 627.967C250.17 627.447 248.17 626.907 246.19 626.337C245.4 621.657 245.59 615.337 245.51 610.257C245.33 598.787 245.44 587.318 245.61 575.848C246.11 543.138 247.34 510.428 249.21 477.768C251.11 444.668 253.46 411.477 258.07 378.627C259.73 366.777 261.62 354.877 264.7 343.307C268.49 329.077 275.94 316.237 285.8 305.287C304.09 284.967 330.7 271.137 357.58 266.387C358.09 266.297 358.6 266.207 359.11 266.137C369.38 264.457 379.93 263.017 390.35 263.087C395.23 263.117 399.03 263.757 402.77 267.047C407.59 271.287 410.05 277.737 412 283.677C415.69 294.907 416.63 306.397 418.13 318.077C418.45 320.557 418.72 322.998 418.91 325.488C419.81 337.658 420.7 349.827 421.6 361.997C423.17 383.257 424.73 404.508 426.3 425.768C428.14 450.778 429.99 475.797 431.83 500.807C433.54 523.957 435.24 547.107 436.95 570.257C438.11 585.997 439.27 601.747 440.43 617.487C440.67 620.717 440.46 624.407 441.17 627.577C441.18 627.617 441.18 627.637 441.19 627.667C440.58 628.137 439.49 628.937 439.21 629.117C433.23 632.907 426.15 635.047 419.33 636.757ZM441.39 627.507C441.42 627.317 441.48 627.197 441.63 627.317C441.63 627.317 441.54 627.387 441.39 627.507Z" fill="#254059"/>
<path d="M372.19 368.467C374.29 365.367 374.99 361.077 372.88 358.077C373.94 355.517 374.57 352.217 373.52 349.577C372.81 347.807 371.47 346.827 369.9 346.157C369.92 346.087 369.95 346.027 369.97 345.947C371.37 339.947 367.06 336.837 361.51 335.187C356.42 323.187 346.69 313.747 336.78 305.537C330.49 300.327 323.67 295.387 316.7 291.137C313.2 289.007 309.79 286.847 306.17 284.937C304.3 283.957 303.41 282.927 301.36 283.687C297.15 285.237 292.83 289.097 289.88 292.277C288.67 293.587 286.94 295.227 286.41 297.117C274.85 306.797 266 320.097 258.48 332.947C248.76 349.557 240.71 367.107 233.1 384.777C229.65 392.797 226.32 400.857 222.86 408.877C222.42 409.887 222.72 411.087 223.89 411.417C229.55 413.007 235.29 414.387 241.03 415.757C239.04 432.177 237.02 450.667 244.89 465.877C249.8 475.367 261.34 487.747 273.34 485.417C278.3 484.457 283.06 480.908 286.89 477.778C291.61 473.918 295.67 469.327 299.35 464.487C303.32 459.267 310.06 447.987 310.06 447.987L332.44 395.527C332.44 395.527 338.35 397.168 351.99 390.268C360.45 393.638 373.75 383.087 374.56 375.607C374.9 372.457 373.92 370.137 372.19 368.467Z" fill="#89ADD3"/>
<path d="M340.97 334.167C308.57 300.787 287.03 298.967 287.88 297.377C293.87 286.097 299.39 282.507 305.42 284.997C337.28 298.187 357.48 323.327 364.64 341.567C364.64 341.567 371.22 362.257 354.77 390.467C354.77 390.467 315 473.857 298.72 462.427C298.72 462.437 371.1 365.207 340.97 334.167Z" fill="#079DB2"/>
<path d="M360.11 328.807C351.97 315.547 340.73 304.197 327.97 295.357C324.35 292.847 320.58 290.537 316.69 288.447C312.91 286.417 308.76 283.987 304.58 282.897C298.41 281.287 293.55 285.637 290.16 290.297C287.97 293.317 283.73 297.807 288.47 299.877C291.52 301.207 294.66 302.257 297.68 303.677C313.69 311.197 327.46 322.827 339.73 335.397C345.98 341.977 347.09 351.267 346.36 359.957C345.43 370.937 341.78 381.677 337.62 391.807C329.27 412.147 317.87 431.307 305.63 449.527C302.9 453.587 300.13 457.637 297.21 461.567C296.63 462.347 297.12 463.467 297.83 463.937C303.32 467.607 309.71 462.797 313.68 459.087C320.95 452.297 326.66 443.707 331.98 435.367C340.96 421.277 348.43 406.457 356.1 391.647C362.64 379.027 367.91 366.137 367.64 351.667C367.5 342.907 364.71 336.287 360.11 328.807ZM353.26 389.627C346.92 401.647 340.97 413.807 334 425.507C328.4 434.897 322.49 444.337 315.21 452.537C312.51 455.587 306.49 462.737 301.4 461.697C309.42 450.757 316.73 439.227 323.53 427.517C335.21 407.417 347.17 384.907 349.7 361.427C350.78 351.357 349.45 340.577 342.2 332.947C331.42 321.907 319.53 311.667 306.03 304.087C302.42 302.057 298.69 300.247 294.85 298.677C293.71 298.207 291.84 297.207 290.42 296.727C291.28 295.667 292.82 292.527 293.17 292.057C295.16 289.347 297.97 286.157 301.6 285.997C305.12 285.847 308.91 288.367 311.92 289.877C315.91 291.867 319.79 294.097 323.53 296.537C336.01 304.697 347.09 315.327 355.34 327.777C359.71 334.367 363.52 341.017 364.07 348.977C365.09 363.587 359.96 376.927 353.26 389.627Z" fill="#254059"/>
<path d="M277.14 425.477L281.25 418.287C281.25 418.287 296.15 393.607 303.59 381.257C306.09 377.107 308.82 373.027 311.13 368.757C315.42 360.837 318.27 352.367 323.85 345.127C328.27 339.397 333.6 335.067 341.04 334.907C346.82 334.777 352.88 335.077 358.52 336.337C361.39 336.977 365.09 337.877 367.08 340.247C369.23 342.817 367.2 344.307 367.95 346.737C368.67 349.037 371.74 348.387 371.92 352.227C372.01 354.147 370.43 356.397 370.6 358.127C370.79 360.087 372.6 361.187 372.19 363.787C371.91 365.547 370.83 367.337 369.75 368.707C379.39 375.097 365.47 390.147 357.76 390.777C355.93 390.927 354.12 389.427 352.71 389.497C351.39 389.567 348.65 391.877 347.18 392.577C344.8 393.717 342.26 394.557 339.63 394.877C337.38 395.157 333.67 394.097 332.37 395.357C330.74 396.937 329.79 401.127 328.9 403.207C327.63 406.177 326.39 409.147 325.13 412.127C322.12 419.237 319.04 426.317 315.7 433.277C308.85 447.517 300.93 462.097 289.45 473.177C284.92 477.547 278.47 483.197 271.93 483.877C264.66 484.647 257.51 479.187 252.88 474.197C237.95 458.127 240.29 435.617 242.72 415.577C242.73 415.587 262.36 419.177 277.14 425.477Z" fill="#FFC49C"/>
<path d="M372.19 368.467C374.29 365.367 374.99 361.077 372.88 358.077C373.94 355.517 374.57 352.217 373.52 349.577C372.81 347.807 371.47 346.827 369.9 346.157C369.92 346.087 369.95 346.027 369.97 345.947C372.75 334.047 353.06 333.477 345.7 333.257C341.52 333.137 337.4 332.907 333.48 334.627C327.28 337.357 322.81 343.097 319.28 348.677C315.42 354.787 313.17 361.627 309.65 367.857C307.92 370.917 306.05 373.917 304.24 376.937C307.36 368.377 310.53 359.847 313.58 351.267C314.33 349.167 310.98 348.257 310.24 350.347C305.42 363.857 300.32 377.267 295.6 390.817C295.51 391.077 295.48 391.317 295.5 391.537C291.42 398.337 287.33 405.137 283.23 411.927C281.11 415.437 278.99 418.957 276.87 422.467C260.68 416.067 243.45 413.157 226.71 408.587C239.74 378.287 251.85 347.047 270.89 319.877C276.17 312.337 282.09 305.167 289.17 299.247C290.88 297.817 288.42 295.377 286.72 296.797C273.79 307.597 264.36 322.397 256.17 336.927C247.24 352.787 239.69 369.377 232.52 386.097C229.27 393.677 226.12 401.287 222.85 408.857C222.41 409.867 222.71 411.067 223.88 411.397C229.55 412.997 235.28 414.377 241.02 415.747C239.03 432.167 237.02 450.647 244.88 465.857C249.79 475.347 261.33 487.727 273.33 485.397C278.29 484.437 283.05 480.887 286.88 477.757C291.6 473.897 295.66 469.307 299.34 464.467C307.44 453.807 313.67 441.807 319.28 429.697C324.35 418.737 328.63 407.417 333.75 396.487C340.84 397.587 347.15 395.367 352.15 391.237C360.69 397.407 373.68 383.617 374.55 375.597C374.9 372.457 373.92 370.137 372.19 368.467ZM364.27 385.717C362.02 387.567 357.82 390.177 354.79 388.787C357.97 385.407 360.46 381.197 362.06 376.627C362.8 374.517 359.46 373.617 358.72 375.707C354.92 386.487 345.35 395.517 333.22 392.897C332.52 392.747 331.6 392.987 331.26 393.697C321.78 413.687 314.61 434.617 302.76 453.457C296.77 462.977 289.56 472.497 279.93 478.587C275.22 481.567 270.91 483.177 265.46 481.107C259.28 478.767 254.04 473.697 250.39 468.307C240.27 453.357 242.34 433.687 244.41 416.567C254.78 419.047 265.12 421.627 275.08 425.477C270.92 432.337 266.69 439.157 262.22 445.797C260.97 447.647 263.97 449.387 265.21 447.547C278.42 427.957 290.16 407.287 302.28 387.027C305.89 380.987 309.96 375.027 313.17 368.757C317.17 360.957 320.02 352.847 325.49 345.837C328.94 341.427 333.61 337.007 339.5 336.637C345.01 336.297 368.74 335.997 366.64 345.027C366.63 345.067 366.63 345.097 366.63 345.127C360.14 343.447 352.83 342.487 346.16 342.677C343.94 342.737 343.93 346.207 346.16 346.137C351.68 345.977 357.4 346.787 362.8 347.827C364.69 348.187 368.08 348.457 369.59 349.817C371.1 351.187 370.73 353.697 370.08 355.717C365.01 353.067 357.52 353.307 352.07 353.487C349.85 353.567 349.84 357.027 352.07 356.947C356.51 356.797 361.15 356.957 365.5 357.907C368 358.457 370.22 359.087 370.72 361.987C370.98 363.507 370.31 365.247 369.37 366.527C364.85 364.367 358.39 364.377 354.09 365.207C351.9 365.627 352.83 368.967 355.01 368.547C359.67 367.647 370.6 367.287 371.17 373.947C371.55 378.527 367.51 383.047 364.27 385.717Z" fill="#254059"/>
<path d="M388.36 284.517C386.92 274.187 388.36 255.527 388.36 255.527L359.25 254.417C358.87 261.177 357.89 278.237 356.22 284.807" fill="#FFC49C"/>
<path d="M357.28 270.527C355.85 270.887 332.74 275.147 337.23 286.997C341.17 297.377 361.94 299.887 381.27 297.737C400.6 295.587 413.14 281.987 388.07 272.317" fill="#FFC49C"/>
<path d="M412.1 166.417C429.48 138.917 409.51 108.927 399.23 104.057L398.69 119.737C398.69 119.737 390.04 106.757 370.57 98.6475L373.81 112.167C373.81 112.167 361.91 105.677 328.38 107.837L337.03 119.737C337.03 119.737 315.94 114.327 300.79 117.037L307.82 134.887C307.82 134.887 286.73 136.507 276.45 144.617L304.67 166.857C301.38 181.877 306.29 199.447 316.06 211.327C316.06 211.327 318.56 206.627 327.29 209.707" fill="#5B7082"/>
<path d="M327.13 230.617C336.07 252.347 352.52 264.237 381.03 263.227C397.06 261.367 409.59 255.697 415.29 240.117C418.91 230.227 416.73 214.447 415.29 204.017C412.42 183.207 419.24 138.677 371.1 146.247C371.1 146.247 330.55 154.247 325.81 164.837C322.07 173.207 328.38 174.437 331.18 183.167C334.02 192.017 334.08 203.047 328.2 210.087C328.2 210.087 320.88 205.817 314.3 212.227C307.72 218.637 312.74 226.777 314.47 228.507C316.2 230.237 320.18 231.967 322.61 232.317C325.04 232.657 327.13 230.617 327.13 230.617Z" fill="#FFC49C"/>
<path d="M373.04 195.817C370.77 195.817 368.94 197.657 368.94 199.917C368.94 202.187 370.78 204.017 373.04 204.017C375.31 204.017 377.14 202.177 377.14 199.917C377.14 197.657 375.3 195.817 373.04 195.817Z" fill="#254059"/>
<path d="M403.7 189.587C401.43 189.587 399.6 191.427 399.6 193.687C399.6 195.957 401.44 197.787 403.7 197.787C405.96 197.787 407.8 195.947 407.8 193.687C407.81 191.417 405.97 189.587 403.7 189.587Z" fill="#254059"/>
<path d="M369.14 175.907C363.56 178.097 358.75 181.537 355.05 186.277C353.69 188.017 356.13 190.477 357.5 188.727C360.81 184.487 365.04 181.217 370.06 179.247C372.11 178.447 371.22 175.087 369.14 175.907Z" fill="#254059"/>
<path d="M393.86 171.637C397.59 172.617 401.03 174.137 404.27 176.227C406.15 177.437 407.89 174.447 406.02 173.237C402.55 170.997 398.78 169.347 394.78 168.297C392.63 167.737 391.71 171.077 393.86 171.637Z" fill="#254059"/>
<path d="M394.68 200.687C392.57 197.117 391.18 193.237 390.35 189.187C390.13 188.097 388.46 188.557 388.68 189.647C389.78 194.977 391.87 200.007 395.07 204.427C396.37 206.217 398.9 208.177 399.49 210.327C400.08 212.497 397.62 214.427 396.26 215.807C395.48 216.597 396.7 217.827 397.48 217.027C399.6 214.867 402.39 212.337 400.83 209.147C399.31 206.067 396.44 203.667 394.68 200.687Z" fill="#254059"/>
<path d="M319.92 215.907C318.91 215.457 318.03 216.947 319.05 217.407C320.33 217.977 321.41 218.787 322.3 219.767C321.35 220.327 320.54 221.057 319.88 221.997C319.23 222.907 320.73 223.777 321.38 222.867C321.89 222.157 322.57 221.567 323.34 221.147C324 222.227 324.45 223.437 324.65 224.757C324.82 225.857 326.48 225.387 326.32 224.297C325.75 220.597 323.33 217.417 319.92 215.907Z" fill="#254059"/>
<path d="M413.21 167.727C413.35 167.607 413.48 167.467 413.59 167.287C421.25 154.827 422.59 140.047 417.7 126.287C414.59 117.557 408.8 106.897 400.1 102.557C398.92 101.967 397.54 102.687 397.49 104.057C397.37 107.667 397.24 111.277 397.12 114.887C390.35 107.007 380.69 101.097 371.43 97.1575C370.08 96.5775 368.51 97.5275 368.89 99.1175C369.7 102.497 370.51 105.887 371.33 109.267C368.98 108.477 366.48 107.977 364.13 107.537C352.39 105.317 340.26 105.387 328.38 106.127C327.2 106.197 326.05 107.587 326.88 108.737C328.89 111.497 330.89 114.247 332.89 117.007C322.28 114.697 310.94 113.627 300.33 115.387C299.47 115.527 298.8 116.707 299.12 117.517C301.2 122.807 303.29 128.097 305.37 133.397C295.1 134.417 283.75 136.927 275.57 143.147C274.79 143.737 274.25 145.097 275.22 145.867C284.4 153.107 293.59 160.337 302.77 167.577C300 182.767 304.05 198.537 313.35 210.797C310.74 213.197 309.08 216.587 309.3 220.487C309.53 224.477 311.52 228.747 314.87 231.037C318.27 233.357 322.67 234.927 326.35 233.187C331.12 243.727 338.24 253.027 348.63 258.587C360.66 265.027 375.8 266.597 389.03 263.677C402.14 260.777 413 252.887 417.24 239.757C421.41 226.857 417.64 212.907 416.57 199.837C415.76 189.857 416.03 178.077 413.21 167.727ZM305.9 165.637C297.05 158.667 288.2 151.687 279.35 144.717C287.52 139.427 298.33 137.377 307.82 136.627C308.82 136.547 309.94 135.567 309.49 134.437C307.39 129.107 305.29 123.767 303.19 118.437C314.17 117.007 325.94 118.727 336.57 121.427C337.91 121.767 339.46 120.167 338.53 118.887C336.23 115.727 333.94 112.567 331.64 109.417C342.16 108.877 352.86 108.937 363.21 110.887C366.38 111.487 370.39 112.317 372.94 113.687C374.29 114.407 375.84 113.217 375.48 111.727C374.68 108.377 373.87 105.027 373.07 101.687C382.23 106.017 391.55 112.257 397.19 120.637C398.14 122.047 400.36 121.537 400.42 119.767C400.57 115.537 400.71 111.317 400.86 107.087C407.37 111.657 411.86 120.187 414.37 127.237C418.7 139.407 417.93 152.217 411.82 163.467C410.02 158.767 407.39 154.497 403.47 151.017C389.46 138.587 368.26 144.467 352.25 149.187C346.3 150.937 340.36 152.927 334.77 155.627C330.99 157.457 326.61 159.817 324.5 163.637C323.03 166.307 322.48 169.577 323.47 172.497C324.54 175.647 327.07 178.137 328.51 181.117C332.34 189.047 332.82 200.447 327.67 207.937C324.82 206.787 321.72 206.777 318.89 207.647C317.92 207.897 316.97 208.227 316.05 208.647C307.18 197.047 303.4 181.687 306.36 167.347C306.46 166.757 306.39 166.017 305.9 165.637ZM412.67 241.997C410.01 247.907 405.72 252.777 400.07 255.967C387.1 263.297 369.77 263.117 356.03 258.097C342.97 253.327 334.06 242.727 328.8 230.157C328.79 230.147 328.79 230.137 328.78 230.117C328.4 229.167 327.15 228.517 326.12 229.227C325.94 229.317 325.78 229.437 325.65 229.587C322.89 231.707 317.9 229.507 315.71 227.267C313.84 225.367 312.72 222.227 312.76 219.617C312.82 215.547 315.73 212.367 319.33 211.067C321.6 210.397 324.03 210.307 326.26 211.057C326.63 211.197 326.99 211.367 327.35 211.567C327.95 211.907 328.98 211.897 329.45 211.297C337.67 200.887 335.82 185.337 328.78 174.857C327.14 172.407 325.93 170.267 326.77 167.237C327.35 165.147 328.55 163.657 330.21 162.327C333.82 159.457 338.35 157.607 342.62 155.987C351.05 152.787 359.83 150.467 368.62 148.527C376.76 146.737 385.77 146.157 393.71 149.087C410.37 155.247 411.75 175.647 412.59 190.747C413.14 200.577 414.76 210.267 415.37 220.087C415.8 227.477 415.76 235.147 412.67 241.997Z" fill="#254059"/>
<path d="M389.35 270.977C389.37 268.117 389.48 265.247 389.64 262.397C388.48 262.677 387.31 262.917 386.14 263.117C385.77 270.267 385.72 277.487 386.63 284.517C386.91 286.697 390.38 286.727 390.09 284.517C389.67 281.287 389.46 278.007 389.38 274.717C395.34 277.357 404.45 282.817 398.1 289.327C392.12 295.457 381.83 296.207 373.85 296.587C364.31 297.037 353.02 296.947 344.44 292.147C341.5 290.497 338.38 287.717 338.39 284.047C338.4 281.177 340.69 279.067 342.92 277.607C347 274.927 351.74 273.627 356.44 272.507C356.05 276.517 355.49 280.487 354.56 284.347C354.04 286.517 357.38 287.437 357.9 285.267C359.74 277.627 360.24 269.547 360.63 261.597C359.48 261.237 358.34 260.847 357.23 260.407C357.1 263.217 356.96 266.047 356.75 268.877C350.92 270.257 344.82 271.827 339.95 275.487C333.41 280.417 333.7 288.437 340.15 293.437C348.99 300.297 362.67 300.517 373.3 300.077C382.72 299.687 395.43 298.647 401.72 290.457C408.75 281.267 396.83 274.117 389.35 270.977Z" fill="#254059"/>
<path d="M402.03 226.497C395.12 225.657 386.91 227.387 382.75 233.487C379.74 237.907 379.17 246.437 385.99 247.097C388.74 247.367 401.85 246.697 399.27 241.237C398.97 240.607 398.48 240.067 397.88 239.607C397.87 239.517 397.84 239.427 397.8 239.327C396.18 235.977 397.95 231.247 399.5 228.027C400.35 228.057 401.19 228.117 402.03 228.217C403.13 228.357 403.12 226.627 402.03 226.497ZM391.12 245.037C389.12 245.277 386.49 245.907 384.57 245.037C382.08 243.907 382.02 240.467 382.62 237.957C386.4 237.257 393.03 238.127 396.1 240.617C400.08 243.847 393.1 244.797 391.12 245.037ZM395.68 238.357C394.5 237.847 393.27 237.487 392.31 237.207C389.44 236.377 386.27 235.807 383.25 236.137C384.13 234.167 385.62 232.517 387.39 231.267C390.4 229.147 393.98 228.197 397.6 228.047C396.17 231.167 394.95 234.997 395.68 238.357Z" fill="#254059"/>
<path d="M391.12 245.037C389.12 245.277 386.49 245.907 384.57 245.037C382.08 243.907 382.02 240.467 382.62 237.957C386.4 237.257 393.03 238.127 396.1 240.617C400.08 243.847 393.1 244.797 391.12 245.037Z" fill="#FFC4C1"/>
<path d="M395.68 238.357C394.5 237.847 393.27 237.487 392.31 237.207C389.44 236.377 386.27 235.807 383.25 236.137C384.13 234.167 385.62 232.517 387.39 231.267C390.4 229.147 393.98 228.197 397.6 228.047C396.17 231.167 394.95 234.997 395.68 238.357Z" fill="#FF9792"/>
<path d="M495.29 7.34746C529.08 -9.68254 570.27 3.89746 587.3 37.6875C604.33 71.4775 590.75 112.667 556.96 129.697C537.89 139.307 516.45 139.167 498.33 131.137L466.3 149.617L475.72 114.947C471.52 110.387 467.88 105.167 464.95 99.3575C447.92 65.5775 461.5 24.3775 495.29 7.34746Z" fill="#F7931E"/>
<path d="M514.78 103.737L514.4 100.027C513.27 92.3275 516.66 83.9275 526.09 75.3675C534.57 67.8175 539.29 62.2575 539.29 55.8375C539.29 48.5675 533.26 43.7275 521.38 43.5775C514.59 43.5775 507.05 45.2875 502.34 47.9975L496 36.0675C500.41 28.6575 514.24 24.3275 525.41 24.5675C552.99 25.1575 556.26 43.4375 556.26 54.2775C556.26 63.9675 549.1 70.9475 540.05 79.0775C531.75 86.4875 528.74 92.7575 529.3 100.027L529.49 103.737H514.78ZM511.95 116.207C511.95 110.937 516.66 107.227 523.26 107.227C529.86 107.227 534.38 110.937 534.38 116.207C534.38 121.197 530.04 125.047 523.07 125.047C516.48 125.047 511.95 121.197 511.95 116.207Z" fill="#0F367C"/>
</svg>
