<svg width="19" height="18" viewBox="0 0 19 18" fill="none" xmlns="http://www.w3.org/2000/svg">
<path d="M14.6302 10.3975L9.09401 15.7321L2.80653 8.44346C1.41591 6.82774 1.52639 4.32684 3.05372 2.85475C4.58106 1.38265 6.94801 1.49727 8.34277 3.10884L14.6302 10.3975Z" stroke="#F69220" stroke-width="2" stroke-miterlimit="10"/>
<path d="M4.06323 9.90979L9.12995 15.7429L16.0043 9.07294C17.5248 7.59394 17.6242 5.09165 16.2267 3.48284C14.8291 1.87403 12.4622 1.76494 10.9376 3.23979L4.06323 9.90979Z" stroke="#243B78" stroke-width="2" stroke-miterlimit="10"/>
<path d="M7.52661 3.7168L10.8296 7.4705L6.55079 11.2355L3.24781 7.48183L7.52661 3.7168Z" fill="#E5E5E5"/>
<path d="M11.3894 4.16016L15.3857 8.26898L11.7377 11.817L7.74146 7.70817L11.3894 4.16016Z" fill="#E5E5E5"/>
</svg>
