<svg width="465" height="240" viewBox="0 0 465 240" fill="none" xmlns="http://www.w3.org/2000/svg">
<path d="M232.5 214.517C360.906 214.517 465 211.609 465 208.021C465 204.433 360.906 201.524 232.5 201.524C104.094 201.524 0 204.433 0 208.021C0 211.609 104.094 214.517 232.5 214.517Z" fill="#E6E6E6"/>
<path d="M251.596 137.638V129.978H213.252V130.457V137.638V199.401V207.062H220.921H251.596V199.401H220.921V137.638H251.596Z" fill="#0F367C"/>
<path d="M270.289 129.978V207.062H308.634V129.978H270.289ZM300.965 199.401H277.958V137.638H300.965V199.401Z" fill="#F7931E"/>
<path d="M163.884 199.401V130.457H156.215V199.401V207.062H163.884H194.559V199.401H163.884Z" fill="#F7931E"/>
<path d="M138.96 137.638V129.978H100.616V130.457V137.638V164.45V172.111V199.401V207.062H108.285H138.96V199.401H108.285V172.111H138.96V164.45H108.285V137.638H138.96Z" fill="#0F367C"/>
<path d="M439.004 137.638V129.978H400.66V130.457V137.638V164.45V172.111V199.401V207.062H408.329H439.004V199.401H408.329V172.111H439.004V164.45H408.329V137.638H439.004Z" fill="#F7931E"/>
<path d="M74.7331 130.457V193.769L54.5128 173.571L54.4668 173.618L54.4239 173.575L33.7528 194.224V130.218H26.0838V206.822H33.7528V205.057L54.4705 184.362L74.7331 204.603V207.062H82.4021V130.457H74.7331Z" fill="#0F367C"/>
<path d="M375.257 130.457V132.222L354.539 152.917L334.276 132.676V130.218H326.607V206.822H334.276V143.51L354.497 163.708L354.543 163.661L354.585 163.704L375.257 143.055V207.062H382.926V130.457H375.257Z" fill="#0F367C"/>
<path d="M59.1402 135.511C61.7399 135.511 63.8474 133.406 63.8474 130.809C63.8474 128.212 61.7399 126.107 59.1402 126.107C56.5406 126.107 54.4331 128.212 54.4331 130.809C54.4331 133.406 56.5406 135.511 59.1402 135.511Z" fill="#F7931E"/>
<path d="M354.121 197.16C356.72 197.16 358.828 195.054 358.828 192.458C358.828 189.861 356.72 187.756 354.121 187.756C351.521 187.756 349.414 189.861 349.414 192.458C349.414 195.054 351.521 197.16 354.121 197.16Z" fill="#F7931E"/>
</svg>
