<svg width="240" height="182" viewBox="0 0 240 182" fill="none" xmlns="http://www.w3.org/2000/svg">
<path d="M58.968 110.536C52.9485 109.152 41.692 108.128 30.6161 108.911C29.4724 107.948 27.9676 107.226 26.5229 107.226C23.5131 107.286 23.2723 108.189 23.2723 109.754C11.5945 111.56 1.54191 115.833 0.0370336 124.502C-0.263942 126.247 1.36133 125.706 1.60211 124.321C2.38464 119.566 11.7149 117.098 22.9112 116.134C21.9481 131.364 20.0218 168.564 31.3987 168.263C35.2512 168.203 31.6395 165.314 31.3987 155.803C31.1579 145.63 32.4822 123.599 32.9036 115.653C43.3173 115.532 53.6709 116.375 59.3292 117.699C62.1584 118.362 64.0846 120.348 64.3856 118.362C64.7468 116.435 62.3992 111.319 58.968 110.536ZM62.3041 131.304C59.5351 131.304 54.4788 144.848 52.9137 152.733C52.7933 151.048 52.7331 149.121 52.7331 146.894C52.7331 142.319 53.937 139.31 53.937 136.842C53.937 134.313 52.071 132.207 48.0379 132.207C45.9913 132.207 45.2087 141.176 45.2087 147.316C45.2087 170.551 55.0807 167.541 55.0807 165.916C55.0807 164.893 54.1778 163.749 53.5156 159.355C53.9972 150.807 60.9798 136.902 60.9798 136.902C60.9798 136.902 59.9565 142.079 59.9565 143.403C59.9565 144.727 62.1837 145.931 65.2537 145.931C68.2634 145.931 69.5275 141.115 69.5275 136.119C69.5275 131.123 65.6149 131.304 62.3041 131.304ZM110.045 143.764C109.624 145.088 103.003 164.11 101.738 164.11C99.752 164.11 100.113 152.553 99.9326 148.459C99.9326 148.158 99.9326 147.857 99.9326 147.496C99.9326 146.232 98.4277 144.547 94.7558 144.547C91.1441 144.547 91.1441 146.714 91.1441 147.917C91.1441 151.048 87.3519 163.628 85.546 163.628C83.7402 163.628 83.4994 160.017 83.4994 157.789C83.4994 146.714 88.7363 135.999 94.6355 135.999C96.8627 135.999 97.284 140.875 97.284 142.259C97.284 143.583 99.4511 142.861 99.4511 142.018C99.4511 133.23 95.0568 133.23 88.8567 133.23C79.9479 133.23 75.6138 146.112 75.6138 153.997C75.6138 162.364 79.4663 165.555 84.2217 165.555C88.9771 165.555 91.2645 156.405 91.7461 156.405C92.1675 156.405 93.5519 168.143 99.2103 168.143C99.6317 168.143 99.9928 168.083 100.173 167.962C105.29 166.157 111.189 145.449 111.49 144.065C111.791 142.56 110.407 142.5 110.045 143.764ZM202.104 114.991C202.284 117.94 198.492 142.921 199.033 153.937C199.514 164.893 205.474 170.551 208.844 170.37C212.276 170.25 207.28 169.287 206.618 155.923C206.256 147.195 209.929 120.468 209.747 116.676C209.567 112.944 201.922 110.115 202.104 114.991ZM238.873 139.731C238.873 137.504 235.683 135.698 232.553 135.698C229.903 135.698 231.589 137.564 231.589 139.009C231.589 139.129 231.589 139.31 231.589 139.49C231.589 143.042 226.713 158.03 225.45 161.943C224.967 160.498 224.547 158.271 224.547 154.057C224.547 145.449 226.894 138.286 226.894 136.119C226.894 133.892 222.981 132.086 219.851 132.086C217.203 132.086 218.888 133.952 218.888 135.397C218.888 137.444 217.324 147.917 217.324 154.479C217.324 163.207 223.343 165.675 225.569 165.434C225.69 165.434 225.811 165.374 225.87 165.374C226.111 165.314 226.292 165.193 226.353 165.013C228.46 163.026 230.686 153.455 231.709 148.64C231.77 152.191 231.83 156.044 231.83 158.993C231.83 171.815 223.523 178.256 220.213 177.895C216.902 177.533 214.494 174.644 214.314 176.45C214.132 178.256 216.781 181.145 221.417 181.687C230.686 182.71 239.295 169.708 239.295 155.201C239.295 146.593 238.873 141.898 238.873 139.731Z" fill="#243A79"/>
<path d="M133.754 135.457C132.971 134.915 128.336 133.772 126.41 135.758C124.002 138.106 120.872 151.288 119.849 157.489C119.247 155.322 118.825 152.553 118.825 149.061C118.825 135.698 121.233 125.104 121.233 122.997C121.233 120.83 115.936 119.024 114.792 119.024C113.588 119.024 113.528 119.987 113.528 120.408C113.528 120.89 111.421 135.156 111.421 142.921C111.421 154.298 113.408 165.675 122.557 165.675C124.303 165.675 122.497 164.471 120.812 160.378C121.775 155.863 125.868 137.925 129.961 137.925C132.068 137.925 133.092 165.073 125.627 165.073C122.257 165.073 124.905 167.3 128.396 167.3C141.7 167.3 141.399 140.574 133.754 135.457ZM194.077 145.931C193.475 146.894 187.695 161.582 181.737 161.582C179.028 161.582 177.703 155.683 177.583 150.566C181.375 150.024 189.02 147.918 189.02 139.189C189.02 135.818 187.635 133.049 185.83 132.146C183.964 131.304 178.907 131.605 175.838 134.494C173.49 136.721 169.517 142.259 169.336 149.844C168.373 151.71 164.46 160.077 158.922 160.077C155.672 160.077 154.407 154.057 154.889 148.038C156.154 148.399 157.839 148.82 159.223 148.82C163.136 148.82 166.207 145.51 166.207 139.189C166.207 135.818 164.821 133.049 163.015 132.146C161.15 131.304 155.431 130.943 152.964 133.11C150.495 135.277 146.522 142.5 146.522 150.386C146.522 156.345 149.05 163.929 157.478 163.929C163.015 163.929 167.29 157.248 169.456 152.974C170.179 158.331 173.068 165.434 180.291 165.434C189.441 165.434 195.1 147.075 195.702 145.931C196.304 144.848 194.679 144.968 194.077 145.931ZM160.728 136.721C163.799 136.721 162.595 150.085 155.009 146.774C155.672 141.537 157.659 136.721 160.728 136.721ZM183.663 135.036C185.588 135.036 185.77 147.737 177.583 149.242C177.703 142.44 179.81 135.036 183.663 135.036Z" fill="#F7931E"/>
<g filter="url(#filter0_d)">
<path d="M147.022 90.2788C141.755 87.8433 139.439 81.5395 141.877 76.2712L169.497 16.5742C171.932 11.3068 178.236 8.99097 183.504 11.4289C188.772 13.8643 191.088 20.1682 188.65 25.4365L161.029 85.131C158.591 90.3993 152.29 92.7143 147.022 90.2788Z" fill="#0F367C"/>
</g>
<g filter="url(#filter1_d)">
<path d="M174.022 89.5566C168.754 87.1212 166.438 80.8174 168.876 75.5491L186.369 37.7423C188.805 32.4749 195.109 30.1591 200.377 32.5971C205.644 35.0326 207.96 41.3364 205.522 46.6047L188.027 84.4123C185.591 89.6796 179.287 91.9955 174.022 89.5566Z" fill="#F7931E"/>
</g>
<g filter="url(#filter2_d)">
<path d="M130.403 69.2052C125.136 66.7698 122.82 60.4661 125.258 55.1978L142.751 17.391C145.186 12.1236 151.49 9.80778 156.758 12.2457C162.026 14.6811 164.342 20.985 161.904 26.2533L144.411 64.0601C141.972 69.3258 135.67 71.6407 130.403 69.2052Z" fill="#F7931E"/>
</g>
<path d="M147.888 27.7508C143.964 24.6224 143.906 19.787 146.011 16.7388C148.308 13.4093 152.565 12.2995 156.163 14.0992C159.676 15.8548 161.399 19.998 160.199 23.7339C159.022 27.3907 155.245 30.0084 150.759 29.0656C150.426 29.7154 150.086 30.3788 149.749 31.0414C149.128 32.2659 148.511 33.4921 147.891 34.7166C147.378 35.7282 146.766 35.9352 145.794 35.4379C144.797 34.929 144.59 34.2829 145.112 33.2509C145.942 31.6116 146.782 29.9748 147.615 28.3372C147.709 28.1406 147.797 27.9406 147.888 27.7508ZM146.292 23.3259C147.439 26.8387 151.234 28.7726 154.701 27.61C158.172 26.4464 160.051 22.7158 158.928 19.2233C157.795 15.7086 154.026 13.76 150.54 14.8924C147.059 16.0171 145.149 19.8147 146.292 23.3259Z" fill="white"/>
<path d="M174.386 31.0664C173.51 28.9063 172.479 26.5102 171.567 24.0707C170.164 20.3251 171.54 16.441 174.906 14.4008C178.852 12.0113 184.133 13.6768 186.063 17.919C187.984 22.1444 185.913 27.0543 181.515 28.6293C179.086 29.4983 176.634 30.2989 174.386 31.0664ZM184.494 23.7796C185.902 20.6753 184.526 17.0084 181.424 15.608C178.369 14.226 174.682 15.5914 173.286 18.6175C171.876 21.6743 173.279 25.3969 176.366 26.7939C179.445 28.1878 183.111 26.8268 184.494 23.7796Z" fill="white"/>
<path d="M200.004 35.2729C200.266 35.4497 200.532 35.6222 200.789 35.8092C202.271 36.8915 203.293 38.3126 203.867 40.052C204.432 41.7686 204.459 43.5024 203.924 45.2308C203.294 47.2575 202.085 48.8567 200.276 49.9724C198.151 51.2816 195.862 51.6322 193.452 50.9672C191.18 50.3426 189.445 48.9843 188.287 46.9291C187.168 44.9458 186.869 42.8233 187.441 40.6122C188.1 38.0621 189.632 36.1879 191.997 35.0236C193.767 34.1506 195.635 33.9358 197.564 34.3547C198.024 34.4551 198.468 34.6286 198.919 34.769C198.961 34.7831 199.003 34.7912 199.046 34.7993C199.366 34.956 199.687 35.1154 200.004 35.2729ZM192.231 49.8293C196.148 51.7554 200.921 50.1341 202.848 46.22C204.778 42.305 203.154 37.5328 199.239 35.6032C195.324 33.6738 190.546 35.2993 188.621 39.21C186.694 43.1326 188.317 47.9023 192.231 49.8293Z" fill="white"/>
<path d="M193.003 43.7998C193.337 43.7988 193.658 43.8333 193.969 43.7917C194.523 43.7184 194.987 43.4263 195.379 43.0422C196.056 42.3854 196.531 41.6133 196.641 40.6541C196.72 39.9726 196.609 39.3188 196.278 38.7153C195.795 37.8349 194.95 37.4867 193.947 37.7622C192.697 38.1084 191.923 38.9433 191.531 40.1574C191.37 40.6549 191.288 41.1618 191.335 41.6871C191.389 42.2837 191.605 42.7965 192.046 43.2092C192.092 43.2503 192.133 43.2958 192.174 43.3412C192.183 43.3496 192.184 43.3606 192.193 43.38C191.492 44.6349 190.787 45.8941 190.08 47.1567C188.689 45.553 187.729 42.3217 189.397 39.2476C191.098 36.1138 194.943 34.6885 198.263 35.9488C201.65 37.2375 203.587 40.8165 202.786 44.3023C201.975 47.8401 198.901 49.7974 196.232 49.8985C196.397 49.5045 196.562 49.1164 196.727 48.731C197.028 48.0357 197.332 47.342 197.628 46.6426C197.674 46.5303 197.722 46.4967 197.846 46.5195C198.37 46.6177 198.875 46.5355 199.329 46.2637C199.493 46.1649 199.634 45.9805 199.72 45.801C200.028 45.1683 200.332 44.5341 200.588 43.8823C200.959 42.9389 201.291 41.9805 201.639 41.0278C201.646 41.0083 201.65 40.987 201.661 40.9522C201.562 40.9039 201.467 40.8572 201.358 40.8038C200.645 42.247 199.936 43.686 199.22 45.1361C199.083 45.0668 198.957 45.0051 198.821 44.9384C199.531 43.4961 200.243 42.0588 200.959 40.6061C200.808 40.5302 200.666 40.4628 200.508 40.3835C199.797 41.8233 199.087 43.2657 198.37 44.7158C198.231 44.6473 198.111 44.5865 197.971 44.5181C198.684 43.0749 199.394 41.6325 200.111 40.1825C199.957 40.1075 199.82 40.0383 199.671 39.9674C198.957 41.414 198.248 42.8529 197.532 44.3031C197.399 44.238 197.276 44.178 197.136 44.1071C197.847 42.6673 198.558 41.2275 199.274 39.7749C199.127 39.7032 199.001 39.6415 198.857 39.5689C198.547 40.0523 198.225 40.5281 197.932 41.0199C197.386 41.935 196.851 42.8554 196.329 43.7797C196.167 44.0677 196.003 44.3676 196.073 44.7265C196.17 45.2175 196.398 45.6353 196.755 45.9834C196.784 46.0103 196.813 46.0371 196.84 46.065C196.848 46.0708 196.852 46.0834 196.866 46.1071C196.712 46.3866 196.553 46.6736 196.393 46.9607C195.872 47.896 195.347 48.8298 194.828 49.7644C194.782 49.8453 194.738 49.8719 194.644 49.8557C193.359 49.6553 192.208 49.1571 191.199 48.3379C191.113 48.2682 191.083 48.2158 191.133 48.1027C191.731 46.7214 192.325 45.3385 192.92 43.9557C192.953 43.8935 192.986 43.8339 193.003 43.7998Z" fill="white"/>
<path d="M191.945 40.2592C192.24 39.736 192.554 39.3391 193.01 39.0725C193.06 39.0441 193.138 39.0569 193.201 39.0496C193.179 39.1109 193.175 39.1889 193.136 39.2334C192.299 40.1977 192.037 41.3048 192.304 42.5457C192.314 42.593 192.293 42.6457 192.285 42.6968C192.234 42.6717 192.161 42.6596 192.14 42.6216C192.026 42.4054 191.891 42.1938 191.827 41.9637C191.658 41.3554 191.735 40.762 191.945 40.2592Z" fill="white"/>
<g filter="url(#filter3_d)">
<path d="M122.648 12.6191C103.767 15.0067 104.902 34.7915 107.829 44.3854C122.048 42.5186 129.348 35.5042 131.542 30.9891C138.315 17.0448 128.561 12.1852 122.648 12.6191Z" fill="#243A79"/>
</g>
<path d="M124.296 20.8218C117.29 21.5437 117.541 28.8735 118.542 32.4479C124.958 31.5188 126.743 29.4207 127.429 27.6941C129.578 22.2844 126.487 20.7118 124.296 20.8218Z" fill="white"/>
<path d="M88.3518 17.3572C102.44 7.31809 111.812 13.4847 116.008 18.1977L113.42 19.9899C103.92 12.6391 94.4009 14.618 88.3518 17.3572Z" fill="#0F367C"/>
<path d="M89.8667 29.3118C95.7862 17.2216 106.826 20.2486 112.853 23.1603L111.391 25.4746C100.778 20.382 93.7785 25.0627 89.8667 29.3118Z" fill="#0F367C"/>
<g filter="url(#filter4_d)">
<path d="M207.681 54.8615L196.143 80.274C200.871 84.2047 203.27 92.5003 203.878 96.1568C216.151 81.8291 211.527 62.6567 207.681 54.8615Z" fill="#243A79"/>
</g>
<defs>
<filter id="filter0_d" x="136.906" y="10.4583" width="56.7138" height="88.7896" filterUnits="userSpaceOnUse" color-interpolation-filters="sRGB">
<feFlood flood-opacity="0" result="BackgroundImageFix"/>
<feColorMatrix in="SourceAlpha" type="matrix" values="0 0 0 0 0 0 0 0 0 0 0 0 0 0 0 0 0 0 127 0"/>
<feOffset dy="4"/>
<feGaussianBlur stdDeviation="2"/>
<feColorMatrix type="matrix" values="0 0 0 0 0 0 0 0 0 0 0 0 0 0 0 0 0 0 0.25 0"/>
<feBlend mode="normal" in2="BackgroundImageFix" result="effect1_dropShadow"/>
<feBlend mode="normal" in="SourceGraphic" in2="effect1_dropShadow" result="shape"/>
</filter>
<filter id="filter1_d" x="163.906" y="31.6265" width="46.5871" height="66.9013" filterUnits="userSpaceOnUse" color-interpolation-filters="sRGB">
<feFlood flood-opacity="0" result="BackgroundImageFix"/>
<feColorMatrix in="SourceAlpha" type="matrix" values="0 0 0 0 0 0 0 0 0 0 0 0 0 0 0 0 0 0 127 0"/>
<feOffset dy="4"/>
<feGaussianBlur stdDeviation="2"/>
<feColorMatrix type="matrix" values="0 0 0 0 0 0 0 0 0 0 0 0 0 0 0 0 0 0 0.25 0"/>
<feBlend mode="normal" in2="BackgroundImageFix" result="effect1_dropShadow"/>
<feBlend mode="normal" in="SourceGraphic" in2="effect1_dropShadow" result="shape"/>
</filter>
<filter id="filter2_d" x="120.287" y="11.2751" width="46.5871" height="66.8993" filterUnits="userSpaceOnUse" color-interpolation-filters="sRGB">
<feFlood flood-opacity="0" result="BackgroundImageFix"/>
<feColorMatrix in="SourceAlpha" type="matrix" values="0 0 0 0 0 0 0 0 0 0 0 0 0 0 0 0 0 0 127 0"/>
<feOffset dy="4"/>
<feGaussianBlur stdDeviation="2"/>
<feColorMatrix type="matrix" values="0 0 0 0 0 0 0 0 0 0 0 0 0 0 0 0 0 0 0.25 0"/>
<feBlend mode="normal" in2="BackgroundImageFix" result="effect1_dropShadow"/>
<feBlend mode="normal" in="SourceGraphic" in2="effect1_dropShadow" result="shape"/>
</filter>
<filter id="filter3_d" x="90.166" y="0.592667" width="59.678" height="63.7928" filterUnits="userSpaceOnUse" color-interpolation-filters="sRGB">
<feFlood flood-opacity="0" result="BackgroundImageFix"/>
<feColorMatrix in="SourceAlpha" type="matrix" values="0 0 0 0 0 0 0 0 0 0 0 0 0 0 0 0 0 0 127 0"/>
<feOffset dy="4"/>
<feGaussianBlur stdDeviation="8"/>
<feColorMatrix type="matrix" values="0 0 0 0 0 0 0 0 0 0 0 0 0 0 0 0 0 0 0.65 0"/>
<feBlend mode="normal" in2="BackgroundImageFix" result="effect1_dropShadow"/>
<feBlend mode="normal" in="SourceGraphic" in2="effect1_dropShadow" result="shape"/>
</filter>
<filter id="filter4_d" x="180.143" y="42.8615" width="47.6853" height="73.2952" filterUnits="userSpaceOnUse" color-interpolation-filters="sRGB">
<feFlood flood-opacity="0" result="BackgroundImageFix"/>
<feColorMatrix in="SourceAlpha" type="matrix" values="0 0 0 0 0 0 0 0 0 0 0 0 0 0 0 0 0 0 127 0"/>
<feOffset dy="4"/>
<feGaussianBlur stdDeviation="8"/>
<feColorMatrix type="matrix" values="0 0 0 0 0 0 0 0 0 0 0 0 0 0 0 0 0 0 0.65 0"/>
<feBlend mode="normal" in2="BackgroundImageFix" result="effect1_dropShadow"/>
<feBlend mode="normal" in="SourceGraphic" in2="effect1_dropShadow" result="shape"/>
</filter>
</defs>
</svg>
