<svg width="412" height="412" viewBox="0 0 412 412" fill="none" xmlns="http://www.w3.org/2000/svg">
<path d="M59.0365 357.965C38.6392 338.443 37.9219 305.782 57.4432 285.385L278.696 54.1995C298.218 33.8021 330.878 33.0848 351.275 52.6061C371.673 72.1275 372.39 104.787 352.868 125.185L131.615 356.371C112.094 376.769 79.4338 377.486 59.0365 357.965Z" fill="#0F367C"/>
<path d="M59.0365 357.965C38.6392 338.443 37.9219 305.782 57.4432 285.385L278.696 54.1995C298.218 33.8021 330.878 33.0848 351.275 52.6061C371.673 72.1275 372.39 104.787 352.868 125.185L131.615 356.371C112.094 376.769 79.4338 377.486 59.0365 357.965Z" stroke="white" stroke-width="1.04667" stroke-miterlimit="10"/>
<path d="M184.428 397.225C164.031 377.704 163.313 345.044 182.835 324.647L322.961 178.229C342.484 157.832 375.144 157.115 395.54 176.636C415.937 196.156 416.655 228.817 397.135 249.215L257.007 395.633C237.485 416.031 204.825 416.748 184.428 397.225Z" fill="#DA1F3D"/>
<path d="M15.7787 234.776C-4.61863 215.253 -5.33596 182.593 14.1854 162.196L154.312 15.7787C173.833 -4.61859 206.493 -5.33591 226.891 14.1854C247.288 33.7068 248.005 66.3667 228.484 86.7641L88.3574 233.183C68.836 253.58 36.176 254.297 15.7787 234.776Z" fill="#F7931E"/>
<path d="M161.259 48.6772C160.993 66.6479 175.407 81.5319 193.199 81.6546C211.002 81.7786 225.539 67.5679 225.87 49.7172C226.202 31.7532 211.921 16.8466 194.097 16.5519C176.31 16.2586 161.526 30.7212 161.259 48.6772ZM161.625 71.5586C148.505 50.9746 155.854 28.6319 170.351 17.9145C186.175 6.21721 207.511 7.81455 221.234 21.7692C234.626 35.3906 236.033 57.1746 224.609 72.4746C213.427 87.4479 191.917 93.5439 172.75 82.1292C170.197 84.5932 167.582 87.1052 164.983 89.6332C160.194 94.2906 155.422 98.9652 150.629 103.617C146.671 107.461 143.537 107.455 139.842 103.631C136.055 99.7146 136.129 96.4119 140.155 92.4919C146.563 86.2546 152.999 80.0452 159.418 73.8186C160.182 73.0772 160.907 72.2946 161.625 71.5586" fill="white"/>
<path d="M336.354 111.012C347.733 98.9477 347.18 79.9037 335.121 68.5637C323.234 57.3863 304.114 57.8477 292.917 69.5837C281.609 81.4303 282.192 100.77 294.196 112.069C306.166 123.336 325.181 122.86 336.354 111.012ZM278.341 128.605C277.72 117.288 276.756 104.634 276.394 91.965C275.841 72.517 288.298 56.805 307.01 52.7263C328.94 47.9463 350.622 63.941 352.814 86.513C354.996 108.989 337.726 128.322 314.997 128.628C302.452 128.796 289.901 128.624 278.341 128.605Z" fill="white"/>
<path d="M330.883 243.098C345.867 258.146 370.39 258.207 385.431 243.236C400.482 228.256 400.543 203.736 385.568 188.684C370.594 173.635 346.039 173.574 331.018 188.548C315.97 203.548 315.91 228.062 330.883 243.098ZM389.618 188.363C390.54 189.595 391.5 190.8 392.38 192.063C397.492 199.383 399.959 207.532 399.854 216.443C399.75 225.24 397.134 233.262 391.946 240.362C385.859 248.691 377.76 254.156 367.682 256.432C355.843 259.106 344.748 257.107 334.706 250.251C325.239 243.788 319.394 234.8 317.304 223.524C315.288 212.628 317.254 202.39 323.366 193.123C330.422 182.423 340.43 176.214 353.148 174.58C362.67 173.359 371.603 175.315 379.822 180.283C381.783 181.468 383.551 182.971 385.41 184.326C385.58 184.451 385.767 184.555 385.946 184.67C387.17 185.902 388.394 187.132 389.618 188.363Z" fill="white"/>
<path d="M343.939 216.566C345.479 217.094 346.902 217.757 348.395 218.053C351.062 218.585 353.648 217.969 356.059 216.826C360.202 214.866 363.618 212.068 365.635 207.829C367.074 204.81 367.598 201.637 367.02 198.326C366.182 193.518 362.847 190.576 357.796 190.266C351.499 189.882 346.62 192.517 342.898 197.482C341.372 199.516 340.199 201.718 339.587 204.212C338.895 207.038 339.076 209.748 340.466 212.337C340.606 212.598 340.724 212.873 340.848 213.144C340.868 213.19 340.864 213.248 340.879 213.352C335.672 218.017 330.444 222.702 325.2 227.4C321.324 217.828 322.002 201.436 334.532 189.92C347.302 178.182 367.255 177.678 380.54 188.718C394.098 199.984 397.37 219.516 388.183 234.298C378.862 249.293 361.636 253.462 349.196 249.722C350.583 248.176 351.944 246.644 353.32 245.125C355.799 242.393 358.298 239.68 360.759 236.933C361.152 236.496 361.423 236.408 361.966 236.713C364.222 237.985 366.678 238.409 369.19 237.873C370.106 237.68 371.042 237.046 371.719 236.366C374.126 233.944 376.526 231.502 378.74 228.908C381.94 225.154 384.976 221.261 388.08 217.428C388.148 217.346 388.204 217.257 388.3 217.12C387.927 216.744 387.559 216.372 387.143 215.954C381.588 221.476 376.052 226.977 370.471 232.524C369.946 231.993 369.464 231.509 368.942 230.984C374.491 225.469 380.026 219.969 385.607 214.422C385.028 213.84 384.487 213.294 383.882 212.685C378.34 218.192 372.792 223.705 367.207 229.256C366.676 228.721 366.21 228.252 365.676 227.714C371.235 222.19 376.783 216.677 382.366 211.129C381.779 210.538 381.256 210.012 380.688 209.441C375.124 214.973 369.588 220.473 364.011 226.016C363.5 225.502 363.034 225.034 362.491 224.486C368.028 218.984 373.576 213.473 379.166 207.917C378.607 207.356 378.123 206.868 377.578 206.317C375.384 208.057 373.154 209.73 371.031 211.532C367.083 214.878 363.171 218.27 359.304 221.712C358.107 222.778 356.872 223.904 356.636 225.669C356.314 228.081 356.699 230.366 357.802 232.533C357.887 232.702 357.982 232.866 358.067 233.036C358.09 233.081 358.09 233.137 358.118 233.274C356.967 234.316 355.787 235.389 354.598 236.456C350.723 239.933 346.84 243.404 342.972 246.892C342.638 247.194 342.391 247.241 341.984 247.026C336.394 244.078 331.878 239.974 328.519 234.605C328.231 234.145 328.186 233.86 328.584 233.422C333.519 228.01 338.431 222.578 343.351 217.154C343.568 216.916 343.807 216.698 343.939 216.566Z" fill="white"/>
</svg>
