<svg width="310" height="313" viewBox="0 0 310 313" fill="none" xmlns="http://www.w3.org/2000/svg">
<path d="M124.982 223.921C87.8389 207.257 71.2375 163.639 87.9015 126.497C104.564 89.3547 148.183 72.7533 185.326 89.4173C222.468 106.08 239.068 149.699 222.406 186.841C205.742 223.984 162.123 240.585 124.982 223.921ZM298.972 216.397L286.659 202.963C284.218 200.299 283.354 196.635 284.348 193.161C285.343 189.687 288.016 187.036 291.496 186.069L309.055 181.189C309.249 181.135 309.384 180.956 309.383 180.753L309.043 129.631C309.04 129.428 308.907 129.252 308.707 129.199L291.086 124.553C287.334 123.567 284.437 120.508 283.629 116.723C282.937 113.485 283.811 110.205 286.023 107.727L298.155 94.1293C298.289 93.9773 298.307 93.7547 298.196 93.584L270.27 50.7614C270.159 50.5934 269.947 50.5187 269.755 50.58L252.42 56.1987C249.944 57.0013 247.396 56.872 245.056 55.8214C240.732 53.8814 238.324 49.444 239.063 44.78L241.918 26.7813C241.95 26.5813 241.843 26.3853 241.657 26.3013L195.014 5.37471C194.828 5.29204 194.611 5.3427 194.482 5.50003L182.938 19.6C179.946 23.2533 175.03 24.404 170.706 22.464C168.364 21.4133 166.573 19.5987 165.527 17.2147L158.198 0.530699C158.116 0.345366 157.92 0.237368 157.719 0.266702L107.166 7.87998C106.966 7.91065 106.81 8.07201 106.787 8.27334L104.696 26.376C104.316 29.6773 102.446 32.5093 99.5682 34.1467C96.2042 36.0573 91.9989 35.9373 88.7615 33.7827L73.5749 23.7093C73.4095 23.5987 73.1829 23.612 73.0309 23.7453L34.6175 57.4813C34.4655 57.616 34.4215 57.8347 34.5109 58.0173L42.5402 74.3773C44.1322 77.62 43.9282 81.3787 41.9949 84.432C40.0615 87.484 36.7508 89.276 33.1375 89.2227L14.9162 88.9587C14.7136 88.956 14.5335 89.088 14.4789 89.284L0.402877 138.432C0.346877 138.627 0.429544 138.836 0.602877 138.94L16.2015 148.361C19.2948 150.229 21.1549 153.501 21.1789 157.113C21.2029 160.727 19.3869 164.024 16.3189 165.933L0.846887 175.563C0.674887 175.669 0.594861 175.88 0.653528 176.073L15.3842 225.028C15.4429 225.221 15.6242 225.352 15.8268 225.348L34.0442 224.841C35.6282 224.797 37.1469 225.095 38.5562 225.727C41.0629 226.852 43.0549 228.997 44.0189 231.611C44.9749 234.209 44.8428 237.032 43.6428 239.56L35.8322 256.025C35.7455 256.208 35.7922 256.428 35.9469 256.559L74.8068 289.78C74.9628 289.912 75.1842 289.924 75.3509 289.809L90.4015 279.533C93.3855 277.496 97.1349 277.163 100.431 278.643C103.728 280.121 105.972 283.143 106.434 286.727L108.766 304.8C108.786 304.957 108.887 305.089 109.027 305.152L109.15 305.187L159.802 312.125C160.003 312.153 160.198 312.043 160.276 311.856L167.382 295.075C168.472 292.497 170.494 290.521 173.07 289.509C175.663 288.491 178.588 288.551 181.098 289.677C182.506 290.308 183.736 291.245 184.759 292.457L196.492 306.401C196.622 306.555 196.84 306.604 197.024 306.519L243.386 284.972C243.568 284.887 243.674 284.689 243.639 284.489L240.544 266.531C239.93 262.969 241.186 259.42 243.9 257.035C246.615 254.652 250.295 253.865 253.747 254.933L271.155 260.32C271.349 260.381 271.559 260.304 271.668 260.133L299.02 216.941C299.128 216.769 299.108 216.547 298.972 216.397" fill="#547C8E"/>
</svg>
