<svg width="199" height="201" viewBox="0 0 199 201" fill="none" xmlns="http://www.w3.org/2000/svg">
<path d="M80.7176 144.101C56.9496 133.439 46.3256 105.527 56.9896 81.7599C67.6523 57.9919 95.5643 47.3679 119.331 58.0319C143.099 68.6946 153.722 96.6066 143.059 120.373C132.396 144.141 104.484 154.765 80.7176 144.101ZM192.054 139.287L184.175 130.691C182.612 128.985 182.06 126.64 182.696 124.419C183.334 122.195 185.043 120.499 187.271 119.88L198.506 116.757C198.631 116.721 198.718 116.608 198.716 116.479L198.499 83.7639C198.498 83.6346 198.412 83.5226 198.284 83.4879L187.008 80.5159C184.607 79.8839 182.754 77.9266 182.236 75.5052C181.794 73.4332 182.352 71.3346 183.768 69.7479L191.531 61.0466L191.558 60.6986L173.688 33.2959C173.616 33.1879 173.482 33.1399 173.359 33.1799L162.266 36.7759C160.682 37.2892 159.051 37.2052 157.554 36.5332C154.786 35.2919 153.246 32.4532 153.718 29.4692L155.544 17.9506C155.566 17.8239 155.498 17.6972 155.379 17.6439L125.531 4.25324L125.191 4.33322L117.803 13.3559C115.888 15.6932 112.743 16.4292 109.976 15.1879C108.479 14.5159 107.332 13.3545 106.662 11.8292L101.972 1.15324C101.92 1.03457 101.795 0.965234 101.667 0.983901L69.3163 5.85591C69.1883 5.87591 69.0896 5.97856 69.0736 6.10789L67.7363 17.6919C67.4936 19.8039 66.2962 21.6159 64.4549 22.6639C62.3029 23.8865 59.6122 23.8092 57.5402 22.4319L47.8229 15.9852L47.4736 16.0079L22.8936 37.5959L22.8256 37.9386L27.9629 48.4079C28.9816 50.4826 28.8509 52.8879 27.6136 54.8412C26.3776 56.7946 24.2576 57.9412 21.9469 57.9079L10.2856 57.7386C10.1576 57.7359 10.0416 57.8212 10.0056 57.9466L0.998933 89.3972C0.964266 89.5212 1.01493 89.6546 1.12693 89.7213L11.1096 95.7506C13.0882 96.9466 14.2789 99.0386 14.2936 101.351C14.3096 103.664 13.1469 105.773 11.1829 106.995L1.28292 113.157C1.17358 113.225 1.12293 113.36 1.16026 113.483L10.5856 144.811C10.6229 144.933 10.7389 145.017 10.8683 145.015L22.5256 144.691C23.5403 144.663 24.5109 144.852 25.4136 145.257C27.0176 145.976 28.2923 147.349 28.9083 149.023C29.5216 150.684 29.4362 152.491 28.6682 154.109L23.6709 164.644L23.7443 164.987L48.6109 186.244L48.9589 186.264L58.5896 179.688C60.4989 178.384 62.8976 178.171 65.0069 179.117C67.1162 180.064 68.5536 181.997 68.8483 184.291L70.3416 195.856L70.5083 196.081L70.5869 196.104L102.999 200.544C103.127 200.561 103.252 200.491 103.303 200.371L107.85 189.632C108.547 187.984 109.84 186.719 111.488 186.071C113.148 185.42 115.02 185.459 116.626 186.179C117.527 186.583 118.315 187.183 118.968 187.959L126.476 196.881L126.818 196.956L156.484 183.168C156.602 183.113 156.668 182.987 156.646 182.859L154.666 171.368C154.274 169.089 155.076 166.817 156.814 165.291C158.551 163.765 160.906 163.263 163.114 163.947L174.255 167.393C174.379 167.432 174.512 167.383 174.582 167.273L192.086 139.635L192.054 139.287" fill="#C57373"/>
</svg>
