<svg width="389" height="385" viewBox="0 0 389 385" fill="none" xmlns="http://www.w3.org/2000/svg">
<path d="M194.082 283.852C143.415 283.852 102.342 242.779 102.342 192.112C102.342 141.444 143.415 100.371 194.082 100.371C244.749 100.371 285.822 141.444 285.822 192.112C285.822 242.779 244.749 283.852 194.082 283.852ZM387.826 186.667L366.999 177.684C362.87 175.903 360.022 172.183 359.382 167.731C358.742 163.279 360.426 158.907 363.886 156.035L381.338 141.548C381.532 141.387 381.594 141.116 381.49 140.885L355.058 83.0066C354.952 82.7786 354.711 82.6453 354.457 82.688L332.081 86.3906C327.317 87.1813 322.47 85.1827 319.624 81.2973C317.188 77.972 316.508 73.8027 317.758 69.8613L324.607 48.24C324.683 47.9986 324.588 47.7373 324.376 47.6L270.849 13.2C270.637 13.064 270.358 13.0866 270.171 13.2546L253.35 28.468C250.946 30.6413 247.987 31.7906 244.794 31.7906C238.895 31.7906 233.9 27.9787 232.363 22.3053L226.435 0.413269C226.37 0.169269 226.148 0 225.896 0H162.267C162.015 0 161.794 0.169269 161.729 0.413269L155.801 22.3053C154.265 27.9787 149.269 31.7906 143.37 31.7906C140.177 31.7906 137.218 30.6413 134.815 28.468L117.993 13.2546C117.806 13.0866 117.529 13.064 117.315 13.2L63.7872 47.6C63.5752 47.7373 63.4805 47.9986 63.5565 48.24L70.4059 69.8613C71.6552 73.8027 70.9752 77.972 68.5405 81.2973C65.6938 85.1813 60.8592 87.1866 56.0832 86.3906L33.7072 82.688C33.4618 82.6466 33.2125 82.7773 33.1058 83.0066L6.67382 140.885C6.56982 141.116 6.63118 141.387 6.82584 141.548L24.2778 156.035C27.7378 158.907 29.4218 163.279 28.7818 167.731C28.1418 172.183 25.2938 175.903 21.1645 177.684L0.337822 186.667C0.107155 186.765 -0.0301772 187.009 0.00582278 187.26L9.06185 250.241C9.09785 250.492 9.2965 250.685 9.5485 250.716L32.0618 253.468C36.5245 254.013 40.3045 256.78 42.1725 260.871C44.0405 264.963 43.6578 269.632 41.1458 273.363L28.4818 292.18C28.3418 292.389 28.3592 292.667 28.5245 292.857L70.1925 340.944C70.3565 341.135 70.6285 341.191 70.8565 341.083L91.2859 331.225C93.0619 330.368 94.9379 329.933 96.8592 329.933C100.281 329.933 103.635 331.355 106.062 333.832C108.471 336.295 109.758 339.568 109.685 343.049L109.203 365.725C109.198 365.977 109.363 366.203 109.606 366.273L170.658 384.2C170.903 384.271 171.161 384.172 171.293 383.956L183.147 364.62C185.498 360.787 189.584 358.499 194.082 358.499C198.579 358.499 202.667 360.787 205.017 364.62L216.874 383.956C216.976 384.125 217.158 384.224 217.349 384.224L217.506 384.2L278.558 366.273C278.802 366.203 278.966 365.977 278.96 365.725L278.481 343.049C278.406 339.568 279.693 336.295 282.103 333.832C284.529 331.355 287.882 329.933 291.305 329.933C293.226 329.933 295.102 330.368 296.879 331.225L317.307 341.083C317.532 341.191 317.806 341.135 317.973 340.944L359.641 292.857C359.805 292.667 359.823 292.389 359.682 292.18L347.018 273.363C344.507 269.632 344.123 264.963 345.991 260.871C347.86 256.78 351.639 254.013 356.102 253.468L378.615 250.716C378.867 250.685 379.066 250.492 379.102 250.241L388.158 187.26C388.194 187.009 388.058 186.765 387.826 186.667" fill="#F7D77F"/>
</svg>
