<svg width="249" height="266" viewBox="0 0 249 266" fill="none" xmlns="http://www.w3.org/2000/svg">
<path d="M217.348 265.224C217.158 265.224 216.976 265.125 216.874 264.956L205.016 245.62C204.127 244.169 202.987 242.939 201.671 241.971C199.511 240.383 196.875 239.499 194.082 239.499C193.659 239.499 193.242 239.519 192.828 239.559C188.834 239.941 185.276 242.147 183.146 245.62L171.292 264.956C171.188 265.125 171.008 265.223 170.816 265.223C170.764 265.223 170.711 265.216 170.658 265.2L109.606 247.273C109.367 247.204 109.203 246.985 109.203 246.737C109.203 246.733 109.203 246.729 109.203 246.725L109.684 224.049C109.686 223.955 109.687 223.86 109.687 223.764C109.687 220.389 108.404 217.227 106.062 214.832C105.554 214.313 105.006 213.841 104.426 213.42C102.228 211.821 99.5657 210.933 96.859 210.933C94.9377 210.933 93.0617 211.368 91.2857 212.225L76.2017 219.503L70.8564 222.083C70.779 222.119 70.6963 222.136 70.615 222.136C70.4563 222.136 70.3004 222.069 70.1924 221.944L28.5244 173.857C28.4337 173.753 28.387 173.623 28.387 173.492C28.387 173.383 28.419 173.275 28.4817 173.18L41.1457 154.363C42.607 152.192 43.3483 149.701 43.343 147.193C43.3403 145.392 42.9523 143.581 42.1723 141.871C41.0323 139.375 39.1804 137.371 36.895 136.065C35.4364 135.231 33.8004 134.68 32.0617 134.468L19.039 132.876L9.54835 131.716C9.29635 131.685 9.09769 131.492 9.06169 131.241L0.0056722 68.26C0.0016722 68.232 0.000366211 68.2053 0.000366211 68.1787C0.000366211 67.9587 0.132338 67.756 0.337671 67.6667L21.1644 58.684C25.2937 56.9027 28.1417 53.1827 28.7817 48.7307C28.871 48.1054 28.915 47.48 28.915 46.8613C28.9123 43.0787 27.251 39.5027 24.2777 37.0347L6.82569 22.548C6.69502 22.44 6.62436 22.2827 6.62302 22.12C6.62302 22.0413 6.63901 21.9613 6.67367 21.8867L16.4443 0.492016C46.391 37.312 77.479 73.196 109.308 108.416L109.44 108.559C117.784 128.463 132.946 144.799 152.002 154.653C183.91 188.648 216.287 222.196 248.212 256.184L224.462 263.157L217.506 265.2L217.348 265.224" fill="#E6C876"/>
</svg>
