<svg width="212" height="225" viewBox="0 0 212 225" fill="none" xmlns="http://www.w3.org/2000/svg">
<path d="M159.863 224.129C159.842 224.129 159.822 224.128 159.802 224.125L126.41 219.552L109.15 217.187L109.027 217.152C108.958 217.121 108.898 217.072 108.852 217.012C108.807 216.952 108.776 216.879 108.766 216.8L106.434 198.727C106.038 195.656 104.334 192.999 101.78 191.369C101.354 191.097 100.903 190.855 100.431 190.643C99.0697 190.031 97.6296 189.729 96.199 189.729C94.167 189.729 92.1523 190.339 90.4016 191.533L75.351 201.809C75.3203 201.831 75.287 201.848 75.2537 201.86C75.203 201.879 75.151 201.888 75.099 201.888C74.995 201.888 74.891 201.852 74.807 201.78L35.947 168.559C35.7924 168.428 35.7456 168.208 35.8323 168.025L39.9376 159.371L43.643 151.56C43.9217 150.972 44.143 150.368 44.307 149.755C44.8457 147.731 44.7524 145.604 44.019 143.611C43.055 140.997 41.063 138.852 38.5563 137.727C37.2377 137.136 35.8243 136.837 34.351 136.837C34.3497 136.837 34.3497 136.837 34.3497 136.837C34.2484 136.837 34.1457 136.839 34.0444 136.841L15.827 137.348C15.823 137.348 15.8203 137.348 15.8177 137.348C15.6177 137.348 15.443 137.219 15.3843 137.028L0.653666 88.0733C0.641666 88.0306 0.634981 87.9879 0.634981 87.9453C0.634981 87.7933 0.712359 87.6466 0.847025 87.5626L16.319 77.9333C19.387 76.0239 21.203 72.7266 21.179 69.1133C21.155 65.5013 19.295 62.2293 16.2016 60.3613L0.603015 50.9399C0.471015 50.8613 0.392364 50.7226 0.385697 50.5746C0.384364 50.5279 0.389682 50.4799 0.403015 50.4319L14.479 1.28393C14.5203 1.1346 14.6377 1.01993 14.7804 0.977259C14.7817 0.977259 14.7817 0.977259 14.783 0.977259C14.7844 0.975926 14.7857 0.975924 14.787 0.975924C14.7883 0.974591 14.7896 0.97459 14.791 0.97459C14.7923 0.97459 14.7923 0.973255 14.7936 0.973255C14.795 0.973255 14.7977 0.97192 14.8003 0.97192C14.803 0.970587 14.8057 0.970584 14.8097 0.969251C14.8123 0.969251 14.815 0.967916 14.8177 0.967916C14.819 0.967916 14.8203 0.967915 14.8216 0.966582C14.823 0.966582 14.8256 0.966582 14.827 0.966582C14.827 0.965248 14.8283 0.965247 14.8283 0.965247C14.843 0.96258 14.8577 0.961274 14.8724 0.959941C14.8804 0.958608 14.8883 0.958607 14.8977 0.958607C14.9003 0.958607 14.903 0.958607 14.9057 0.958607C14.907 0.958607 14.9083 0.958607 14.9097 0.958607C14.9123 0.958607 14.9137 0.958607 14.9164 0.958607L23.6376 1.08527C43.095 22.2533 62.3656 43.5906 81.5123 65.0386C80.1216 93.4039 95.3083 121.056 121.931 134.469C121.936 134.472 121.94 134.475 121.946 134.477C121.967 134.488 121.992 134.5 122.014 134.512C122.022 134.515 122.028 134.519 122.035 134.523C122.103 134.556 122.168 134.589 122.238 134.623C122.25 134.629 122.263 134.636 122.275 134.641C122.291 134.649 122.311 134.66 122.326 134.667C122.342 134.675 122.356 134.683 122.371 134.689C122.387 134.697 122.404 134.707 122.42 134.713C122.439 134.723 122.459 134.733 122.478 134.743C122.499 134.753 122.519 134.763 122.542 134.773C122.56 134.783 122.582 134.793 122.6 134.803C122.614 134.809 122.63 134.817 122.643 134.824C122.662 134.833 122.679 134.841 122.698 134.851C122.711 134.857 122.724 134.864 122.738 134.871C122.76 134.881 122.784 134.893 122.806 134.904C122.815 134.908 122.824 134.912 122.832 134.916C122.863 134.932 122.895 134.947 122.926 134.961C122.934 134.965 122.948 134.973 122.958 134.977C122.98 134.988 123.002 134.999 123.024 135.009C123.035 135.015 123.046 135.02 123.058 135.025C123.082 135.037 123.106 135.049 123.13 135.06C123.139 135.064 123.146 135.068 123.155 135.072C123.186 135.087 123.219 135.103 123.25 135.117C123.259 135.123 123.264 135.125 123.274 135.129C123.299 135.141 123.324 135.153 123.35 135.165C123.358 135.169 123.368 135.175 123.378 135.179C123.403 135.191 123.428 135.204 123.454 135.216C123.46 135.219 123.47 135.223 123.476 135.227C123.543 135.259 123.608 135.289 123.675 135.32C123.682 135.324 123.691 135.328 123.698 135.331C123.726 135.344 123.75 135.356 123.778 135.368C123.784 135.372 123.794 135.376 123.8 135.379C123.867 135.411 123.934 135.441 124 135.473C124.007 135.476 124.014 135.479 124.02 135.483C124.048 135.495 124.074 135.507 124.102 135.52C124.11 135.524 124.116 135.527 124.126 135.531C124.155 135.545 124.183 135.557 124.212 135.571C124.216 135.573 124.222 135.575 124.226 135.577C124.258 135.592 124.295 135.609 124.328 135.624C124.33 135.625 124.338 135.629 124.339 135.629C124.367 135.643 124.399 135.657 124.426 135.669C124.435 135.673 124.443 135.677 124.452 135.681C124.48 135.695 124.504 135.705 124.532 135.719C124.539 135.721 124.546 135.724 124.552 135.728C124.586 135.743 124.62 135.759 124.652 135.773C124.658 135.775 124.662 135.777 124.666 135.779C124.694 135.792 124.724 135.805 124.752 135.819C124.763 135.823 124.77 135.827 124.782 135.831C124.806 135.843 124.831 135.853 124.855 135.864C124.864 135.868 124.874 135.873 124.882 135.877C124.915 135.892 124.948 135.907 124.982 135.921C125.016 135.937 125.052 135.953 125.088 135.969C125.098 135.973 125.11 135.979 125.118 135.983C125.144 135.995 125.17 136.005 125.195 136.017C125.208 136.023 125.218 136.027 125.232 136.033C125.255 136.044 125.28 136.055 125.304 136.065C125.318 136.071 125.326 136.075 125.34 136.081C125.364 136.092 125.388 136.103 125.412 136.113C125.426 136.119 125.435 136.124 125.45 136.129C125.482 136.144 125.516 136.159 125.55 136.173C125.566 136.18 125.582 136.188 125.598 136.195C125.616 136.203 125.634 136.211 125.652 136.219C125.671 136.227 125.691 136.236 125.71 136.244C125.724 136.251 125.74 136.257 125.755 136.264C125.776 136.272 125.798 136.283 125.819 136.291C125.83 136.296 125.842 136.301 125.852 136.305C125.878 136.316 125.9 136.327 125.926 136.337C125.928 136.339 125.932 136.34 125.936 136.341C133.703 139.697 141.735 141.612 149.736 142.2C170.176 165.468 190.588 188.76 211.066 211.993L201.866 216.269L197.024 218.519C196.971 218.544 196.915 218.557 196.86 218.56C196.852 218.56 196.844 218.561 196.836 218.561C196.706 218.561 196.579 218.504 196.492 218.401L184.759 204.457C184.444 204.084 184.108 203.736 183.755 203.416C182.96 202.696 182.071 202.113 181.098 201.677C179.776 201.084 178.339 200.787 176.895 200.787C175.599 200.787 174.296 201.027 173.07 201.509C171.439 202.149 170.031 203.176 168.94 204.496C168.308 205.263 167.782 206.128 167.382 207.075L160.276 223.856C160.204 224.023 160.04 224.129 159.863 224.129" fill="#4E7384"/>
</svg>
