<svg width="70" height="70" viewBox="0 0 70 70" fill="none" xmlns="http://www.w3.org/2000/svg">
<path d="M70 35C70 54.3299 54.33 70 35.0001 70C15.6703 70 0 54.3299 0 35C0 15.6701 15.6703 -5.8794e-07 35.0001 -5.8794e-07C54.33 -5.8794e-07 70 15.6701 70 35Z" fill="#F0A5B1"/>
<path d="M35.0423 53.9726C45.7303 53.9617 54.4526 45.2287 54.4444 34.5467C54.4364 23.8591 45.7044 15.1379 35.0175 15.1443C24.3326 15.1506 15.5984 23.8952 15.6149 34.5707C15.6314 45.2651 24.3612 53.9835 35.0423 53.9726ZM36.34 13.5843C37.107 13.6918 37.8778 13.7769 38.6407 13.9098C43.0677 14.6824 46.8519 16.6935 49.9958 19.8922C53.1001 23.0509 55.036 26.8302 55.7297 31.2015C56.544 36.3295 55.6218 41.1599 52.8583 45.5659C49.6125 50.7412 44.9631 53.9928 38.9519 55.1457C33.2863 56.2324 28.0031 55.1306 23.2372 51.8757C18.6312 48.7301 15.6729 44.3953 14.5331 38.9254C13.2169 32.6105 14.5508 26.8341 18.4803 21.7146C21.4221 17.8818 25.2895 15.3861 29.9795 14.2148C31.0982 13.9351 32.2622 13.8371 33.405 13.6539C33.5105 13.637 33.6136 13.6079 33.7179 13.5843H36.34Z" fill="white"/>
<path d="M30.2024 39.8984C30.9369 39.5355 31.6779 39.2631 32.3141 38.8352C33.4498 38.0712 34.1479 36.9297 34.5954 35.6637C35.3646 33.4889 35.5776 31.277 34.7803 29.0524C34.2127 27.4682 33.266 26.1552 31.8792 25.1867C29.865 23.78 27.6315 23.9266 25.7293 25.6209C23.358 27.7326 22.5672 30.4088 23.0194 33.4998C23.2042 34.7653 23.5746 35.9657 24.2477 37.0689C25.0111 38.3191 26.0419 39.2153 27.4597 39.6384C27.6031 39.6811 27.7428 39.7359 27.8832 39.7878C27.9073 39.7968 27.9264 39.8186 27.9689 39.8504C27.7872 43.3646 27.6048 46.893 27.4219 50.4315C22.6291 48.4197 17.0174 42.3619 17.3516 33.8021C17.692 25.0795 24.5907 17.7771 33.2463 16.9509C42.078 16.108 50.2114 21.8691 52.2295 30.3938C54.2763 39.0417 49.6535 46.6703 43.9045 49.7846C43.8444 48.7406 43.7801 47.7111 43.7267 46.6812C43.6304 44.8273 43.548 42.9724 43.4415 41.119C43.4245 40.8235 43.4888 40.696 43.7903 40.6108C45.0448 40.2567 46.0675 39.5299 46.7682 38.4428C47.0234 38.0469 47.1294 37.4883 47.1265 37.0051C47.1161 35.2868 47.0962 33.5634 46.955 31.8523C46.7512 29.3784 46.4383 26.9135 46.1713 24.4449C46.1657 24.3918 46.1536 24.3394 46.139 24.2567H45.3126V36.0872H44.2199V24.2611H42.9876V36.0931H41.8942V24.2499H40.6971V36.0853H39.6121V24.2533H38.4774C38.3207 25.6529 38.1267 27.0428 38.0165 28.4395C37.8113 31.0368 37.634 33.6369 37.4912 36.2381C37.4468 37.0442 37.4106 37.8839 37.9571 38.5946C38.7035 39.5656 39.6563 40.2385 40.8206 40.614C40.9113 40.6431 41.0037 40.6673 41.0942 40.6974C41.1184 40.7054 41.1386 40.7255 41.1978 40.7644C41.1609 41.5444 41.1255 42.3471 41.0845 43.1492C40.9511 45.767 40.8126 48.3843 40.686 51.0022C40.675 51.2288 40.6042 51.3338 40.3832 51.403C37.3468 52.3531 34.2799 52.5088 31.1712 51.8037C30.9048 51.7433 30.7867 51.6581 30.7722 51.3603C30.5912 47.6786 30.3945 43.998 30.2034 40.3168C30.1951 40.1548 30.2024 39.9918 30.2024 39.8984Z" fill="white"/>
<path d="M24.0447 33.2662C24.1255 31.7982 24.384 30.5827 25.0979 29.505C25.1772 29.3849 25.3589 29.3328 25.493 29.2491C25.5149 29.4082 25.5883 29.5809 25.5508 29.7245C24.7554 32.7495 25.3848 35.4616 27.3098 37.9001C27.3819 37.9916 27.392 38.1318 27.4309 38.2489C27.2948 38.2487 27.1194 38.3035 27.0299 38.2387C26.5467 37.8907 26.0196 37.5717 25.6289 37.1339C24.6055 35.987 24.1279 34.6003 24.0447 33.2662Z" fill="white"/>
</svg>
