<svg width="290" height="358" viewBox="0 0 290 358" fill="none" xmlns="http://www.w3.org/2000/svg">
<path d="M145.293 289.586C224.984 289.586 289.586 224.984 289.586 145.293C289.586 65.6022 224.984 1 145.293 1C65.6022 1 1 65.6022 1 145.293C1 224.984 65.6022 289.586 145.293 289.586Z" fill="#71AF6D" stroke="white" stroke-width="0.279" stroke-miterlimit="10"/>
<path d="M218.347 107.689L281.89 191.252C280.884 194.223 279.49 198.03 277.614 202.368C274.24 210.094 270.236 217.53 265.643 224.6C260.207 232.939 253.902 240.678 246.832 247.686C221.115 272.905 187.04 287.814 151.064 289.586C140.17 290.008 129.265 289.147 118.572 287.02C103.376 253.753 88.1803 220.484 72.985 187.212C82.835 199.185 95.4553 208.577 109.753 214.574C115.582 216.974 153.586 231.938 187.564 211.153C197.625 204.9 206.111 196.414 212.364 186.353C233.484 152.422 220.59 114.036 218.347 107.689Z" fill="#62915E"/>
<path d="M167.939 90.1878C168.348 87.8878 168.611 86.4058 168.873 84.9248L167.844 84.4828L165.178 89.6768C144.083 87.8048 144.083 87.8048 131.517 103.298C134.4 104.739 137.261 105.954 139.882 107.561C141.413 108.499 143.631 110.098 143.593 111.34C143.55 112.74 141.326 114.082 139.675 115.851L135.739 107.638L130.327 114.119L131.26 115.067L134.677 112.842C134.977 116.088 135.295 119.505 135.655 123.379H129.109C129.346 126.759 129.547 129.621 129.836 133.731C127.059 138.537 119.878 142.42 120.352 151.107C120.686 157.245 125.933 163.4 132.027 162.387C137.673 161.447 141.227 161.635 141.578 168.974C142.003 177.769 143.739 186.5 144.92 195.349C152.767 196.849 155.558 191.162 159.32 187.149C162.891 183.336 166.397 179.686 166.264 173.686C166.229 172.105 169.505 170.481 171.211 168.825C173.696 166.411 176.136 163.949 179.559 160.553L172.871 159.436C177.259 155.601 186.501 156.844 184.921 145.736C194.05 153.369 194.862 164.531 200.993 172.936L205.539 170.356L206.427 181.126L207.127 181.053C207.887 176.153 208.648 171.261 209.188 167.781C211.905 164.225 214.803 161.891 215.688 158.951C217.3 153.614 217.752 147.922 218.625 142.367C220.164 132.579 217.45 123.589 213.962 114.572C213.285 112.821 215.824 109.826 217.186 106.702C233.045 130.841 234.625 179.98 196.729 210.284C161.524 238.435 110.147 233.255 81.44 198.772C67.5255 182.171 60.6742 160.776 62.3569 139.18C64.0396 117.584 74.122 97.5092 90.44 83.2638C126.06 52.1108 175.268 59.6268 199.94 84.2328L195.587 89.0108L177.587 82.1388V90.1908L167.939 90.1878ZM99.055 87.4108L99.5741 88.0678C97.4741 89.0578 94.923 89.5848 93.333 91.1108C78.675 105.176 70.733 122.427 70.038 142.758C69.951 145.333 71.744 148.138 73.146 150.558C75.335 154.337 78.4111 157.658 80.2251 161.584C81.9871 165.398 81.913 170.127 83.925 173.747C88.1983 181.359 92.9005 188.723 98.0091 195.802C101.4 200.551 105.654 204.684 109.522 209.092L111.028 207.926C104.689 203.089 103.204 196.667 104.484 189.332C105.294 184.687 105.334 179.732 107.06 175.465C109.33 169.843 106.167 168.575 102.303 166.685C99.8957 165.532 97.798 163.822 96.184 161.697C91.706 155.451 84.7621 152.711 78.3631 155.464L74.957 144.55L72.638 145.65C72.316 141.171 71.288 136.841 76.968 134.994L78.808 139.187C81.508 130.187 84.651 122.266 93.076 119.336L95.776 113.496L100.201 118.33V98.2688L98.431 97.9688C95.9431 101.127 93.454 104.284 90.825 107.62C87.567 103.072 89.625 100.141 92.818 98.0018C97.118 95.1268 101.724 92.7198 106.146 90.1428C107.107 93.8678 98.046 93.7428 104.02 100.089C106.71 95.4698 109.346 91.4438 111.37 87.1308C111.903 85.9958 110.67 82.6568 110.027 82.5908C107.56 82.3367 105.067 82.6627 102.748 83.5428C101.243 84.1408 100.268 86.0748 99.055 87.4108ZM111.393 103.091C115.623 100.367 119.083 96.9198 123.179 95.8028C128.604 94.3228 131.179 90.4618 134.2 86.6718C136.163 84.4626 137.905 82.0665 139.4 79.5178C140.039 78.2718 139.423 74.9018 139.079 74.8588C134.896 74.3338 130.526 73.5308 126.479 74.2708C122.964 74.9128 119.779 77.4138 116.484 79.1538C116.16 79.3248 116.06 79.9198 115.594 80.8268C117.425 80.5878 118.694 80.4268 119.956 80.2678C122.118 89.5318 107.904 93.1058 111.393 103.093V103.091ZM204.619 192.286L202.9 190.505L192.693 201.634L193.768 202.667L204.619 192.286Z" fill="white"/>
<path d="M202.79 162.052L186.848 127.968C179.923 133.751 173.27 139.015 167.048 144.748C165.795 145.903 165.748 148.878 165.909 150.948C166.315 156.039 164.8 159.92 159.415 162.764C158.104 152.479 152.27 146.281 141.742 144.937C144.634 139.508 148.284 137.593 153.409 138.651C157.33 139.459 160.109 138.121 162.609 134.851C166.949 129.175 171.797 123.887 177.031 117.732L156.009 107.752L148.284 114.637C149.273 110.637 151.091 107.514 150.195 105.848C149.069 103.755 145.721 102.858 143.075 101.293C145.69 96.4636 149.204 94.3026 155.051 95.2276C166.297 97.0062 177.597 98.4092 188.951 99.4366C191.95 99.4793 194.868 98.4678 197.197 96.5786C202.911 91.9646 207.736 86.1786 213.717 82.0026C216.398 80.1326 220.996 81.0116 224.723 80.6436C224.232 84.2156 224.874 88.5956 223.023 91.1966C218.901 96.9786 213.738 102.088 208.585 107.04C205.697 109.814 204.577 112.507 205.101 116.48C206.514 127.18 207.132 137.998 208.949 148.619C209.973 154.623 208.488 158.63 202.79 162.052Z" fill="white"/>
<path d="M149.13 130.634L133.969 132.183C142.79 122.173 143.301 122.089 149.13 130.634Z" fill="white"/>
<ellipse cx="145" cy="330.5" rx="27" ry="27.5" fill="#0F367C"/>
</svg>
