<svg width="567" height="634" viewBox="0 0 567 634" fill="none" xmlns="http://www.w3.org/2000/svg">
<path d="M194.082 283.852C143.415 283.852 102.342 242.779 102.342 192.112C102.342 141.444 143.415 100.371 194.082 100.371C244.749 100.371 285.822 141.444 285.822 192.112C285.822 242.779 244.749 283.852 194.082 283.852ZM387.826 186.667L366.999 177.684C362.87 175.903 360.022 172.183 359.382 167.731C358.742 163.279 360.426 158.907 363.886 156.035L381.338 141.548C381.532 141.387 381.594 141.116 381.49 140.885L355.058 83.0066C354.952 82.7786 354.711 82.6453 354.457 82.688L332.081 86.3906C327.317 87.1813 322.47 85.1827 319.624 81.2973C317.188 77.972 316.508 73.8027 317.758 69.8613L324.607 48.24C324.683 47.9986 324.588 47.7373 324.376 47.6L270.849 13.2C270.637 13.064 270.358 13.0866 270.171 13.2546L253.35 28.468C250.946 30.6413 247.987 31.7906 244.794 31.7906C238.895 31.7906 233.9 27.9787 232.363 22.3053L226.435 0.413269C226.37 0.169269 226.148 0 225.896 0H162.267C162.015 0 161.794 0.169269 161.729 0.413269L155.801 22.3053C154.265 27.9787 149.269 31.7906 143.37 31.7906C140.177 31.7906 137.218 30.6413 134.815 28.468L117.993 13.2546C117.806 13.0866 117.529 13.064 117.315 13.2L63.7872 47.6C63.5752 47.7373 63.4805 47.9986 63.5565 48.24L70.4059 69.8613C71.6552 73.8027 70.9752 77.972 68.5405 81.2973C65.6938 85.1813 60.8592 87.1866 56.0832 86.3906L33.7072 82.688C33.4618 82.6466 33.2125 82.7773 33.1058 83.0066L6.67382 140.885C6.56982 141.116 6.63118 141.387 6.82584 141.548L24.2778 156.035C27.7378 158.907 29.4218 163.279 28.7818 167.731C28.1418 172.183 25.2938 175.903 21.1645 177.684L0.337822 186.667C0.107155 186.765 -0.0301772 187.009 0.00582278 187.26L9.06185 250.241C9.09785 250.492 9.2965 250.685 9.5485 250.716L32.0618 253.468C36.5245 254.013 40.3045 256.78 42.1725 260.871C44.0405 264.963 43.6578 269.632 41.1458 273.363L28.4818 292.18C28.3418 292.389 28.3592 292.667 28.5245 292.857L70.1925 340.944C70.3565 341.135 70.6285 341.191 70.8565 341.083L91.2859 331.225C93.0619 330.368 94.9379 329.933 96.8592 329.933C100.281 329.933 103.635 331.355 106.062 333.832C108.471 336.295 109.758 339.568 109.685 343.049L109.203 365.725C109.198 365.977 109.363 366.203 109.606 366.273L170.658 384.2C170.903 384.271 171.161 384.172 171.293 383.956L183.147 364.62C185.498 360.787 189.584 358.499 194.082 358.499C198.579 358.499 202.667 360.787 205.017 364.62L216.874 383.956C216.976 384.125 217.158 384.224 217.349 384.224L217.506 384.2L278.558 366.273C278.802 366.203 278.966 365.977 278.96 365.725L278.481 343.049C278.406 339.568 279.693 336.295 282.103 333.832C284.529 331.355 287.882 329.933 291.305 329.933C293.226 329.933 295.102 330.368 296.879 331.225L317.307 341.083C317.532 341.191 317.806 341.135 317.973 340.944L359.641 292.857C359.805 292.667 359.823 292.389 359.682 292.18L347.018 273.363C344.507 269.632 344.123 264.963 345.991 260.871C347.86 256.78 351.639 254.013 356.102 253.468L378.615 250.716C378.867 250.685 379.066 250.492 379.102 250.241L388.158 187.26C388.194 187.009 388.058 186.765 387.826 186.667" fill="#F7D77F"/>
<path d="M381.982 544.921C344.839 528.257 328.238 484.639 344.902 447.497C361.564 410.355 405.183 393.753 442.326 410.417C479.468 427.08 496.068 470.699 479.406 507.841C462.742 544.984 419.123 561.585 381.982 544.921ZM555.972 537.397L543.659 523.963C541.218 521.299 540.354 517.635 541.348 514.161C542.343 510.687 545.016 508.036 548.496 507.069L566.055 502.189C566.249 502.135 566.384 501.956 566.383 501.753L566.043 450.631C566.04 450.428 565.907 450.252 565.707 450.199L548.086 445.553C544.334 444.567 541.437 441.508 540.629 437.723C539.937 434.485 540.811 431.205 543.023 428.727L555.155 415.129C555.289 414.977 555.307 414.755 555.196 414.584L527.27 371.761C527.159 371.593 526.947 371.519 526.755 371.58L509.42 377.199C506.944 378.001 504.396 377.872 502.056 376.821C497.732 374.881 495.324 370.444 496.063 365.78L498.918 347.781C498.95 347.581 498.843 347.385 498.657 347.301L452.014 326.375C451.828 326.292 451.611 326.343 451.482 326.5L439.938 340.6C436.946 344.253 432.03 345.404 427.706 343.464C425.364 342.413 423.573 340.599 422.527 338.215L415.198 321.531C415.116 321.345 414.92 321.237 414.719 321.267L364.166 328.88C363.966 328.911 363.81 329.072 363.787 329.273L361.696 347.376C361.316 350.677 359.446 353.509 356.568 355.147C353.204 357.057 348.999 356.937 345.762 354.783L330.575 344.709C330.41 344.599 330.183 344.612 330.031 344.745L291.618 378.481C291.466 378.616 291.422 378.835 291.511 379.017L299.54 395.377C301.132 398.62 300.928 402.379 298.995 405.432C297.062 408.484 293.751 410.276 290.138 410.223L271.916 409.959C271.714 409.956 271.534 410.088 271.479 410.284L257.403 459.432C257.347 459.627 257.43 459.836 257.603 459.94L273.202 469.361C276.295 471.229 278.155 474.501 278.179 478.113C278.203 481.727 276.387 485.024 273.319 486.933L257.847 496.563C257.675 496.669 257.595 496.88 257.654 497.073L272.384 546.028C272.443 546.221 272.624 546.352 272.827 546.348L291.044 545.841C292.628 545.797 294.147 546.095 295.556 546.727C298.063 547.852 300.055 549.997 301.019 552.611C301.975 555.209 301.843 558.032 300.643 560.56L292.832 577.025C292.746 577.208 292.792 577.428 292.947 577.559L331.807 610.78C331.963 610.912 332.184 610.924 332.351 610.809L347.402 600.533C350.386 598.496 354.135 598.163 357.431 599.643C360.728 601.121 362.972 604.143 363.434 607.727L365.766 625.8C365.786 625.957 365.887 626.089 366.027 626.152L366.15 626.187L416.802 633.125C417.003 633.153 417.198 633.043 417.276 632.856L424.382 616.075C425.472 613.497 427.494 611.521 430.07 610.509C432.663 609.491 435.588 609.551 438.098 610.677C439.506 611.308 440.736 612.245 441.759 613.457L453.492 627.401C453.622 627.555 453.84 627.604 454.024 627.519L500.386 605.972C500.568 605.887 500.674 605.689 500.639 605.489L497.544 587.531C496.93 583.969 498.186 580.42 500.9 578.035C503.615 575.652 507.295 574.865 510.747 575.933L528.155 581.32C528.349 581.381 528.559 581.304 528.668 581.133L556.02 537.941C556.128 537.769 556.108 537.547 555.972 537.397" fill="#547C8E"/>
<path d="M126.718 534.101C102.95 523.439 92.3256 495.527 102.99 471.76C113.652 447.992 141.564 437.368 165.331 448.032C189.099 458.695 199.722 486.607 189.059 510.373C178.396 534.141 150.484 544.765 126.718 534.101ZM238.054 529.287L230.175 520.691C228.612 518.985 228.06 516.64 228.696 514.419C229.334 512.195 231.043 510.499 233.271 509.88L244.506 506.757C244.631 506.721 244.718 506.608 244.716 506.479L244.499 473.764C244.498 473.635 244.412 473.523 244.284 473.488L233.008 470.516C230.607 469.884 228.754 467.927 228.236 465.505C227.794 463.433 228.352 461.335 229.768 459.748L237.531 451.047L237.558 450.699L219.688 423.296C219.616 423.188 219.482 423.14 219.359 423.18L208.266 426.776C206.682 427.289 205.051 427.205 203.554 426.533C200.786 425.292 199.246 422.453 199.718 419.469L201.544 407.951C201.566 407.824 201.498 407.697 201.379 407.644L171.531 394.253L171.191 394.333L163.803 403.356C161.888 405.693 158.743 406.429 155.976 405.188C154.479 404.516 153.332 403.355 152.662 401.829L147.972 391.153C147.92 391.035 147.795 390.965 147.667 390.984L115.316 395.856C115.188 395.876 115.09 395.979 115.074 396.108L113.736 407.692C113.494 409.804 112.296 411.616 110.455 412.664C108.303 413.887 105.612 413.809 103.54 412.432L93.8229 405.985L93.4736 406.008L68.8936 427.596L68.8256 427.939L73.9629 438.408C74.9816 440.483 74.8509 442.888 73.6136 444.841C72.3776 446.795 70.2576 447.941 67.9469 447.908L56.2856 447.739C56.1576 447.736 56.0416 447.821 56.0056 447.947L46.9989 479.397C46.9643 479.521 47.0149 479.655 47.1269 479.721L57.1096 485.751C59.0882 486.947 60.2789 489.039 60.2936 491.351C60.3096 493.664 59.1469 495.773 57.1829 496.995L47.2829 503.157C47.1736 503.225 47.1229 503.36 47.1603 503.483L56.5856 534.811C56.6229 534.933 56.7389 535.017 56.8683 535.015L68.5256 534.691C69.5403 534.663 70.5109 534.852 71.4136 535.257C73.0176 535.976 74.2923 537.349 74.9083 539.023C75.5216 540.684 75.4362 542.491 74.6682 544.109L69.6709 554.644L69.7443 554.987L94.6109 576.244L94.9589 576.264L104.59 569.688C106.499 568.384 108.898 568.171 111.007 569.117C113.116 570.064 114.554 571.997 114.848 574.291L116.342 585.856L116.508 586.081L116.587 586.104L148.999 590.544C149.127 590.561 149.252 590.491 149.303 590.371L153.85 579.632C154.547 577.984 155.84 576.719 157.488 576.071C159.148 575.42 161.02 575.459 162.626 576.179C163.527 576.583 164.315 577.183 164.968 577.959L172.476 586.881L172.818 586.956L202.484 573.168C202.602 573.113 202.668 572.987 202.646 572.859L200.666 561.368C200.274 559.089 201.076 556.817 202.814 555.291C204.551 553.765 206.906 553.263 209.114 553.947L220.255 557.393C220.379 557.432 220.512 557.383 220.582 557.273L238.086 529.635L238.054 529.287" fill="#C57373"/>
<path d="M217.348 384.224C217.158 384.224 216.976 384.125 216.874 383.956L205.016 364.62C204.127 363.169 202.987 361.939 201.671 360.971C199.511 359.383 196.875 358.499 194.082 358.499C193.659 358.499 193.242 358.519 192.828 358.559C188.834 358.941 185.276 361.147 183.146 364.62L171.292 383.956C171.188 384.125 171.008 384.223 170.816 384.223C170.764 384.223 170.711 384.216 170.658 384.2L109.606 366.273C109.367 366.204 109.203 365.985 109.203 365.737C109.203 365.733 109.203 365.729 109.203 365.725L109.684 343.049C109.686 342.955 109.687 342.86 109.687 342.764C109.687 339.389 108.404 336.227 106.062 333.832C105.554 333.313 105.006 332.841 104.426 332.42C102.228 330.821 99.5657 329.933 96.859 329.933C94.9377 329.933 93.0617 330.368 91.2857 331.225L76.2017 338.503L70.8564 341.083C70.779 341.119 70.6963 341.136 70.615 341.136C70.4563 341.136 70.3004 341.069 70.1924 340.944L28.5244 292.857C28.4337 292.753 28.387 292.623 28.387 292.492C28.387 292.383 28.419 292.275 28.4817 292.18L41.1457 273.363C42.607 271.192 43.3483 268.701 43.343 266.193C43.3403 264.392 42.9523 262.581 42.1723 260.871C41.0323 258.375 39.1804 256.371 36.895 255.065C35.4364 254.231 33.8004 253.68 32.0617 253.468L19.039 251.876L9.54835 250.716C9.29635 250.685 9.09769 250.492 9.06169 250.241L0.0056722 187.26C0.0016722 187.232 0.000366211 187.205 0.000366211 187.179C0.000366211 186.959 0.132338 186.756 0.337671 186.667L21.1644 177.684C25.2937 175.903 28.1417 172.183 28.7817 167.731C28.871 167.105 28.915 166.48 28.915 165.861C28.9123 162.079 27.251 158.503 24.2777 156.035L6.82569 141.548C6.69502 141.44 6.62436 141.283 6.62302 141.12C6.62302 141.041 6.63901 140.961 6.67367 140.887L16.4443 119.492C46.391 156.312 77.479 192.196 109.308 227.416L109.44 227.559C117.784 247.463 132.946 263.799 152.002 273.653C183.91 307.648 216.287 341.196 248.212 375.184L224.462 382.157L217.506 384.2L217.348 384.224" fill="#E6C876"/>
<path d="M416.863 633.129C416.842 633.129 416.822 633.128 416.802 633.125L383.41 628.552L366.15 626.187L366.027 626.152C365.958 626.121 365.898 626.072 365.852 626.012C365.807 625.952 365.776 625.879 365.766 625.8L363.434 607.727C363.038 604.656 361.334 601.999 358.78 600.369C358.354 600.097 357.903 599.855 357.431 599.643C356.07 599.031 354.63 598.729 353.199 598.729C351.167 598.729 349.152 599.339 347.402 600.533L332.351 610.809C332.32 610.831 332.287 610.848 332.254 610.86C332.203 610.879 332.151 610.888 332.099 610.888C331.995 610.888 331.891 610.852 331.807 610.78L292.947 577.559C292.792 577.428 292.746 577.208 292.832 577.025L296.938 568.371L300.643 560.56C300.922 559.972 301.143 559.368 301.307 558.755C301.846 556.731 301.752 554.604 301.019 552.611C300.055 549.997 298.063 547.852 295.556 546.727C294.238 546.136 292.824 545.837 291.351 545.837C291.35 545.837 291.35 545.837 291.35 545.837C291.248 545.837 291.146 545.839 291.044 545.841L272.827 546.348C272.823 546.348 272.82 546.348 272.818 546.348C272.618 546.348 272.443 546.219 272.384 546.028L257.654 497.073C257.642 497.031 257.635 496.988 257.635 496.945C257.635 496.793 257.712 496.647 257.847 496.563L273.319 486.933C276.387 485.024 278.203 481.727 278.179 478.113C278.155 474.501 276.295 471.229 273.202 469.361L257.603 459.94C257.471 459.861 257.392 459.723 257.386 459.575C257.384 459.528 257.39 459.48 257.403 459.432L271.479 410.284C271.52 410.135 271.638 410.02 271.78 409.977C271.782 409.977 271.782 409.977 271.783 409.977C271.784 409.976 271.786 409.976 271.787 409.976C271.788 409.975 271.79 409.975 271.791 409.975C271.792 409.975 271.792 409.973 271.794 409.973C271.795 409.973 271.798 409.972 271.8 409.972C271.803 409.971 271.806 409.971 271.81 409.969C271.812 409.969 271.815 409.968 271.818 409.968C271.819 409.968 271.82 409.968 271.822 409.967C271.823 409.967 271.826 409.967 271.827 409.967C271.827 409.965 271.828 409.965 271.828 409.965C271.843 409.963 271.858 409.961 271.872 409.96C271.88 409.959 271.888 409.959 271.898 409.959C271.9 409.959 271.903 409.959 271.906 409.959C271.907 409.959 271.908 409.959 271.91 409.959C271.912 409.959 271.914 409.959 271.916 409.959L280.638 410.085C300.095 431.253 319.366 452.591 338.512 474.039C337.122 502.404 352.308 530.056 378.931 543.469C378.936 543.472 378.94 543.475 378.946 543.477C378.967 543.488 378.992 543.5 379.014 543.512C379.022 543.515 379.028 543.519 379.035 543.523C379.103 543.556 379.168 543.589 379.238 543.623C379.25 543.629 379.263 543.636 379.275 543.641C379.291 543.649 379.311 543.66 379.326 543.667C379.342 543.675 379.356 543.683 379.371 543.689C379.387 543.697 379.404 543.707 379.42 543.713C379.439 543.723 379.459 543.733 379.478 543.743C379.499 543.753 379.519 543.763 379.542 543.773C379.56 543.783 379.582 543.793 379.6 543.803C379.614 543.809 379.63 543.817 379.643 543.824C379.662 543.833 379.679 543.841 379.698 543.851C379.711 543.857 379.724 543.864 379.738 543.871C379.76 543.881 379.784 543.893 379.806 543.904C379.815 543.908 379.824 543.912 379.832 543.916C379.863 543.932 379.895 543.947 379.926 543.961C379.934 543.965 379.948 543.973 379.958 543.977C379.98 543.988 380.002 543.999 380.024 544.009C380.035 544.015 380.046 544.02 380.058 544.025C380.082 544.037 380.106 544.049 380.13 544.06C380.139 544.064 380.146 544.068 380.155 544.072C380.186 544.087 380.219 544.103 380.25 544.117C380.259 544.123 380.264 544.125 380.274 544.129C380.299 544.141 380.324 544.153 380.35 544.165C380.358 544.169 380.368 544.175 380.378 544.179C380.403 544.191 380.428 544.204 380.454 544.216C380.46 544.219 380.47 544.223 380.476 544.227C380.543 544.259 380.608 544.289 380.675 544.32C380.682 544.324 380.691 544.328 380.698 544.331C380.726 544.344 380.75 544.356 380.778 544.368C380.784 544.372 380.794 544.376 380.8 544.379C380.867 544.411 380.934 544.441 381 544.473C381.007 544.476 381.014 544.479 381.02 544.483C381.048 544.495 381.074 544.507 381.102 544.52C381.11 544.524 381.116 544.527 381.126 544.531C381.155 544.545 381.183 544.557 381.212 544.571C381.216 544.573 381.222 544.575 381.226 544.577C381.258 544.592 381.295 544.609 381.328 544.624C381.33 544.625 381.338 544.629 381.339 544.629C381.367 544.643 381.399 544.657 381.426 544.669C381.435 544.673 381.443 544.677 381.452 544.681C381.48 544.695 381.504 544.705 381.532 544.719C381.539 544.721 381.546 544.724 381.552 544.728C381.586 544.743 381.62 544.759 381.652 544.773C381.658 544.775 381.662 544.777 381.666 544.779C381.694 544.792 381.724 544.805 381.752 544.819C381.763 544.823 381.77 544.827 381.782 544.831C381.806 544.843 381.831 544.853 381.855 544.864C381.864 544.868 381.874 544.873 381.882 544.877C381.915 544.892 381.948 544.907 381.982 544.921C382.016 544.937 382.052 544.953 382.088 544.969C382.098 544.973 382.11 544.979 382.118 544.983C382.144 544.995 382.17 545.005 382.195 545.017C382.208 545.023 382.218 545.027 382.232 545.033C382.255 545.044 382.28 545.055 382.304 545.065C382.318 545.071 382.326 545.075 382.34 545.081C382.364 545.092 382.388 545.103 382.412 545.113C382.426 545.119 382.435 545.124 382.45 545.129C382.482 545.144 382.516 545.159 382.55 545.173C382.566 545.18 382.582 545.188 382.598 545.195C382.616 545.203 382.634 545.211 382.652 545.219C382.671 545.227 382.691 545.236 382.71 545.244C382.724 545.251 382.74 545.257 382.755 545.264C382.776 545.272 382.798 545.283 382.819 545.291C382.83 545.296 382.842 545.301 382.852 545.305C382.878 545.316 382.9 545.327 382.926 545.337C382.928 545.339 382.932 545.34 382.936 545.341C390.703 548.697 398.735 550.612 406.736 551.2C427.176 574.468 447.588 597.76 468.066 620.993L458.866 625.269L454.024 627.519C453.971 627.544 453.915 627.557 453.86 627.56C453.852 627.56 453.844 627.561 453.836 627.561C453.706 627.561 453.579 627.504 453.492 627.401L441.759 613.457C441.444 613.084 441.108 612.736 440.755 612.416C439.96 611.696 439.071 611.113 438.098 610.677C436.776 610.084 435.339 609.787 433.895 609.787C432.599 609.787 431.296 610.027 430.07 610.509C428.439 611.149 427.031 612.176 425.94 613.496C425.308 614.263 424.782 615.128 424.382 616.075L417.276 632.856C417.204 633.023 417.04 633.129 416.863 633.129" fill="#4E7384"/>
</svg>
