<svg width="300" height="300" viewBox="0 0 300 300" fill="none" xmlns="http://www.w3.org/2000/svg">
<path d="M300 150C300 232.842 232.843 300 150.001 300C67.1584 300 0 232.842 0 150C0 67.1576 67.1584 -8.66294e-06 150.001 -8.66294e-06C232.843 -8.66294e-06 300 67.1576 300 150Z" fill="#F9D564"/>
<path d="M86.7574 243.474C85.9435 242.984 85.1461 242.461 84.3124 242.008C77.5865 238.353 75.6404 231.573 79.728 225.077C87.2762 213.082 95.0427 201.224 102.558 189.209C104.022 186.867 105.112 184.157 105.776 181.468C109.252 167.396 112.392 153.24 116.022 139.21C116.638 136.826 118.635 134.217 120.738 132.901C129.598 127.358 138.739 122.265 147.52 117.158C154.511 124.602 153.167 132.761 150.59 140.842C148.975 145.91 149.836 149.394 154.188 152.834C159.892 157.338 164.929 162.685 170.647 168.04C176.186 158.523 181.446 149.485 187.023 139.906C179.616 137.044 172.631 134.099 165.472 131.668C161.032 130.162 158.092 127.73 156.343 123.292C154.211 117.877 151.631 112.62 148.939 107.455C148.184 106.004 146.356 105.111 145.019 103.962C144.913 105.699 144.669 107.443 144.759 109.17C144.808 110.1 145.431 111.001 146.025 112.49C137.153 117.676 128.3 122.851 118.505 128.574C120.766 118.981 122.806 110.316 124.85 101.652C125.845 97.4366 126.805 93.2118 127.856 89.0099C129.879 80.9169 135.58 75.3085 142.142 74.875C149.612 74.3812 156.777 79.2474 159.767 87.1522C163.068 95.8751 166.33 104.621 169.243 113.477C170.471 117.212 172.594 119.117 176.267 120.256C182.943 122.328 189.454 124.926 196.072 127.195C199.402 128.335 201.815 130.345 201.633 133.978C201.443 137.769 199.412 140.396 195.441 141.495C193.893 141.923 192.14 143.103 191.326 144.453C185.901 153.439 180.704 162.564 175.01 172.374C184.644 177.778 182.47 187.218 182.618 195.888C182.806 206.899 182.785 217.914 182.77 228.927C182.758 236.852 178.26 241.78 171.254 241.74C163.912 241.697 159.989 237.258 159.979 228.943C159.966 219.439 159.975 209.934 158.924 199.915C150.562 214.435 142.199 228.954 133.837 243.474H130.831C128.654 241.329 129.151 239.278 130.602 236.835C137.407 225.382 144.054 213.837 150.745 202.317C153.562 197.467 156.347 192.599 159.267 187.532C150.799 180.591 142.67 173.926 134.146 166.937C133.529 169.442 133.083 171.044 132.745 172.667C130.354 184.124 127.071 195.08 120.012 204.843C113.094 214.41 107.381 224.842 100.712 234.602C98.3859 238.007 94.7849 240.542 91.765 243.474H86.7574Z" fill="white"/>
<path d="M89.0849 68.909C88.4165 69.1491 87.7491 69.3893 87.0807 69.6294C85.4829 76.3699 83.8851 83.1104 82.1698 90.3436C90.8501 92.509 98.9888 94.5383 107.525 96.6683C109.376 89.3103 111.099 82.4648 112.851 75.4956C111.309 75.2108 109.53 74.7409 109.475 74.8917C107.551 80.2443 105.786 85.6563 103.907 91.3406C98.3536 89.8873 92.976 88.4808 87.4175 87.0264C88.6234 82.0272 89.8729 77.6995 90.6079 73.2855C90.8303 71.9476 89.6317 70.3748 89.0849 68.909ZM98.733 150.252C90.2721 148.23 82.3133 146.46 74.4261 144.411C62.8445 141.403 59.9753 136.592 62.6459 125.098C63.5794 121.085 64.6096 117.095 65.7043 112.653C77.4409 115.537 88.7211 118.309 100.326 121.16C100.797 119.764 101.249 118.419 101.83 116.693C90.0954 113.743 78.6852 110.875 66.6804 107.857C70.5684 92.3011 73.8149 76.8398 78.3931 61.7839C81.8267 50.4943 94.2078 44.6519 105.884 47.2539C117.268 49.7915 125.618 60.6601 123.893 72.5495C122.393 82.891 119.379 93.0195 116.93 103.218C112.501 121.679 107.998 140.123 103.52 158.573C103.245 159.706 103.25 161.13 102.548 161.883C101.568 162.935 99.8578 164.271 98.8068 164.022C97.7735 163.778 96.4148 161.628 96.5313 160.446C96.8535 157.185 97.8712 153.992 98.733 150.252" fill="white"/>
<path d="M163.434 75.5121C154.422 75.5849 147.072 68.4702 146.952 59.557C146.834 50.6906 154.108 43.263 163.022 43.1465C171.956 43.0301 179.31 50.1843 179.479 59.1557C179.646 68.0793 172.425 75.4404 163.434 75.5121Z" fill="white"/>
</svg>
