<svg width="289" height="289" viewBox="0 0 289 289" fill="none" xmlns="http://www.w3.org/2000/svg">
<path d="M144.293 288.586C223.984 288.586 288.586 223.984 288.586 144.293C288.586 64.6022 223.984 0 144.293 0C64.6022 0 0 64.6022 0 144.293C0 223.984 64.6022 288.586 144.293 288.586Z" fill="#AAAAAA"/>
<path d="M196.684 74.0698V222.17H211.223V230.949H70.801V222.387H85.093V74.0698H196.684ZM155.439 182.144H126.651V221.993H155.439V182.144ZM118.539 209.865V182.099H95.679V209.865H118.539ZM163.627 182.018V209.802H186.436V182.018H163.627ZM152.513 117.04H129.333V137.165H152.517L152.513 117.04ZM186.232 137.301V117.046H163.412V137.301H186.232ZM152.432 148.281H129.423V168.317H152.44L152.432 148.281ZM186.34 168.311V148.327H163.24V168.311H186.34ZM95.35 117.033V137.239H118.29V117.033H95.35ZM118.208 168.376V148.276H95.438V168.376H118.208ZM129.474 87.7398V107.809H152.398V87.7398H129.474ZM163.186 107.755H186.211V87.8548H163.19L163.186 107.755ZM118.271 87.9118H95.331V107.861H118.275L118.271 87.9118Z" fill="white"/>
<path d="M95.882 58.1548C96.097 61.5218 96.282 64.4318 96.475 67.4668H90.498V47.8868H96.404C96.247 50.6438 96.0901 53.4018 95.9181 56.4278H102.93C102.799 53.4888 102.678 50.7578 102.548 47.8408H108.34V67.5008H102.282C102.527 64.5318 102.777 61.4888 103.052 58.1548H95.882Z" fill="white"/>
<path d="M122.909 47.3199C129.082 47.3399 133.404 51.4019 133.509 57.2869C133.572 58.687 133.347 60.0852 132.847 61.3945C132.347 62.7038 131.582 63.8961 130.601 64.8972C129.62 65.8984 128.444 66.6869 127.145 67.2138C125.846 67.7407 124.453 67.9947 123.052 67.9599C116.622 68.0219 112.044 63.4919 112.212 57.2319C112.375 51.3869 116.781 47.3009 122.909 47.3199ZM128.123 57.6639C128.146 51.6829 126.457 48.5939 123.103 48.4859C119.563 48.3729 117.509 51.8069 117.564 57.7459C117.616 63.4459 119.606 66.7929 122.926 66.7629C126.246 66.7329 128.095 63.4939 128.123 57.6639Z" fill="white"/>
<path d="M171.848 51.407L163.118 47.871V57.362L167.283 54.162V60.726L163.03 57.451V65.587C167.004 67.517 169.919 65.725 172.895 62.471C172.725 64.438 172.612 65.758 172.474 67.354H157.459V47.854H171.644L171.848 51.407Z" fill="white"/>
<path d="M147.523 47.7529V67.4439H141.376V48.1959L135.823 51.3869V47.9049H153.383V51.7129L147.523 47.7529Z" fill="white"/>
<path d="M177.476 67.4981V47.7871H182.876C182.876 53.5321 182.655 59.1511 182.985 64.7381C183.116 66.9531 188.609 67.0781 190.731 64.8741C191.693 63.6602 192.555 62.3703 193.309 61.0171C193.364 62.1207 193.355 63.2265 193.284 64.3291C193.091 65.3988 192.845 66.4581 192.546 67.5031L177.476 67.4981Z" fill="white"/>
</svg>
