<svg width="290" height="290" viewBox="0 0 290 290" fill="none" xmlns="http://www.w3.org/2000/svg">
<path d="M145.293 289.586C224.984 289.586 289.586 224.984 289.586 145.293C289.586 65.6022 224.984 1 145.293 1C65.6022 1 1 65.6022 1 145.293C1 224.984 65.6022 289.586 145.293 289.586Z" fill="#A8DEFF" stroke="white" stroke-width="0.274" stroke-miterlimit="10"/>
<path d="M230.784 112.135C230.862 114.153 231.008 116.17 231.009 118.188C231.025 143.507 231.025 168.826 231.009 194.145C231.002 202.971 225.728 208.206 216.943 208.206C170.173 208.206 123.403 208.206 76.633 208.206C68.103 208.206 62.833 202.974 62.833 194.433C62.839 167.708 62.8587 140.982 62.892 114.257C62.892 113.557 62.939 112.857 62.964 112.157C72.9907 112.162 83.0173 112.167 93.044 112.172C138.96 112.159 184.873 112.147 230.784 112.135Z" fill="#FEFEFE"/>
<path d="M148.41 162.898C171.01 162.898 193.607 162.911 216.202 162.938C218.093 162.943 218.73 162.553 218.785 160.509C218.847 158.197 217.864 158.033 216.006 158.035C171.251 158.074 126.495 158.085 81.74 158.066C81.125 158.066 80.509 158.066 79.894 158.075C79.6813 158.04 79.4632 158.071 79.2688 158.164C79.0743 158.257 78.9128 158.407 78.806 158.594C78.5465 159.038 78.4115 159.544 78.4154 160.058C78.4192 160.573 78.5617 161.077 78.8279 161.517C79.094 161.957 79.474 162.317 79.9277 162.56C80.3814 162.802 80.8921 162.917 81.406 162.894C103.742 162.898 126.077 162.899 148.41 162.898Z" fill="#FEFEFE"/>
<path d="M170.573 187.495C167.945 184.002 165.536 180.82 163.151 177.62C162.115 176.23 161.024 174.882 159.041 175.6C157.225 176.258 157.431 177.928 157.474 179.407C157.59 183.351 157.749 187.295 157.915 191.238C157.946 192.113 158.041 192.984 158.2 193.845C158.231 194.247 158.415 194.622 158.714 194.893C159.013 195.164 159.405 195.31 159.808 195.301C160.029 195.319 160.252 195.293 160.463 195.225C160.674 195.156 160.87 195.046 161.038 194.902C161.207 194.757 161.345 194.581 161.445 194.383C161.545 194.185 161.605 193.968 161.621 193.747C161.757 192.705 161.836 191.657 161.858 190.606C161.892 188.2 161.869 185.793 161.869 182.697C162.969 184.051 163.592 184.775 164.169 185.535C166.131 188.122 168.046 190.746 170.04 193.307C170.42 193.91 170.991 194.367 171.662 194.606C172.333 194.844 173.065 194.85 173.74 194.622C175.095 194.132 174.881 192.778 174.886 191.663C174.908 187.096 174.897 182.529 174.886 177.963C174.886 176.54 174.532 175.163 172.856 175.106C171.031 175.044 170.583 176.432 170.579 177.988C170.568 180.964 170.573 183.941 170.573 187.495Z" fill="#FEFEFE"/>
<path d="M128.382 195.357C132.708 195.31 135.382 193.435 135.887 190.268C136.473 186.589 134.972 184.641 130.467 183.242C129.212 182.853 127.946 182.501 126.698 182.093C126.257 182.019 125.862 181.775 125.6 181.412C125.338 181.049 125.23 180.598 125.298 180.156C125.458 179.148 126.215 178.756 127.187 178.656C128.863 178.546 130.531 178.978 131.944 179.886C132.171 180.064 132.436 180.19 132.717 180.255C132.999 180.319 133.292 180.32 133.574 180.258C133.857 180.197 134.122 180.073 134.351 179.897C134.58 179.72 134.767 179.495 134.899 179.238C135.071 179.003 135.188 178.733 135.242 178.447C135.295 178.161 135.284 177.867 135.208 177.586C135.133 177.305 134.995 177.045 134.805 176.824C134.615 176.604 134.378 176.429 134.112 176.312C131.012 174.521 127.738 173.806 124.306 175.3C121.863 176.364 120.85 178.342 120.86 180.984C120.824 182.093 121.161 183.182 121.816 184.078C122.471 184.973 123.407 185.623 124.475 185.925C126.109 186.543 127.825 186.94 129.494 187.47C130.614 187.825 131.794 188.264 131.46 189.77C131.147 191.17 129.927 191.27 128.744 191.313C126.703 191.388 125.044 190.42 123.361 189.44C123.096 189.275 122.8 189.167 122.491 189.122C122.182 189.077 121.868 189.097 121.567 189.181C121.266 189.264 120.986 189.408 120.744 189.605C120.502 189.802 120.303 190.047 120.161 190.325C119.361 191.542 120.148 192.363 121.196 193.079C123.333 194.493 125.821 195.282 128.382 195.357V195.357Z" fill="#FEFEFE"/>
<path d="M129.543 148.732C133.822 148.746 136.483 146.887 136.954 143.555C137.47 139.903 135.913 137.948 131.398 136.581C130.141 136.2 128.883 135.826 127.628 135.438C127.233 135.361 126.881 135.139 126.642 134.815C126.403 134.492 126.294 134.09 126.337 133.69C126.431 132.655 127.184 132.237 128.146 132.103C129.911 131.967 131.672 132.42 133.153 133.389C133.391 133.554 133.663 133.664 133.949 133.71C134.235 133.755 134.528 133.735 134.805 133.652C135.083 133.568 135.338 133.423 135.551 133.228C135.764 133.032 135.931 132.79 136.038 132.521C136.181 132.293 136.274 132.038 136.31 131.772C136.347 131.506 136.327 131.235 136.251 130.977C136.176 130.719 136.046 130.481 135.872 130.276C135.697 130.072 135.481 129.908 135.238 129.793C131.967 127.875 128.538 127.165 124.964 128.938C122.656 130.084 121.852 132.097 121.921 134.603C121.91 135.668 122.253 136.707 122.895 137.557C123.536 138.407 124.442 139.021 125.469 139.303C127.195 139.93 128.99 140.363 130.733 140.947C131.751 141.288 132.785 141.741 132.545 143.131C132.314 144.467 131.183 144.675 130.145 144.746C128.2 144.783 126.296 144.185 124.722 143.041C123.537 142.29 122.293 142.241 121.538 143.576C120.816 144.855 121.378 145.926 122.569 146.703C124.644 148.049 127.07 148.755 129.543 148.732V148.732Z" fill="#FEFEFE"/>
<path d="M137.615 182.634L137.482 182.639C137.59 184.65 137.582 186.675 137.833 188.668C138.117 190.319 138.923 191.835 140.133 192.994C141.343 194.153 142.892 194.893 144.554 195.105C148.854 195.639 152.819 193.81 153.897 190.411C155.212 186.263 154.93 181.959 154.32 177.711C154.147 176.503 153.692 175.16 152.043 175.411C150.519 175.642 150.237 176.924 150.25 178.218C150.273 180.496 150.436 182.773 150.413 185.05C150.378 188.639 148.647 190.827 146.003 190.793C143.432 190.76 142.021 188.838 141.864 185.136C141.841 184.611 141.864 184.084 141.879 183.558C141.917 181.805 141.97 180.058 141.998 178.301C142.02 176.918 141.475 175.772 140.031 175.639C138.366 175.486 137.731 176.739 137.638 178.17C137.531 179.648 137.615 181.144 137.615 182.634Z" fill="#FEFEFE"/>
<path d="M140.186 148.49C140.733 148.357 141.224 148.053 141.585 147.621C141.947 147.189 142.16 146.652 142.194 146.09C142.503 144.347 143.434 143.503 145.294 143.79C146.079 143.89 146.874 143.879 147.655 143.757C150.448 143.374 152.907 143.357 153.421 147.078C153.451 147.346 153.547 147.602 153.699 147.825C153.852 148.048 154.057 148.229 154.296 148.354C154.535 148.479 154.801 148.544 155.071 148.542C155.34 148.541 155.606 148.473 155.843 148.345C157.086 147.88 157.768 146.982 157.207 145.68C154.925 140.38 152.587 135.108 150.236 129.841C150.013 129.308 149.626 128.859 149.131 128.562C148.635 128.264 148.057 128.133 147.482 128.187C146.29 128.243 145.682 129.103 145.228 130.125C144.345 132.125 143.428 134.11 142.515 136.095C141.088 139.195 139.582 142.253 138.244 145.387C137.517 147.089 138.531 148.602 140.186 148.49Z" fill="#FEFEFE"/>
<path d="M174.16 130.706C174.177 130.214 173.998 129.736 173.664 129.375C173.329 129.014 172.866 128.8 172.374 128.779C167.921 128.387 163.442 128.373 158.987 128.738C158.742 128.751 158.502 128.816 158.284 128.929C158.065 129.042 157.873 129.199 157.72 129.392C157.568 129.584 157.457 129.807 157.397 130.045C157.337 130.283 157.327 130.531 157.37 130.773C157.351 131.262 157.526 131.739 157.857 132.1C158.187 132.461 158.646 132.678 159.135 132.703C159.827 132.832 160.535 132.857 161.235 132.777C162.979 132.517 163.477 133.249 163.459 134.928C163.42 138.608 163.579 142.29 163.618 145.971C163.633 147.407 163.803 148.681 165.637 148.711C167.537 148.743 167.982 147.487 167.944 145.911C167.872 142.932 167.791 139.952 167.67 136.975C167.51 133.042 167.491 133.017 171.361 132.789C172.794 132.703 173.983 132.422 174.16 130.706Z" fill="#FEFEFE"/>
<path d="M230.784 112.135C184.873 112.146 138.962 112.157 93.051 112.167C83.0237 112.167 72.997 112.162 62.971 112.152C62.947 104.168 62.757 96.1801 62.95 88.2011C63.095 82.2011 68.317 77.1151 74.316 76.7201C76.851 76.5531 79.403 76.6201 81.947 76.5831C81.9937 81.6584 82.0417 86.7324 82.091 91.8051C82.141 96.2831 84.644 98.9811 88.691 98.9371C92.591 98.8951 94.91 96.2491 94.948 91.8021C94.9907 86.7294 95.0377 81.6561 95.089 76.5821C130.685 76.5861 166.281 76.5911 201.876 76.5971C201.921 81.6971 201.947 86.7921 202.019 91.8891C202.082 96.3191 204.512 98.9511 208.458 98.9371C212.404 98.9231 214.799 96.2771 214.831 91.8701C214.869 86.7727 214.911 81.6754 214.957 76.5781C219.623 76.4381 224.109 76.8061 227.512 80.6341C229.521 82.644 230.704 85.3339 230.827 88.1731C230.866 96.1601 230.804 104.148 230.784 112.135Z" fill="#3D6071"/>
<path d="M214.953 76.578C214.91 81.676 214.868 86.7733 214.827 91.87C214.795 96.277 212.413 98.924 208.454 98.937C204.495 98.95 202.078 96.319 202.015 91.889C201.943 86.789 201.915 81.695 201.872 76.597C201.934 74.597 202.005 72.597 202.055 70.589C202.155 66.559 204.755 63.778 208.434 63.772C212.113 63.766 214.789 66.597 214.853 70.559C214.885 72.5663 214.918 74.5726 214.953 76.578Z" fill="#5B8FAA"/>
<path d="M95.085 76.5819C95.0383 81.6546 94.9913 86.7279 94.944 91.8019C94.906 96.2489 92.591 98.8949 88.687 98.9369C84.644 98.9809 82.141 96.2829 82.087 91.8049C82.031 86.7323 81.983 81.6583 81.943 76.5829C81.987 74.6629 82.0307 72.7436 82.074 70.8249C82.174 66.5899 84.746 63.7969 88.558 63.7709C92.37 63.7449 94.905 66.5529 94.958 70.8249C94.98 72.7439 95.041 74.6629 95.085 76.5819Z" fill="#5B8FAA"/>
<path d="M148.41 162.898C126.077 162.898 103.743 162.898 81.41 162.898C80.8961 162.922 80.3854 162.806 79.9317 162.564C79.478 162.321 79.098 161.961 78.8319 161.521C78.5657 161.081 78.4232 160.577 78.4194 160.062C78.4155 159.548 78.5505 159.042 78.81 158.598C78.9168 158.411 79.0783 158.261 79.2728 158.168C79.4672 158.076 79.6853 158.044 79.898 158.079C80.513 158.071 81.129 158.07 81.744 158.07C126.5 158.07 171.255 158.06 216.01 158.039C217.868 158.039 218.851 158.201 218.789 160.513C218.734 162.557 218.097 162.947 216.206 162.942C193.606 162.877 171.007 162.863 148.41 162.898Z" fill="#417995"/>
<path d="M170.573 187.495C170.573 183.941 170.568 180.964 170.573 177.987C170.573 176.431 171.025 175.043 172.85 175.105C174.526 175.161 174.876 176.539 174.88 177.962C174.893 182.529 174.904 187.096 174.88 191.662C174.875 192.777 175.089 194.131 173.734 194.621C173.059 194.849 172.327 194.843 171.656 194.605C170.985 194.366 170.414 193.909 170.034 193.306C168.04 190.745 166.125 188.121 164.163 185.534C163.587 184.774 162.963 184.05 161.863 182.696C161.863 185.796 161.886 188.196 161.852 190.605C161.83 191.656 161.751 192.704 161.615 193.746C161.599 193.967 161.539 194.184 161.439 194.382C161.339 194.58 161.201 194.756 161.032 194.901C160.864 195.045 160.668 195.155 160.457 195.224C160.246 195.292 160.023 195.318 159.802 195.3C159.399 195.309 159.007 195.163 158.708 194.892C158.409 194.621 158.225 194.246 158.194 193.844C158.035 192.983 157.94 192.112 157.909 191.237C157.743 187.294 157.584 183.35 157.468 179.406C157.425 177.927 157.219 176.257 159.035 175.599C161.018 174.881 162.109 176.229 163.145 177.619C165.531 180.822 167.945 184.002 170.573 187.495Z" fill="#79BFE2"/>
<path d="M128.382 195.357C125.821 195.283 123.331 194.496 121.193 193.083C120.145 192.367 119.353 191.546 120.158 190.329C120.3 190.051 120.499 189.806 120.741 189.609C120.983 189.412 121.263 189.268 121.564 189.184C121.865 189.101 122.179 189.081 122.488 189.126C122.797 189.171 123.093 189.279 123.358 189.444C125.04 190.424 126.7 191.392 128.741 191.317C129.924 191.274 131.141 191.172 131.457 189.774C131.794 188.264 130.611 187.825 129.491 187.474C127.822 186.944 126.106 186.547 124.472 185.929C123.404 185.627 122.468 184.977 121.813 184.081C121.158 183.186 120.821 182.097 120.857 180.988C120.847 178.346 121.857 176.368 124.303 175.304C127.735 173.81 131.003 174.525 134.109 176.316C134.376 176.433 134.612 176.608 134.802 176.828C134.992 177.049 135.13 177.309 135.205 177.59C135.281 177.871 135.292 178.165 135.239 178.451C135.185 178.737 135.068 179.007 134.896 179.242C134.764 179.499 134.577 179.724 134.348 179.9C134.119 180.077 133.854 180.2 133.571 180.262C133.289 180.324 132.996 180.323 132.714 180.259C132.433 180.194 132.168 180.068 131.941 179.89C130.528 178.981 128.86 178.55 127.184 178.66C126.212 178.76 125.455 179.152 125.295 180.16C125.227 180.602 125.335 181.053 125.597 181.416C125.859 181.779 126.254 182.023 126.695 182.097C127.943 182.505 129.209 182.857 130.464 183.246C134.969 184.646 136.47 186.593 135.884 190.272C135.383 193.435 132.708 195.31 128.382 195.357Z" fill="#79BFE2"/>
<path d="M129.542 148.735C127.069 148.756 124.644 148.051 122.569 146.706C121.378 145.929 120.816 144.858 121.538 143.579C122.293 142.24 123.538 142.293 124.722 143.044C126.296 144.187 128.2 144.786 130.145 144.749C131.188 144.678 132.319 144.47 132.545 143.134C132.785 141.744 131.751 141.291 130.733 140.95C128.99 140.366 127.195 139.933 125.469 139.306C124.442 139.024 123.536 138.41 122.895 137.56C122.253 136.71 121.91 135.671 121.921 134.606C121.852 132.1 122.656 130.087 124.964 128.941C128.533 127.168 131.964 127.878 135.238 129.796C135.481 129.91 135.697 130.075 135.872 130.279C136.046 130.483 136.176 130.722 136.251 130.98C136.327 131.238 136.347 131.509 136.31 131.775C136.274 132.041 136.181 132.296 136.038 132.524C135.931 132.793 135.764 133.035 135.551 133.23C135.338 133.426 135.083 133.571 134.805 133.655C134.528 133.738 134.235 133.758 133.949 133.712C133.663 133.667 133.391 133.557 133.153 133.392C131.672 132.423 129.911 131.97 128.146 132.106C127.184 132.24 126.431 132.658 126.337 133.693C126.294 134.093 126.403 134.495 126.642 134.818C126.881 135.142 127.233 135.364 127.628 135.441C128.883 135.829 130.141 136.203 131.398 136.584C135.913 137.951 137.47 139.906 136.954 143.558C136.483 146.887 133.822 148.746 129.542 148.735Z" fill="#79BFE2"/>
<path d="M137.615 182.634C137.615 181.144 137.536 179.648 137.638 178.164C137.738 176.732 138.366 175.48 140.031 175.633C141.475 175.766 142.02 176.912 141.998 178.295C141.97 180.047 141.917 181.795 141.879 183.552C141.867 184.078 141.841 184.605 141.864 185.13C142.021 188.83 143.432 190.754 146.003 190.787C148.647 190.821 150.378 188.633 150.413 185.044C150.436 182.767 150.273 180.49 150.25 178.212C150.237 176.918 150.519 175.636 152.043 175.405C153.692 175.156 154.143 176.499 154.32 177.705C154.93 181.957 155.212 186.261 153.897 190.405C152.819 193.805 148.856 195.633 144.554 195.099C142.892 194.887 141.343 194.147 140.133 192.988C138.923 191.829 138.117 190.313 137.833 188.662C137.583 186.669 137.59 184.644 137.482 182.633L137.615 182.634Z" fill="#79BFE2"/>
<path d="M140.186 148.49C138.53 148.602 137.517 147.09 138.244 145.39C139.582 142.256 141.088 139.19 142.515 136.098C143.429 134.113 144.345 132.127 145.228 130.128C145.679 129.106 146.29 128.246 147.482 128.19C148.057 128.136 148.635 128.267 149.13 128.565C149.626 128.863 150.013 129.311 150.236 129.844C152.587 135.111 154.925 140.385 157.207 145.683C157.768 146.983 157.086 147.883 155.843 148.348C155.605 148.476 155.34 148.544 155.07 148.545C154.801 148.547 154.535 148.482 154.296 148.357C154.057 148.232 153.852 148.051 153.699 147.828C153.547 147.606 153.451 147.349 153.421 147.081C152.907 143.364 150.448 143.381 147.655 143.76C146.874 143.882 146.079 143.894 145.294 143.793C143.434 143.51 142.503 144.354 142.194 146.093C142.159 146.655 141.946 147.191 141.584 147.622C141.223 148.053 140.733 148.358 140.186 148.49V148.49ZM147.586 133.796C146.552 135.009 146.446 136.573 145.786 137.881C144.786 139.86 145.386 140.454 147.523 140.451C149.576 140.451 150.597 140.134 149.429 137.884C148.756 136.581 148.645 135.013 147.591 133.796H147.586Z" fill="#79BFE2"/>
<path d="M174.162 130.706C173.983 132.42 172.794 132.706 171.362 132.788C167.492 133.016 167.511 133.041 167.671 136.974C167.792 139.951 167.871 142.931 167.945 145.91C167.983 147.487 167.545 148.743 165.638 148.71C163.804 148.68 163.638 147.41 163.619 145.97C163.58 142.289 163.419 138.607 163.46 134.927C163.478 133.248 162.98 132.516 161.236 132.776C160.536 132.856 159.828 132.831 159.136 132.702C158.647 132.677 158.188 132.46 157.858 132.099C157.527 131.738 157.352 131.261 157.371 130.772C157.328 130.53 157.338 130.282 157.398 130.044C157.458 129.806 157.569 129.583 157.721 129.391C157.874 129.198 158.066 129.041 158.285 128.928C158.503 128.815 158.743 128.75 158.988 128.737C163.443 128.372 167.922 128.386 172.375 128.778C172.867 128.799 173.33 129.014 173.665 129.375C173.999 129.736 174.178 130.214 174.162 130.706V130.706Z" fill="#79BFE2"/>
<path d="M147.591 133.796C148.645 135.013 148.756 136.581 149.433 137.884C150.601 140.134 149.58 140.448 147.527 140.451C145.389 140.451 144.79 139.86 145.79 137.881C146.451 136.573 146.557 135.009 147.591 133.796Z" fill="#FEFEFE"/>
</svg>
